ISO-10303-21;
HEADER;
FILE_DESCRIPTION((''),'2;1');
FILE_NAME('C-L9000081-01','2024-03-12T06:54:40',('workeradm'),(
'TE Connectivity Ltd.'),'CREO PARAMETRIC BY PTC INC, 2021072',
'CREO PARAMETRIC BY PTC INC, 2021072','');
FILE_SCHEMA(('AUTOMOTIVE_DESIGN { 1 0 10303 214 1 1 1 1 }'));
ENDSEC;
DATA;
#134=CARTESIAN_POINT('',(0.E0,0.E0,-3.43E0));
#135=DIRECTION('',(0.E0,0.E0,1.E0));
#136=DIRECTION('',(1.E0,0.E0,0.E0));
#137=AXIS2_PLACEMENT_3D('',#134,#135,#136);
#139=DIRECTION('',(0.E0,0.E0,1.E0));
#140=VECTOR('',#139,2.E-1);
#141=CARTESIAN_POINT('',(-2.295E0,0.E0,-3.63E0));
#142=LINE('',#141,#140);
#143=CARTESIAN_POINT('',(0.E0,0.E0,-3.63E0));
#144=DIRECTION('',(0.E0,0.E0,-1.E0));
#145=DIRECTION('',(-1.E0,0.E0,0.E0));
#146=AXIS2_PLACEMENT_3D('',#143,#144,#145);
#148=CARTESIAN_POINT('',(0.E0,0.E0,-3.63E0));
#149=DIRECTION('',(0.E0,0.E0,-1.E0));
#150=DIRECTION('',(1.E0,0.E0,0.E0));
#151=AXIS2_PLACEMENT_3D('',#148,#149,#150);
#153=CARTESIAN_POINT('',(0.E0,0.E0,-3.63E0));
#154=DIRECTION('',(0.E0,0.E0,-1.E0));
#155=DIRECTION('',(0.E0,1.E0,0.E0));
#156=AXIS2_PLACEMENT_3D('',#153,#154,#155);
#158=CARTESIAN_POINT('',(0.E0,0.E0,-3.63E0));
#159=DIRECTION('',(0.E0,0.E0,-1.E0));
#160=DIRECTION('',(0.E0,-1.E0,0.E0));
#161=AXIS2_PLACEMENT_3D('',#158,#159,#160);
#163=CARTESIAN_POINT('',(0.E0,0.E0,-3.43E0));
#164=DIRECTION('',(0.E0,0.E0,1.E0));
#165=DIRECTION('',(-1.E0,0.E0,0.E0));
#166=AXIS2_PLACEMENT_3D('',#163,#164,#165);
#168=DIRECTION('',(0.E0,0.E0,1.E0));
#169=VECTOR('',#168,2.E-1);
#170=CARTESIAN_POINT('',(2.295E0,0.E0,-3.63E0));
#171=LINE('',#170,#169);
#172=CARTESIAN_POINT('',(0.E0,0.E0,-1.09E0));
#173=DIRECTION('',(0.E0,0.E0,1.E0));
#174=DIRECTION('',(0.E0,-1.E0,0.E0));
#175=AXIS2_PLACEMENT_3D('',#172,#173,#174);
#177=DIRECTION('',(5.504105043425E-12,-7.071067811865E-1,7.071067811865E-1));
#178=VECTOR('',#177,2.828427124743E-1);
#179=CARTESIAN_POINT('',(3.597467294435E-12,-2.679999999999E0,
-1.090000000001E0));
#180=LINE('',#179,#178);
#181=DIRECTION('',(-5.506493373440E-12,7.071067811865E-1,7.071067811865E-1));
#182=VECTOR('',#181,2.828427124743E-1);
#183=CARTESIAN_POINT('',(-3.597984343183E-12,2.679999999999E0,
-1.090000000001E0));
#184=LINE('',#183,#182);
#185=CARTESIAN_POINT('',(0.E0,0.E0,-1.09E0));
#186=DIRECTION('',(0.E0,0.E0,1.E0));
#187=DIRECTION('',(0.E0,1.E0,0.E0));
#188=AXIS2_PLACEMENT_3D('',#185,#186,#187);
#190=DIRECTION('',(1.416658483672E-12,2.101556024566E-13,-1.E0));
#191=VECTOR('',#190,2.539999999999E0);
#192=CARTESIAN_POINT('',(-3.597984343183E-12,2.679999999999E0,
-1.090000000001E0));
#193=LINE('',#192,#191);
#194=DIRECTION('',(-1.416454921172E-12,-2.101556024566E-13,-1.E0));
#195=VECTOR('',#194,2.539999999999E0);
#196=CARTESIAN_POINT('',(3.597467294435E-12,-2.679999999999E0,
-1.090000000001E0));
#197=LINE('',#196,#195);
#198=CARTESIAN_POINT('',(0.E0,0.E0,-8.9E-1));
#199=DIRECTION('',(0.E0,0.E0,1.E0));
#200=DIRECTION('',(1.E0,0.E0,0.E0));
#201=AXIS2_PLACEMENT_3D('',#198,#199,#200);
#203=CARTESIAN_POINT('',(0.E0,0.E0,-8.9E-1));
#204=DIRECTION('',(0.E0,0.E0,1.E0));
#205=DIRECTION('',(-1.E0,0.E0,0.E0));
#206=AXIS2_PLACEMENT_3D('',#203,#204,#205);
#208=CARTESIAN_POINT('',(0.E0,0.E0,-8.9E-1));
#209=DIRECTION('',(0.E0,0.E0,1.E0));
#210=DIRECTION('',(0.E0,-1.E0,0.E0));
#211=AXIS2_PLACEMENT_3D('',#208,#209,#210);
#213=CARTESIAN_POINT('',(0.E0,0.E0,-8.9E-1));
#214=DIRECTION('',(0.E0,0.E0,1.E0));
#215=DIRECTION('',(0.E0,1.E0,0.E0));
#216=AXIS2_PLACEMENT_3D('',#213,#214,#215);
#218=DIRECTION('',(0.E0,0.E0,-1.E0));
#219=VECTOR('',#218,8.9E-1);
#220=CARTESIAN_POINT('',(-3.6E0,0.E0,0.E0));
#221=LINE('',#220,#219);
#222=DIRECTION('',(0.E0,0.E0,-1.E0));
#223=VECTOR('',#222,8.9E-1);
#224=CARTESIAN_POINT('',(3.6E0,0.E0,0.E0));
#225=LINE('',#224,#223);
#226=CARTESIAN_POINT('',(0.E0,0.E0,0.E0));
#227=DIRECTION('',(0.E0,0.E0,-1.E0));
#228=DIRECTION('',(1.E0,0.E0,0.E0));
#229=AXIS2_PLACEMENT_3D('',#226,#227,#228);
#231=CARTESIAN_POINT('',(0.E0,0.E0,0.E0));
#232=DIRECTION('',(0.E0,0.E0,-1.E0));
#233=DIRECTION('',(-1.E0,0.E0,0.E0));
#234=AXIS2_PLACEMENT_3D('',#231,#232,#233);
#236=CARTESIAN_POINT('',(0.E0,0.E0,0.E0));
#237=DIRECTION('',(0.E0,0.E0,-1.E0));
#238=DIRECTION('',(-1.E0,0.E0,0.E0));
#239=AXIS2_PLACEMENT_3D('',#236,#237,#238);
#241=CARTESIAN_POINT('',(0.E0,0.E0,0.E0));
#242=DIRECTION('',(0.E0,0.E0,-1.E0));
#243=DIRECTION('',(1.E0,0.E0,0.E0));
#244=AXIS2_PLACEMENT_3D('',#241,#242,#243);
#246=DIRECTION('',(0.E0,0.E0,-1.E0));
#247=VECTOR('',#246,9.E0);
#248=CARTESIAN_POINT('',(5.E0,0.E0,0.E0));
#249=LINE('',#248,#247);
#250=DIRECTION('',(0.E0,0.E0,-1.E0));
#251=VECTOR('',#250,9.E0);
#252=CARTESIAN_POINT('',(-5.E0,0.E0,0.E0));
#253=LINE('',#252,#251);
#254=CARTESIAN_POINT('',(0.E0,0.E0,-9.E0));
#255=DIRECTION('',(0.E0,0.E0,1.E0));
#256=DIRECTION('',(-1.E0,0.E0,0.E0));
#257=AXIS2_PLACEMENT_3D('',#254,#255,#256);
#259=CARTESIAN_POINT('',(0.E0,0.E0,-9.E0));
#260=DIRECTION('',(0.E0,0.E0,1.E0));
#261=DIRECTION('',(1.E0,0.E0,0.E0));
#262=AXIS2_PLACEMENT_3D('',#259,#260,#261);
#264=CARTESIAN_POINT('',(0.E0,0.E0,-9.E0));
#265=DIRECTION('',(0.E0,0.E0,1.E0));
#266=DIRECTION('',(1.E0,0.E0,0.E0));
#267=AXIS2_PLACEMENT_3D('',#264,#265,#266);
#269=CARTESIAN_POINT('',(0.E0,0.E0,-9.E0));
#270=DIRECTION('',(0.E0,0.E0,1.E0));
#271=DIRECTION('',(-1.E0,0.E0,0.E0));
#272=AXIS2_PLACEMENT_3D('',#269,#270,#271);
#274=DIRECTION('',(0.E0,0.E0,1.E0));
#275=VECTOR('',#274,2.641297203682E1);
#276=CARTESIAN_POINT('',(4.7E0,0.E0,-3.541297203682E1));
#277=LINE('',#276,#275);
#278=DIRECTION('',(0.E0,0.E0,-1.E0));
#279=VECTOR('',#278,2.641297203682E1);
#280=CARTESIAN_POINT('',(-4.7E0,0.E0,-9.E0));
#281=LINE('',#280,#279);
#282=DIRECTION('',(0.E0,0.E0,1.E0));
#283=VECTOR('',#282,8.2E0);
#284=CARTESIAN_POINT('',(2.622975409721E0,3.9E0,-3.08E1));
#285=LINE('',#284,#283);
#286=DIRECTION('',(0.E0,0.E0,-1.E0));
#287=VECTOR('',#286,8.2E0);
#288=CARTESIAN_POINT('',(-2.622975409721E0,3.9E0,-2.26E1));
#289=LINE('',#288,#287);
#290=CARTESIAN_POINT('',(9.53E1,1.167089399587E-14,-3.541297203682E1));
#291=DIRECTION('',(0.E0,1.E0,0.E0));
#292=DIRECTION('',(-9.990482215819E-1,0.E0,-4.361938736533E-2));
#293=AXIS2_PLACEMENT_3D('',#290,#291,#292);
#295=CARTESIAN_POINT('',(-1.078815150232E-14,0.E0,-3.977491077336E1));
#296=DIRECTION('',(0.E0,0.E0,1.E0));
#297=DIRECTION('',(1.E0,0.E0,0.E0));
#298=AXIS2_PLACEMENT_3D('',#295,#296,#297);
#300=CARTESIAN_POINT('',(-1.078815150232E-14,0.E0,-3.541297203682E1));
#301=DIRECTION('',(0.E0,0.E0,-1.E0));
#302=DIRECTION('',(-1.E0,0.E0,0.E0));
#303=AXIS2_PLACEMENT_3D('',#300,#301,#302);
#305=CARTESIAN_POINT('',(-1.078815150232E-14,0.E0,-3.541297203682E1));
#306=DIRECTION('',(0.E0,0.E0,-1.E0));
#307=DIRECTION('',(1.E0,0.E0,0.E0));
#308=AXIS2_PLACEMENT_3D('',#305,#306,#307);
#310=CARTESIAN_POINT('',(-9.53E1,0.E0,-3.541297203682E1));
#311=DIRECTION('',(0.E0,-1.E0,0.E0));
#312=DIRECTION('',(9.990482215819E-1,0.E0,-4.361938736533E-2));
#313=AXIS2_PLACEMENT_3D('',#310,#311,#312);
#315=CARTESIAN_POINT('',(-1.078815150232E-14,0.E0,-3.977491077336E1));
#316=DIRECTION('',(0.E0,0.E0,1.E0));
#317=DIRECTION('',(-1.E0,0.E0,0.E0));
#318=AXIS2_PLACEMENT_3D('',#315,#316,#317);
#320=DIRECTION('',(4.361938736533E-2,0.E0,-9.990482215819E-1));
#321=VECTOR('',#320,1.397645297642E1);
#322=CARTESIAN_POINT('',(-4.604822158186E0,0.E0,-3.977491077336E1));
#323=LINE('',#322,#321);
#324=CARTESIAN_POINT('',(-1.039E2,-1.272407024314E-14,-5.81E1));
#325=DIRECTION('',(0.E0,1.E0,0.E0));
#326=DIRECTION('',(9.990482215819E-1,0.E0,4.361938736533E-2));
#327=AXIS2_PLACEMENT_3D('',#324,#325,#326);
#329=CARTESIAN_POINT('',(0.E0,0.E0,-5.373806126347E1));
#330=DIRECTION('',(0.E0,0.E0,-1.E0));
#331=DIRECTION('',(1.E0,0.E0,0.E0));
#332=AXIS2_PLACEMENT_3D('',#329,#330,#331);
#334=CARTESIAN_POINT('',(0.E0,0.E0,-5.81E1));
#335=DIRECTION('',(0.E0,0.E0,1.E0));
#336=DIRECTION('',(-1.E0,0.E0,0.E0));
#337=AXIS2_PLACEMENT_3D('',#334,#335,#336);
#339=CARTESIAN_POINT('',(0.E0,0.E0,-5.81E1));
#340=DIRECTION('',(0.E0,0.E0,1.E0));
#341=DIRECTION('',(1.E0,0.E0,0.E0));
#342=AXIS2_PLACEMENT_3D('',#339,#340,#341);
#344=CARTESIAN_POINT('',(1.039E2,2.544817048628E-14,-5.81E1));
#345=DIRECTION('',(0.E0,-1.E0,0.E0));
#346=DIRECTION('',(-9.990482215819E-1,0.E0,4.361938736533E-2));
#347=AXIS2_PLACEMENT_3D('',#344,#345,#346);
#349=CARTESIAN_POINT('',(0.E0,0.E0,-5.373806126347E1));
#350=DIRECTION('',(0.E0,0.E0,-1.E0));
#351=DIRECTION('',(-1.E0,0.E0,0.E0));
#352=AXIS2_PLACEMENT_3D('',#349,#350,#351);
#354=DIRECTION('',(0.E0,0.E0,1.E0));
#355=VECTOR('',#354,2.11E1);
#356=CARTESIAN_POINT('',(3.9E0,0.E0,-7.92E1));
#357=LINE('',#356,#355);
#358=DIRECTION('',(0.E0,0.E0,-1.E0));
#359=VECTOR('',#358,2.11E1);
#360=CARTESIAN_POINT('',(-3.9E0,0.E0,-5.81E1));
#361=LINE('',#360,#359);
#362=CARTESIAN_POINT('',(0.E0,0.E0,-7.92E1));
#363=DIRECTION('',(0.E0,0.E0,-1.E0));
#364=DIRECTION('',(1.E0,0.E0,0.E0));
#365=AXIS2_PLACEMENT_3D('',#362,#363,#364);
#367=CARTESIAN_POINT('',(0.E0,0.E0,-7.92E1));
#368=DIRECTION('',(0.E0,-1.090307039623E-14,-1.E0));
#369=DIRECTION('',(-1.E0,0.E0,0.E0));
#370=AXIS2_PLACEMENT_3D('',#367,#368,#369);
#372=DIRECTION('',(-4.361938736533E-2,0.E0,-9.990482215819E-1));
#373=VECTOR('',#372,1.397645297642E1);
#374=CARTESIAN_POINT('',(4.604822158186E0,0.E0,-3.977491077336E1));
#375=LINE('',#374,#373);
#376=DIRECTION('',(-1.E0,0.E0,0.E0));
#377=VECTOR('',#376,2.548837052041E0);
#378=CARTESIAN_POINT('',(4.298837052041E0,1.9E0,-2.06E1));
#379=LINE('',#378,#377);
#380=CARTESIAN_POINT('',(0.E0,0.E0,-2.06E1));
#381=DIRECTION('',(0.E0,0.E0,-1.E0));
#382=DIRECTION('',(-9.146461812853E-1,4.042553191489E-1,0.E0));
#383=AXIS2_PLACEMENT_3D('',#380,#381,#382);
#385=DIRECTION('',(-1.E0,0.E0,0.E0));
#386=VECTOR('',#385,2.548837052041E0);
#387=CARTESIAN_POINT('',(-1.75E0,1.9E0,-2.06E1));
#388=LINE('',#387,#386);
#389=DIRECTION('',(0.E0,-1.E0,0.E0));
#390=VECTOR('',#389,8.000000000001E-1);
#391=CARTESIAN_POINT('',(-1.75E0,2.7E0,-2.06E1));
#392=LINE('',#391,#390);
#393=CARTESIAN_POINT('',(-7.5E-1,2.7E0,-2.06E1));
#394=DIRECTION('',(0.E0,0.E0,1.E0));
#395=DIRECTION('',(0.E0,1.E0,0.E0));
#396=AXIS2_PLACEMENT_3D('',#393,#394,#395);
#398=DIRECTION('',(-1.E0,0.E0,0.E0));
#399=VECTOR('',#398,1.5E0);
#400=CARTESIAN_POINT('',(7.5E-1,3.7E0,-2.06E1));
#401=LINE('',#400,#399);
#402=CARTESIAN_POINT('',(7.5E-1,2.7E0,-2.06E1));
#403=DIRECTION('',(0.E0,0.E0,1.E0));
#404=DIRECTION('',(1.E0,1.154631945610E-14,0.E0));
#405=AXIS2_PLACEMENT_3D('',#402,#403,#404);
#407=DIRECTION('',(0.E0,1.E0,0.E0));
#408=VECTOR('',#407,8.000000000001E-1);
#409=CARTESIAN_POINT('',(1.75E0,1.9E0,-2.06E1));
#410=LINE('',#409,#408);
#411=DIRECTION('',(-1.E0,0.E0,0.E0));
#412=VECTOR('',#411,8.729754097208E-1);
#413=CARTESIAN_POINT('',(2.622975409721E0,3.9E0,-2.26E1));
#414=LINE('',#413,#412);
#415=CARTESIAN_POINT('',(4.298837052041E0,1.9E0,-2.06E1));
#416=CARTESIAN_POINT('',(4.289278620231E0,1.921626389908E0,-2.06E1));
#417=CARTESIAN_POINT('',(4.269709457432E0,1.965019576832E0,-2.060070165131E1));
#418=CARTESIAN_POINT('',(4.238987245655E0,2.030455627692E0,-2.060389848301E1));
#419=CARTESIAN_POINT('',(4.206887599856E0,2.096162547056E0,-2.060927734302E1));
#420=CARTESIAN_POINT('',(4.173423675741E0,2.162030285898E0,-2.061686709962E1));
#421=CARTESIAN_POINT('',(4.138521912674E0,2.228120099150E0,-2.062671920321E1));
#422=CARTESIAN_POINT('',(4.102180390911E0,2.294349000415E0,-2.063887497732E1));
#423=CARTESIAN_POINT('',(4.064410305821E0,2.360619817013E0,-2.065336841522E1));
#424=CARTESIAN_POINT('',(4.025205705273E0,2.426873317936E0,-2.067023925376E1));
#425=CARTESIAN_POINT('',(3.984519056916E0,2.493118640034E0,-2.068955199107E1));
#426=CARTESIAN_POINT('',(3.942392383226E0,2.559219415943E0,-2.071133468571E1));
#427=CARTESIAN_POINT('',(3.898878796949E0,2.625039801669E0,-2.073560400750E1));
#428=CARTESIAN_POINT('',(3.853951864428E0,2.690570969435E0,-2.076242442216E1));
#429=CARTESIAN_POINT('',(3.807668545708E0,2.755684357691E0,-2.079181870005E1));
#430=CARTESIAN_POINT('',(3.760120301200E0,2.820220088136E0,-2.082378588762E1));
#431=CARTESIAN_POINT('',(3.711395807478E0,2.884041195498E0,-2.085832468748E1));
#432=CARTESIAN_POINT('',(3.661536961195E0,2.947083015177E0,-2.089547228163E1));
#433=CARTESIAN_POINT('',(3.610722617442E0,3.009122073759E0,-2.093516803080E1));
#434=CARTESIAN_POINT('',(3.559140569614E0,3.069955256205E0,-2.097733546901E1));
#435=CARTESIAN_POINT('',(3.506914787828E0,3.129475831053E0,-2.102195036045E1));
#436=CARTESIAN_POINT('',(3.454276844580E0,3.187473559508E0,-2.106889901648E1));
#437=CARTESIAN_POINT('',(3.401519226453E0,3.243703271344E0,-2.111800268214E1));
#438=CARTESIAN_POINT('',(3.348933502907E0,3.297954715700E0,-2.116906723985E1));
#439=CARTESIAN_POINT('',(3.296739845804E0,3.350115129910E0,-2.122195950815E1));
#440=CARTESIAN_POINT('',(3.245309095861E0,3.399944104366E0,-2.127638166872E1));
#441=CARTESIAN_POINT('',(3.195001209244E0,3.447244273127E0,-2.133201339022E1));
#442=CARTESIAN_POINT('',(3.146118224473E0,3.491895736643E0,-2.138856555608E1));
#443=CARTESIAN_POINT('',(3.098901687796E0,3.533846421975E0,-2.144579265183E1));
#444=CARTESIAN_POINT('',(3.053649257329E0,3.573002939948E0,-2.150335038044E1));
#445=CARTESIAN_POINT('',(3.010637543419E0,3.609300560483E0,-2.156086745148E1));
#446=CARTESIAN_POINT('',(2.969972823897E0,3.642818164899E0,-2.161815677837E1));
#447=CARTESIAN_POINT('',(2.931764339795E0,3.673622391950E0,-2.167500358020E1));
#448=CARTESIAN_POINT('',(2.896110357413E0,3.701780404575E0,-2.173117095718E1));
#449=CARTESIAN_POINT('',(2.863037800010E0,3.727405236221E0,-2.178649346628E1));
#450=CARTESIAN_POINT('',(2.832481944987E0,3.750665923120E0,-2.184094150461E1));
#451=CARTESIAN_POINT('',(2.804414833256E0,3.771687871347E0,-2.189441440702E1));
#452=CARTESIAN_POINT('',(2.778783726916E0,3.790602460198E0,-2.194683243262E1));
#453=CARTESIAN_POINT('',(2.755455006183E0,3.807586849129E0,-2.199828248085E1));
#454=CARTESIAN_POINT('',(2.734350393447E0,3.822764627136E0,-2.204874994951E1));
#455=CARTESIAN_POINT('',(2.715382512705E0,3.836255773082E0,-2.209823530409E1));
#456=CARTESIAN_POINT('',(2.698439031334E0,3.848188315175E0,-2.214681406196E1));
#457=CARTESIAN_POINT('',(2.683405655355E0,3.858682693768E0,-2.219460733188E1));
#458=CARTESIAN_POINT('',(2.670213216809E0,3.867820509708E0,-2.224162717416E1));
#459=CARTESIAN_POINT('',(2.658785174428E0,3.875682655124E0,-2.228790983014E1));
#460=CARTESIAN_POINT('',(2.649022392799E0,3.882360013228E0,-2.233363515607E1));
#461=CARTESIAN_POINT('',(2.640870680119E0,3.887907952656E0,-2.237885579637E1));
#462=CARTESIAN_POINT('',(2.634281745782E0,3.892374079211E0,-2.242361489153E1));
#463=CARTESIAN_POINT('',(2.629208576811E0,3.895801739189E0,-2.246797499183E1));
#464=CARTESIAN_POINT('',(2.625604292307E0,3.898231129470E0,-2.251213280360E1));
#465=CARTESIAN_POINT('',(2.623452163194E0,3.899679419118E0,-2.255611409835E1));
#466=CARTESIAN_POINT('',(2.622975409721E0,3.9E0,-2.258538645300E1));
#467=CARTESIAN_POINT('',(2.622975409721E0,3.9E0,-2.26E1));
#469=CARTESIAN_POINT('',(1.75E0,1.9E0,-2.26E1));
#470=DIRECTION('',(-1.E0,0.E0,0.E0));
#471=DIRECTION('',(0.E0,0.E0,1.E0));
#472=AXIS2_PLACEMENT_3D('',#469,#470,#471);
#474=DIRECTION('',(0.E0,0.E0,-1.E0));
#475=VECTOR('',#474,5.333030277982E0);
#476=CARTESIAN_POINT('',(1.75E0,2.7E0,-2.076696972202E1));
#477=LINE('',#476,#475);
#478=DIRECTION('',(0.E0,-3.457608755819E-14,-1.E0));
#479=VECTOR('',#478,1.669697220177E-1);
#480=CARTESIAN_POINT('',(1.75E0,2.7E0,-2.06E1));
#481=LINE('',#480,#479);
#482=DIRECTION('',(0.E0,0.E0,1.E0));
#483=VECTOR('',#482,5.5E0);
#484=CARTESIAN_POINT('',(7.5E-1,3.7E0,-2.61E1));
#485=LINE('',#484,#483);
#486=DIRECTION('',(0.E0,0.E0,-1.E0));
#487=VECTOR('',#486,4.999999999997E-2);
#488=CARTESIAN_POINT('',(1.75E0,-2.E-1,-2.9E1));
#489=LINE('',#488,#487);
#490=CARTESIAN_POINT('',(1.75E0,1.9E0,-2.26E1));
#491=DIRECTION('',(-1.E0,0.E0,0.E0));
#492=DIRECTION('',(0.E0,4.E-1,9.165151389912E-1));
#493=AXIS2_PLACEMENT_3D('',#490,#491,#492);
#495=CARTESIAN_POINT('',(7.5E-1,-2.E-1,-2.9E1));
#496=DIRECTION('',(0.E0,1.E0,0.E0));
#497=DIRECTION('',(1.E0,0.E0,-2.486899575160E-14));
#498=AXIS2_PLACEMENT_3D('',#495,#496,#497);
#500=CARTESIAN_POINT('',(1.75E0,-2.E-1,-2.61E1));
#501=DIRECTION('',(-1.E0,0.E0,0.E0));
#502=DIRECTION('',(0.E0,1.E0,0.E0));
#503=AXIS2_PLACEMENT_3D('',#500,#501,#502);
#505=CARTESIAN_POINT('',(7.5E-1,2.7E0,-2.61E1));
#506=DIRECTION('',(0.E0,0.E0,-1.E0));
#507=DIRECTION('',(0.E0,1.E0,0.E0));
#508=AXIS2_PLACEMENT_3D('',#505,#506,#507);
#510=CARTESIAN_POINT('',(7.5E-1,-2.E-1,-2.61E1));
#511=DIRECTION('',(-1.E0,0.E0,0.E0));
#512=DIRECTION('',(0.E0,1.E0,0.E0));
#513=AXIS2_PLACEMENT_3D('',#510,#511,#512);
#515=DIRECTION('',(1.E0,0.E0,0.E0));
#516=VECTOR('',#515,1.5E0);
#517=CARTESIAN_POINT('',(-7.5E-1,-2.E-1,-3.E1));
#518=LINE('',#517,#516);
#519=DIRECTION('',(1.E0,0.E0,0.E0));
#520=VECTOR('',#519,1.5E0);
#521=CARTESIAN_POINT('',(-7.5E-1,3.7E0,-2.61E1));
#522=LINE('',#521,#520);
#523=DIRECTION('',(0.E0,0.E0,1.E0));
#524=VECTOR('',#523,5.333030277982E0);
#525=CARTESIAN_POINT('',(-1.75E0,2.7E0,-2.61E1));
#526=LINE('',#525,#524);
#527=DIRECTION('',(0.E0,0.E0,-1.E0));
#528=VECTOR('',#527,5.5E0);
#529=CARTESIAN_POINT('',(-7.5E-1,3.7E0,-2.06E1));
#530=LINE('',#529,#528);
#531=DIRECTION('',(0.E0,2.127759234350E-14,1.E0));
#532=VECTOR('',#531,1.669697220177E-1);
#533=CARTESIAN_POINT('',(-1.75E0,2.7E0,-2.076696972202E1));
#534=LINE('',#533,#532);
#535=DIRECTION('',(-1.776356839402E-14,-1.276756478320E-14,1.E0));
#536=VECTOR('',#535,4.999999999995E-2);
#537=CARTESIAN_POINT('',(-1.75E0,-2.E-1,-2.905E1));
#538=LINE('',#537,#536);
#539=CARTESIAN_POINT('',(-1.75E0,1.9E0,-2.26E1));
#540=DIRECTION('',(1.E0,0.E0,0.E0));
#541=DIRECTION('',(0.E0,1.E0,0.E0));
#542=AXIS2_PLACEMENT_3D('',#539,#540,#541);
#544=CARTESIAN_POINT('',(-7.5E-1,-2.E-1,-2.9E1));
#545=DIRECTION('',(0.E0,-1.E0,1.078060571632E-14));
#546=DIRECTION('',(-1.E0,0.E0,3.552713678801E-14));
#547=AXIS2_PLACEMENT_3D('',#544,#545,#546);
#549=CARTESIAN_POINT('',(-7.5E-1,-2.E-1,-2.61E1));
#550=DIRECTION('',(-1.E0,0.E0,0.E0));
#551=DIRECTION('',(0.E0,1.E0,0.E0));
#552=AXIS2_PLACEMENT_3D('',#549,#550,#551);
#554=CARTESIAN_POINT('',(-7.5E-1,2.7E0,-2.61E1));
#555=DIRECTION('',(0.E0,0.E0,-1.E0));
#556=DIRECTION('',(-1.E0,0.E0,0.E0));
#557=AXIS2_PLACEMENT_3D('',#554,#555,#556);
#559=CARTESIAN_POINT('',(-1.75E0,-2.E-1,-2.61E1));
#560=DIRECTION('',(-1.E0,0.E0,0.E0));
#561=DIRECTION('',(0.E0,1.E0,0.E0));
#562=AXIS2_PLACEMENT_3D('',#559,#560,#561);
#564=CARTESIAN_POINT('',(-2.622975409721E0,3.9E0,-2.26E1));
#565=CARTESIAN_POINT('',(-2.622975409721E0,3.9E0,-2.258538645099E1));
#566=CARTESIAN_POINT('',(-2.623452163322E0,3.899679419032E0,-2.255611409801E1));
#567=CARTESIAN_POINT('',(-2.625604291365E0,3.898231130104E0,-2.251213282301E1));
#568=CARTESIAN_POINT('',(-2.629208571761E0,3.895801742595E0,-2.246797504763E1));
#569=CARTESIAN_POINT('',(-2.634281734186E0,3.892374087053E0,-2.242361498288E1));
#570=CARTESIAN_POINT('',(-2.640870660704E0,3.887907965837E0,-2.237885591665E1));
#571=CARTESIAN_POINT('',(-2.649022361731E0,3.882360034402E0,-2.233363531806E1));
#572=CARTESIAN_POINT('',(-2.658785118767E0,3.875682693285E0,-2.228791007390E1));
#573=CARTESIAN_POINT('',(-2.670213154195E0,3.867820552928E0,-2.224162741053E1));
#574=CARTESIAN_POINT('',(-2.683405588876E0,3.858682739998E0,-2.219460755470E1));
#575=CARTESIAN_POINT('',(-2.698438956755E0,3.848188367418E0,-2.214681428843E1));
#576=CARTESIAN_POINT('',(-2.715382408370E0,3.836255846904E0,-2.209823558926E1));
#577=CARTESIAN_POINT('',(-2.734350298628E0,3.822764694987E0,-2.204875018459E1));
#578=CARTESIAN_POINT('',(-2.755454906166E0,3.807586921447E0,-2.199828271109E1));
#579=CARTESIAN_POINT('',(-2.778783605225E0,3.790602549371E0,-2.194683269083E1));
#580=CARTESIAN_POINT('',(-2.804414719172E0,3.771687956232E0,-2.189441463080E1));
#581=CARTESIAN_POINT('',(-2.832481851579E0,3.750665993767E0,-2.184094167535E1));
#582=CARTESIAN_POINT('',(-2.863037722904E0,3.727405295402E0,-2.178649359934E1));
#583=CARTESIAN_POINT('',(-2.896110283274E0,3.701780462890E0,-2.173117107532E1));
#584=CARTESIAN_POINT('',(-2.931764373498E0,3.673622365546E0,-2.167500352608E1));
#585=CARTESIAN_POINT('',(-2.969972879718E0,3.642818119208E0,-2.161815669847E1));
#586=CARTESIAN_POINT('',(-3.010637586578E0,3.609300524881E0,-2.156086739089E1));
#587=CARTESIAN_POINT('',(-3.053649417135E0,3.573002804101E0,-2.150335016999E1));
#588=CARTESIAN_POINT('',(-3.098901888283E0,3.533846246229E0,-2.144579240316E1));
#589=CARTESIAN_POINT('',(-3.146118380033E0,3.491895595440E0,-2.138856537427E1));
#590=CARTESIAN_POINT('',(-3.195001233702E0,3.447244250222E0,-2.133201336308E1));
#591=CARTESIAN_POINT('',(-3.245309187706E0,3.399944017152E0,-2.127638156862E1));
#592=CARTESIAN_POINT('',(-3.296739895130E0,3.350115080495E0,-2.122195945844E1));
#593=CARTESIAN_POINT('',(-3.348933459865E0,3.297954758348E0,-2.116906728388E1));
#594=CARTESIAN_POINT('',(-3.401519111181E0,3.243703391992E0,-2.111800279196E1));
#595=CARTESIAN_POINT('',(-3.454276763253E0,3.187473648278E0,-2.106889908988E1));
#596=CARTESIAN_POINT('',(-3.506914723078E0,3.129475903005E0,-2.102195041756E1));
#597=CARTESIAN_POINT('',(-3.559140436324E0,3.069955410399E0,-2.097733558071E1));
#598=CARTESIAN_POINT('',(-3.610722520595E0,3.009122190532E0,-2.093516810770E1));
#599=CARTESIAN_POINT('',(-3.661536878535E0,2.947083117875E0,-2.089547234471E1));
#600=CARTESIAN_POINT('',(-3.711395717111E0,2.884041311333E0,-2.085832475353E1));
#601=CARTESIAN_POINT('',(-3.760120182946E0,2.820220245805E0,-2.082378596928E1));
#602=CARTESIAN_POINT('',(-3.807668462167E0,2.755684473697E0,-2.079181875424E1));
#603=CARTESIAN_POINT('',(-3.853951790009E0,2.690571075681E0,-2.076242446828E1));
#604=CARTESIAN_POINT('',(-3.898878699926E0,2.625039945680E0,-2.073560406360E1));
#605=CARTESIAN_POINT('',(-3.942392307353E0,2.559219533257E0,-2.071133472619E1));
#606=CARTESIAN_POINT('',(-3.984518995947E0,2.493118737640E0,-2.068955202120E1));
#607=CARTESIAN_POINT('',(-4.025205648047E0,2.426873412654E0,-2.067023927981E1));
#608=CARTESIAN_POINT('',(-4.064410239878E0,2.360619930657E0,-2.065336844201E1));
#609=CARTESIAN_POINT('',(-4.102180346568E0,2.294349080116E0,-2.063887499296E1));
#610=CARTESIAN_POINT('',(-4.138521875043E0,2.228120168994E0,-2.062671921487E1));
#611=CARTESIAN_POINT('',(-4.173423637778E0,2.162030359255E0,-2.061686710925E1));
#612=CARTESIAN_POINT('',(-4.206887572637E0,2.096162602061E0,-2.060927734812E1));
#613=CARTESIAN_POINT('',(-4.238987233650E0,2.030455653086E0,-2.060389848439E1));
#614=CARTESIAN_POINT('',(-4.269709453731E0,1.965019585041E0,-2.060070165144E1));
#615=CARTESIAN_POINT('',(-4.289278619482E0,1.921626391601E0,-2.06E1));
#616=CARTESIAN_POINT('',(-4.298837052041E0,1.9E0,-2.06E1));
#618=DIRECTION('',(-1.E0,0.E0,0.E0));
#619=VECTOR('',#618,8.729754097208E-1);
#620=CARTESIAN_POINT('',(-1.75E0,3.9E0,-2.26E1));
#621=LINE('',#620,#619);
#622=DIRECTION('',(0.E0,0.E0,-1.E0));
#623=VECTOR('',#622,6.45E0);
#624=CARTESIAN_POINT('',(-1.75E0,3.9E0,-2.26E1));
#625=LINE('',#624,#623);
#626=CARTESIAN_POINT('',(0.E0,3.9E0,-2.905E1));
#627=DIRECTION('',(0.E0,-1.E0,0.E0));
#628=DIRECTION('',(-1.E0,0.E0,-1.218073261303E-14));
#629=AXIS2_PLACEMENT_3D('',#626,#627,#628);
#631=CARTESIAN_POINT('',(2.622975409721E0,3.9E0,-3.08E1));
#632=CARTESIAN_POINT('',(2.404394125577E0,4.047008547009E0,-3.094700854701E1));
#633=CARTESIAN_POINT('',(1.967231557291E0,4.288620888463E0,-3.118862088846E1));
#634=CARTESIAN_POINT('',(1.092906420717E0,4.610792016328E0,-3.151079201633E1));
#635=CARTESIAN_POINT('',(0.E0,4.759471989115E0,-3.165947198911E1));
#636=CARTESIAN_POINT('',(-1.092906420717E0,4.610792016328E0,-3.151079201633E1));
#637=CARTESIAN_POINT('',(-1.967231557291E0,4.288620888463E0,-3.118862088846E1));
#638=CARTESIAN_POINT('',(-2.404394125577E0,4.047008547009E0,-3.094700854701E1));
#639=CARTESIAN_POINT('',(-2.622975409721E0,3.9E0,-3.08E1));
#641=DIRECTION('',(1.E0,0.E0,0.E0));
#642=VECTOR('',#641,2.622975409721E0);
#643=CARTESIAN_POINT('',(0.E0,3.9E0,-3.08E1));
#644=LINE('',#643,#642);
#645=DIRECTION('',(1.E0,0.E0,0.E0));
#646=VECTOR('',#645,2.622975409721E0);
#647=CARTESIAN_POINT('',(-2.622975409721E0,3.9E0,-3.08E1));
#648=LINE('',#647,#646);
#649=CARTESIAN_POINT('',(0.E0,3.9E0,-2.905E1));
#650=DIRECTION('',(0.E0,-1.E0,0.E0));
#651=DIRECTION('',(0.E0,0.E0,-1.E0));
#652=AXIS2_PLACEMENT_3D('',#649,#650,#651);
#654=DIRECTION('',(0.E0,0.E0,1.E0));
#655=VECTOR('',#654,6.45E0);
#656=CARTESIAN_POINT('',(1.75E0,3.9E0,-2.905E1));
#657=LINE('',#656,#655);
#658=CARTESIAN_POINT('',(0.E0,-2.E-1,-2.905E1));
#659=DIRECTION('',(0.E0,-1.E0,0.E0));
#660=DIRECTION('',(-1.E0,0.E0,2.639158732823E-14));
#661=AXIS2_PLACEMENT_3D('',#658,#659,#660);
#663=DIRECTION('',(0.E0,-1.E0,0.E0));
#664=VECTOR('',#663,4.1E0);
#665=CARTESIAN_POINT('',(-1.75E0,3.9E0,-2.905E1));
#666=LINE('',#665,#664);
#667=DIRECTION('',(0.E0,1.E0,0.E0));
#668=VECTOR('',#667,4.1E0);
#669=CARTESIAN_POINT('',(1.75E0,-2.E-1,-2.905E1));
#670=LINE('',#669,#668);
#671=CARTESIAN_POINT('',(-1.75E0,1.9E0,-2.26E1));
#672=DIRECTION('',(-1.E0,0.E0,0.E0));
#673=DIRECTION('',(0.E0,0.E0,1.E0));
#674=AXIS2_PLACEMENT_3D('',#671,#672,#673);
#676=CARTESIAN_POINT('',(-7.5E-1,3.7E0,-2.06E1));
#677=CARTESIAN_POINT('',(-1.75E0,2.7E0,-2.06E1));
#678=VERTEX_POINT('',#676);
#679=VERTEX_POINT('',#677);
#680=CARTESIAN_POINT('',(-4.7E0,0.E0,-9.E0));
#681=CARTESIAN_POINT('',(4.7E0,0.E0,-9.E0));
#682=VERTEX_POINT('',#680);
#683=VERTEX_POINT('',#681);
#684=CARTESIAN_POINT('',(7.5E-1,3.7E0,-2.61E1));
#685=CARTESIAN_POINT('',(7.5E-1,3.7E0,-2.06E1));
#686=VERTEX_POINT('',#684);
#687=VERTEX_POINT('',#685);
#688=CARTESIAN_POINT('',(-7.5E-1,3.7E0,-2.61E1));
#689=VERTEX_POINT('',#688);
#690=CARTESIAN_POINT('',(1.75E0,2.7E0,-2.06E1));
#691=VERTEX_POINT('',#690);
#692=CARTESIAN_POINT('',(-3.6E0,0.E0,-8.9E-1));
#693=CARTESIAN_POINT('',(3.6E0,0.E0,-8.9E-1));
#694=VERTEX_POINT('',#692);
#695=VERTEX_POINT('',#693);
#696=CARTESIAN_POINT('',(3.6E0,0.E0,0.E0));
#697=CARTESIAN_POINT('',(-3.6E0,0.E0,0.E0));
#698=VERTEX_POINT('',#696);
#699=VERTEX_POINT('',#697);
#700=CARTESIAN_POINT('',(2.295E0,0.E0,-3.43E0));
#701=CARTESIAN_POINT('',(-2.295E0,0.E0,-3.43E0));
#702=VERTEX_POINT('',#700);
#703=VERTEX_POINT('',#701);
#704=CARTESIAN_POINT('',(-2.295E0,0.E0,-3.63E0));
#705=CARTESIAN_POINT('',(2.295E0,0.E0,-3.63E0));
#706=VERTEX_POINT('',#704);
#707=VERTEX_POINT('',#705);
#708=CARTESIAN_POINT('',(-3.995177841814E0,0.E0,-5.373806126347E1));
#709=CARTESIAN_POINT('',(3.995177841814E0,0.E0,-5.373806126347E1));
#710=VERTEX_POINT('',#708);
#711=VERTEX_POINT('',#709);
#712=CARTESIAN_POINT('',(3.9E0,0.E0,-5.81E1));
#713=CARTESIAN_POINT('',(-3.9E0,0.E0,-5.81E1));
#714=VERTEX_POINT('',#712);
#715=VERTEX_POINT('',#713);
#716=CARTESIAN_POINT('',(4.604822158186E0,0.E0,-3.977491077336E1));
#717=CARTESIAN_POINT('',(4.7E0,0.E0,-3.541297203682E1));
#718=VERTEX_POINT('',#716);
#719=VERTEX_POINT('',#717);
#720=VERTEX_POINT('',#631);
#721=VERTEX_POINT('',#639);
#722=CARTESIAN_POINT('',(0.E0,3.9E0,-3.08E1));
#723=CARTESIAN_POINT('',(1.75E0,3.9E0,-2.905E1));
#724=VERTEX_POINT('',#722);
#725=VERTEX_POINT('',#723);
#726=CARTESIAN_POINT('',(-1.75E0,3.9E0,-2.26E1));
#727=CARTESIAN_POINT('',(-1.75E0,3.9E0,-2.905E1));
#728=VERTEX_POINT('',#726);
#729=VERTEX_POINT('',#727);
#730=CARTESIAN_POINT('',(-4.604822158186E0,0.E0,-3.977491077336E1));
#731=CARTESIAN_POINT('',(-4.7E0,0.E0,-3.541297203682E1));
#732=VERTEX_POINT('',#730);
#733=VERTEX_POINT('',#731);
#734=CARTESIAN_POINT('',(1.75E0,3.9E0,-2.26E1));
#735=VERTEX_POINT('',#734);
#736=CARTESIAN_POINT('',(2.622975409721E0,3.9E0,-2.26E1));
#737=VERTEX_POINT('',#736);
#738=CARTESIAN_POINT('',(-2.622975409721E0,3.9E0,-2.26E1));
#739=VERTEX_POINT('',#738);
#740=CARTESIAN_POINT('',(-3.9E0,0.E0,-7.92E1));
#741=CARTESIAN_POINT('',(3.9E0,0.E0,-7.92E1));
#742=VERTEX_POINT('',#740);
#743=VERTEX_POINT('',#741);
#744=CARTESIAN_POINT('',(1.75E0,2.7E0,-2.076696972202E1));
#745=CARTESIAN_POINT('',(1.75E0,2.7E0,-2.61E1));
#746=VERTEX_POINT('',#744);
#747=VERTEX_POINT('',#745);
#748=CARTESIAN_POINT('',(4.298837052041E0,1.9E0,-2.06E1));
#749=CARTESIAN_POINT('',(1.75E0,1.9E0,-2.06E1));
#750=VERTEX_POINT('',#748);
#751=VERTEX_POINT('',#749);
#752=CARTESIAN_POINT('',(-1.75E0,1.9E0,-2.06E1));
#753=CARTESIAN_POINT('',(-4.298837052041E0,1.9E0,-2.06E1));
#754=VERTEX_POINT('',#752);
#755=VERTEX_POINT('',#753);
#756=CARTESIAN_POINT('',(-1.75E0,2.7E0,-2.61E1));
#757=CARTESIAN_POINT('',(-1.75E0,2.7E0,-2.076696972202E1));
#758=VERTEX_POINT('',#756);
#759=VERTEX_POINT('',#757);
#760=CARTESIAN_POINT('',(1.75E0,-2.E-1,-2.9E1));
#761=CARTESIAN_POINT('',(7.5E-1,-2.E-1,-3.E1));
#762=VERTEX_POINT('',#760);
#763=VERTEX_POINT('',#761);
#764=CARTESIAN_POINT('',(-1.75E0,-2.E-1,-2.9E1));
#765=CARTESIAN_POINT('',(-7.5E-1,-2.E-1,-3.E1));
#766=VERTEX_POINT('',#764);
#767=VERTEX_POINT('',#765);
#768=CARTESIAN_POINT('',(-1.75E0,-2.E-1,-2.905E1));
#769=CARTESIAN_POINT('',(1.75E0,-2.E-1,-2.905E1));
#770=VERTEX_POINT('',#768);
#771=VERTEX_POINT('',#769);
#772=CARTESIAN_POINT('',(5.E0,0.E0,0.E0));
#773=CARTESIAN_POINT('',(5.E0,0.E0,-9.E0));
#774=VERTEX_POINT('',#772);
#775=VERTEX_POINT('',#773);
#776=CARTESIAN_POINT('',(-5.E0,0.E0,0.E0));
#777=CARTESIAN_POINT('',(-5.E0,0.E0,-9.E0));
#778=VERTEX_POINT('',#776);
#779=VERTEX_POINT('',#777);
#780=CARTESIAN_POINT('',(0.E0,2.68E0,-3.63E0));
#781=CARTESIAN_POINT('',(0.E0,-2.68E0,-3.63E0));
#782=VERTEX_POINT('',#780);
#783=VERTEX_POINT('',#781);
#784=CARTESIAN_POINT('',(0.E0,-2.68E0,-1.09E0));
#785=CARTESIAN_POINT('',(0.E0,2.68E0,-1.09E0));
#786=VERTEX_POINT('',#784);
#787=VERTEX_POINT('',#785);
#788=CARTESIAN_POINT('',(0.E0,-2.88E0,-8.9E-1));
#789=CARTESIAN_POINT('',(0.E0,2.88E0,-8.9E-1));
#790=VERTEX_POINT('',#788);
#791=VERTEX_POINT('',#789);
#792=CARTESIAN_POINT('',(0.E0,0.E0,-3.43E0));
#793=DIRECTION('',(0.E0,0.E0,1.E0));
#794=DIRECTION('',(0.E0,1.E0,0.E0));
#795=AXIS2_PLACEMENT_3D('',#792,#793,#794);
#796=PLANE('',#795);
#798=ORIENTED_EDGE('',*,*,#797,.F.);
#800=ORIENTED_EDGE('',*,*,#799,.F.);
#801=EDGE_LOOP('',(#798,#800));
#802=FACE_OUTER_BOUND('',#801,.F.);
#804=CARTESIAN_POINT('',(0.E0,0.E0,-3.43E0));
#805=DIRECTION('',(0.E0,0.E0,-1.E0));
#806=DIRECTION('',(1.E0,0.E0,0.E0));
#807=AXIS2_PLACEMENT_3D('',#804,#805,#806);
#808=CYLINDRICAL_SURFACE('',#807,2.295E0);
#810=ORIENTED_EDGE('',*,*,#809,.T.);
#812=ORIENTED_EDGE('',*,*,#811,.T.);
#813=ORIENTED_EDGE('',*,*,#797,.T.);
#815=ORIENTED_EDGE('',*,*,#814,.F.);
#816=EDGE_LOOP('',(#810,#812,#813,#815));
#817=FACE_OUTER_BOUND('',#816,.F.);
#819=CARTESIAN_POINT('',(0.E0,0.E0,-3.63E0));
#820=DIRECTION('',(0.E0,0.E0,1.E0));
#821=DIRECTION('',(-1.E0,0.E0,0.E0));
#822=AXIS2_PLACEMENT_3D('',#819,#820,#821);
#823=PLANE('',#822);
#825=ORIENTED_EDGE('',*,*,#824,.T.);
#827=ORIENTED_EDGE('',*,*,#826,.T.);
#828=EDGE_LOOP('',(#825,#827));
#829=FACE_OUTER_BOUND('',#828,.F.);
#830=ORIENTED_EDGE('',*,*,#809,.F.);
#832=ORIENTED_EDGE('',*,*,#831,.F.);
#833=EDGE_LOOP('',(#830,#832));
#834=FACE_BOUND('',#833,.F.);
#836=CARTESIAN_POINT('',(0.E0,0.E0,-3.43E0));
#837=DIRECTION('',(0.E0,0.E0,-1.E0));
#838=DIRECTION('',(1.E0,0.E0,0.E0));
#839=AXIS2_PLACEMENT_3D('',#836,#837,#838);
#840=CYLINDRICAL_SURFACE('',#839,2.295E0);
#841=ORIENTED_EDGE('',*,*,#831,.T.);
#842=ORIENTED_EDGE('',*,*,#814,.T.);
#843=ORIENTED_EDGE('',*,*,#799,.T.);
#844=ORIENTED_EDGE('',*,*,#811,.F.);
#845=EDGE_LOOP('',(#841,#842,#843,#844));
#846=FACE_OUTER_BOUND('',#845,.F.);
#848=CARTESIAN_POINT('',(0.E0,0.E0,-7.53E-1));
#849=DIRECTION('',(0.E0,0.E0,-1.E0));
#850=DIRECTION('',(0.E0,-1.E0,0.E0));
#851=AXIS2_PLACEMENT_3D('',#848,#849,#850);
#852=CYLINDRICAL_SURFACE('',#851,2.68E0);
#854=ORIENTED_EDGE('',*,*,#853,.F.);
#856=ORIENTED_EDGE('',*,*,#855,.T.);
#857=ORIENTED_EDGE('',*,*,#824,.F.);
#859=ORIENTED_EDGE('',*,*,#858,.F.);
#860=EDGE_LOOP('',(#854,#856,#857,#859));
#861=FACE_OUTER_BOUND('',#860,.F.);
#863=CARTESIAN_POINT('',(0.E0,0.E0,-9.900000000006E-1));
#864=DIRECTION('',(0.E0,0.E0,1.E0));
#865=DIRECTION('',(0.E0,-1.E0,0.E0));
#866=AXIS2_PLACEMENT_3D('',#863,#864,#865);
#867=CONICAL_SURFACE('',#866,2.779999999999E0,4.5E1);
#868=ORIENTED_EDGE('',*,*,#853,.T.);
#870=ORIENTED_EDGE('',*,*,#869,.T.);
#872=ORIENTED_EDGE('',*,*,#871,.F.);
#874=ORIENTED_EDGE('',*,*,#873,.F.);
#875=EDGE_LOOP('',(#868,#870,#872,#874));
#876=FACE_OUTER_BOUND('',#875,.F.);
#878=CARTESIAN_POINT('',(0.E0,0.E0,-9.900000000006E-1));
#879=DIRECTION('',(0.E0,0.E0,1.E0));
#880=DIRECTION('',(0.E0,-1.E0,0.E0));
#881=AXIS2_PLACEMENT_3D('',#878,#879,#880);
#882=CONICAL_SURFACE('',#881,2.779999999999E0,4.5E1);
#884=ORIENTED_EDGE('',*,*,#883,.T.);
#885=ORIENTED_EDGE('',*,*,#873,.T.);
#887=ORIENTED_EDGE('',*,*,#886,.F.);
#888=ORIENTED_EDGE('',*,*,#869,.F.);
#889=EDGE_LOOP('',(#884,#885,#887,#888));
#890=FACE_OUTER_BOUND('',#889,.F.);
#892=CARTESIAN_POINT('',(0.E0,0.E0,-7.53E-1));
#893=DIRECTION('',(0.E0,0.E0,-1.E0));
#894=DIRECTION('',(0.E0,-1.E0,0.E0));
#895=AXIS2_PLACEMENT_3D('',#892,#893,#894);
#896=CYLINDRICAL_SURFACE('',#895,2.68E0);
#897=ORIENTED_EDGE('',*,*,#883,.F.);
#898=ORIENTED_EDGE('',*,*,#858,.T.);
#899=ORIENTED_EDGE('',*,*,#826,.F.);
#900=ORIENTED_EDGE('',*,*,#855,.F.);
#901=EDGE_LOOP('',(#897,#898,#899,#900));
#902=FACE_OUTER_BOUND('',#901,.F.);
#904=CARTESIAN_POINT('',(0.E0,0.E0,-8.9E-1));
#905=DIRECTION('',(0.E0,0.E0,1.E0));
#906=DIRECTION('',(0.E0,1.E0,0.E0));
#907=AXIS2_PLACEMENT_3D('',#904,#905,#906);
#908=PLANE('',#907);
#910=ORIENTED_EDGE('',*,*,#909,.F.);
#912=ORIENTED_EDGE('',*,*,#911,.F.);
#913=EDGE_LOOP('',(#910,#912));
#914=FACE_OUTER_BOUND('',#913,.F.);
#915=ORIENTED_EDGE('',*,*,#871,.T.);
#916=ORIENTED_EDGE('',*,*,#886,.T.);
#917=EDGE_LOOP('',(#915,#916));
#918=FACE_BOUND('',#917,.F.);
#920=CARTESIAN_POINT('',(0.E0,0.E0,-1.361233764909E1));
#921=DIRECTION('',(0.E0,0.E0,1.E0));
#922=DIRECTION('',(-1.E0,0.E0,0.E0));
#923=AXIS2_PLACEMENT_3D('',#920,#921,#922);
#924=CYLINDRICAL_SURFACE('',#923,3.6E0);
#925=ORIENTED_EDGE('',*,*,#909,.T.);
#927=ORIENTED_EDGE('',*,*,#926,.F.);
#929=ORIENTED_EDGE('',*,*,#928,.T.);
#931=ORIENTED_EDGE('',*,*,#930,.T.);
#932=EDGE_LOOP('',(#925,#927,#929,#931));
#933=FACE_OUTER_BOUND('',#932,.F.);
#935=CARTESIAN_POINT('',(0.E0,0.E0,-1.361233764909E1));
#936=DIRECTION('',(0.E0,0.E0,1.E0));
#937=DIRECTION('',(-1.E0,0.E0,0.E0));
#938=AXIS2_PLACEMENT_3D('',#935,#936,#937);
#939=CYLINDRICAL_SURFACE('',#938,3.6E0);
#940=ORIENTED_EDGE('',*,*,#930,.F.);
#942=ORIENTED_EDGE('',*,*,#941,.T.);
#943=ORIENTED_EDGE('',*,*,#926,.T.);
#944=ORIENTED_EDGE('',*,*,#911,.T.);
#945=EDGE_LOOP('',(#940,#942,#943,#944));
#946=FACE_OUTER_BOUND('',#945,.F.);
#948=CARTESIAN_POINT('',(0.E0,0.E0,0.E0));
#949=DIRECTION('',(0.E0,0.E0,-1.E0));
#950=DIRECTION('',(1.E0,0.E0,0.E0));
#951=AXIS2_PLACEMENT_3D('',#948,#949,#950);
#952=PLANE('',#951);
#954=ORIENTED_EDGE('',*,*,#953,.T.);
#956=ORIENTED_EDGE('',*,*,#955,.T.);
#957=EDGE_LOOP('',(#954,#956));
#958=FACE_OUTER_BOUND('',#957,.F.);
#959=ORIENTED_EDGE('',*,*,#941,.F.);
#960=ORIENTED_EDGE('',*,*,#928,.F.);
#961=EDGE_LOOP('',(#959,#960));
#962=FACE_BOUND('',#961,.F.);
#964=CARTESIAN_POINT('',(0.E0,0.E0,0.E0));
#965=DIRECTION('',(0.E0,0.E0,1.E0));
#966=DIRECTION('',(1.E0,0.E0,0.E0));
#967=AXIS2_PLACEMENT_3D('',#964,#965,#966);
#968=CYLINDRICAL_SURFACE('',#967,5.E0);
#969=ORIENTED_EDGE('',*,*,#953,.F.);
#971=ORIENTED_EDGE('',*,*,#970,.T.);
#973=ORIENTED_EDGE('',*,*,#972,.F.);
#975=ORIENTED_EDGE('',*,*,#974,.F.);
#976=EDGE_LOOP('',(#969,#971,#973,#975));
#977=FACE_OUTER_BOUND('',#976,.F.);
#979=CARTESIAN_POINT('',(0.E0,0.E0,0.E0));
#980=DIRECTION('',(0.E0,0.E0,1.E0));
#981=DIRECTION('',(1.E0,0.E0,0.E0));
#982=AXIS2_PLACEMENT_3D('',#979,#980,#981);
#983=CYLINDRICAL_SURFACE('',#982,5.E0);
#984=ORIENTED_EDGE('',*,*,#955,.F.);
#985=ORIENTED_EDGE('',*,*,#974,.T.);
#987=ORIENTED_EDGE('',*,*,#986,.F.);
#988=ORIENTED_EDGE('',*,*,#970,.F.);
#989=EDGE_LOOP('',(#984,#985,#987,#988));
#990=FACE_OUTER_BOUND('',#989,.F.);
#992=CARTESIAN_POINT('',(0.E0,0.E0,-9.E0));
#993=DIRECTION('',(0.E0,0.E0,1.E0));
#994=DIRECTION('',(-1.E0,0.E0,0.E0));
#995=AXIS2_PLACEMENT_3D('',#992,#993,#994);
#996=PLANE('',#995);
#997=ORIENTED_EDGE('',*,*,#972,.T.);
#998=ORIENTED_EDGE('',*,*,#986,.T.);
#999=EDGE_LOOP('',(#997,#998));
#1000=FACE_OUTER_BOUND('',#999,.F.);
#1002=ORIENTED_EDGE('',*,*,#1001,.F.);
#1004=ORIENTED_EDGE('',*,*,#1003,.F.);
#1005=EDGE_LOOP('',(#1002,#1004));
#1006=FACE_BOUND('',#1005,.F.);
#1008=CARTESIAN_POINT('',(0.E0,0.E0,-8.31E1));
#1009=DIRECTION('',(0.E0,0.E0,-1.E0));
#1010=DIRECTION('',(1.E0,0.E0,0.E0));
#1011=AXIS2_PLACEMENT_3D('',#1008,#1009,#1010);
#1012=CYLINDRICAL_SURFACE('',#1011,4.7E0);
#1014=ORIENTED_EDGE('',*,*,#1013,.F.);
#1016=ORIENTED_EDGE('',*,*,#1015,.T.);
#1018=ORIENTED_EDGE('',*,*,#1017,.F.);
#1019=ORIENTED_EDGE('',*,*,#1001,.T.);
#1020=EDGE_LOOP('',(#1014,#1016,#1018,#1019));
#1021=FACE_OUTER_BOUND('',#1020,.F.);
#1023=CARTESIAN_POINT('',(0.E0,0.E0,-8.31E1));
#1024=DIRECTION('',(0.E0,0.E0,-1.E0));
#1025=DIRECTION('',(1.E0,0.E0,0.E0));
#1026=AXIS2_PLACEMENT_3D('',#1023,#1024,#1025);
#1027=CYLINDRICAL_SURFACE('',#1026,4.7E0);
#1028=ORIENTED_EDGE('',*,*,#1013,.T.);
#1029=ORIENTED_EDGE('',*,*,#1003,.T.);
#1030=ORIENTED_EDGE('',*,*,#1017,.T.);
#1032=ORIENTED_EDGE('',*,*,#1031,.T.);
#1033=EDGE_LOOP('',(#1028,#1029,#1030,#1032));
#1034=FACE_OUTER_BOUND('',#1033,.F.);
#1036=ORIENTED_EDGE('',*,*,#1035,.T.);
#1038=ORIENTED_EDGE('',*,*,#1037,.T.);
#1040=ORIENTED_EDGE('',*,*,#1039,.F.);
#1042=ORIENTED_EDGE('',*,*,#1041,.T.);
#1044=ORIENTED_EDGE('',*,*,#1043,.F.);
#1046=ORIENTED_EDGE('',*,*,#1045,.T.);
#1047=EDGE_LOOP('',(#1036,#1038,#1040,#1042,#1044,#1046));
#1048=FACE_BOUND('',#1047,.F.);
#1050=CARTESIAN_POINT('',(-4.690687621574E0,-2.951130509022E-1,
-3.532570558530E1));
#1051=CARTESIAN_POINT('',(-4.692005138537E0,-2.951959420435E-1,
-3.683845349238E1));
#1052=CARTESIAN_POINT('',(-4.659069823111E0,-2.931238276325E-1,
-3.835084198229E1));
#1053=CARTESIAN_POINT('',(-4.591898629783E0,-2.888977743553E-1,
-3.986209250565E1));
#1054=CARTESIAN_POINT('',(-4.872299779144E0,2.591529531776E0,
-3.532570558530E1));
#1055=CARTESIAN_POINT('',(-4.873668307198E0,2.592257438725E0,
-3.683845349238E1));
#1056=CARTESIAN_POINT('',(-4.839457815470E0,2.574061206221E0,
-3.835084198229E1));
#1057=CARTESIAN_POINT('',(-4.769685914883E0,2.536950201346E0,
-3.986209250565E1));
#1058=CARTESIAN_POINT('',(-2.892349974658E0,4.699961922825E0,
-3.532570558530E1));
#1059=CARTESIAN_POINT('',(-2.893162375837E0,4.701282044747E0,
-3.683845349238E1));
#1060=CARTESIAN_POINT('',(-2.872853954893E0,4.668281610502E0,
-3.835084198229E1));
#1061=CARTESIAN_POINT('',(-2.831435166221E0,4.600977608099E0,
-3.986209250565E1));
#1062=CARTESIAN_POINT('',(-1.175459182674E-14,4.699961922825E0,
-3.532570558530E1));
#1063=CARTESIAN_POINT('',(-1.158419060912E-14,4.701282044747E0,
-3.683845349238E1));
#1064=CARTESIAN_POINT('',(-1.173469157187E-14,4.668281610502E0,
-3.835084198229E1));
#1065=CARTESIAN_POINT('',(-1.195327744549E-14,4.600977608099E0,
-3.986209250565E1));
#1066=CARTESIAN_POINT('',(2.892349974658E0,4.699961922825E0,-3.532570558530E1));
#1067=CARTESIAN_POINT('',(2.893162375837E0,4.701282044747E0,-3.683845349238E1));
#1068=CARTESIAN_POINT('',(2.872853954893E0,4.668281610502E0,-3.835084198229E1));
#1069=CARTESIAN_POINT('',(2.831435166221E0,4.600977608099E0,-3.986209250565E1));
#1070=CARTESIAN_POINT('',(4.872299779144E0,2.591529531776E0,-3.532570558530E1));
#1071=CARTESIAN_POINT('',(4.873668307198E0,2.592257438725E0,-3.683845349238E1));
#1072=CARTESIAN_POINT('',(4.839457815470E0,2.574061206221E0,-3.835084198229E1));
#1073=CARTESIAN_POINT('',(4.769685914883E0,2.536950201346E0,-3.986209250565E1));
#1074=CARTESIAN_POINT('',(4.690687621574E0,-2.951130509022E-1,
-3.532570558530E1));
#1075=CARTESIAN_POINT('',(4.692005138537E0,-2.951959420435E-1,
-3.683845349238E1));
#1076=CARTESIAN_POINT('',(4.659069823111E0,-2.931238276325E-1,
-3.835084198229E1));
#1077=CARTESIAN_POINT('',(4.591898629782E0,-2.888977743553E-1,
-3.986209250565E1));
#1078=(BOUNDED_SURFACE()B_SPLINE_SURFACE(3,3,((#1050,#1051,#1052,#1053),(#1054,
#1055,#1056,#1057),(#1058,#1059,#1060,#1061),(#1062,#1063,#1064,#1065),(#1066,
#1067,#1068,#1069),(#1070,#1071,#1072,#1073),(#1074,#1075,#1076,#1077)),
.UNSPECIFIED.,.F.,.F.,.F.)B_SPLINE_SURFACE_WITH_KNOTS((4,3,4),(4,4),(0.E0,1.E0,
2.E0),(0.E0,1.E0),.UNSPECIFIED.)GEOMETRIC_REPRESENTATION_ITEM()RATIONAL_B_SPLINE_SURFACE(((1.187415547340E0,1.187211794212E0,1.187211794212E0,1.187415547340E0),(
9.376997667577E-1,9.375388633056E-1,9.375388633056E-1,9.376997667577E-1),(
9.376997667577E-1,9.375388633056E-1,9.375388633056E-1,9.376997667577E-1),(
1.187415547340E0,1.187211794212E0,1.187211794212E0,1.187415547340E0),(
9.376997667577E-1,9.375388633056E-1,9.375388633056E-1,9.376997667577E-1),(
9.376997667577E-1,9.375388633056E-1,9.375388633056E-1,9.376997667577E-1),(
1.187415547340E0,1.187211794212E0,1.187211794212E0,1.187415547340E0)))REPRESENTATION_ITEM('')SURFACE());
#1080=ORIENTED_EDGE('',*,*,#1079,.F.);
#1082=ORIENTED_EDGE('',*,*,#1081,.F.);
#1084=ORIENTED_EDGE('',*,*,#1083,.T.);
#1085=ORIENTED_EDGE('',*,*,#1031,.F.);
#1086=EDGE_LOOP('',(#1080,#1082,#1084,#1085));
#1087=FACE_OUTER_BOUND('',#1086,.F.);
#1089=CARTESIAN_POINT('',(4.690687621574E0,2.951130509022E-1,
-3.532570558530E1));
#1090=CARTESIAN_POINT('',(4.692005138537E0,2.951959420435E-1,
-3.683845349238E1));
#1091=CARTESIAN_POINT('',(4.659069823111E0,2.931238276325E-1,
-3.835084198229E1));
#1092=CARTESIAN_POINT('',(4.591898629782E0,2.888977743553E-1,
-3.986209250565E1));
#1093=CARTESIAN_POINT('',(4.872299779144E0,-2.591529531776E0,
-3.532570558530E1));
#1094=CARTESIAN_POINT('',(4.873668307198E0,-2.592257438725E0,
-3.683845349238E1));
#1095=CARTESIAN_POINT('',(4.839457815470E0,-2.574061206221E0,
-3.835084198229E1));
#1096=CARTESIAN_POINT('',(4.769685914883E0,-2.536950201346E0,
-3.986209250565E1));
#1097=CARTESIAN_POINT('',(2.892349974658E0,-4.699961922825E0,
-3.532570558530E1));
#1098=CARTESIAN_POINT('',(2.893162375837E0,-4.701282044747E0,
-3.683845349238E1));
#1099=CARTESIAN_POINT('',(2.872853954893E0,-4.668281610502E0,
-3.835084198229E1));
#1100=CARTESIAN_POINT('',(2.831435166221E0,-4.600977608099E0,
-3.986209250565E1));
#1101=CARTESIAN_POINT('',(-1.228636804162E-14,-4.699961922825E0,
-3.532570558530E1));
#1102=CARTESIAN_POINT('',(-1.225048613356E-14,-4.701282044747E0,
-3.683845349238E1));
#1103=CARTESIAN_POINT('',(-1.207806755486E-14,-4.668281610502E0,
-3.835084198229E1));
#1104=CARTESIAN_POINT('',(-1.229805543096E-14,-4.600977608099E0,
-3.986209250565E1));
#1105=CARTESIAN_POINT('',(-2.892349974658E0,-4.699961922825E0,
-3.532570558530E1));
#1106=CARTESIAN_POINT('',(-2.893162375837E0,-4.701282044747E0,
-3.683845349238E1));
#1107=CARTESIAN_POINT('',(-2.872853954893E0,-4.668281610502E0,
-3.835084198229E1));
#1108=CARTESIAN_POINT('',(-2.831435166221E0,-4.600977608099E0,
-3.986209250565E1));
#1109=CARTESIAN_POINT('',(-4.872299779144E0,-2.591529531776E0,
-3.532570558530E1));
#1110=CARTESIAN_POINT('',(-4.873668307198E0,-2.592257438725E0,
-3.683845349238E1));
#1111=CARTESIAN_POINT('',(-4.839457815470E0,-2.574061206221E0,
-3.835084198229E1));
#1112=CARTESIAN_POINT('',(-4.769685914883E0,-2.536950201346E0,
-3.986209250565E1));
#1113=CARTESIAN_POINT('',(-4.690687621574E0,2.951130509022E-1,
-3.532570558530E1));
#1114=CARTESIAN_POINT('',(-4.692005138537E0,2.951959420435E-1,
-3.683845349238E1));
#1115=CARTESIAN_POINT('',(-4.659069823111E0,2.931238276325E-1,
-3.835084198229E1));
#1116=CARTESIAN_POINT('',(-4.591898629783E0,2.888977743553E-1,
-3.986209250565E1));
#1117=(BOUNDED_SURFACE()B_SPLINE_SURFACE(3,3,((#1089,#1090,#1091,#1092),(#1093,
#1094,#1095,#1096),(#1097,#1098,#1099,#1100),(#1101,#1102,#1103,#1104),(#1105,
#1106,#1107,#1108),(#1109,#1110,#1111,#1112),(#1113,#1114,#1115,#1116)),
.UNSPECIFIED.,.F.,.F.,.F.)B_SPLINE_SURFACE_WITH_KNOTS((4,3,4),(4,4),(0.E0,1.E0,
2.E0),(0.E0,1.E0),.UNSPECIFIED.)GEOMETRIC_REPRESENTATION_ITEM()RATIONAL_B_SPLINE_SURFACE(((1.187415547340E0,1.187211794212E0,1.187211794212E0,1.187415547340E0),(
9.376997667577E-1,9.375388633056E-1,9.375388633056E-1,9.376997667577E-1),(
9.376997667577E-1,9.375388633056E-1,9.375388633056E-1,9.376997667577E-1),(
1.187415547340E0,1.187211794212E0,1.187211794212E0,1.187415547340E0),(
9.376997667577E-1,9.375388633056E-1,9.375388633056E-1,9.376997667577E-1),(
9.376997667577E-1,9.375388633056E-1,9.375388633056E-1,9.376997667577E-1),(
1.187415547340E0,1.187211794212E0,1.187211794212E0,1.187415547340E0)))REPRESENTATION_ITEM('')SURFACE());
#1118=ORIENTED_EDGE('',*,*,#1015,.F.);
#1119=ORIENTED_EDGE('',*,*,#1083,.F.);
#1121=ORIENTED_EDGE('',*,*,#1120,.F.);
#1122=ORIENTED_EDGE('',*,*,#1079,.T.);
#1123=EDGE_LOOP('',(#1118,#1119,#1121,#1122));
#1124=FACE_OUTER_BOUND('',#1123,.F.);
#1126=CARTESIAN_POINT('',(0.E0,0.E0,-4.675648601841E1));
#1127=DIRECTION('',(0.E0,0.E0,1.E0));
#1128=DIRECTION('',(-1.E0,0.E0,0.E0));
#1129=AXIS2_PLACEMENT_3D('',#1126,#1127,#1128);
#1130=CONICAL_SURFACE('',#1129,4.3E0,2.5E0);
#1132=ORIENTED_EDGE('',*,*,#1131,.T.);
#1134=ORIENTED_EDGE('',*,*,#1133,.F.);
#1135=ORIENTED_EDGE('',*,*,#1120,.T.);
#1137=ORIENTED_EDGE('',*,*,#1136,.T.);
#1138=EDGE_LOOP('',(#1132,#1134,#1135,#1137));
#1139=FACE_OUTER_BOUND('',#1138,.F.);
#1141=CARTESIAN_POINT('',(0.E0,0.E0,-5.81E1));
#1142=DIRECTION('',(0.E0,0.E0,-1.E0));
#1143=DIRECTION('',(1.E0,0.E0,0.E0));
#1144=AXIS2_PLACEMENT_3D('',#1141,#1142,#1143);
#1145=TOROIDAL_SURFACE('',#1144,1.039E2,1.E2);
#1147=ORIENTED_EDGE('',*,*,#1146,.F.);
#1148=ORIENTED_EDGE('',*,*,#1131,.F.);
#1150=ORIENTED_EDGE('',*,*,#1149,.T.);
#1152=ORIENTED_EDGE('',*,*,#1151,.F.);
#1153=EDGE_LOOP('',(#1147,#1148,#1150,#1152));
#1154=FACE_OUTER_BOUND('',#1153,.F.);
#1156=CARTESIAN_POINT('',(0.E0,0.E0,-5.81E1));
#1157=DIRECTION('',(0.E0,0.E0,-1.E0));
#1158=DIRECTION('',(1.E0,0.E0,0.E0));
#1159=AXIS2_PLACEMENT_3D('',#1156,#1157,#1158);
#1160=TOROIDAL_SURFACE('',#1159,1.039E2,1.E2);
#1162=ORIENTED_EDGE('',*,*,#1161,.F.);
#1163=ORIENTED_EDGE('',*,*,#1149,.F.);
#1165=ORIENTED_EDGE('',*,*,#1164,.F.);
#1166=ORIENTED_EDGE('',*,*,#1146,.T.);
#1167=EDGE_LOOP('',(#1162,#1163,#1165,#1166));
#1168=FACE_OUTER_BOUND('',#1167,.F.);
#1170=CARTESIAN_POINT('',(0.E0,0.E0,-8.31E1));
#1171=DIRECTION('',(0.E0,0.E0,-1.E0));
#1172=DIRECTION('',(1.E0,0.E0,0.E0));
#1173=AXIS2_PLACEMENT_3D('',#1170,#1171,#1172);
#1174=CYLINDRICAL_SURFACE('',#1173,3.9E0);
#1176=ORIENTED_EDGE('',*,*,#1175,.T.);
#1177=ORIENTED_EDGE('',*,*,#1161,.T.);
#1179=ORIENTED_EDGE('',*,*,#1178,.T.);
#1181=ORIENTED_EDGE('',*,*,#1180,.T.);
#1182=EDGE_LOOP('',(#1176,#1177,#1179,#1181));
#1183=FACE_OUTER_BOUND('',#1182,.F.);
#1185=CARTESIAN_POINT('',(0.E0,0.E0,-8.31E1));
#1186=DIRECTION('',(0.E0,0.E0,-1.E0));
#1187=DIRECTION('',(1.E0,0.E0,0.E0));
#1188=AXIS2_PLACEMENT_3D('',#1185,#1186,#1187);
#1189=CYLINDRICAL_SURFACE('',#1188,3.9E0);
#1190=ORIENTED_EDGE('',*,*,#1175,.F.);
#1192=ORIENTED_EDGE('',*,*,#1191,.T.);
#1193=ORIENTED_EDGE('',*,*,#1178,.F.);
#1194=ORIENTED_EDGE('',*,*,#1151,.T.);
#1195=EDGE_LOOP('',(#1190,#1192,#1193,#1194));
#1196=FACE_OUTER_BOUND('',#1195,.F.);
#1198=CARTESIAN_POINT('',(0.E0,0.E0,-7.92E1));
#1199=DIRECTION('',(1.E0,0.E0,0.E0));
#1200=DIRECTION('',(0.E0,1.E0,0.E0));
#1201=AXIS2_PLACEMENT_3D('',#1198,#1199,#1200);
#1202=SPHERICAL_SURFACE('',#1201,3.9E0);
#1203=ORIENTED_EDGE('',*,*,#1191,.F.);
#1204=ORIENTED_EDGE('',*,*,#1180,.F.);
#1205=EDGE_LOOP('',(#1203,#1204));
#1206=FACE_OUTER_BOUND('',#1205,.F.);
#1208=CARTESIAN_POINT('',(0.E0,0.E0,-4.675648601841E1));
#1209=DIRECTION('',(0.E0,0.E0,1.E0));
#1210=DIRECTION('',(-1.E0,0.E0,0.E0));
#1211=AXIS2_PLACEMENT_3D('',#1208,#1209,#1210);
#1212=CONICAL_SURFACE('',#1211,4.3E0,2.5E0);
#1213=ORIENTED_EDGE('',*,*,#1136,.F.);
#1214=ORIENTED_EDGE('',*,*,#1081,.T.);
#1215=ORIENTED_EDGE('',*,*,#1133,.T.);
#1216=ORIENTED_EDGE('',*,*,#1164,.T.);
#1217=EDGE_LOOP('',(#1213,#1214,#1215,#1216));
#1218=FACE_OUTER_BOUND('',#1217,.F.);
#1220=CARTESIAN_POINT('',(0.E0,0.E0,-2.06E1));
#1221=DIRECTION('',(0.E0,0.E0,1.E0));
#1222=DIRECTION('',(-1.E0,0.E0,0.E0));
#1223=AXIS2_PLACEMENT_3D('',#1220,#1221,#1222);
#1224=PLANE('',#1223);
#1226=ORIENTED_EDGE('',*,*,#1225,.F.);
#1227=ORIENTED_EDGE('',*,*,#1035,.F.);
#1229=ORIENTED_EDGE('',*,*,#1228,.F.);
#1231=ORIENTED_EDGE('',*,*,#1230,.F.);
#1233=ORIENTED_EDGE('',*,*,#1232,.F.);
#1235=ORIENTED_EDGE('',*,*,#1234,.F.);
#1237=ORIENTED_EDGE('',*,*,#1236,.F.);
#1239=ORIENTED_EDGE('',*,*,#1238,.F.);
#1240=EDGE_LOOP('',(#1226,#1227,#1229,#1231,#1233,#1235,#1237,#1239));
#1241=FACE_OUTER_BOUND('',#1240,.F.);
#1243=CARTESIAN_POINT('',(5.E0,1.9E0,-2.26E1));
#1244=DIRECTION('',(-1.E0,0.E0,0.E0));
#1245=DIRECTION('',(0.E0,1.E0,0.E0));
#1246=AXIS2_PLACEMENT_3D('',#1243,#1244,#1245);
#1247=CYLINDRICAL_SURFACE('',#1246,2.E0);
#1248=ORIENTED_EDGE('',*,*,#1225,.T.);
#1250=ORIENTED_EDGE('',*,*,#1249,.T.);
#1252=ORIENTED_EDGE('',*,*,#1251,.T.);
#1254=ORIENTED_EDGE('',*,*,#1253,.F.);
#1255=ORIENTED_EDGE('',*,*,#1037,.F.);
#1256=EDGE_LOOP('',(#1248,#1250,#1252,#1254,#1255));
#1257=FACE_OUTER_BOUND('',#1256,.F.);
#1259=CARTESIAN_POINT('',(1.75E0,-2.E-1,-2.61E1));
#1260=DIRECTION('',(-1.E0,0.E0,0.E0));
#1261=DIRECTION('',(0.E0,0.E0,-1.E0));
#1262=AXIS2_PLACEMENT_3D('',#1259,#1260,#1261);
#1263=PLANE('',#1262);
#1264=ORIENTED_EDGE('',*,*,#1249,.F.);
#1265=ORIENTED_EDGE('',*,*,#1238,.T.);
#1267=ORIENTED_EDGE('',*,*,#1266,.T.);
#1268=EDGE_LOOP('',(#1264,#1265,#1267));
#1269=FACE_OUTER_BOUND('',#1268,.F.);
#1271=CARTESIAN_POINT('',(7.5E-1,2.7E0,-2.61E1));
#1272=DIRECTION('',(0.E0,0.E0,-1.E0));
#1273=DIRECTION('',(0.E0,-1.E0,0.E0));
#1274=AXIS2_PLACEMENT_3D('',#1271,#1272,#1273);
#1275=CYLINDRICAL_SURFACE('',#1274,1.E0);
#1277=ORIENTED_EDGE('',*,*,#1276,.F.);
#1278=ORIENTED_EDGE('',*,*,#1266,.F.);
#1279=ORIENTED_EDGE('',*,*,#1236,.T.);
#1281=ORIENTED_EDGE('',*,*,#1280,.F.);
#1283=ORIENTED_EDGE('',*,*,#1282,.T.);
#1284=EDGE_LOOP('',(#1277,#1278,#1279,#1281,#1283));
#1285=FACE_OUTER_BOUND('',#1284,.F.);
#1287=CARTESIAN_POINT('',(1.75E0,5.E0,-2.905E1));
#1288=DIRECTION('',(-1.E0,0.E0,0.E0));
#1289=DIRECTION('',(0.E0,0.E0,-1.E0));
#1290=AXIS2_PLACEMENT_3D('',#1287,#1288,#1289);
#1291=PLANE('',#1290);
#1293=ORIENTED_EDGE('',*,*,#1292,.T.);
#1295=ORIENTED_EDGE('',*,*,#1294,.T.);
#1297=ORIENTED_EDGE('',*,*,#1296,.T.);
#1298=ORIENTED_EDGE('',*,*,#1251,.F.);
#1299=ORIENTED_EDGE('',*,*,#1276,.T.);
#1301=ORIENTED_EDGE('',*,*,#1300,.T.);
#1302=EDGE_LOOP('',(#1293,#1295,#1297,#1298,#1299,#1301));
#1303=FACE_OUTER_BOUND('',#1302,.F.);
#1305=CARTESIAN_POINT('',(0.E0,-2.E-1,0.E0));
#1306=DIRECTION('',(0.E0,1.E0,0.E0));
#1307=DIRECTION('',(1.E0,0.E0,0.E0));
#1308=AXIS2_PLACEMENT_3D('',#1305,#1306,#1307);
#1309=PLANE('',#1308);
#1311=ORIENTED_EDGE('',*,*,#1310,.T.);
#1313=ORIENTED_EDGE('',*,*,#1312,.F.);
#1315=ORIENTED_EDGE('',*,*,#1314,.F.);
#1317=ORIENTED_EDGE('',*,*,#1316,.F.);
#1319=ORIENTED_EDGE('',*,*,#1318,.T.);
#1320=ORIENTED_EDGE('',*,*,#1292,.F.);
#1321=EDGE_LOOP('',(#1311,#1313,#1315,#1317,#1319,#1320));
#1322=FACE_OUTER_BOUND('',#1321,.F.);
#1324=CARTESIAN_POINT('',(7.5E-1,-2.E-1,-2.61E1));
#1325=DIRECTION('',(-1.E0,0.E0,0.E0));
#1326=DIRECTION('',(0.E0,0.E0,-1.E0));
#1327=AXIS2_PLACEMENT_3D('',#1324,#1325,#1326);
#1328=TOROIDAL_SURFACE('',#1327,2.9E0,1.E0);
#1329=ORIENTED_EDGE('',*,*,#1310,.F.);
#1330=ORIENTED_EDGE('',*,*,#1300,.F.);
#1331=ORIENTED_EDGE('',*,*,#1282,.F.);
#1333=ORIENTED_EDGE('',*,*,#1332,.T.);
#1334=EDGE_LOOP('',(#1329,#1330,#1331,#1333));
#1335=FACE_OUTER_BOUND('',#1334,.F.);
#1337=CARTESIAN_POINT('',(-1.716849538703E1,-2.E-1,-2.61E1));
#1338=DIRECTION('',(1.E0,0.E0,0.E0));
#1339=DIRECTION('',(0.E0,0.E0,1.E0));
#1340=AXIS2_PLACEMENT_3D('',#1337,#1338,#1339);
#1341=CYLINDRICAL_SURFACE('',#1340,3.9E0);
#1342=ORIENTED_EDGE('',*,*,#1312,.T.);
#1343=ORIENTED_EDGE('',*,*,#1332,.F.);
#1345=ORIENTED_EDGE('',*,*,#1344,.F.);
#1347=ORIENTED_EDGE('',*,*,#1346,.T.);
#1348=EDGE_LOOP('',(#1342,#1343,#1345,#1347));
#1349=FACE_OUTER_BOUND('',#1348,.F.);
#1351=CARTESIAN_POINT('',(-1.716849538703E1,3.7E0,-2.61E1));
#1352=DIRECTION('',(0.E0,-1.E0,0.E0));
#1353=DIRECTION('',(0.E0,0.E0,1.E0));
#1354=AXIS2_PLACEMENT_3D('',#1351,#1352,#1353);
#1355=PLANE('',#1354);
#1356=ORIENTED_EDGE('',*,*,#1344,.T.);
#1357=ORIENTED_EDGE('',*,*,#1280,.T.);
#1358=ORIENTED_EDGE('',*,*,#1234,.T.);
#1360=ORIENTED_EDGE('',*,*,#1359,.T.);
#1361=EDGE_LOOP('',(#1356,#1357,#1358,#1360));
#1362=FACE_OUTER_BOUND('',#1361,.F.);
#1364=CARTESIAN_POINT('',(-7.5E-1,2.7E0,-2.61E1));
#1365=DIRECTION('',(0.E0,0.E0,1.E0));
#1366=DIRECTION('',(0.E0,1.E0,0.E0));
#1367=AXIS2_PLACEMENT_3D('',#1364,#1365,#1366);
#1368=CYLINDRICAL_SURFACE('',#1367,1.E0);
#1370=ORIENTED_EDGE('',*,*,#1369,.F.);
#1372=ORIENTED_EDGE('',*,*,#1371,.T.);
#1373=ORIENTED_EDGE('',*,*,#1359,.F.);
#1374=ORIENTED_EDGE('',*,*,#1232,.T.);
#1376=ORIENTED_EDGE('',*,*,#1375,.F.);
#1377=EDGE_LOOP('',(#1370,#1372,#1373,#1374,#1376));
#1378=FACE_OUTER_BOUND('',#1377,.F.);
#1380=CARTESIAN_POINT('',(-1.75E0,5.E0,-2.905E1));
#1381=DIRECTION('',(1.E0,0.E0,0.E0));
#1382=DIRECTION('',(0.E0,0.E0,1.E0));
#1383=AXIS2_PLACEMENT_3D('',#1380,#1381,#1382);
#1384=PLANE('',#1383);
#1385=ORIENTED_EDGE('',*,*,#1316,.T.);
#1387=ORIENTED_EDGE('',*,*,#1386,.F.);
#1388=ORIENTED_EDGE('',*,*,#1369,.T.);
#1390=ORIENTED_EDGE('',*,*,#1389,.F.);
#1392=ORIENTED_EDGE('',*,*,#1391,.T.);
#1394=ORIENTED_EDGE('',*,*,#1393,.T.);
#1395=EDGE_LOOP('',(#1385,#1387,#1388,#1390,#1392,#1394));
#1396=FACE_OUTER_BOUND('',#1395,.F.);
#1398=CARTESIAN_POINT('',(-7.5E-1,-2.E-1,-2.61E1));
#1399=DIRECTION('',(1.E0,0.E0,0.E0));
#1400=DIRECTION('',(0.E0,0.E0,1.E0));
#1401=AXIS2_PLACEMENT_3D('',#1398,#1399,#1400);
#1402=TOROIDAL_SURFACE('',#1401,2.9E0,1.E0);
#1403=ORIENTED_EDGE('',*,*,#1314,.T.);
#1404=ORIENTED_EDGE('',*,*,#1346,.F.);
#1405=ORIENTED_EDGE('',*,*,#1371,.F.);
#1406=ORIENTED_EDGE('',*,*,#1386,.T.);
#1407=EDGE_LOOP('',(#1403,#1404,#1405,#1406));
#1408=FACE_OUTER_BOUND('',#1407,.F.);
#1410=CARTESIAN_POINT('',(5.E0,1.9E0,-2.26E1));
#1411=DIRECTION('',(-1.E0,0.E0,0.E0));
#1412=DIRECTION('',(0.E0,1.E0,0.E0));
#1413=AXIS2_PLACEMENT_3D('',#1410,#1411,#1412);
#1414=CYLINDRICAL_SURFACE('',#1413,2.E0);
#1415=ORIENTED_EDGE('',*,*,#1228,.T.);
#1416=ORIENTED_EDGE('',*,*,#1045,.F.);
#1418=ORIENTED_EDGE('',*,*,#1417,.F.);
#1419=ORIENTED_EDGE('',*,*,#1389,.T.);
#1421=ORIENTED_EDGE('',*,*,#1420,.F.);
#1422=EDGE_LOOP('',(#1415,#1416,#1418,#1419,#1421));
#1423=FACE_OUTER_BOUND('',#1422,.F.);
#1425=CARTESIAN_POINT('',(5.E0,3.9E0,-3.08E1));
#1426=DIRECTION('',(0.E0,-1.E0,0.E0));
#1427=DIRECTION('',(0.E0,0.E0,1.E0));
#1428=AXIS2_PLACEMENT_3D('',#1425,#1426,#1427);
#1429=PLANE('',#1428);
#1430=ORIENTED_EDGE('',*,*,#1391,.F.);
#1431=ORIENTED_EDGE('',*,*,#1417,.T.);
#1432=ORIENTED_EDGE('',*,*,#1043,.T.);
#1434=ORIENTED_EDGE('',*,*,#1433,.T.);
#1436=ORIENTED_EDGE('',*,*,#1435,.F.);
#1437=EDGE_LOOP('',(#1430,#1431,#1432,#1434,#1436));
#1438=FACE_OUTER_BOUND('',#1437,.F.);
#1440=CARTESIAN_POINT('',(5.E0,4.7E0,-3.16E1));
#1441=DIRECTION('',(0.E0,-7.071067811865E-1,-7.071067811865E-1));
#1442=DIRECTION('',(0.E0,-7.071067811865E-1,7.071067811865E-1));
#1443=AXIS2_PLACEMENT_3D('',#1440,#1441,#1442);
#1444=PLANE('',#1443);
#1445=ORIENTED_EDGE('',*,*,#1041,.F.);
#1447=ORIENTED_EDGE('',*,*,#1446,.F.);
#1448=ORIENTED_EDGE('',*,*,#1433,.F.);
#1449=EDGE_LOOP('',(#1445,#1447,#1448));
#1450=FACE_OUTER_BOUND('',#1449,.F.);
#1452=CARTESIAN_POINT('',(5.E0,3.9E0,-3.08E1));
#1453=DIRECTION('',(0.E0,-1.E0,0.E0));
#1454=DIRECTION('',(0.E0,0.E0,1.E0));
#1455=AXIS2_PLACEMENT_3D('',#1452,#1453,#1454);
#1456=PLANE('',#1455);
#1458=ORIENTED_EDGE('',*,*,#1457,.F.);
#1459=ORIENTED_EDGE('',*,*,#1446,.T.);
#1460=ORIENTED_EDGE('',*,*,#1039,.T.);
#1461=ORIENTED_EDGE('',*,*,#1253,.T.);
#1462=ORIENTED_EDGE('',*,*,#1296,.F.);
#1463=EDGE_LOOP('',(#1458,#1459,#1460,#1461,#1462));
#1464=FACE_OUTER_BOUND('',#1463,.F.);
#1466=CARTESIAN_POINT('',(0.E0,5.E0,-2.905E1));
#1467=DIRECTION('',(0.E0,-1.E0,0.E0));
#1468=DIRECTION('',(0.E0,0.E0,1.E0));
#1469=AXIS2_PLACEMENT_3D('',#1466,#1467,#1468);
#1470=CYLINDRICAL_SURFACE('',#1469,1.75E0);
#1471=ORIENTED_EDGE('',*,*,#1318,.F.);
#1472=ORIENTED_EDGE('',*,*,#1393,.F.);
#1473=ORIENTED_EDGE('',*,*,#1435,.T.);
#1474=ORIENTED_EDGE('',*,*,#1457,.T.);
#1475=ORIENTED_EDGE('',*,*,#1294,.F.);
#1476=EDGE_LOOP('',(#1471,#1472,#1473,#1474,#1475));
#1477=FACE_OUTER_BOUND('',#1476,.F.);
#1479=CARTESIAN_POINT('',(-1.75E0,5.E0,-2.905E1));
#1480=DIRECTION('',(1.E0,0.E0,0.E0));
#1481=DIRECTION('',(0.E0,0.E0,1.E0));
#1482=AXIS2_PLACEMENT_3D('',#1479,#1480,#1481);
#1483=PLANE('',#1482);
#1484=ORIENTED_EDGE('',*,*,#1420,.T.);
#1485=ORIENTED_EDGE('',*,*,#1375,.T.);
#1486=ORIENTED_EDGE('',*,*,#1230,.T.);
#1487=EDGE_LOOP('',(#1484,#1485,#1486));
#1488=FACE_OUTER_BOUND('',#1487,.F.);
#1494=PLANE_ANGLE_MEASURE_WITH_UNIT(PLANE_ANGLE_MEASURE(1.745329251994E-2),
#1493);
#1495=(CONVERSION_BASED_UNIT('DEGREE',#1494)NAMED_UNIT(*)PLANE_ANGLE_UNIT());
#1497=UNCERTAINTY_MEASURE_WITH_UNIT(LENGTH_MEASURE(1.E-3),#1492,
'distance_accuracy_value',
'Maximum model space distance between geometric entities at asserted connectivities');
#1500=APPLICATION_CONTEXT('automotive_design');
#1501=APPLICATION_PROTOCOL_DEFINITION('international standard',
'automotive_design',2001,#1500);
#1502=PRODUCT_DEFINITION_CONTEXT('part definition',#1500,'design');
#1503=PRODUCT_CONTEXT('',#1500,'mechanical');
#1504=PRODUCT('C-L9000081-01','C-L9000081-01','NOT SPECIFIED',(#1503));
#1505=PRODUCT_DEFINITION_FORMATION('1','LAST_VERSION',#1504);
#1513=DERIVED_UNIT_ELEMENT(#1512,2.E0);
#1514=DERIVED_UNIT((#1513));
#1515=MEASURE_REPRESENTATION_ITEM('surface area measure',AREA_MEASURE(
2.521892685417E3),#1514);
#1520=DERIVED_UNIT_ELEMENT(#1519,3.E0);
#1521=DERIVED_UNIT((#1520));
#1522=MEASURE_REPRESENTATION_ITEM('volume measure',VOLUME_MEASURE(
4.838868878665E3),#1521);
#1526=CARTESIAN_POINT('centre point',(-6.509570700926E-7,-4.481607924410E-2,
-3.763832905493E1));
#1531=DERIVED_UNIT_ELEMENT(#1530,2.E0);
#1532=DERIVED_UNIT((#1531));
#1533=MEASURE_REPRESENTATION_ITEM('surface area measure',AREA_MEASURE(
2.521892685417E3),#1532);
#1538=DERIVED_UNIT_ELEMENT(#1537,3.E0);
#1539=DERIVED_UNIT((#1538));
#1540=MEASURE_REPRESENTATION_ITEM('volume measure',VOLUME_MEASURE(
4.838868878665E3),#1539);
#1544=CARTESIAN_POINT('centre point',(-6.509570700926E-7,-4.481607924410E-2,
-3.763832905493E1));
#1549=PRODUCT_RELATED_PRODUCT_CATEGORY('part','',(#1504));
#1=DRAUGHTING_PRE_DEFINED_COLOUR('black');
#2=COLOUR_RGB('',0.E0,0.E0,3.6E-1);
#3=COLOUR_RGB('',0.E0,0.E0,4.8E-1);
#4=DRAUGHTING_PRE_DEFINED_COLOUR('blue');
#5=COLOUR_RGB('',0.E0,5.8824E-2,4.58824E-1);
#6=COLOUR_RGB('',0.E0,1.80392E-1,4.78431E-1);
#7=COLOUR_RGB('',0.E0,3.6E-1,9.E-2);
#8=COLOUR_RGB('',0.E0,3.6E-1,2.7E-1);
#9=COLOUR_RGB('',0.E0,5.6E-1,6.4E-1);
#10=COLOUR_RGB('',0.E0,5.8E-1,8.E-1);
#11=COLOUR_RGB('',0.E0,7.1E-1,6.6E-1);
#12=COLOUR_RGB('',0.E0,7.13E-1,0.E0);
#13=COLOUR_RGB('',0.E0,9.5E-1,8.4E-1);
#14=DRAUGHTING_PRE_DEFINED_COLOUR('green');
#15=DRAUGHTING_PRE_DEFINED_COLOUR('cyan');
#16=COLOUR_RGB('',1.1765E-2,1.9608E-2,3.9216E-2);
#17=COLOUR_RGB('',4.E-2,0.E0,1.6E-1);
#18=COLOUR_RGB('',3.9216E-2,2.19608E-1,1.21569E-1);
#19=COLOUR_RGB('',3.9216E-2,3.60784E-1,2.E-1);
#20=COLOUR_RGB('',5.098E-2,7.0588E-2,1.01961E-1);
#21=COLOUR_RGB('',9.E-2,0.E0,1.2E-1);
#22=COLOUR_RGB('',9.0196E-2,1.60784E-1,1.09804E-1);
#23=COLOUR_RGB('',9.0196E-2,3.80392E-1,6.70588E-1);
#24=COLOUR_RGB('',1.E-1,0.E0,2.5E-1);
#25=COLOUR_RGB('',1.01961E-1,4.78431E-1,3.88235E-1);
#26=COLOUR_RGB('',1.09804E-1,1.4902E-1,9.0196E-2);
#27=COLOUR_RGB('',1.4902E-1,3.09804E-1,5.29412E-1);
#28=COLOUR_RGB('',1.4902E-1,4.E-1,1.60784E-1);
#29=COLOUR_RGB('',1.6E-1,3.2E-2,0.E0);
#30=COLOUR_RGB('',1.60784E-1,4.5098E-1,7.21569E-1);
#31=COLOUR_RGB('',1.6E-1,4.6E-1,6.5E-1);
#32=COLOUR_RGB('',1.6E-1,1.E0,1.6E-1);
#33=COLOUR_RGB('',2.E-1,3.2E-2,0.E0);
#34=COLOUR_RGB('',2.11765E-1,4.11765E-1,1.4902E-1);
#35=COLOUR_RGB('',2.39216E-1,2.39216E-1,2.31373E-1);
#36=COLOUR_RGB('',2.39216E-1,2.70588E-1,1.80392E-1);
#37=COLOUR_RGB('',2.5098E-1,2.90196E-1,3.29412E-1);
#38=COLOUR_RGB('',2.90196E-1,4.31373E-1,2.E-1);
#39=COLOUR_RGB('',3.1E-1,3.1E-1,5.6E-1);
#40=COLOUR_RGB('',3.09804E-1,6.58824E-1,2.E-1);
#41=COLOUR_RGB('',3.2E-1,1.5E-1,0.E0);
#42=COLOUR_RGB('',3.60784E-1,3.1373E-2,1.68627E-1);
#43=COLOUR_RGB('',3.68627E-1,2.E-1,1.21569E-1);
#44=COLOUR_RGB('',3.88235E-1,2.39216E-1,6.11765E-1);
#45=COLOUR_RGB('',4.E-1,4.E-1,4.E-1);
#46=COLOUR_RGB('',4.11765E-1,5.8824E-2,7.8431E-2);
#47=COLOUR_RGB('',4.11765E-1,3.29412E-1,2.19608E-1);
#48=COLOUR_RGB('',4.2E-1,4.2E-1,1.E0);
#49=COLOUR_RGB('',4.4E-1,8.5E-1,1.E0);
#50=COLOUR_RGB('',4.58824E-1,4.5098E-1,3.09804E-1);
#51=COLOUR_RGB('',4.70588E-1,5.09804E-1,5.4902E-1);
#52=COLOUR_RGB('',4.78431E-1,4.90196E-1,4.58824E-1);
#53=COLOUR_RGB('',4.90196E-1,3.60784E-1,2.19608E-1);
#54=COLOUR_RGB('',4.9E-1,4.9E-1,0.E0);
#55=COLOUR_RGB('',4.9E-1,1.E0,0.E0);
#56=COLOUR_RGB('',5.E-1,0.E0,0.E0);
#57=COLOUR_RGB('',5.E-1,0.E0,2.3E-1);
#58=COLOUR_RGB('',5.E-1,5.E-1,5.E-1);
#59=COLOUR_RGB('',5.21569E-1,2.19608E-1,1.68627E-1);
#60=COLOUR_RGB('',5.3E-1,0.E0,0.E0);
#61=COLOUR_RGB('',5.29412E-1,5.80392E-1,6.5098E-1);
#62=COLOUR_RGB('',5.4E-1,0.E0,4.4E-1);
#63=COLOUR_RGB('',5.5E-1,3.E-1,0.E0);
#64=COLOUR_RGB('',5.6E-1,1.E-1,5.E-2);
#65=COLOUR_RGB('',5.60784E-1,5.80392E-1,6.19608E-1);
#66=COLOUR_RGB('',5.68627E-1,5.8824E-2,4.E-1);
#67=COLOUR_RGB('',5.8E-1,2.2E-1,1.E-2);
#68=COLOUR_RGB('',5.88235E-1,1.21569E-1,1.09804E-1);
#69=COLOUR_RGB('',6.E-1,6.E-1,6.E-1);
#70=COLOUR_RGB('',6.11765E-1,5.60784E-1,3.80392E-1);
#71=COLOUR_RGB('',6.11765E-1,6.11765E-1,6.5098E-1);
#72=COLOUR_RGB('',6.2E-1,0.E0,5.5E-1);
#73=COLOUR_RGB('',6.19608E-1,6.39216E-1,6.90196E-1);
#74=COLOUR_RGB('',6.35294E-1,6.86275E-1,7.4902E-1);
#75=COLOUR_RGB('',6.4E-1,0.E0,2.5E-1);
#76=COLOUR_RGB('',6.4E-1,1.E-2,0.E0);
#77=COLOUR_RGB('',6.39216E-1,5.4902E-1,4.78431E-1);
#78=COLOUR_RGB('',6.5098E-1,6.70588E-1,7.09804E-1);
#79=COLOUR_RGB('',6.70588E-1,1.21569E-1,1.09804E-1);
#80=COLOUR_RGB('',6.78431E-1,4.78431E-1,3.09804E-1);
#81=COLOUR_RGB('',6.8E-1,7.5E-1,1.E0);
#82=COLOUR_RGB('',7.09804E-1,7.0588E-2,2.E-1);
#83=COLOUR_RGB('',7.1E-1,3.1E-1,0.E0);
#84=COLOUR_RGB('',7.2E-1,7.2E-1,7.2E-1);
#85=COLOUR_RGB('',7.29412E-1,7.41176E-1,7.29412E-1);
#86=COLOUR_RGB('',7.41176E-1,7.29412E-1,6.70588E-1);
#87=COLOUR_RGB('',7.4E-1,1.E0,2.6E-1);
#88=COLOUR_RGB('',7.5E-1,3.E-2,0.E0);
#89=COLOUR_RGB('',7.4902E-1,8.90196E-1,7.29412E-1);
#90=COLOUR_RGB('',7.6E-1,0.E0,4.7E-1);
#91=COLOUR_RGB('',7.80392E-1,9.0196E-2,7.0588E-2);
#92=COLOUR_RGB('',7.88235E-1,2.19608E-1,5.4902E-1);
#93=COLOUR_RGB('',8.1E-1,4.E-2,0.E0);
#94=COLOUR_RGB('',8.1E-1,6.1E-1,0.E0);
#95=COLOUR_RGB('',8.2E-1,4.E-2,6.6E-1);
#96=COLOUR_RGB('',8.31373E-1,8.5098E-1,8.58824E-1);
#97=COLOUR_RGB('',8.5098E-1,7.29412E-1,5.4902E-1);
#98=COLOUR_RGB('',8.5E-1,8.5E-1,8.5E-1);
#99=COLOUR_RGB('',8.78431E-1,3.68627E-1,1.21569E-1);
#100=COLOUR_RGB('',8.784E-1,9.49E-1,1.E0);
#101=COLOUR_RGB('',8.90196E-1,5.88235E-1,1.41176E-1);
#102=COLOUR_RGB('',9.E-1,1.E0,0.E0);
#103=COLOUR_RGB('',9.09804E-1,6.11765E-1,7.09804E-1);
#104=COLOUR_RGB('',9.37E-1,7.85E-1,0.E0);
#105=COLOUR_RGB('',9.41176E-1,9.29412E-1,9.01961E-1);
#106=COLOUR_RGB('',9.5E-1,2.2E-1,8.1E-1);
#107=COLOUR_RGB('',9.6E-1,3.7E-1,3.E-1);
#108=COLOUR_RGB('',9.6E-1,7.1E-1,3.75E-1);
#109=COLOUR_RGB('',9.80392E-1,1.E0,1.E0);
#110=COLOUR_RGB('',9.88235E-1,1.09804E-1,7.8431E-2);
#111=COLOUR_RGB('',9.88235E-1,7.21569E-1,1.29412E-1);
#112=COLOUR_RGB('',9.88235E-1,9.21569E-1,8.E-1);
#113=DRAUGHTING_PRE_DEFINED_COLOUR('red');
#114=COLOUR_RGB('',1.E0,0.E0,6.1E-1);
#115=COLOUR_RGB('',1.E0,4.E-2,0.E0);
#116=COLOUR_RGB('',1.E0,2.3E-1,0.E0);
#117=COLOUR_RGB('',1.E0,3.5E-1,5.2E-1);
#118=COLOUR_RGB('',1.E0,3.6E-1,0.E0);
#119=COLOUR_RGB('',1.E0,3.88235E-1,2.11765E-1);
#120=COLOUR_RGB('',1.E0,4.9E-1,3.7E-1);
#121=COLOUR_RGB('',1.E0,5.E-1,0.E0);
#122=COLOUR_RGB('',1.E0,5.6E-1,7.8E-1);
#123=COLOUR_RGB('',1.E0,6.4E-1,4.9E-1);
#124=COLOUR_RGB('',1.E0,6.7E-1,0.E0);
#125=COLOUR_RGB('',1.E0,7.6E-1,6.5E-1);
#126=COLOUR_RGB('',1.E0,8.39216E-1,3.01961E-1);
#127=COLOUR_RGB('',1.E0,8.6E-1,4.E-2);
#128=COLOUR_RGB('',1.E0,9.60784E-1,2.58824E-1);
#129=COLOUR_RGB('',1.E0,9.60784E-1,8.90196E-1);
#130=COLOUR_RGB('',1.E0,9.8E-1,7.2E-1);
#131=DRAUGHTING_PRE_DEFINED_COLOUR('yellow');
#132=COLOUR_RGB('',1.E0,1.E0,3.9216E-2);
#133=DRAUGHTING_PRE_DEFINED_COLOUR('white');
#138=CIRCLE('',#137,2.295E0);
#147=CIRCLE('',#146,2.295E0);
#152=CIRCLE('',#151,2.295E0);
#157=CIRCLE('',#156,2.68E0);
#162=CIRCLE('',#161,2.68E0);
#167=CIRCLE('',#166,2.295E0);
#176=CIRCLE('',#175,2.68E0);
#189=CIRCLE('',#188,2.68E0);
#202=CIRCLE('',#201,3.6E0);
#207=CIRCLE('',#206,3.6E0);
#212=CIRCLE('',#211,2.88E0);
#217=CIRCLE('',#216,2.88E0);
#230=CIRCLE('',#229,3.6E0);
#235=CIRCLE('',#234,3.6E0);
#240=CIRCLE('',#239,5.E0);
#245=CIRCLE('',#244,5.E0);
#258=CIRCLE('',#257,4.7E0);
#263=CIRCLE('',#262,4.7E0);
#268=CIRCLE('',#267,5.E0);
#273=CIRCLE('',#272,5.E0);
#294=CIRCLE('',#293,1.E2);
#299=CIRCLE('',#298,4.604822158186E0);
#304=CIRCLE('',#303,4.7E0);
#309=CIRCLE('',#308,4.7E0);
#314=CIRCLE('',#313,1.E2);
#319=CIRCLE('',#318,4.604822158186E0);
#328=CIRCLE('',#327,1.E2);
#333=CIRCLE('',#332,3.995177841814E0);
#338=CIRCLE('',#337,3.9E0);
#343=CIRCLE('',#342,3.9E0);
#348=CIRCLE('',#347,1.E2);
#353=CIRCLE('',#352,3.995177841814E0);
#366=CIRCLE('',#365,3.9E0);
#371=CIRCLE('',#370,3.9E0);
#384=CIRCLE('',#383,4.7E0);
#397=CIRCLE('',#396,1.E0);
#406=CIRCLE('',#405,1.E0);
#468=B_SPLINE_CURVE_WITH_KNOTS('',3,(#415,#416,#417,#418,#419,#420,#421,#422,
#423,#424,#425,#426,#427,#428,#429,#430,#431,#432,#433,#434,#435,#436,#437,#438,
#439,#440,#441,#442,#443,#444,#445,#446,#447,#448,#449,#450,#451,#452,#453,#454,
#455,#456,#457,#458,#459,#460,#461,#462,#463,#464,#465,#466,#467),.UNSPECIFIED.,
.F.,.F.,(4,1,1,1,1,1,1,1,1,1,1,1,1,1,1,1,1,1,1,1,1,1,1,1,1,1,1,1,1,1,1,1,1,1,1,
1,1,1,1,1,1,1,1,1,1,1,1,1,1,1,4),(0.E0,2.E-2,4.E-2,6.E-2,8.E-2,1.E-1,1.2E-1,
1.4E-1,1.6E-1,1.8E-1,2.E-1,2.2E-1,2.4E-1,2.6E-1,2.8E-1,3.E-1,3.2E-1,3.4E-1,
3.6E-1,3.8E-1,4.E-1,4.2E-1,4.4E-1,4.6E-1,4.8E-1,5.E-1,5.2E-1,5.4E-1,5.6E-1,
5.8E-1,6.E-1,6.2E-1,6.4E-1,6.6E-1,6.8E-1,7.E-1,7.2E-1,7.4E-1,7.6E-1,7.8E-1,
8.E-1,8.2E-1,8.4E-1,8.6E-1,8.8E-1,9.E-1,9.2E-1,9.4E-1,9.6E-1,9.8E-1,1.E0),
.UNSPECIFIED.);
#473=CIRCLE('',#472,2.E0);
#494=CIRCLE('',#493,2.E0);
#499=CIRCLE('',#498,1.E0);
#504=CIRCLE('',#503,2.9E0);
#509=CIRCLE('',#508,1.E0);
#514=CIRCLE('',#513,3.9E0);
#543=CIRCLE('',#542,2.E0);
#548=CIRCLE('',#547,1.E0);
#553=CIRCLE('',#552,3.9E0);
#558=CIRCLE('',#557,1.E0);
#563=CIRCLE('',#562,2.9E0);
#617=B_SPLINE_CURVE_WITH_KNOTS('',3,(#564,#565,#566,#567,#568,#569,#570,#571,
#572,#573,#574,#575,#576,#577,#578,#579,#580,#581,#582,#583,#584,#585,#586,#587,
#588,#589,#590,#591,#592,#593,#594,#595,#596,#597,#598,#599,#600,#601,#602,#603,
#604,#605,#606,#607,#608,#609,#610,#611,#612,#613,#614,#615,#616),.UNSPECIFIED.,
.F.,.F.,(4,1,1,1,1,1,1,1,1,1,1,1,1,1,1,1,1,1,1,1,1,1,1,1,1,1,1,1,1,1,1,1,1,1,1,
1,1,1,1,1,1,1,1,1,1,1,1,1,1,1,4),(0.E0,2.E-2,4.E-2,6.E-2,8.E-2,1.E-1,1.2E-1,
1.4E-1,1.6E-1,1.8E-1,2.E-1,2.2E-1,2.4E-1,2.6E-1,2.8E-1,3.E-1,3.2E-1,3.4E-1,
3.6E-1,3.8E-1,4.E-1,4.2E-1,4.4E-1,4.6E-1,4.8E-1,5.E-1,5.2E-1,5.4E-1,5.6E-1,
5.8E-1,6.E-1,6.2E-1,6.4E-1,6.6E-1,6.8E-1,7.E-1,7.2E-1,7.4E-1,7.6E-1,7.8E-1,
8.E-1,8.2E-1,8.4E-1,8.6E-1,8.8E-1,9.E-1,9.2E-1,9.4E-1,9.6E-1,9.8E-1,1.E0),
.UNSPECIFIED.);
#630=CIRCLE('',#629,1.75E0);
#640=B_SPLINE_CURVE_WITH_KNOTS('',3,(#631,#632,#633,#634,#635,#636,#637,#638,
#639),.UNSPECIFIED.,.F.,.F.,(4,1,1,1,1,1,4),(0.E0,1.25E-1,2.5E-1,5.E-1,7.5E-1,
8.75E-1,1.E0),.UNSPECIFIED.);
#653=CIRCLE('',#652,1.75E0);
#662=CIRCLE('',#661,1.75E0);
#675=CIRCLE('',#674,2.E0);
#797=EDGE_CURVE('',#702,#703,#138,.T.);
#799=EDGE_CURVE('',#703,#702,#167,.T.);
#803=ADVANCED_FACE('',(#802),#796,.T.);
#809=EDGE_CURVE('',#706,#707,#147,.T.);
#811=EDGE_CURVE('',#707,#702,#171,.T.);
#814=EDGE_CURVE('',#706,#703,#142,.T.);
#818=ADVANCED_FACE('',(#817),#808,.T.);
#824=EDGE_CURVE('',#782,#783,#157,.T.);
#826=EDGE_CURVE('',#783,#782,#162,.T.);
#831=EDGE_CURVE('',#707,#706,#152,.T.);
#835=ADVANCED_FACE('',(#829,#834),#823,.T.);
#847=ADVANCED_FACE('',(#846),#840,.T.);
#853=EDGE_CURVE('',#786,#787,#176,.T.);
#855=EDGE_CURVE('',#786,#783,#197,.T.);
#858=EDGE_CURVE('',#787,#782,#193,.T.);
#862=ADVANCED_FACE('',(#861),#852,.F.);
#869=EDGE_CURVE('',#787,#791,#184,.T.);
#871=EDGE_CURVE('',#790,#791,#212,.T.);
#873=EDGE_CURVE('',#786,#790,#180,.T.);
#877=ADVANCED_FACE('',(#876),#867,.F.);
#883=EDGE_CURVE('',#787,#786,#189,.T.);
#886=EDGE_CURVE('',#791,#790,#217,.T.);
#891=ADVANCED_FACE('',(#890),#882,.F.);
#903=ADVANCED_FACE('',(#902),#896,.F.);
#909=EDGE_CURVE('',#695,#694,#202,.T.);
#911=EDGE_CURVE('',#694,#695,#207,.T.);
#919=ADVANCED_FACE('',(#914,#918),#908,.T.);
#926=EDGE_CURVE('',#699,#694,#221,.T.);
#928=EDGE_CURVE('',#699,#698,#235,.T.);
#930=EDGE_CURVE('',#698,#695,#225,.T.);
#934=ADVANCED_FACE('',(#933),#924,.F.);
#941=EDGE_CURVE('',#698,#699,#230,.T.);
#947=ADVANCED_FACE('',(#946),#939,.F.);
#953=EDGE_CURVE('',#778,#774,#240,.T.);
#955=EDGE_CURVE('',#774,#778,#245,.T.);
#963=ADVANCED_FACE('',(#958,#962),#952,.F.);
#970=EDGE_CURVE('',#778,#779,#253,.T.);
#972=EDGE_CURVE('',#775,#779,#268,.T.);
#974=EDGE_CURVE('',#774,#775,#249,.T.);
#978=ADVANCED_FACE('',(#977),#968,.T.);
#986=EDGE_CURVE('',#779,#775,#273,.T.);
#991=ADVANCED_FACE('',(#990),#983,.T.);
#1001=EDGE_CURVE('',#682,#683,#258,.T.);
#1003=EDGE_CURVE('',#683,#682,#263,.T.);
#1007=ADVANCED_FACE('',(#1000,#1006),#996,.F.);
#1013=EDGE_CURVE('',#719,#683,#277,.T.);
#1015=EDGE_CURVE('',#719,#733,#309,.T.);
#1017=EDGE_CURVE('',#682,#733,#281,.T.);
#1022=ADVANCED_FACE('',(#1021),#1012,.T.);
#1031=EDGE_CURVE('',#733,#719,#304,.T.);
#1035=EDGE_CURVE('',#755,#750,#384,.T.);
#1037=EDGE_CURVE('',#750,#737,#468,.T.);
#1039=EDGE_CURVE('',#720,#737,#285,.T.);
#1041=EDGE_CURVE('',#720,#721,#640,.T.);
#1043=EDGE_CURVE('',#739,#721,#289,.T.);
#1045=EDGE_CURVE('',#739,#755,#617,.T.);
#1049=ADVANCED_FACE('',(#1034,#1048),#1027,.T.);
#1079=EDGE_CURVE('',#732,#733,#294,.T.);
#1081=EDGE_CURVE('',#718,#732,#299,.T.);
#1083=EDGE_CURVE('',#718,#719,#314,.T.);
#1088=ADVANCED_FACE('',(#1087),#1078,.T.);
#1120=EDGE_CURVE('',#732,#718,#319,.T.);
#1125=ADVANCED_FACE('',(#1124),#1117,.T.);
#1131=EDGE_CURVE('',#711,#710,#333,.T.);
#1133=EDGE_CURVE('',#732,#710,#323,.T.);
#1136=EDGE_CURVE('',#718,#711,#375,.T.);
#1140=ADVANCED_FACE('',(#1139),#1130,.T.);
#1146=EDGE_CURVE('',#710,#715,#328,.T.);
#1149=EDGE_CURVE('',#711,#714,#348,.T.);
#1151=EDGE_CURVE('',#715,#714,#338,.T.);
#1155=ADVANCED_FACE('',(#1154),#1145,.F.);
#1161=EDGE_CURVE('',#714,#715,#343,.T.);
#1164=EDGE_CURVE('',#710,#711,#353,.T.);
#1169=ADVANCED_FACE('',(#1168),#1160,.F.);
#1175=EDGE_CURVE('',#743,#714,#357,.T.);
#1178=EDGE_CURVE('',#715,#742,#361,.T.);
#1180=EDGE_CURVE('',#742,#743,#371,.T.);
#1184=ADVANCED_FACE('',(#1183),#1174,.T.);
#1191=EDGE_CURVE('',#743,#742,#366,.T.);
#1197=ADVANCED_FACE('',(#1196),#1189,.T.);
#1207=ADVANCED_FACE('',(#1206),#1202,.T.);
#1219=ADVANCED_FACE('',(#1218),#1212,.T.);
#1225=EDGE_CURVE('',#750,#751,#379,.T.);
#1228=EDGE_CURVE('',#754,#755,#388,.T.);
#1230=EDGE_CURVE('',#679,#754,#392,.T.);
#1232=EDGE_CURVE('',#678,#679,#397,.T.);
#1234=EDGE_CURVE('',#687,#678,#401,.T.);
#1236=EDGE_CURVE('',#691,#687,#406,.T.);
#1238=EDGE_CURVE('',#751,#691,#410,.T.);
#1242=ADVANCED_FACE('',(#1241),#1224,.F.);
#1249=EDGE_CURVE('',#751,#746,#473,.T.);
#1251=EDGE_CURVE('',#746,#735,#494,.T.);
#1253=EDGE_CURVE('',#737,#735,#414,.T.);
#1258=ADVANCED_FACE('',(#1257),#1247,.T.);
#1266=EDGE_CURVE('',#691,#746,#481,.T.);
#1270=ADVANCED_FACE('',(#1269),#1263,.F.);
#1276=EDGE_CURVE('',#746,#747,#477,.T.);
#1280=EDGE_CURVE('',#686,#687,#485,.T.);
#1282=EDGE_CURVE('',#686,#747,#509,.T.);
#1286=ADVANCED_FACE('',(#1285),#1275,.T.);
#1292=EDGE_CURVE('',#762,#771,#489,.T.);
#1294=EDGE_CURVE('',#771,#725,#670,.T.);
#1296=EDGE_CURVE('',#725,#735,#657,.T.);
#1300=EDGE_CURVE('',#747,#762,#504,.T.);
#1304=ADVANCED_FACE('',(#1303),#1291,.T.);
#1310=EDGE_CURVE('',#762,#763,#499,.T.);
#1312=EDGE_CURVE('',#767,#763,#518,.T.);
#1314=EDGE_CURVE('',#766,#767,#548,.T.);
#1316=EDGE_CURVE('',#770,#766,#538,.T.);
#1318=EDGE_CURVE('',#770,#771,#662,.T.);
#1323=ADVANCED_FACE('',(#1322),#1309,.T.);
#1332=EDGE_CURVE('',#686,#763,#514,.T.);
#1336=ADVANCED_FACE('',(#1335),#1328,.T.);
#1344=EDGE_CURVE('',#689,#686,#522,.T.);
#1346=EDGE_CURVE('',#689,#767,#553,.T.);
#1350=ADVANCED_FACE('',(#1349),#1341,.T.);
#1359=EDGE_CURVE('',#678,#689,#530,.T.);
#1363=ADVANCED_FACE('',(#1362),#1355,.F.);
#1369=EDGE_CURVE('',#758,#759,#526,.T.);
#1371=EDGE_CURVE('',#758,#689,#558,.T.);
#1375=EDGE_CURVE('',#759,#679,#534,.T.);
#1379=ADVANCED_FACE('',(#1378),#1368,.T.);
#1386=EDGE_CURVE('',#758,#766,#563,.T.);
#1389=EDGE_CURVE('',#728,#759,#543,.T.);
#1391=EDGE_CURVE('',#728,#729,#625,.T.);
#1393=EDGE_CURVE('',#729,#770,#666,.T.);
#1397=ADVANCED_FACE('',(#1396),#1384,.T.);
#1409=ADVANCED_FACE('',(#1408),#1402,.T.);
#1417=EDGE_CURVE('',#728,#739,#621,.T.);
#1420=EDGE_CURVE('',#754,#759,#675,.T.);
#1424=ADVANCED_FACE('',(#1423),#1414,.T.);
#1433=EDGE_CURVE('',#721,#724,#648,.T.);
#1435=EDGE_CURVE('',#729,#724,#630,.T.);
#1439=ADVANCED_FACE('',(#1438),#1429,.F.);
#1446=EDGE_CURVE('',#724,#720,#644,.T.);
#1451=ADVANCED_FACE('',(#1450),#1444,.F.);
#1457=EDGE_CURVE('',#724,#725,#653,.T.);
#1465=ADVANCED_FACE('',(#1464),#1456,.F.);
#1478=ADVANCED_FACE('',(#1477),#1470,.F.);
#1489=ADVANCED_FACE('',(#1488),#1483,.F.);
#1490=CLOSED_SHELL('',(#803,#818,#835,#847,#862,#877,#891,#903,#919,#934,#947,
#963,#978,#991,#1007,#1022,#1049,#1088,#1125,#1140,#1155,#1169,#1184,#1197,
#1207,#1219,#1242,#1258,#1270,#1286,#1304,#1323,#1336,#1350,#1363,#1379,#1397,
#1409,#1424,#1439,#1451,#1465,#1478,#1489));
#1491=MANIFOLD_SOLID_BREP('',#1490);
#1492=(LENGTH_UNIT()NAMED_UNIT(*)SI_UNIT(.MILLI.,.METRE.));
#1493=(NAMED_UNIT(*)PLANE_ANGLE_UNIT()SI_UNIT($,.RADIAN.));
#1496=(NAMED_UNIT(*)SI_UNIT($,.STERADIAN.)SOLID_ANGLE_UNIT());
#1498=(GEOMETRIC_REPRESENTATION_CONTEXT(3)GLOBAL_UNCERTAINTY_ASSIGNED_CONTEXT((
#1497))GLOBAL_UNIT_ASSIGNED_CONTEXT((#1492,#1495,#1496))REPRESENTATION_CONTEXT(
'ID1','3'));
#1499=ADVANCED_BREP_SHAPE_REPRESENTATION('',(#1491),#1498);
#1506=PRODUCT_DEFINITION('part definition','',#1505,#1502);
#1507=PRODUCT_DEFINITION_SHAPE('','SHAPE FOR C-L9000081-01.',#1506);
#1508=SHAPE_ASPECT('','solid data associated with C-L9000081-01',#1507,.F.);
#1509=PROPERTY_DEFINITION('',
'shape for solid data with which properties are associated',#1508);
#1510=SHAPE_REPRESENTATION('',(#1491),#1498);
#1511=SHAPE_DEFINITION_REPRESENTATION(#1509,#1510);
#1512=(LENGTH_UNIT()NAMED_UNIT(*)SI_UNIT(.MILLI.,.METRE.));
#1516=PROPERTY_DEFINITION('geometric validation property',
'area of C-L9000081-01',#1508);
#1517=REPRESENTATION('surface area',(#1515),#1498);
#1518=PROPERTY_DEFINITION_REPRESENTATION(#1516,#1517);
#1519=(LENGTH_UNIT()NAMED_UNIT(*)SI_UNIT(.MILLI.,.METRE.));
#1523=PROPERTY_DEFINITION('geometric validation property',
'volume of C-L9000081-01',#1508);
#1524=REPRESENTATION('volume',(#1522),#1498);
#1525=PROPERTY_DEFINITION_REPRESENTATION(#1523,#1524);
#1527=PROPERTY_DEFINITION('geometric validation property',
'centroid of C-L9000081-01',#1508);
#1528=REPRESENTATION('centroid',(#1526),#1498);
#1529=PROPERTY_DEFINITION_REPRESENTATION(#1527,#1528);
#1530=(LENGTH_UNIT()NAMED_UNIT(*)SI_UNIT(.MILLI.,.METRE.));
#1534=PROPERTY_DEFINITION('geometric validation property',
'area of C-L9000081-01',#1507);
#1535=REPRESENTATION('surface area',(#1533),#1498);
#1536=PROPERTY_DEFINITION_REPRESENTATION(#1534,#1535);
#1537=(LENGTH_UNIT()NAMED_UNIT(*)SI_UNIT(.MILLI.,.METRE.));
#1541=PROPERTY_DEFINITION('geometric validation property',
'volume of C-L9000081-01',#1507);
#1542=REPRESENTATION('volume',(#1540),#1498);
#1543=PROPERTY_DEFINITION_REPRESENTATION(#1541,#1542);
#1545=PROPERTY_DEFINITION('geometric validation property',
'centroid of C-L9000081-01',#1507);
#1546=REPRESENTATION('centroid',(#1544),#1498);
#1547=PROPERTY_DEFINITION_REPRESENTATION(#1545,#1546);
#1548=SHAPE_DEFINITION_REPRESENTATION(#1507,#1499);
ENDSEC;
END-ISO-10303-21;
