ISO-10303-21;
HEADER;
FILE_DESCRIPTION(('FreeCAD Model'),'2;1');
FILE_NAME('Open CASCADE Shape Model','2026-07-12T10:58:21',(''),(''),
  'Open CASCADE STEP processor 7.8','FreeCAD','Unknown');
FILE_SCHEMA(('AUTOMOTIVE_DESIGN { 1 0 10303 214 1 1 1 1 }'));
ENDSEC;
DATA;
#1 = APPLICATION_PROTOCOL_DEFINITION('international standard',
  'automotive_design',2000,#2);
#2 = APPLICATION_CONTEXT(
  'core data for automotive mechanical design processes');
#3 = SHAPE_DEFINITION_REPRESENTATION(#4,#10);
#4 = PRODUCT_DEFINITION_SHAPE('','',#5);
#5 = PRODUCT_DEFINITION('design','',#6,#9);
#6 = PRODUCT_DEFINITION_FORMATION('','',#7);
#7 = PRODUCT('Pulse_W1010_90_Folded','Pulse_W1010_90_Folded','',(#8));
#8 = PRODUCT_CONTEXT('',#2,'mechanical');
#9 = PRODUCT_DEFINITION_CONTEXT('part definition',#2,'design');
#10 = ADVANCED_BREP_SHAPE_REPRESENTATION('',(#11,#15),#445);
#11 = AXIS2_PLACEMENT_3D('',#12,#13,#14);
#12 = CARTESIAN_POINT('',(0.,0.,0.));
#13 = DIRECTION('',(0.,0.,1.));
#14 = DIRECTION('',(1.,0.,-0.));
#15 = MANIFOLD_SOLID_BREP('',#16);
#16 = CLOSED_SHELL('',(#17,#129,#177,#212,#232,#275,#362,#381,#406,#422,
    #433));
#17 = ADVANCED_FACE('',(#18),#124,.T.);
#18 = FACE_BOUND('',#19,.T.);
#19 = EDGE_LOOP('',(#20,#31,#68,#76,#83,#84));
#20 = ORIENTED_EDGE('',*,*,#21,.F.);
#21 = EDGE_CURVE('',#22,#24,#26,.T.);
#22 = VERTEX_POINT('',#23);
#23 = CARTESIAN_POINT('',(3.,4.,25.85));
#24 = VERTEX_POINT('',#25);
#25 = CARTESIAN_POINT('',(3.,-4.,25.85));
#26 = CIRCLE('',#27,5.);
#27 = AXIS2_PLACEMENT_3D('',#28,#29,#30);
#28 = CARTESIAN_POINT('',(0.,0.,25.85));
#29 = DIRECTION('',(0.,0.,1.));
#30 = DIRECTION('',(1.,0.,-0.));
#31 = ORIENTED_EDGE('',*,*,#32,.F.);
#32 = EDGE_CURVE('',#33,#22,#35,.T.);
#33 = VERTEX_POINT('',#34);
#34 = CARTESIAN_POINT('',(5.,-1.E-15,21.85));
#35 = B_SPLINE_CURVE_WITH_KNOTS('',6,(#36,#37,#38,#39,#40,#41,#42,#43,
    #44,#45,#46,#47,#48,#49,#50,#51,#52,#53,#54,#55,#56,#57,#58,#59,#60,
    #61,#62,#63,#64,#65,#66,#67),.UNSPECIFIED.,.F.,.F.,(7,5,5,5,5,5,7),(
    0.,0.126509441272,0.207325982655,0.307597405312,0.572507369007,
    0.818117111428,1.),.UNSPECIFIED.);
#36 = CARTESIAN_POINT('',(5.,-4.9E-16,21.85));
#37 = CARTESIAN_POINT('',(5.,0.170024463246,21.85));
#38 = CARTESIAN_POINT('',(4.993062282753,0.339675933542,21.858672780244)
  );
#39 = CARTESIAN_POINT('',(4.979242659767,0.507622227903,21.875945565189)
  );
#40 = CARTESIAN_POINT('',(4.958890342243,0.672541289349,21.901438389089)
  );
#41 = CARTESIAN_POINT('',(4.93263517816,0.833143232153,21.934457226894)
  );
#42 = CARTESIAN_POINT('',(4.881405246009,1.087240618762,21.999239546029)
  );
#43 = CARTESIAN_POINT('',(4.859365359687,1.184158645049,22.027183472258)
  );
#44 = CARTESIAN_POINT('',(4.835428277066,1.278863328482,22.057632073068)
  );
#45 = CARTESIAN_POINT('',(4.80976993541,1.371280683806,22.090396167433)
  );
#46 = CARTESIAN_POINT('',(4.782569162568,1.461345877986,22.125284224061)
  );
#47 = CARTESIAN_POINT('',(4.71857061492,1.657762244915,22.20778369033));
#48 = CARTESIAN_POINT('',(4.681028539909,1.762845503683,22.256448913322)
  );
#49 = CARTESIAN_POINT('',(4.641671079897,1.86430826051,22.307800173796)
  );
#50 = CARTESIAN_POINT('',(4.600763021659,1.962218720137,22.361572895037)
  );
#51 = CARTESIAN_POINT('',(4.558544511747,2.056657421767,22.417535754258)
  );
#52 = CARTESIAN_POINT('',(4.400800721601,2.388288552419,22.628603384977)
  );
#53 = CARTESIAN_POINT('',(4.278551052275,2.605646493764,22.795859352334)
  );
#54 = CARTESIAN_POINT('',(4.152290991846,2.801606881985,22.973852164734)
  );
#55 = CARTESIAN_POINT('',(4.02474182841,2.978186996993,23.160756795287)
  );
#56 = CARTESIAN_POINT('',(3.897966782307,3.137102452755,23.355928875767)
  );
#57 = CARTESIAN_POINT('',(3.659621936593,3.411411996369,23.748716235276)
  );
#58 = CARTESIAN_POINT('',(3.547755518081,3.528972946672,23.944889652274)
  );
#59 = CARTESIAN_POINT('',(3.440766860204,3.632793625622,24.148157747728)
  );
#60 = CARTESIAN_POINT('',(3.341157214694,3.722888613287,24.358581935747)
  );
#61 = CARTESIAN_POINT('',(3.252288597464,3.798931660055,24.576199365911)
  );
#62 = CARTESIAN_POINT('',(3.122962837828,3.905404309235,24.96813996614)
  );
#63 = CARTESIAN_POINT('',(3.075686099849,3.942747884939,25.139778045691)
  );
#64 = CARTESIAN_POINT('',(3.038429798417,3.971178268721,25.314719363026)
  );
#65 = CARTESIAN_POINT('',(3.012883940924,3.990336873265,25.491887131581)
  );
#66 = CARTESIAN_POINT('',(2.999999964105,4.000000026921,25.670526225182)
  );
#67 = CARTESIAN_POINT('',(3.,4.,25.8500006));
#68 = ORIENTED_EDGE('',*,*,#69,.F.);
#69 = EDGE_CURVE('',#70,#33,#72,.T.);
#70 = VERTEX_POINT('',#71);
#71 = CARTESIAN_POINT('',(5.,-1.E-15,0.));
#72 = LINE('',#73,#74);
#73 = CARTESIAN_POINT('',(5.,-1.22E-15,0.));
#74 = VECTOR('',#75,1.);
#75 = DIRECTION('',(0.,0.,1.));
#76 = ORIENTED_EDGE('',*,*,#77,.T.);
#77 = EDGE_CURVE('',#70,#70,#78,.T.);
#78 = CIRCLE('',#79,5.);
#79 = AXIS2_PLACEMENT_3D('',#80,#81,#82);
#80 = CARTESIAN_POINT('',(0.,0.,0.));
#81 = DIRECTION('',(0.,0.,1.));
#82 = DIRECTION('',(1.,0.,-0.));
#83 = ORIENTED_EDGE('',*,*,#69,.T.);
#84 = ORIENTED_EDGE('',*,*,#85,.F.);
#85 = EDGE_CURVE('',#24,#33,#86,.T.);
#86 = B_SPLINE_CURVE_WITH_KNOTS('',6,(#87,#88,#89,#90,#91,#92,#93,#94,
    #95,#96,#97,#98,#99,#100,#101,#102,#103,#104,#105,#106,#107,#108,
    #109,#110,#111,#112,#113,#114,#115,#116,#117,#118,#119,#120,#121,
    #122,#123),.UNSPECIFIED.,.F.,.F.,(7,5,5,5,5,5,5,7),(0.,
    0.109535704839,0.20992963356,0.429460992301,0.692367184214,
    0.793758392866,0.8737556305,1.),.UNSPECIFIED.);
#87 = CARTESIAN_POINT('',(3.,-4.,25.8500006));
#88 = CARTESIAN_POINT('',(2.99999997846,-4.000000016155,25.742298334302)
  );
#89 = CARTESIAN_POINT('',(3.004639689183,-3.996519670089,25.634678243101
    ));
#90 = CARTESIAN_POINT('',(3.013906734246,-3.989570972726,25.527381974681
    ));
#91 = CARTESIAN_POINT('',(3.027662831292,-3.979189214197,25.420659369425
    ));
#92 = CARTESIAN_POINT('',(3.045647275635,-3.965450422552,25.314793901925
    ));
#93 = CARTESIAN_POINT('',(3.087491351034,-3.932942826099,25.114197679657
    ));
#94 = CARTESIAN_POINT('',(3.110739566148,-3.914686715557,25.019255567048
    ));
#95 = CARTESIAN_POINT('',(3.136983224688,-3.893786592559,24.925338740729
    ));
#96 = CARTESIAN_POINT('',(3.165955586299,-3.870305696234,24.832508027027
    ));
#97 = CARTESIAN_POINT('',(3.1973700239,-3.84431503097,24.740848211991));
#98 = CARTESIAN_POINT('',(3.304299824205,-3.753777593084,24.452834046157
    ));
#99 = CARTESIAN_POINT('',(3.387958366568,-3.680037542466,24.261191972588
    ));
#100 = CARTESIAN_POINT('',(3.479257465129,-3.595177782094,
    24.075369053308));
#101 = CARTESIAN_POINT('',(3.575972704556,-3.499351525828,
    23.895235381266));
#102 = CARTESIAN_POINT('',(3.676373931109,-3.392467793734,
    23.720757317641));
#103 = CARTESIAN_POINT('',(3.90189957748,-3.132157062053,23.349887429138
    ));
#104 = CARTESIAN_POINT('',(4.027792180256,-2.973934788605,
    23.156302438337));
#105 = CARTESIAN_POINT('',(4.154408674338,-2.798269172393,
    22.970883299631));
#106 = CARTESIAN_POINT('',(4.279722791931,-2.603476292771,
    22.794272025241));
#107 = CARTESIAN_POINT('',(4.401066513166,-2.387581356094,22.62826153402
    ));
#108 = CARTESIAN_POINT('',(4.558543542303,-2.056716229218,22.41753177694
    ));
#109 = CARTESIAN_POINT('',(4.60125411778,-1.961171411366,22.360918304026
    ));
#110 = CARTESIAN_POINT('',(4.642622891586,-1.862072828568,
    22.306546821321));
#111 = CARTESIAN_POINT('',(4.682400920814,-1.759337509277,
    22.254657229926));
#112 = CARTESIAN_POINT('',(4.720313506415,-1.652895455975,
    22.205524185727));
#113 = CARTESIAN_POINT('',(4.784263816398,-1.455738897449,
    22.123110426595));
#114 = CARTESIAN_POINT('',(4.811125546663,-1.366425854883,
    22.088664554213));
#115 = CARTESIAN_POINT('',(4.836468073319,-1.274806941122,
    22.056308628543));
#116 = CARTESIAN_POINT('',(4.860117307167,-1.180946670838,
    22.026229209687));
#117 = CARTESIAN_POINT('',(4.881902177871,-1.08491830595,21.998610307752
    ));
#118 = CARTESIAN_POINT('',(4.932826164839,-0.831968547719,
    21.934217070126));
#119 = CARTESIAN_POINT('',(4.959009984381,-0.671573766886,
    21.901288553358));
#120 = CARTESIAN_POINT('',(4.979305782511,-0.506871619175,
    21.875866652472));
#121 = CARTESIAN_POINT('',(4.993084549306,-0.339154915741,
    21.858644919131));
#122 = CARTESIAN_POINT('',(5.,-0.169748404201,21.85));
#123 = CARTESIAN_POINT('',(5.,-8.9E-16,21.85));
#124 = CYLINDRICAL_SURFACE('',#125,5.);
#125 = AXIS2_PLACEMENT_3D('',#126,#127,#128);
#126 = CARTESIAN_POINT('',(0.,0.,0.));
#127 = DIRECTION('',(0.,0.,1.));
#128 = DIRECTION('',(1.,0.,-0.));
#129 = ADVANCED_FACE('',(#130),#172,.T.);
#130 = FACE_BOUND('',#131,.T.);
#131 = EDGE_LOOP('',(#132,#140,#141,#149,#157,#166));
#132 = ORIENTED_EDGE('',*,*,#133,.T.);
#133 = EDGE_CURVE('',#134,#22,#136,.T.);
#134 = VERTEX_POINT('',#135);
#135 = CARTESIAN_POINT('',(0.,4.,25.85));
#136 = LINE('',#137,#138);
#137 = CARTESIAN_POINT('',(0.,4.,25.85));
#138 = VECTOR('',#139,1.);
#139 = DIRECTION('',(1.,0.,1.1E-16));
#140 = ORIENTED_EDGE('',*,*,#21,.T.);
#141 = ORIENTED_EDGE('',*,*,#142,.F.);
#142 = EDGE_CURVE('',#143,#24,#145,.T.);
#143 = VERTEX_POINT('',#144);
#144 = CARTESIAN_POINT('',(-0.,-4.,25.85));
#145 = LINE('',#146,#147);
#146 = CARTESIAN_POINT('',(0.,-4.,25.85));
#147 = VECTOR('',#148,1.);
#148 = DIRECTION('',(1.,0.,1.1E-16));
#149 = ORIENTED_EDGE('',*,*,#150,.T.);
#150 = EDGE_CURVE('',#143,#151,#153,.T.);
#151 = VERTEX_POINT('',#152);
#152 = CARTESIAN_POINT('',(-0.,-1.5,25.85));
#153 = LINE('',#154,#155);
#154 = CARTESIAN_POINT('',(0.,0.,25.85));
#155 = VECTOR('',#156,1.);
#156 = DIRECTION('',(0.,1.,0.));
#157 = ORIENTED_EDGE('',*,*,#158,.F.);
#158 = EDGE_CURVE('',#159,#151,#161,.T.);
#159 = VERTEX_POINT('',#160);
#160 = CARTESIAN_POINT('',(0.,1.5,25.85));
#161 = CIRCLE('',#162,1.5);
#162 = AXIS2_PLACEMENT_3D('',#163,#164,#165);
#163 = CARTESIAN_POINT('',(0.,0.,25.85));
#164 = DIRECTION('',(0.,0.,1.));
#165 = DIRECTION('',(1.,0.,-0.));
#166 = ORIENTED_EDGE('',*,*,#167,.T.);
#167 = EDGE_CURVE('',#159,#134,#168,.T.);
#168 = LINE('',#169,#170);
#169 = CARTESIAN_POINT('',(0.,0.,25.85));
#170 = VECTOR('',#171,1.);
#171 = DIRECTION('',(0.,1.,0.));
#172 = PLANE('',#173);
#173 = AXIS2_PLACEMENT_3D('',#174,#175,#176);
#174 = CARTESIAN_POINT('',(0.,0.,25.85));
#175 = DIRECTION('',(0.,0.,1.));
#176 = DIRECTION('',(1.,0.,-0.));
#177 = ADVANCED_FACE('',(#178),#207,.T.);
#178 = FACE_BOUND('',#179,.T.);
#179 = EDGE_LOOP('',(#180,#188,#195,#196,#197,#198,#205,#206));
#180 = ORIENTED_EDGE('',*,*,#181,.T.);
#181 = EDGE_CURVE('',#33,#182,#184,.T.);
#182 = VERTEX_POINT('',#183);
#183 = CARTESIAN_POINT('',(78.7,-1.E-15,21.85));
#184 = LINE('',#185,#186);
#185 = CARTESIAN_POINT('',(0.,-9.8E-16,21.85));
#186 = VECTOR('',#187,1.);
#187 = DIRECTION('',(1.,0.,0.));
#188 = ORIENTED_EDGE('',*,*,#189,.F.);
#189 = EDGE_CURVE('',#182,#182,#190,.T.);
#190 = CIRCLE('',#191,4.);
#191 = AXIS2_PLACEMENT_3D('',#192,#193,#194);
#192 = CARTESIAN_POINT('',(78.7,0.,25.85));
#193 = DIRECTION('',(1.,-0.,0.));
#194 = DIRECTION('',(0.,0.,-1.));
#195 = ORIENTED_EDGE('',*,*,#181,.F.);
#196 = ORIENTED_EDGE('',*,*,#32,.T.);
#197 = ORIENTED_EDGE('',*,*,#133,.F.);
#198 = ORIENTED_EDGE('',*,*,#199,.T.);
#199 = EDGE_CURVE('',#134,#143,#200,.T.);
#200 = CIRCLE('',#201,4.);
#201 = AXIS2_PLACEMENT_3D('',#202,#203,#204);
#202 = CARTESIAN_POINT('',(0.,0.,25.85));
#203 = DIRECTION('',(1.,-0.,0.));
#204 = DIRECTION('',(0.,0.,-1.));
#205 = ORIENTED_EDGE('',*,*,#142,.T.);
#206 = ORIENTED_EDGE('',*,*,#85,.T.);
#207 = CYLINDRICAL_SURFACE('',#208,4.);
#208 = AXIS2_PLACEMENT_3D('',#209,#210,#211);
#209 = CARTESIAN_POINT('',(0.,0.,25.85));
#210 = DIRECTION('',(1.,0.,0.));
#211 = DIRECTION('',(0.,0.,-1.));
#212 = ADVANCED_FACE('',(#213,#216),#227,.F.);
#213 = FACE_BOUND('',#214,.F.);
#214 = EDGE_LOOP('',(#215));
#215 = ORIENTED_EDGE('',*,*,#77,.T.);
#216 = FACE_BOUND('',#217,.F.);
#217 = EDGE_LOOP('',(#218));
#218 = ORIENTED_EDGE('',*,*,#219,.F.);
#219 = EDGE_CURVE('',#220,#220,#222,.T.);
#220 = VERTEX_POINT('',#221);
#221 = CARTESIAN_POINT('',(3.25,-1.E-15,0.));
#222 = CIRCLE('',#223,3.25);
#223 = AXIS2_PLACEMENT_3D('',#224,#225,#226);
#224 = CARTESIAN_POINT('',(0.,0.,0.));
#225 = DIRECTION('',(0.,0.,1.));
#226 = DIRECTION('',(1.,0.,-0.));
#227 = PLANE('',#228);
#228 = AXIS2_PLACEMENT_3D('',#229,#230,#231);
#229 = CARTESIAN_POINT('',(0.,0.,0.));
#230 = DIRECTION('',(0.,0.,1.));
#231 = DIRECTION('',(1.,0.,-0.));
#232 = ADVANCED_FACE('',(#233),#270,.F.);
#233 = FACE_BOUND('',#234,.F.);
#234 = EDGE_LOOP('',(#235,#246,#255,#261,#262,#263,#264));
#235 = ORIENTED_EDGE('',*,*,#236,.T.);
#236 = EDGE_CURVE('',#237,#239,#241,.T.);
#237 = VERTEX_POINT('',#238);
#238 = CARTESIAN_POINT('',(0.,-1.5,22.141900756452));
#239 = VERTEX_POINT('',#240);
#240 = CARTESIAN_POINT('',(0.,-1.E-15,21.85));
#241 = CIRCLE('',#242,4.);
#242 = AXIS2_PLACEMENT_3D('',#243,#244,#245);
#243 = CARTESIAN_POINT('',(0.,0.,25.85));
#244 = DIRECTION('',(1.,-0.,0.));
#245 = DIRECTION('',(0.,0.,-1.));
#246 = ORIENTED_EDGE('',*,*,#247,.T.);
#247 = EDGE_CURVE('',#239,#248,#250,.T.);
#248 = VERTEX_POINT('',#249);
#249 = CARTESIAN_POINT('',(0.,1.5,22.141900756452));
#250 = CIRCLE('',#251,4.);
#251 = AXIS2_PLACEMENT_3D('',#252,#253,#254);
#252 = CARTESIAN_POINT('',(0.,0.,25.85));
#253 = DIRECTION('',(1.,-0.,0.));
#254 = DIRECTION('',(0.,0.,-1.));
#255 = ORIENTED_EDGE('',*,*,#256,.T.);
#256 = EDGE_CURVE('',#248,#159,#257,.T.);
#257 = LINE('',#258,#259);
#258 = CARTESIAN_POINT('',(2.87E-15,1.5,0.));
#259 = VECTOR('',#260,1.);
#260 = DIRECTION('',(0.,0.,1.));
#261 = ORIENTED_EDGE('',*,*,#167,.T.);
#262 = ORIENTED_EDGE('',*,*,#199,.T.);
#263 = ORIENTED_EDGE('',*,*,#150,.T.);
#264 = ORIENTED_EDGE('',*,*,#265,.F.);
#265 = EDGE_CURVE('',#237,#151,#266,.T.);
#266 = LINE('',#267,#268);
#267 = CARTESIAN_POINT('',(2.87E-15,-1.5,0.));
#268 = VECTOR('',#269,1.);
#269 = DIRECTION('',(0.,0.,1.));
#270 = PLANE('',#271);
#271 = AXIS2_PLACEMENT_3D('',#272,#273,#274);
#272 = CARTESIAN_POINT('',(0.,0.,25.85));
#273 = DIRECTION('',(1.,0.,0.));
#274 = DIRECTION('',(0.,0.,-1.));
#275 = ADVANCED_FACE('',(#276),#357,.F.);
#276 = FACE_BOUND('',#277,.F.);
#277 = EDGE_LOOP('',(#278,#279,#280,#311,#319,#326,#327,#356));
#278 = ORIENTED_EDGE('',*,*,#158,.F.);
#279 = ORIENTED_EDGE('',*,*,#256,.F.);
#280 = ORIENTED_EDGE('',*,*,#281,.F.);
#281 = EDGE_CURVE('',#282,#248,#284,.T.);
#282 = VERTEX_POINT('',#283);
#283 = CARTESIAN_POINT('',(1.5,-1.E-15,21.85));
#284 = B_SPLINE_CURVE_WITH_KNOTS('',7,(#285,#286,#287,#288,#289,#290,
    #291,#292,#293,#294,#295,#296,#297,#298,#299,#300,#301,#302,#303,
    #304,#305,#306,#307,#308,#309,#310),.UNSPECIFIED.,.F.,.F.,(8,6,6,6,8
    ),(0.,0.285613703225,0.414035798929,0.931636962761,1.),
  .UNSPECIFIED.);
#285 = CARTESIAN_POINT('',(1.5,-1.8E-16,21.85));
#286 = CARTESIAN_POINT('',(1.5,0.111391396949,21.85));
#287 = CARTESIAN_POINT('',(1.490349273921,0.222115391406,21.853618994669
    ));
#288 = CARTESIAN_POINT('',(1.471256121336,0.330867295097,21.860779003804
    ));
#289 = CARTESIAN_POINT('',(1.443213514203,0.436378287024,21.871168857005
    ));
#290 = CARTESIAN_POINT('',(1.406996165915,0.537462486842,21.884261235219
    ));
#291 = CARTESIAN_POINT('',(1.363671035347,0.633068741981,21.899372019232
    ));
#292 = CARTESIAN_POINT('',(1.292566742209,0.762475375208,21.92313143962)
  );
#293 = CARTESIAN_POINT('',(1.269294548743,0.80144204119,21.930779689985)
  );
#294 = CARTESIAN_POINT('',(1.244879649959,0.839217916369,21.938655145921
    ));
#295 = CARTESIAN_POINT('',(1.219394501427,0.875787081021,21.946707167684
    ));
#296 = CARTESIAN_POINT('',(1.192909177014,0.911136742519,21.954886431254
    ));
#297 = CARTESIAN_POINT('',(1.165491496051,0.945257072058,21.963145333554
    ));
#298 = CARTESIAN_POINT('',(1.023207997211,1.110678831736,22.00486332823)
  );
#299 = CARTESIAN_POINT('',(0.89496190165,1.223328295302,22.03889260809)
  );
#300 = CARTESIAN_POINT('',(0.756224369553,1.316064337705,22.070686986051
    ));
#301 = CARTESIAN_POINT('',(0.609835152662,1.389176484242,22.097954376677
    ));
#302 = CARTESIAN_POINT('',(0.458048925501,1.442964754437,22.119033454127
    ));
#303 = CARTESIAN_POINT('',(0.302740684431,1.477589786941,22.132877280839
    ));
#304 = CARTESIAN_POINT('',(0.124861839991,1.494939561519,22.139857082574
    ));
#305 = CARTESIAN_POINT('',(0.104084416365,1.496626370472,22.140537181672
    ));
#306 = CARTESIAN_POINT('',(8.32872049322E-02,1.497975824679,
    22.141082162433));
#307 = CARTESIAN_POINT('',(6.247514818023E-02,1.498987918397,
    22.141491348961));
#308 = CARTESIAN_POINT('',(4.165319320484E-02,1.49966264727,
    22.141764290178));
#309 = CARTESIAN_POINT('',(2.082629170836E-02,1.500000008331,
    22.141900759822));
#310 = CARTESIAN_POINT('',(-6.0000000041E-07,1.5,22.141900756452));
#311 = ORIENTED_EDGE('',*,*,#312,.F.);
#312 = EDGE_CURVE('',#313,#282,#315,.T.);
#313 = VERTEX_POINT('',#314);
#314 = CARTESIAN_POINT('',(1.5,-0.,7.5));
#315 = LINE('',#316,#317);
#316 = CARTESIAN_POINT('',(1.5,-3.7E-16,0.));
#317 = VECTOR('',#318,1.);
#318 = DIRECTION('',(0.,0.,1.));
#319 = ORIENTED_EDGE('',*,*,#320,.T.);
#320 = EDGE_CURVE('',#313,#313,#321,.T.);
#321 = CIRCLE('',#322,1.5);
#322 = AXIS2_PLACEMENT_3D('',#323,#324,#325);
#323 = CARTESIAN_POINT('',(0.,0.,7.5));
#324 = DIRECTION('',(0.,0.,1.));
#325 = DIRECTION('',(1.,0.,-0.));
#326 = ORIENTED_EDGE('',*,*,#312,.T.);
#327 = ORIENTED_EDGE('',*,*,#328,.F.);
#328 = EDGE_CURVE('',#237,#282,#329,.T.);
#329 = B_SPLINE_CURVE_WITH_KNOTS('',7,(#330,#331,#332,#333,#334,#335,
    #336,#337,#338,#339,#340,#341,#342,#343,#344,#345,#346,#347,#348,
    #349,#350,#351,#352,#353,#354,#355),.UNSPECIFIED.,.F.,.F.,(8,6,6,6,8
    ),(0.,6.689085357513E-02,0.58191541254,0.713509267983,1.),
  .UNSPECIFIED.);
#330 = CARTESIAN_POINT('',(-5.9999999962E-07,-1.5,22.141900756452));
#331 = CARTESIAN_POINT('',(2.037742446481E-02,-1.500000008151,
    22.141900759749));
#332 = CARTESIAN_POINT('',(4.075544995926E-02,-1.499677032644,
    22.141770109393));
#333 = CARTESIAN_POINT('',(6.112883997112E-02,-1.499031074831,
    22.141508806637));
#334 = CARTESIAN_POINT('',(8.149295962261E-02,-1.498062137432,
    22.141117058855));
#335 = CARTESIAN_POINT('',(0.10184317567,-1.496770224534,22.140595279542
    ));
#336 = CARTESIAN_POINT('',(0.122174856505,-1.495155341593,
    22.139944088318));
#337 = CARTESIAN_POINT('',(0.298848312285,-1.478297094334,
    22.133160433137));
#338 = CARTESIAN_POINT('',(0.453446754804,-1.444268478967,
    22.119548854632));
#339 = CARTESIAN_POINT('',(0.60459602852,-1.391265757087,22.09875791281)
  );
#340 = CARTESIAN_POINT('',(0.750449292634,-1.319134576142,
    22.071809238687));
#341 = CARTESIAN_POINT('',(0.888792131615,-1.227583666071,
    22.040327873009));
#342 = CARTESIAN_POINT('',(1.016842557361,-1.116330017509,
    22.006556202534));
#343 = CARTESIAN_POINT('',(1.160082313681,-0.95193388816,21.964769823991
    ));
#344 = CARTESIAN_POINT('',(1.188333448078,-0.917178752171,
    21.956294347997));
#345 = CARTESIAN_POINT('',(1.215614755324,-0.881131901902,
    21.947895957853));
#346 = CARTESIAN_POINT('',(1.241853731934,-0.843803402434,21.939625617)
  );
#347 = CARTESIAN_POINT('',(1.266975347095,-0.805206543314,
    21.931536221609));
#348 = CARTESIAN_POINT('',(1.290901900126,-0.765358025583,
    21.923682150797));
#349 = CARTESIAN_POINT('',(1.36286593436,-0.634843851666,21.899652811862
    ));
#350 = CARTESIAN_POINT('',(1.406435991349,-0.539024051304,
    21.884463701264));
#351 = CARTESIAN_POINT('',(1.442865864808,-0.437682977041,
    21.871297639796));
#352 = CARTESIAN_POINT('',(1.471077716716,-0.331878538293,21.8608459059)
  );
#353 = CARTESIAN_POINT('',(1.490288665359,-0.222805014534,
    21.853641722571));
#354 = CARTESIAN_POINT('',(1.5,-0.111740628122,21.85));
#355 = CARTESIAN_POINT('',(1.5,-6.7E-16,21.85));
#356 = ORIENTED_EDGE('',*,*,#265,.T.);
#357 = CYLINDRICAL_SURFACE('',#358,1.5);
#358 = AXIS2_PLACEMENT_3D('',#359,#360,#361);
#359 = CARTESIAN_POINT('',(0.,0.,0.));
#360 = DIRECTION('',(0.,0.,1.));
#361 = DIRECTION('',(1.,0.,-0.));
#362 = ADVANCED_FACE('',(#363),#376,.T.);
#363 = FACE_BOUND('',#364,.T.);
#364 = EDGE_LOOP('',(#365,#374,#375));
#365 = ORIENTED_EDGE('',*,*,#366,.T.);
#366 = EDGE_CURVE('',#182,#367,#369,.T.);
#367 = VERTEX_POINT('',#368);
#368 = CARTESIAN_POINT('',(82.7,0.,25.85));
#369 = CIRCLE('',#370,4.);
#370 = AXIS2_PLACEMENT_3D('',#371,#372,#373);
#371 = CARTESIAN_POINT('',(78.7,0.,25.85));
#372 = DIRECTION('',(0.,-1.,2.4E-16));
#373 = DIRECTION('',(0.,-2.4E-16,-1.));
#374 = ORIENTED_EDGE('',*,*,#366,.F.);
#375 = ORIENTED_EDGE('',*,*,#189,.T.);
#376 = SPHERICAL_SURFACE('',#377,4.);
#377 = AXIS2_PLACEMENT_3D('',#378,#379,#380);
#378 = CARTESIAN_POINT('',(78.7,0.,25.85));
#379 = DIRECTION('',(1.,0.,0.));
#380 = DIRECTION('',(0.,0.,-1.));
#381 = ADVANCED_FACE('',(#382),#401,.F.);
#382 = FACE_BOUND('',#383,.F.);
#383 = EDGE_LOOP('',(#384,#393,#399,#400));
#384 = ORIENTED_EDGE('',*,*,#385,.F.);
#385 = EDGE_CURVE('',#386,#386,#388,.T.);
#386 = VERTEX_POINT('',#387);
#387 = CARTESIAN_POINT('',(3.25,-1.E-15,7.5));
#388 = CIRCLE('',#389,3.25);
#389 = AXIS2_PLACEMENT_3D('',#390,#391,#392);
#390 = CARTESIAN_POINT('',(0.,0.,7.5));
#391 = DIRECTION('',(0.,0.,1.));
#392 = DIRECTION('',(1.,0.,-0.));
#393 = ORIENTED_EDGE('',*,*,#394,.F.);
#394 = EDGE_CURVE('',#220,#386,#395,.T.);
#395 = LINE('',#396,#397);
#396 = CARTESIAN_POINT('',(3.25,-8.E-16,0.));
#397 = VECTOR('',#398,1.);
#398 = DIRECTION('',(0.,0.,1.));
#399 = ORIENTED_EDGE('',*,*,#219,.T.);
#400 = ORIENTED_EDGE('',*,*,#394,.T.);
#401 = CYLINDRICAL_SURFACE('',#402,3.25);
#402 = AXIS2_PLACEMENT_3D('',#403,#404,#405);
#403 = CARTESIAN_POINT('',(0.,0.,0.));
#404 = DIRECTION('',(0.,0.,1.));
#405 = DIRECTION('',(1.,0.,-0.));
#406 = ADVANCED_FACE('',(#407),#417,.T.);
#407 = FACE_BOUND('',#408,.T.);
#408 = EDGE_LOOP('',(#409,#415,#416));
#409 = ORIENTED_EDGE('',*,*,#410,.T.);
#410 = EDGE_CURVE('',#239,#282,#411,.T.);
#411 = LINE('',#412,#413);
#412 = CARTESIAN_POINT('',(0.,-9.8E-16,21.85));
#413 = VECTOR('',#414,1.);
#414 = DIRECTION('',(1.,0.,0.));
#415 = ORIENTED_EDGE('',*,*,#328,.F.);
#416 = ORIENTED_EDGE('',*,*,#236,.T.);
#417 = CYLINDRICAL_SURFACE('',#418,4.);
#418 = AXIS2_PLACEMENT_3D('',#419,#420,#421);
#419 = CARTESIAN_POINT('',(0.,0.,25.85));
#420 = DIRECTION('',(1.,0.,0.));
#421 = DIRECTION('',(0.,0.,-1.));
#422 = ADVANCED_FACE('',(#423),#428,.T.);
#423 = FACE_BOUND('',#424,.T.);
#424 = EDGE_LOOP('',(#425,#426,#427));
#425 = ORIENTED_EDGE('',*,*,#281,.F.);
#426 = ORIENTED_EDGE('',*,*,#410,.F.);
#427 = ORIENTED_EDGE('',*,*,#247,.T.);
#428 = CYLINDRICAL_SURFACE('',#429,4.);
#429 = AXIS2_PLACEMENT_3D('',#430,#431,#432);
#430 = CARTESIAN_POINT('',(0.,0.,25.85));
#431 = DIRECTION('',(1.,0.,0.));
#432 = DIRECTION('',(0.,0.,-1.));
#433 = ADVANCED_FACE('',(#434,#437),#440,.F.);
#434 = FACE_BOUND('',#435,.F.);
#435 = EDGE_LOOP('',(#436));
#436 = ORIENTED_EDGE('',*,*,#385,.T.);
#437 = FACE_BOUND('',#438,.F.);
#438 = EDGE_LOOP('',(#439));
#439 = ORIENTED_EDGE('',*,*,#320,.F.);
#440 = PLANE('',#441);
#441 = AXIS2_PLACEMENT_3D('',#442,#443,#444);
#442 = CARTESIAN_POINT('',(0.,0.,7.5));
#443 = DIRECTION('',(0.,0.,1.));
#444 = DIRECTION('',(1.,0.,-0.));
#445 = ( GEOMETRIC_REPRESENTATION_CONTEXT(3) 
GLOBAL_UNCERTAINTY_ASSIGNED_CONTEXT((#449)) GLOBAL_UNIT_ASSIGNED_CONTEXT
((#446,#447,#448)) REPRESENTATION_CONTEXT('Context #1',
  '3D Context with UNIT and UNCERTAINTY') );
#446 = ( LENGTH_UNIT() NAMED_UNIT(*) SI_UNIT(.MILLI.,.METRE.) );
#447 = ( NAMED_UNIT(*) PLANE_ANGLE_UNIT() SI_UNIT($,.RADIAN.) );
#448 = ( NAMED_UNIT(*) SI_UNIT($,.STERADIAN.) SOLID_ANGLE_UNIT() );
#449 = UNCERTAINTY_MEASURE_WITH_UNIT(LENGTH_MEASURE(1.E-07),#446,
  'distance_accuracy_value','confusion accuracy');
#450 = PRODUCT_RELATED_PRODUCT_CATEGORY('part',$,(#7));
#451 = MECHANICAL_DESIGN_GEOMETRIC_PRESENTATION_REPRESENTATION('',(#452)
  ,#445);
#452 = STYLED_ITEM('color',(#453),#15);
#453 = PRESENTATION_STYLE_ASSIGNMENT((#454,#460));
#454 = SURFACE_STYLE_USAGE(.BOTH.,#455);
#455 = SURFACE_SIDE_STYLE('',(#456));
#456 = SURFACE_STYLE_FILL_AREA(#457);
#457 = FILL_AREA_STYLE('',(#458));
#458 = FILL_AREA_STYLE_COLOUR('',#459);
#459 = COLOUR_RGB('',0.121568629232,0.121568629232,0.121568629232);
#460 = CURVE_STYLE('',#461,POSITIVE_LENGTH_MEASURE(0.1),#462);
#461 = DRAUGHTING_PRE_DEFINED_CURVE_FONT('continuous');
#462 = COLOUR_RGB('',0.678431390124,0.709803936702,0.741176476869);
ENDSEC;
END-ISO-10303-21;
