ISO-10303-21;
HEADER;
FILE_DESCRIPTION(('FreeCAD Model'),'2;1');
FILE_NAME('Open CASCADE Shape Model','2026-09-13T14:59:17',(''),(''),
  'Open CASCADE STEP processor 7.8','FreeCAD','Unknown');
FILE_SCHEMA((
'AP242_MANAGED_MODEL_BASED_3D_ENGINEERING_MIM_LF. {1 0 10303 442 1 1 4 
}'));
ENDSEC;
DATA;
#1 = APPLICATION_PROTOCOL_DEFINITION('international standard',
  'ap242_managed_model_based_3d_engineering',2013,#2);
#2 = APPLICATION_CONTEXT('Managed model based 3d engineering');
#3 = SHAPE_DEFINITION_REPRESENTATION(#4,#10);
#4 = PRODUCT_DEFINITION_SHAPE('','',#5);
#5 = PRODUCT_DEFINITION('design','',#6,#9);
#6 = PRODUCT_DEFINITION_FORMATION('','',#7);
#7 = PRODUCT('top_enclosure-display_clip_refined_shape',
  'top_enclosure-display_clip_refined_shape','',(#8));
#8 = PRODUCT_CONTEXT('',#2,'mechanical');
#9 = PRODUCT_DEFINITION_CONTEXT('part definition',#2,'design');
#10 = ADVANCED_BREP_SHAPE_REPRESENTATION('',(#11,#15),#921);
#11 = AXIS2_PLACEMENT_3D('',#12,#13,#14);
#12 = CARTESIAN_POINT('',(0.,0.,0.));
#13 = DIRECTION('',(0.,0.,1.));
#14 = DIRECTION('',(1.,0.,-0.));
#15 = MANIFOLD_SOLID_BREP('',#16);
#16 = CLOSED_SHELL('',(#17,#57,#106,#149,#192,#237,#278,#324,#358,#383,
    #448,#473,#538,#560,#585,#620,#655,#680,#705,#740,#758,#783,#813,
    #830,#842,#859,#884,#904));
#17 = ADVANCED_FACE('',(#18),#52,.F.);
#18 = FACE_BOUND('',#19,.F.);
#19 = EDGE_LOOP('',(#20,#30,#38,#46));
#20 = ORIENTED_EDGE('',*,*,#21,.F.);
#21 = EDGE_CURVE('',#22,#24,#26,.T.);
#22 = VERTEX_POINT('',#23);
#23 = CARTESIAN_POINT('',(-3.15,11.,1.2));
#24 = VERTEX_POINT('',#25);
#25 = CARTESIAN_POINT('',(-3.15,4.,1.2));
#26 = LINE('',#27,#28);
#27 = CARTESIAN_POINT('',(-3.15,11.2,1.2));
#28 = VECTOR('',#29,1.);
#29 = DIRECTION('',(0.,-1.,2.22044604925E-16));
#30 = ORIENTED_EDGE('',*,*,#31,.F.);
#31 = EDGE_CURVE('',#32,#22,#34,.T.);
#32 = VERTEX_POINT('',#33);
#33 = CARTESIAN_POINT('',(-3.15,11.,4.));
#34 = LINE('',#35,#36);
#35 = CARTESIAN_POINT('',(-3.15,11.,3.7));
#36 = VECTOR('',#37,1.);
#37 = DIRECTION('',(0.,-2.22044604925E-16,-1.));
#38 = ORIENTED_EDGE('',*,*,#39,.T.);
#39 = EDGE_CURVE('',#32,#40,#42,.T.);
#40 = VERTEX_POINT('',#41);
#41 = CARTESIAN_POINT('',(-3.15,4.,4.));
#42 = LINE('',#43,#44);
#43 = CARTESIAN_POINT('',(-3.15,11.5,4.));
#44 = VECTOR('',#45,1.);
#45 = DIRECTION('',(0.,-1.,2.22044604925E-16));
#46 = ORIENTED_EDGE('',*,*,#47,.T.);
#47 = EDGE_CURVE('',#40,#24,#48,.T.);
#48 = LINE('',#49,#50);
#49 = CARTESIAN_POINT('',(-3.15,4.,3.7));
#50 = VECTOR('',#51,1.);
#51 = DIRECTION('',(0.,-2.22044604925E-16,-1.));
#52 = PLANE('',#53);
#53 = AXIS2_PLACEMENT_3D('',#54,#55,#56);
#54 = CARTESIAN_POINT('',(-3.15,11.5,4.));
#55 = DIRECTION('',(1.,0.,0.));
#56 = DIRECTION('',(0.,-2.22044604925E-16,-1.));
#57 = ADVANCED_FACE('',(#58),#101,.T.);
#58 = FACE_BOUND('',#59,.F.);
#59 = EDGE_LOOP('',(#60,#70,#77,#78,#87,#95));
#60 = ORIENTED_EDGE('',*,*,#61,.F.);
#61 = EDGE_CURVE('',#62,#64,#66,.T.);
#62 = VERTEX_POINT('',#63);
#63 = CARTESIAN_POINT('',(-3.05,11.3,1.1));
#64 = VERTEX_POINT('',#65);
#65 = CARTESIAN_POINT('',(-2.95,11.2,1.));
#66 = LINE('',#67,#68);
#67 = CARTESIAN_POINT('',(-3.066666666667,11.316666666667,1.116666666667
    ));
#68 = VECTOR('',#69,1.);
#69 = DIRECTION('',(0.57735026919,-0.57735026919,-0.57735026919));
#70 = ORIENTED_EDGE('',*,*,#71,.F.);
#71 = EDGE_CURVE('',#22,#62,#72,.T.);
#72 = ELLIPSE('',#73,0.707106781187,0.5);
#73 = AXIS2_PLACEMENT_3D('',#74,#75,#76);
#74 = CARTESIAN_POINT('',(-2.65,11.,0.7));
#75 = DIRECTION('',(-0.707106781187,-1.56187550398E-16,-0.707106781187)
  );
#76 = DIRECTION('',(0.707106781187,-1.578309413387E-16,-0.707106781187)
  );
#77 = ORIENTED_EDGE('',*,*,#21,.T.);
#78 = ORIENTED_EDGE('',*,*,#79,.T.);
#79 = EDGE_CURVE('',#24,#80,#82,.T.);
#80 = VERTEX_POINT('',#81);
#81 = CARTESIAN_POINT('',(-3.05,3.7,1.1));
#82 = ELLIPSE('',#83,0.707106781187,0.5);
#83 = AXIS2_PLACEMENT_3D('',#84,#85,#86);
#84 = CARTESIAN_POINT('',(-2.65,4.,0.7));
#85 = DIRECTION('',(0.707106781187,1.56187550398E-16,0.707106781187));
#86 = DIRECTION('',(0.707106781187,-1.578309413387E-16,-0.707106781187)
  );
#87 = ORIENTED_EDGE('',*,*,#88,.T.);
#88 = EDGE_CURVE('',#80,#89,#91,.T.);
#89 = VERTEX_POINT('',#90);
#90 = CARTESIAN_POINT('',(-2.95,3.8,1.));
#91 = LINE('',#92,#93);
#92 = CARTESIAN_POINT('',(-1.833333333333,4.916666666666,-0.116666666667
    ));
#93 = VECTOR('',#94,1.);
#94 = DIRECTION('',(0.57735026919,0.57735026919,-0.57735026919));
#95 = ORIENTED_EDGE('',*,*,#96,.F.);
#96 = EDGE_CURVE('',#64,#89,#97,.T.);
#97 = LINE('',#98,#99);
#98 = CARTESIAN_POINT('',(-2.95,11.2,1.));
#99 = VECTOR('',#100,1.);
#100 = DIRECTION('',(0.,-1.,2.22044604925E-16));
#101 = PLANE('',#102);
#102 = AXIS2_PLACEMENT_3D('',#103,#104,#105);
#103 = CARTESIAN_POINT('',(-3.05,11.2,1.1));
#104 = DIRECTION('',(-0.707106781187,-1.56187550398E-16,-0.707106781187)
  );
#105 = DIRECTION('',(5.810264391514E-19,1.,-2.214635784859E-16));
#106 = ADVANCED_FACE('',(#107),#144,.T.);
#107 = FACE_BOUND('',#108,.T.);
#108 = EDGE_LOOP('',(#109,#118,#127,#135,#142,#143));
#109 = ORIENTED_EDGE('',*,*,#110,.T.);
#110 = EDGE_CURVE('',#32,#111,#113,.T.);
#111 = VERTEX_POINT('',#112);
#112 = CARTESIAN_POINT('',(-3.108257569496,11.2,4.));
#113 = CIRCLE('',#114,0.5);
#114 = AXIS2_PLACEMENT_3D('',#115,#116,#117);
#115 = CARTESIAN_POINT('',(-2.65,11.,4.));
#116 = DIRECTION('',(0.,-2.22044604925E-16,-1.));
#117 = DIRECTION('',(0.,1.,-2.22044604925E-16));
#118 = ORIENTED_EDGE('',*,*,#119,.T.);
#119 = EDGE_CURVE('',#111,#120,#122,.T.);
#120 = VERTEX_POINT('',#121);
#121 = CARTESIAN_POINT('',(-2.65,11.5,3.7));
#122 = ELLIPSE('',#123,0.707106781187,0.5);
#123 = AXIS2_PLACEMENT_3D('',#124,#125,#126);
#124 = CARTESIAN_POINT('',(-2.65,11.,4.2));
#125 = DIRECTION('',(0.,-0.707106781187,-0.707106781187));
#126 = DIRECTION('',(0.,0.707106781187,-0.707106781187));
#127 = ORIENTED_EDGE('',*,*,#128,.T.);
#128 = EDGE_CURVE('',#120,#129,#131,.T.);
#129 = VERTEX_POINT('',#130);
#130 = CARTESIAN_POINT('',(-2.65,11.5,1.3));
#131 = LINE('',#132,#133);
#132 = CARTESIAN_POINT('',(-2.65,11.5,3.7));
#133 = VECTOR('',#134,1.);
#134 = DIRECTION('',(0.,-2.22044604925E-16,-1.));
#135 = ORIENTED_EDGE('',*,*,#136,.F.);
#136 = EDGE_CURVE('',#62,#129,#137,.T.);
#137 = ELLIPSE('',#138,0.707106781187,0.5);
#138 = AXIS2_PLACEMENT_3D('',#139,#140,#141);
#139 = CARTESIAN_POINT('',(-2.65,11.,0.8));
#140 = DIRECTION('',(0.,0.707106781187,-0.707106781187));
#141 = DIRECTION('',(0.,-0.707106781187,-0.707106781187));
#142 = ORIENTED_EDGE('',*,*,#71,.F.);
#143 = ORIENTED_EDGE('',*,*,#31,.F.);
#144 = CYLINDRICAL_SURFACE('',#145,0.5);
#145 = AXIS2_PLACEMENT_3D('',#146,#147,#148);
#146 = CARTESIAN_POINT('',(-2.65,11.,3.7));
#147 = DIRECTION('',(0.,-2.22044604925E-16,-1.));
#148 = DIRECTION('',(-1.,0.,0.));
#149 = ADVANCED_FACE('',(#150),#187,.T.);
#150 = FACE_BOUND('',#151,.F.);
#151 = EDGE_LOOP('',(#152,#161,#170,#178,#185,#186));
#152 = ORIENTED_EDGE('',*,*,#153,.T.);
#153 = EDGE_CURVE('',#40,#154,#156,.T.);
#154 = VERTEX_POINT('',#155);
#155 = CARTESIAN_POINT('',(-3.108257569496,3.800000000001,4.));
#156 = CIRCLE('',#157,0.5);
#157 = AXIS2_PLACEMENT_3D('',#158,#159,#160);
#158 = CARTESIAN_POINT('',(-2.65,4.,4.));
#159 = DIRECTION('',(0.,2.22044604925E-16,1.));
#160 = DIRECTION('',(0.,1.,-2.22044604925E-16));
#161 = ORIENTED_EDGE('',*,*,#162,.T.);
#162 = EDGE_CURVE('',#154,#163,#165,.T.);
#163 = VERTEX_POINT('',#164);
#164 = CARTESIAN_POINT('',(-2.65,3.5,3.7));
#165 = ELLIPSE('',#166,0.707106781186,0.5);
#166 = AXIS2_PLACEMENT_3D('',#167,#168,#169);
#167 = CARTESIAN_POINT('',(-2.65,4.,4.2));
#168 = DIRECTION('',(3.472568050348E-18,-0.707106781186,0.707106781187)
  );
#169 = DIRECTION('',(3.472568050348E-18,-0.707106781187,-0.707106781186)
  );
#170 = ORIENTED_EDGE('',*,*,#171,.T.);
#171 = EDGE_CURVE('',#163,#172,#174,.T.);
#172 = VERTEX_POINT('',#173);
#173 = CARTESIAN_POINT('',(-2.65,3.5,1.3));
#174 = LINE('',#175,#176);
#175 = CARTESIAN_POINT('',(-2.65,3.5,3.7));
#176 = VECTOR('',#177,1.);
#177 = DIRECTION('',(0.,-2.22044604925E-16,-1.));
#178 = ORIENTED_EDGE('',*,*,#179,.F.);
#179 = EDGE_CURVE('',#80,#172,#180,.T.);
#180 = ELLIPSE('',#181,0.707106781187,0.5);
#181 = AXIS2_PLACEMENT_3D('',#182,#183,#184);
#182 = CARTESIAN_POINT('',(-2.65,4.,0.799999999999));
#183 = DIRECTION('',(0.,0.707106781187,0.707106781186));
#184 = DIRECTION('',(0.,0.707106781186,-0.707106781187));
#185 = ORIENTED_EDGE('',*,*,#79,.F.);
#186 = ORIENTED_EDGE('',*,*,#47,.F.);
#187 = CYLINDRICAL_SURFACE('',#188,0.5);
#188 = AXIS2_PLACEMENT_3D('',#189,#190,#191);
#189 = CARTESIAN_POINT('',(-2.65,4.,3.7));
#190 = DIRECTION('',(0.,-2.22044604925E-16,-1.));
#191 = DIRECTION('',(-1.,0.,0.));
#192 = ADVANCED_FACE('',(#193,#221),#232,.F.);
#193 = FACE_BOUND('',#194,.F.);
#194 = EDGE_LOOP('',(#195,#196,#197,#205,#214,#220));
#195 = ORIENTED_EDGE('',*,*,#39,.F.);
#196 = ORIENTED_EDGE('',*,*,#110,.T.);
#197 = ORIENTED_EDGE('',*,*,#198,.F.);
#198 = EDGE_CURVE('',#199,#111,#201,.T.);
#199 = VERTEX_POINT('',#200);
#200 = CARTESIAN_POINT('',(3.60080912105,11.2,4.));
#201 = LINE('',#202,#203);
#202 = CARTESIAN_POINT('',(3.525146144014,11.2,4.));
#203 = VECTOR('',#204,1.);
#204 = DIRECTION('',(-1.,0.,0.));
#205 = ORIENTED_EDGE('',*,*,#206,.T.);
#206 = EDGE_CURVE('',#199,#207,#209,.T.);
#207 = VERTEX_POINT('',#208);
#208 = CARTESIAN_POINT('',(7.414725748206,3.800000000001,4.));
#209 = CIRCLE('',#210,19.015000000001);
#210 = AXIS2_PLACEMENT_3D('',#211,#212,#213);
#211 = CARTESIAN_POINT('',(22.,16.,4.));
#212 = DIRECTION('',(0.,0.,1.));
#213 = DIRECTION('',(1.,0.,0.));
#214 = ORIENTED_EDGE('',*,*,#215,.T.);
#215 = EDGE_CURVE('',#207,#154,#216,.T.);
#216 = LINE('',#217,#218);
#217 = CARTESIAN_POINT('',(7.671000558307,3.800000000001,4.));
#218 = VECTOR('',#219,1.);
#219 = DIRECTION('',(-1.,0.,0.));
#220 = ORIENTED_EDGE('',*,*,#153,.F.);
#221 = FACE_BOUND('',#222,.F.);
#222 = EDGE_LOOP('',(#223));
#223 = ORIENTED_EDGE('',*,*,#224,.T.);
#224 = EDGE_CURVE('',#225,#225,#227,.T.);
#225 = VERTEX_POINT('',#226);
#226 = CARTESIAN_POINT('',(-1.1,7.5,4.));
#227 = CIRCLE('',#228,1.7);
#228 = AXIS2_PLACEMENT_3D('',#229,#230,#231);
#229 = CARTESIAN_POINT('',(0.6,7.5,4.));
#230 = DIRECTION('',(0.,0.,1.));
#231 = DIRECTION('',(-1.,0.,0.));
#232 = PLANE('',#233);
#233 = AXIS2_PLACEMENT_3D('',#234,#235,#236);
#234 = CARTESIAN_POINT('',(46.85,11.5,4.));
#235 = DIRECTION('',(-0.,-2.22044604925E-16,-1.));
#236 = DIRECTION('',(-1.,0.,0.));
#237 = ADVANCED_FACE('',(#238),#273,.F.);
#238 = FACE_BOUND('',#239,.F.);
#239 = EDGE_LOOP('',(#240,#241,#249,#257,#266,#272));
#240 = ORIENTED_EDGE('',*,*,#61,.T.);
#241 = ORIENTED_EDGE('',*,*,#242,.T.);
#242 = EDGE_CURVE('',#64,#243,#245,.T.);
#243 = VERTEX_POINT('',#244);
#244 = CARTESIAN_POINT('',(46.65,11.2,1.));
#245 = LINE('',#246,#247);
#246 = CARTESIAN_POINT('',(-3.15,11.2,1.));
#247 = VECTOR('',#248,1.);
#248 = DIRECTION('',(1.,0.,0.));
#249 = ORIENTED_EDGE('',*,*,#250,.T.);
#250 = EDGE_CURVE('',#243,#251,#253,.T.);
#251 = VERTEX_POINT('',#252);
#252 = CARTESIAN_POINT('',(46.75,11.3,1.1));
#253 = LINE('',#254,#255);
#254 = CARTESIAN_POINT('',(38.433333333333,2.983333333333,
    -7.216666666667));
#255 = VECTOR('',#256,1.);
#256 = DIRECTION('',(0.57735026919,0.57735026919,0.57735026919));
#257 = ORIENTED_EDGE('',*,*,#258,.F.);
#258 = EDGE_CURVE('',#259,#251,#261,.T.);
#259 = VERTEX_POINT('',#260);
#260 = CARTESIAN_POINT('',(46.35,11.5,1.3));
#261 = ELLIPSE('',#262,0.707106781187,0.5);
#262 = AXIS2_PLACEMENT_3D('',#263,#264,#265);
#263 = CARTESIAN_POINT('',(46.35,11.,0.8));
#264 = DIRECTION('',(0.,0.707106781187,-0.707106781187));
#265 = DIRECTION('',(0.,0.707106781187,0.707106781187));
#266 = ORIENTED_EDGE('',*,*,#267,.F.);
#267 = EDGE_CURVE('',#129,#259,#268,.T.);
#268 = LINE('',#269,#270);
#269 = CARTESIAN_POINT('',(-3.15,11.5,1.3));
#270 = VECTOR('',#271,1.);
#271 = DIRECTION('',(1.,0.,0.));
#272 = ORIENTED_EDGE('',*,*,#136,.F.);
#273 = PLANE('',#274);
#274 = AXIS2_PLACEMENT_3D('',#275,#276,#277);
#275 = CARTESIAN_POINT('',(-3.15,11.35,1.15));
#276 = DIRECTION('',(0.,-0.707106781187,0.707106781187));
#277 = DIRECTION('',(1.,0.,0.));
#278 = ADVANCED_FACE('',(#279,#297,#308),#319,.F.);
#279 = FACE_BOUND('',#280,.F.);
#280 = EDGE_LOOP('',(#281,#282,#283,#291));
#281 = ORIENTED_EDGE('',*,*,#242,.F.);
#282 = ORIENTED_EDGE('',*,*,#96,.T.);
#283 = ORIENTED_EDGE('',*,*,#284,.T.);
#284 = EDGE_CURVE('',#89,#285,#287,.T.);
#285 = VERTEX_POINT('',#286);
#286 = CARTESIAN_POINT('',(46.65,3.8,1.));
#287 = LINE('',#288,#289);
#288 = CARTESIAN_POINT('',(-3.15,3.8,1.));
#289 = VECTOR('',#290,1.);
#290 = DIRECTION('',(1.,0.,0.));
#291 = ORIENTED_EDGE('',*,*,#292,.F.);
#292 = EDGE_CURVE('',#243,#285,#293,.T.);
#293 = LINE('',#294,#295);
#294 = CARTESIAN_POINT('',(46.65,11.2,1.));
#295 = VECTOR('',#296,1.);
#296 = DIRECTION('',(0.,-1.,2.22044604925E-16));
#297 = FACE_BOUND('',#298,.F.);
#298 = EDGE_LOOP('',(#299));
#299 = ORIENTED_EDGE('',*,*,#300,.F.);
#300 = EDGE_CURVE('',#301,#301,#303,.T.);
#301 = VERTEX_POINT('',#302);
#302 = CARTESIAN_POINT('',(-2.4,7.5,1.));
#303 = CIRCLE('',#304,3.);
#304 = AXIS2_PLACEMENT_3D('',#305,#306,#307);
#305 = CARTESIAN_POINT('',(0.6,7.5,1.));
#306 = DIRECTION('',(0.,0.,1.));
#307 = DIRECTION('',(-1.,0.,0.));
#308 = FACE_BOUND('',#309,.F.);
#309 = EDGE_LOOP('',(#310));
#310 = ORIENTED_EDGE('',*,*,#311,.F.);
#311 = EDGE_CURVE('',#312,#312,#314,.T.);
#312 = VERTEX_POINT('',#313);
#313 = CARTESIAN_POINT('',(40.4,7.5,1.));
#314 = CIRCLE('',#315,3.);
#315 = AXIS2_PLACEMENT_3D('',#316,#317,#318);
#316 = CARTESIAN_POINT('',(43.4,7.5,1.));
#317 = DIRECTION('',(0.,0.,1.));
#318 = DIRECTION('',(-1.,0.,0.));
#319 = PLANE('',#320);
#320 = AXIS2_PLACEMENT_3D('',#321,#322,#323);
#321 = CARTESIAN_POINT('',(-3.15,11.5,1.));
#322 = DIRECTION('',(0.,2.22044604925E-16,1.));
#323 = DIRECTION('',(1.,0.,0.));
#324 = ADVANCED_FACE('',(#325),#353,.F.);
#325 = FACE_BOUND('',#326,.T.);
#326 = EDGE_LOOP('',(#327,#328,#329,#337,#346,#352));
#327 = ORIENTED_EDGE('',*,*,#88,.T.);
#328 = ORIENTED_EDGE('',*,*,#284,.T.);
#329 = ORIENTED_EDGE('',*,*,#330,.T.);
#330 = EDGE_CURVE('',#285,#331,#333,.T.);
#331 = VERTEX_POINT('',#332);
#332 = CARTESIAN_POINT('',(46.75,3.7,1.1));
#333 = LINE('',#334,#335);
#334 = CARTESIAN_POINT('',(37.199999999999,13.249999999999,
    -8.450000000001));
#335 = VECTOR('',#336,1.);
#336 = DIRECTION('',(0.57735026919,-0.57735026919,0.57735026919));
#337 = ORIENTED_EDGE('',*,*,#338,.F.);
#338 = EDGE_CURVE('',#339,#331,#341,.T.);
#339 = VERTEX_POINT('',#340);
#340 = CARTESIAN_POINT('',(46.35,3.5,1.3));
#341 = ELLIPSE('',#342,0.707106781187,0.5);
#342 = AXIS2_PLACEMENT_3D('',#343,#344,#345);
#343 = CARTESIAN_POINT('',(46.35,4.,0.8));
#344 = DIRECTION('',(-0.,0.707106781187,0.707106781186));
#345 = DIRECTION('',(0.,-0.707106781186,0.707106781187));
#346 = ORIENTED_EDGE('',*,*,#347,.F.);
#347 = EDGE_CURVE('',#172,#339,#348,.T.);
#348 = LINE('',#349,#350);
#349 = CARTESIAN_POINT('',(-3.15,3.5,1.3));
#350 = VECTOR('',#351,1.);
#351 = DIRECTION('',(1.,0.,0.));
#352 = ORIENTED_EDGE('',*,*,#179,.F.);
#353 = PLANE('',#354);
#354 = AXIS2_PLACEMENT_3D('',#355,#356,#357);
#355 = CARTESIAN_POINT('',(-3.15,3.65,1.15));
#356 = DIRECTION('',(0.,0.707106781187,0.707106781186));
#357 = DIRECTION('',(-1.,0.,0.));
#358 = ADVANCED_FACE('',(#359),#378,.F.);
#359 = FACE_BOUND('',#360,.F.);
#360 = EDGE_LOOP('',(#361,#362,#363,#371));
#361 = ORIENTED_EDGE('',*,*,#198,.T.);
#362 = ORIENTED_EDGE('',*,*,#119,.T.);
#363 = ORIENTED_EDGE('',*,*,#364,.F.);
#364 = EDGE_CURVE('',#365,#120,#367,.T.);
#365 = VERTEX_POINT('',#366);
#366 = CARTESIAN_POINT('',(3.525146144014,11.5,3.7));
#367 = LINE('',#368,#369);
#368 = CARTESIAN_POINT('',(3.525146144014,11.5,3.7));
#369 = VECTOR('',#370,1.);
#370 = DIRECTION('',(-1.,0.,0.));
#371 = ORIENTED_EDGE('',*,*,#372,.F.);
#372 = EDGE_CURVE('',#199,#365,#373,.T.);
#373 = ELLIPSE('',#374,26.891270888525,19.015000000001);
#374 = AXIS2_PLACEMENT_3D('',#375,#376,#377);
#375 = CARTESIAN_POINT('',(22.,16.,-0.8));
#376 = DIRECTION('',(0.,-0.707106781187,-0.707106781187));
#377 = DIRECTION('',(0.,0.707106781187,-0.707106781187));
#378 = PLANE('',#379);
#379 = AXIS2_PLACEMENT_3D('',#380,#381,#382);
#380 = CARTESIAN_POINT('',(3.525146144014,11.35,3.85));
#381 = DIRECTION('',(0.,-0.707106781187,-0.707106781187));
#382 = DIRECTION('',(-1.,0.,0.));
#383 = ADVANCED_FACE('',(#384),#443,.T.);
#384 = FACE_BOUND('',#385,.T.);
#385 = EDGE_LOOP('',(#386,#387,#395,#403,#411,#419,#427,#435,#441,#442)
  );
#386 = ORIENTED_EDGE('',*,*,#364,.F.);
#387 = ORIENTED_EDGE('',*,*,#388,.F.);
#388 = EDGE_CURVE('',#389,#365,#391,.T.);
#389 = VERTEX_POINT('',#390);
#390 = CARTESIAN_POINT('',(3.525146144014,11.5,4.));
#391 = LINE('',#392,#393);
#392 = CARTESIAN_POINT('',(3.525146144014,11.5,4.));
#393 = VECTOR('',#394,1.);
#394 = DIRECTION('',(-0.,-0.,-1.));
#395 = ORIENTED_EDGE('',*,*,#396,.T.);
#396 = EDGE_CURVE('',#389,#397,#399,.T.);
#397 = VERTEX_POINT('',#398);
#398 = CARTESIAN_POINT('',(3.525146144014,11.5,4.75));
#399 = LINE('',#400,#401);
#400 = CARTESIAN_POINT('',(3.525146144014,11.5,4.));
#401 = VECTOR('',#402,1.);
#402 = DIRECTION('',(0.,0.,1.));
#403 = ORIENTED_EDGE('',*,*,#404,.T.);
#404 = EDGE_CURVE('',#397,#405,#407,.T.);
#405 = VERTEX_POINT('',#406);
#406 = CARTESIAN_POINT('',(40.474853855985,11.5,4.75));
#407 = LINE('',#408,#409);
#408 = CARTESIAN_POINT('',(3.525146144014,11.5,4.75));
#409 = VECTOR('',#410,1.);
#410 = DIRECTION('',(1.,0.,0.));
#411 = ORIENTED_EDGE('',*,*,#412,.F.);
#412 = EDGE_CURVE('',#413,#405,#415,.T.);
#413 = VERTEX_POINT('',#414);
#414 = CARTESIAN_POINT('',(40.474853855985,11.5,4.));
#415 = LINE('',#416,#417);
#416 = CARTESIAN_POINT('',(40.474853855985,11.5,4.));
#417 = VECTOR('',#418,1.);
#418 = DIRECTION('',(0.,0.,1.));
#419 = ORIENTED_EDGE('',*,*,#420,.T.);
#420 = EDGE_CURVE('',#413,#421,#423,.T.);
#421 = VERTEX_POINT('',#422);
#422 = CARTESIAN_POINT('',(40.474853855985,11.5,3.7));
#423 = LINE('',#424,#425);
#424 = CARTESIAN_POINT('',(40.474853855985,11.5,4.));
#425 = VECTOR('',#426,1.);
#426 = DIRECTION('',(-0.,-0.,-1.));
#427 = ORIENTED_EDGE('',*,*,#428,.F.);
#428 = EDGE_CURVE('',#429,#421,#431,.T.);
#429 = VERTEX_POINT('',#430);
#430 = CARTESIAN_POINT('',(46.35,11.5,3.7));
#431 = LINE('',#432,#433);
#432 = CARTESIAN_POINT('',(46.85,11.5,3.7));
#433 = VECTOR('',#434,1.);
#434 = DIRECTION('',(-1.,0.,0.));
#435 = ORIENTED_EDGE('',*,*,#436,.F.);
#436 = EDGE_CURVE('',#259,#429,#437,.T.);
#437 = LINE('',#438,#439);
#438 = CARTESIAN_POINT('',(46.35,11.5,1.3));
#439 = VECTOR('',#440,1.);
#440 = DIRECTION('',(0.,2.22044604925E-16,1.));
#441 = ORIENTED_EDGE('',*,*,#267,.F.);
#442 = ORIENTED_EDGE('',*,*,#128,.F.);
#443 = PLANE('',#444);
#444 = AXIS2_PLACEMENT_3D('',#445,#446,#447);
#445 = CARTESIAN_POINT('',(21.852093023256,11.5,2.783951449153));
#446 = DIRECTION('',(0.,1.,-1.661266275796E-15));
#447 = DIRECTION('',(0.,1.661266275796E-15,1.));
#448 = ADVANCED_FACE('',(#449),#468,.F.);
#449 = FACE_BOUND('',#450,.T.);
#450 = EDGE_LOOP('',(#451,#452,#453,#461));
#451 = ORIENTED_EDGE('',*,*,#215,.T.);
#452 = ORIENTED_EDGE('',*,*,#162,.T.);
#453 = ORIENTED_EDGE('',*,*,#454,.F.);
#454 = EDGE_CURVE('',#455,#163,#457,.T.);
#455 = VERTEX_POINT('',#456);
#456 = CARTESIAN_POINT('',(7.671000558307,3.5,3.7));
#457 = LINE('',#458,#459);
#458 = CARTESIAN_POINT('',(7.671000558307,3.5,3.7));
#459 = VECTOR('',#460,1.);
#460 = DIRECTION('',(-1.,0.,0.));
#461 = ORIENTED_EDGE('',*,*,#462,.F.);
#462 = EDGE_CURVE('',#207,#455,#463,.T.);
#463 = ELLIPSE('',#464,26.891270888523,19.015000000001);
#464 = AXIS2_PLACEMENT_3D('',#465,#466,#467);
#465 = CARTESIAN_POINT('',(22.,16.,16.199999999997));
#466 = DIRECTION('',(3.472568050348E-18,-0.707106781186,0.707106781187)
  );
#467 = DIRECTION('',(3.472568050348E-18,-0.707106781187,-0.707106781186)
  );
#468 = PLANE('',#469);
#469 = AXIS2_PLACEMENT_3D('',#470,#471,#472);
#470 = CARTESIAN_POINT('',(7.671000558307,3.650000000001,3.85));
#471 = DIRECTION('',(-3.472568050348E-18,0.707106781186,-0.707106781187)
  );
#472 = DIRECTION('',(1.,2.455476416532E-18,-2.455476416533E-18));
#473 = ADVANCED_FACE('',(#474),#533,.T.);
#474 = FACE_BOUND('',#475,.T.);
#475 = EDGE_LOOP('',(#476,#477,#478,#479,#487,#495,#503,#511,#519,#527)
  );
#476 = ORIENTED_EDGE('',*,*,#454,.T.);
#477 = ORIENTED_EDGE('',*,*,#171,.T.);
#478 = ORIENTED_EDGE('',*,*,#347,.T.);
#479 = ORIENTED_EDGE('',*,*,#480,.T.);
#480 = EDGE_CURVE('',#339,#481,#483,.T.);
#481 = VERTEX_POINT('',#482);
#482 = CARTESIAN_POINT('',(46.35,3.5,3.7));
#483 = LINE('',#484,#485);
#484 = CARTESIAN_POINT('',(46.35,3.5,1.3));
#485 = VECTOR('',#486,1.);
#486 = DIRECTION('',(0.,2.22044604925E-16,1.));
#487 = ORIENTED_EDGE('',*,*,#488,.T.);
#488 = EDGE_CURVE('',#481,#489,#491,.T.);
#489 = VERTEX_POINT('',#490);
#490 = CARTESIAN_POINT('',(36.328999441692,3.5,3.7));
#491 = LINE('',#492,#493);
#492 = CARTESIAN_POINT('',(46.85,3.5,3.7));
#493 = VECTOR('',#494,1.);
#494 = DIRECTION('',(-1.,0.,0.));
#495 = ORIENTED_EDGE('',*,*,#496,.F.);
#496 = EDGE_CURVE('',#497,#489,#499,.T.);
#497 = VERTEX_POINT('',#498);
#498 = CARTESIAN_POINT('',(36.328999441693,3.500000000001,4.));
#499 = LINE('',#500,#501);
#500 = CARTESIAN_POINT('',(36.328999441692,3.500000000001,4.000000000002
    ));
#501 = VECTOR('',#502,1.);
#502 = DIRECTION('',(-0.,-0.,-1.));
#503 = ORIENTED_EDGE('',*,*,#504,.T.);
#504 = EDGE_CURVE('',#497,#505,#507,.T.);
#505 = VERTEX_POINT('',#506);
#506 = CARTESIAN_POINT('',(36.328999441693,3.500000000001,4.75));
#507 = LINE('',#508,#509);
#508 = CARTESIAN_POINT('',(36.328999441693,3.500000000001,4.));
#509 = VECTOR('',#510,1.);
#510 = DIRECTION('',(0.,0.,1.));
#511 = ORIENTED_EDGE('',*,*,#512,.F.);
#512 = EDGE_CURVE('',#513,#505,#515,.T.);
#513 = VERTEX_POINT('',#514);
#514 = CARTESIAN_POINT('',(7.671000558307,3.500000000001,4.75));
#515 = LINE('',#516,#517);
#516 = CARTESIAN_POINT('',(7.671000558307,3.500000000001,4.75));
#517 = VECTOR('',#518,1.);
#518 = DIRECTION('',(1.,0.,0.));
#519 = ORIENTED_EDGE('',*,*,#520,.F.);
#520 = EDGE_CURVE('',#521,#513,#523,.T.);
#521 = VERTEX_POINT('',#522);
#522 = CARTESIAN_POINT('',(7.671000558307,3.500000000001,4.));
#523 = LINE('',#524,#525);
#524 = CARTESIAN_POINT('',(7.671000558307,3.500000000001,4.));
#525 = VECTOR('',#526,1.);
#526 = DIRECTION('',(0.,0.,1.));
#527 = ORIENTED_EDGE('',*,*,#528,.T.);
#528 = EDGE_CURVE('',#521,#455,#529,.T.);
#529 = LINE('',#530,#531);
#530 = CARTESIAN_POINT('',(7.671000558307,3.500000000001,4.000000000002)
  );
#531 = VECTOR('',#532,1.);
#532 = DIRECTION('',(-0.,-0.,-1.));
#533 = PLANE('',#534);
#534 = AXIS2_PLACEMENT_3D('',#535,#536,#537);
#535 = CARTESIAN_POINT('',(21.852093023256,3.5,2.726102317791));
#536 = DIRECTION('',(0.,-1.,1.945303046418E-13));
#537 = DIRECTION('',(0.,-1.945303046418E-13,-1.));
#538 = ADVANCED_FACE('',(#539),#555,.T.);
#539 = FACE_BOUND('',#540,.F.);
#540 = EDGE_LOOP('',(#541,#542,#543,#544,#545,#552,#553,#554));
#541 = ORIENTED_EDGE('',*,*,#206,.F.);
#542 = ORIENTED_EDGE('',*,*,#372,.T.);
#543 = ORIENTED_EDGE('',*,*,#388,.F.);
#544 = ORIENTED_EDGE('',*,*,#396,.T.);
#545 = ORIENTED_EDGE('',*,*,#546,.T.);
#546 = EDGE_CURVE('',#397,#513,#547,.T.);
#547 = CIRCLE('',#548,19.015000000001);
#548 = AXIS2_PLACEMENT_3D('',#549,#550,#551);
#549 = CARTESIAN_POINT('',(22.,16.,4.75));
#550 = DIRECTION('',(0.,0.,1.));
#551 = DIRECTION('',(1.,0.,0.));
#552 = ORIENTED_EDGE('',*,*,#520,.F.);
#553 = ORIENTED_EDGE('',*,*,#528,.T.);
#554 = ORIENTED_EDGE('',*,*,#462,.F.);
#555 = CYLINDRICAL_SURFACE('',#556,19.015000000001);
#556 = AXIS2_PLACEMENT_3D('',#557,#558,#559);
#557 = CARTESIAN_POINT('',(22.,16.,4.));
#558 = DIRECTION('',(-0.,-0.,-1.));
#559 = DIRECTION('',(1.,0.,0.));
#560 = ADVANCED_FACE('',(#561),#580,.F.);
#561 = FACE_BOUND('',#562,.T.);
#562 = EDGE_LOOP('',(#563,#571,#578,#579));
#563 = ORIENTED_EDGE('',*,*,#564,.F.);
#564 = EDGE_CURVE('',#565,#225,#567,.T.);
#565 = VERTEX_POINT('',#566);
#566 = CARTESIAN_POINT('',(-1.1,7.5,2.));
#567 = LINE('',#568,#569);
#568 = CARTESIAN_POINT('',(-1.1,7.5,2.));
#569 = VECTOR('',#570,1.);
#570 = DIRECTION('',(5.792467954566E-17,0.,1.));
#571 = ORIENTED_EDGE('',*,*,#572,.T.);
#572 = EDGE_CURVE('',#565,#565,#573,.T.);
#573 = CIRCLE('',#574,1.7);
#574 = AXIS2_PLACEMENT_3D('',#575,#576,#577);
#575 = CARTESIAN_POINT('',(0.6,7.5,2.));
#576 = DIRECTION('',(0.,0.,-1.));
#577 = DIRECTION('',(-1.,0.,0.));
#578 = ORIENTED_EDGE('',*,*,#564,.T.);
#579 = ORIENTED_EDGE('',*,*,#224,.T.);
#580 = CYLINDRICAL_SURFACE('',#581,1.7);
#581 = AXIS2_PLACEMENT_3D('',#582,#583,#584);
#582 = CARTESIAN_POINT('',(0.6,7.5,2.));
#583 = DIRECTION('',(0.,0.,1.));
#584 = DIRECTION('',(-1.,0.,0.));
#585 = ADVANCED_FACE('',(#586),#615,.T.);
#586 = FACE_BOUND('',#587,.F.);
#587 = EDGE_LOOP('',(#588,#589,#590,#591,#600,#608));
#588 = ORIENTED_EDGE('',*,*,#250,.F.);
#589 = ORIENTED_EDGE('',*,*,#292,.T.);
#590 = ORIENTED_EDGE('',*,*,#330,.T.);
#591 = ORIENTED_EDGE('',*,*,#592,.T.);
#592 = EDGE_CURVE('',#331,#593,#595,.T.);
#593 = VERTEX_POINT('',#594);
#594 = CARTESIAN_POINT('',(46.85,4.,1.2));
#595 = ELLIPSE('',#596,0.707106781187,0.5);
#596 = AXIS2_PLACEMENT_3D('',#597,#598,#599);
#597 = CARTESIAN_POINT('',(46.35,4.,0.7));
#598 = DIRECTION('',(-0.707106781187,1.56187550398E-16,0.707106781187));
#599 = DIRECTION('',(0.707106781187,1.578309413387E-16,0.707106781187));
#600 = ORIENTED_EDGE('',*,*,#601,.F.);
#601 = EDGE_CURVE('',#602,#593,#604,.T.);
#602 = VERTEX_POINT('',#603);
#603 = CARTESIAN_POINT('',(46.85,11.,1.2));
#604 = LINE('',#605,#606);
#605 = CARTESIAN_POINT('',(46.85,11.2,1.2));
#606 = VECTOR('',#607,1.);
#607 = DIRECTION('',(0.,-1.,2.22044604925E-16));
#608 = ORIENTED_EDGE('',*,*,#609,.F.);
#609 = EDGE_CURVE('',#251,#602,#610,.T.);
#610 = ELLIPSE('',#611,0.707106781187,0.5);
#611 = AXIS2_PLACEMENT_3D('',#612,#613,#614);
#612 = CARTESIAN_POINT('',(46.35,11.,0.7));
#613 = DIRECTION('',(0.707106781187,-1.56187550398E-16,-0.707106781187)
  );
#614 = DIRECTION('',(0.707106781187,1.578309413387E-16,0.707106781187));
#615 = PLANE('',#616);
#616 = AXIS2_PLACEMENT_3D('',#617,#618,#619);
#617 = CARTESIAN_POINT('',(46.75,11.2,1.1));
#618 = DIRECTION('',(0.707106781187,-1.56187550398E-16,-0.707106781187)
  );
#619 = DIRECTION('',(-5.810264391522E-19,1.,-2.214635784859E-16));
#620 = ADVANCED_FACE('',(#621),#650,.T.);
#621 = FACE_BOUND('',#622,.F.);
#622 = EDGE_LOOP('',(#623,#624,#625,#633,#642,#649));
#623 = ORIENTED_EDGE('',*,*,#258,.T.);
#624 = ORIENTED_EDGE('',*,*,#609,.T.);
#625 = ORIENTED_EDGE('',*,*,#626,.T.);
#626 = EDGE_CURVE('',#602,#627,#629,.T.);
#627 = VERTEX_POINT('',#628);
#628 = CARTESIAN_POINT('',(46.85,11.,4.));
#629 = LINE('',#630,#631);
#630 = CARTESIAN_POINT('',(46.85,11.,1.3));
#631 = VECTOR('',#632,1.);
#632 = DIRECTION('',(0.,2.22044604925E-16,1.));
#633 = ORIENTED_EDGE('',*,*,#634,.F.);
#634 = EDGE_CURVE('',#635,#627,#637,.T.);
#635 = VERTEX_POINT('',#636);
#636 = CARTESIAN_POINT('',(46.808257569495,11.2,4.));
#637 = CIRCLE('',#638,0.5);
#638 = AXIS2_PLACEMENT_3D('',#639,#640,#641);
#639 = CARTESIAN_POINT('',(46.35,11.,4.));
#640 = DIRECTION('',(-0.,-2.22044604925E-16,-1.));
#641 = DIRECTION('',(0.,-1.,2.22044604925E-16));
#642 = ORIENTED_EDGE('',*,*,#643,.F.);
#643 = EDGE_CURVE('',#429,#635,#644,.T.);
#644 = ELLIPSE('',#645,0.707106781187,0.5);
#645 = AXIS2_PLACEMENT_3D('',#646,#647,#648);
#646 = CARTESIAN_POINT('',(46.35,11.,4.2));
#647 = DIRECTION('',(-0.,-0.707106781187,-0.707106781187));
#648 = DIRECTION('',(0.,-0.707106781187,0.707106781187));
#649 = ORIENTED_EDGE('',*,*,#436,.F.);
#650 = CYLINDRICAL_SURFACE('',#651,0.5);
#651 = AXIS2_PLACEMENT_3D('',#652,#653,#654);
#652 = CARTESIAN_POINT('',(46.35,11.,1.3));
#653 = DIRECTION('',(0.,2.22044604925E-16,1.));
#654 = DIRECTION('',(0.,1.,-2.22044604925E-16));
#655 = ADVANCED_FACE('',(#656),#675,.F.);
#656 = FACE_BOUND('',#657,.T.);
#657 = EDGE_LOOP('',(#658,#659,#667,#674));
#658 = ORIENTED_EDGE('',*,*,#300,.F.);
#659 = ORIENTED_EDGE('',*,*,#660,.T.);
#660 = EDGE_CURVE('',#301,#661,#663,.T.);
#661 = VERTEX_POINT('',#662);
#662 = CARTESIAN_POINT('',(-2.4,7.5,2.));
#663 = LINE('',#664,#665);
#664 = CARTESIAN_POINT('',(-2.4,7.5,0.));
#665 = VECTOR('',#666,1.);
#666 = DIRECTION('',(0.,0.,1.));
#667 = ORIENTED_EDGE('',*,*,#668,.F.);
#668 = EDGE_CURVE('',#661,#661,#669,.T.);
#669 = CIRCLE('',#670,3.);
#670 = AXIS2_PLACEMENT_3D('',#671,#672,#673);
#671 = CARTESIAN_POINT('',(0.6,7.5,2.));
#672 = DIRECTION('',(0.,0.,-1.));
#673 = DIRECTION('',(-1.,0.,0.));
#674 = ORIENTED_EDGE('',*,*,#660,.F.);
#675 = CYLINDRICAL_SURFACE('',#676,3.);
#676 = AXIS2_PLACEMENT_3D('',#677,#678,#679);
#677 = CARTESIAN_POINT('',(0.6,7.5,0.));
#678 = DIRECTION('',(0.,0.,1.));
#679 = DIRECTION('',(-1.,0.,0.));
#680 = ADVANCED_FACE('',(#681),#700,.F.);
#681 = FACE_BOUND('',#682,.T.);
#682 = EDGE_LOOP('',(#683,#684,#692,#699));
#683 = ORIENTED_EDGE('',*,*,#311,.F.);
#684 = ORIENTED_EDGE('',*,*,#685,.T.);
#685 = EDGE_CURVE('',#312,#686,#688,.T.);
#686 = VERTEX_POINT('',#687);
#687 = CARTESIAN_POINT('',(40.4,7.5,2.));
#688 = LINE('',#689,#690);
#689 = CARTESIAN_POINT('',(40.4,7.5,0.));
#690 = VECTOR('',#691,1.);
#691 = DIRECTION('',(0.,0.,1.));
#692 = ORIENTED_EDGE('',*,*,#693,.F.);
#693 = EDGE_CURVE('',#686,#686,#694,.T.);
#694 = CIRCLE('',#695,3.);
#695 = AXIS2_PLACEMENT_3D('',#696,#697,#698);
#696 = CARTESIAN_POINT('',(43.4,7.5,2.));
#697 = DIRECTION('',(0.,0.,-1.));
#698 = DIRECTION('',(-1.,0.,0.));
#699 = ORIENTED_EDGE('',*,*,#685,.F.);
#700 = CYLINDRICAL_SURFACE('',#701,3.);
#701 = AXIS2_PLACEMENT_3D('',#702,#703,#704);
#702 = CARTESIAN_POINT('',(43.4,7.5,0.));
#703 = DIRECTION('',(0.,0.,1.));
#704 = DIRECTION('',(-1.,0.,0.));
#705 = ADVANCED_FACE('',(#706),#735,.T.);
#706 = FACE_BOUND('',#707,.T.);
#707 = EDGE_LOOP('',(#708,#709,#710,#718,#727,#734));
#708 = ORIENTED_EDGE('',*,*,#338,.T.);
#709 = ORIENTED_EDGE('',*,*,#592,.T.);
#710 = ORIENTED_EDGE('',*,*,#711,.T.);
#711 = EDGE_CURVE('',#593,#712,#714,.T.);
#712 = VERTEX_POINT('',#713);
#713 = CARTESIAN_POINT('',(46.85,4.,4.));
#714 = LINE('',#715,#716);
#715 = CARTESIAN_POINT('',(46.85,4.,1.3));
#716 = VECTOR('',#717,1.);
#717 = DIRECTION('',(0.,2.22044604925E-16,1.));
#718 = ORIENTED_EDGE('',*,*,#719,.F.);
#719 = EDGE_CURVE('',#720,#712,#722,.T.);
#720 = VERTEX_POINT('',#721);
#721 = CARTESIAN_POINT('',(46.808257569496,3.8,4.));
#722 = CIRCLE('',#723,0.5);
#723 = AXIS2_PLACEMENT_3D('',#724,#725,#726);
#724 = CARTESIAN_POINT('',(46.35,4.,4.));
#725 = DIRECTION('',(-0.,2.22044604925E-16,1.));
#726 = DIRECTION('',(0.,-1.,2.22044604925E-16));
#727 = ORIENTED_EDGE('',*,*,#728,.F.);
#728 = EDGE_CURVE('',#481,#720,#729,.T.);
#729 = ELLIPSE('',#730,0.707106781186,0.5);
#730 = AXIS2_PLACEMENT_3D('',#731,#732,#733);
#731 = CARTESIAN_POINT('',(46.35,4.,4.199999999999));
#732 = DIRECTION('',(3.472568050348E-18,-0.707106781186,0.707106781187)
  );
#733 = DIRECTION('',(-3.472568050348E-18,0.707106781187,0.707106781186)
  );
#734 = ORIENTED_EDGE('',*,*,#480,.F.);
#735 = CYLINDRICAL_SURFACE('',#736,0.5);
#736 = AXIS2_PLACEMENT_3D('',#737,#738,#739);
#737 = CARTESIAN_POINT('',(46.35,4.,1.3));
#738 = DIRECTION('',(0.,2.22044604925E-16,1.));
#739 = DIRECTION('',(0.,-1.,2.22044604925E-16));
#740 = ADVANCED_FACE('',(#741),#753,.T.);
#741 = FACE_BOUND('',#742,.T.);
#742 = EDGE_LOOP('',(#743,#744,#745,#752));
#743 = ORIENTED_EDGE('',*,*,#546,.T.);
#744 = ORIENTED_EDGE('',*,*,#512,.T.);
#745 = ORIENTED_EDGE('',*,*,#746,.T.);
#746 = EDGE_CURVE('',#505,#405,#747,.T.);
#747 = CIRCLE('',#748,19.015);
#748 = AXIS2_PLACEMENT_3D('',#749,#750,#751);
#749 = CARTESIAN_POINT('',(22.,16.,4.75));
#750 = DIRECTION('',(0.,0.,1.));
#751 = DIRECTION('',(1.,0.,0.));
#752 = ORIENTED_EDGE('',*,*,#404,.F.);
#753 = PLANE('',#754);
#754 = AXIS2_PLACEMENT_3D('',#755,#756,#757);
#755 = CARTESIAN_POINT('',(22.,7.863862466138,4.75));
#756 = DIRECTION('',(0.,0.,1.));
#757 = DIRECTION('',(1.,0.,0.));
#758 = ADVANCED_FACE('',(#759),#778,.F.);
#759 = FACE_BOUND('',#760,.F.);
#760 = EDGE_LOOP('',(#761,#769,#776,#777));
#761 = ORIENTED_EDGE('',*,*,#762,.T.);
#762 = EDGE_CURVE('',#635,#763,#765,.T.);
#763 = VERTEX_POINT('',#764);
#764 = CARTESIAN_POINT('',(40.399190878949,11.2,4.));
#765 = LINE('',#766,#767);
#766 = CARTESIAN_POINT('',(46.85,11.2,4.));
#767 = VECTOR('',#768,1.);
#768 = DIRECTION('',(-1.,0.,0.));
#769 = ORIENTED_EDGE('',*,*,#770,.T.);
#770 = EDGE_CURVE('',#763,#421,#771,.T.);
#771 = ELLIPSE('',#772,26.891270888524,19.015);
#772 = AXIS2_PLACEMENT_3D('',#773,#774,#775);
#773 = CARTESIAN_POINT('',(22.,16.,-0.8));
#774 = DIRECTION('',(0.,0.707106781187,0.707106781187));
#775 = DIRECTION('',(0.,0.707106781187,-0.707106781187));
#776 = ORIENTED_EDGE('',*,*,#428,.F.);
#777 = ORIENTED_EDGE('',*,*,#643,.T.);
#778 = PLANE('',#779);
#779 = AXIS2_PLACEMENT_3D('',#780,#781,#782);
#780 = CARTESIAN_POINT('',(46.85,11.35,3.85));
#781 = DIRECTION('',(0.,-0.707106781187,-0.707106781187));
#782 = DIRECTION('',(-1.,0.,0.));
#783 = ADVANCED_FACE('',(#784),#808,.T.);
#784 = FACE_BOUND('',#785,.F.);
#785 = EDGE_LOOP('',(#786,#795,#802,#803,#804,#805,#806,#807));
#786 = ORIENTED_EDGE('',*,*,#787,.F.);
#787 = EDGE_CURVE('',#788,#763,#790,.T.);
#788 = VERTEX_POINT('',#789);
#789 = CARTESIAN_POINT('',(36.585274251793,3.800000000001,4.));
#790 = CIRCLE('',#791,19.015);
#791 = AXIS2_PLACEMENT_3D('',#792,#793,#794);
#792 = CARTESIAN_POINT('',(22.,16.,4.));
#793 = DIRECTION('',(0.,0.,1.));
#794 = DIRECTION('',(1.,0.,0.));
#795 = ORIENTED_EDGE('',*,*,#796,.T.);
#796 = EDGE_CURVE('',#788,#489,#797,.T.);
#797 = ELLIPSE('',#798,26.891270888522,19.015);
#798 = AXIS2_PLACEMENT_3D('',#799,#800,#801);
#799 = CARTESIAN_POINT('',(22.,16.,16.199999999997));
#800 = DIRECTION('',(-3.472568050348E-18,0.707106781186,-0.707106781187)
  );
#801 = DIRECTION('',(3.472568050348E-18,-0.707106781187,-0.707106781186)
  );
#802 = ORIENTED_EDGE('',*,*,#496,.F.);
#803 = ORIENTED_EDGE('',*,*,#504,.T.);
#804 = ORIENTED_EDGE('',*,*,#746,.T.);
#805 = ORIENTED_EDGE('',*,*,#412,.F.);
#806 = ORIENTED_EDGE('',*,*,#420,.T.);
#807 = ORIENTED_EDGE('',*,*,#770,.F.);
#808 = CYLINDRICAL_SURFACE('',#809,19.015);
#809 = AXIS2_PLACEMENT_3D('',#810,#811,#812);
#810 = CARTESIAN_POINT('',(22.,16.,4.));
#811 = DIRECTION('',(-0.,-0.,-1.));
#812 = DIRECTION('',(1.,0.,0.));
#813 = ADVANCED_FACE('',(#814),#825,.F.);
#814 = FACE_BOUND('',#815,.T.);
#815 = EDGE_LOOP('',(#816,#822,#823,#824));
#816 = ORIENTED_EDGE('',*,*,#817,.T.);
#817 = EDGE_CURVE('',#720,#788,#818,.T.);
#818 = LINE('',#819,#820);
#819 = CARTESIAN_POINT('',(46.85,3.800000000001,4.));
#820 = VECTOR('',#821,1.);
#821 = DIRECTION('',(-1.,0.,0.));
#822 = ORIENTED_EDGE('',*,*,#796,.T.);
#823 = ORIENTED_EDGE('',*,*,#488,.F.);
#824 = ORIENTED_EDGE('',*,*,#728,.T.);
#825 = PLANE('',#826);
#826 = AXIS2_PLACEMENT_3D('',#827,#828,#829);
#827 = CARTESIAN_POINT('',(46.85,3.650000000001,3.85));
#828 = DIRECTION('',(-3.472568050348E-18,0.707106781186,-0.707106781187)
  );
#829 = DIRECTION('',(1.,2.455476416532E-18,-2.455476416533E-18));
#830 = ADVANCED_FACE('',(#831,#834),#837,.T.);
#831 = FACE_BOUND('',#832,.T.);
#832 = EDGE_LOOP('',(#833));
#833 = ORIENTED_EDGE('',*,*,#668,.T.);
#834 = FACE_BOUND('',#835,.T.);
#835 = EDGE_LOOP('',(#836));
#836 = ORIENTED_EDGE('',*,*,#572,.F.);
#837 = PLANE('',#838);
#838 = AXIS2_PLACEMENT_3D('',#839,#840,#841);
#839 = CARTESIAN_POINT('',(0.6,7.5,2.));
#840 = DIRECTION('',(-0.,-0.,-1.));
#841 = DIRECTION('',(-1.,0.,0.));
#842 = ADVANCED_FACE('',(#843),#854,.F.);
#843 = FACE_BOUND('',#844,.F.);
#844 = EDGE_LOOP('',(#845,#846,#847,#853));
#845 = ORIENTED_EDGE('',*,*,#601,.T.);
#846 = ORIENTED_EDGE('',*,*,#711,.T.);
#847 = ORIENTED_EDGE('',*,*,#848,.F.);
#848 = EDGE_CURVE('',#627,#712,#849,.T.);
#849 = LINE('',#850,#851);
#850 = CARTESIAN_POINT('',(46.85,11.5,4.));
#851 = VECTOR('',#852,1.);
#852 = DIRECTION('',(0.,-1.,2.22044604925E-16));
#853 = ORIENTED_EDGE('',*,*,#626,.F.);
#854 = PLANE('',#855);
#855 = AXIS2_PLACEMENT_3D('',#856,#857,#858);
#856 = CARTESIAN_POINT('',(46.85,11.5,1.));
#857 = DIRECTION('',(-1.,0.,0.));
#858 = DIRECTION('',(0.,2.22044604925E-16,1.));
#859 = ADVANCED_FACE('',(#860,#868),#879,.F.);
#860 = FACE_BOUND('',#861,.F.);
#861 = EDGE_LOOP('',(#862,#863,#864,#865,#866,#867));
#862 = ORIENTED_EDGE('',*,*,#817,.T.);
#863 = ORIENTED_EDGE('',*,*,#787,.T.);
#864 = ORIENTED_EDGE('',*,*,#762,.F.);
#865 = ORIENTED_EDGE('',*,*,#634,.T.);
#866 = ORIENTED_EDGE('',*,*,#848,.T.);
#867 = ORIENTED_EDGE('',*,*,#719,.F.);
#868 = FACE_BOUND('',#869,.F.);
#869 = EDGE_LOOP('',(#870));
#870 = ORIENTED_EDGE('',*,*,#871,.T.);
#871 = EDGE_CURVE('',#872,#872,#874,.T.);
#872 = VERTEX_POINT('',#873);
#873 = CARTESIAN_POINT('',(41.7,7.5,4.));
#874 = CIRCLE('',#875,1.7);
#875 = AXIS2_PLACEMENT_3D('',#876,#877,#878);
#876 = CARTESIAN_POINT('',(43.4,7.5,4.));
#877 = DIRECTION('',(0.,0.,1.));
#878 = DIRECTION('',(-1.,0.,0.));
#879 = PLANE('',#880);
#880 = AXIS2_PLACEMENT_3D('',#881,#882,#883);
#881 = CARTESIAN_POINT('',(46.85,11.5,4.));
#882 = DIRECTION('',(-0.,-2.22044604925E-16,-1.));
#883 = DIRECTION('',(-1.,0.,0.));
#884 = ADVANCED_FACE('',(#885,#888),#899,.T.);
#885 = FACE_BOUND('',#886,.T.);
#886 = EDGE_LOOP('',(#887));
#887 = ORIENTED_EDGE('',*,*,#693,.T.);
#888 = FACE_BOUND('',#889,.T.);
#889 = EDGE_LOOP('',(#890));
#890 = ORIENTED_EDGE('',*,*,#891,.F.);
#891 = EDGE_CURVE('',#892,#892,#894,.T.);
#892 = VERTEX_POINT('',#893);
#893 = CARTESIAN_POINT('',(41.7,7.5,2.));
#894 = CIRCLE('',#895,1.7);
#895 = AXIS2_PLACEMENT_3D('',#896,#897,#898);
#896 = CARTESIAN_POINT('',(43.4,7.5,2.));
#897 = DIRECTION('',(0.,0.,-1.));
#898 = DIRECTION('',(-1.,0.,0.));
#899 = PLANE('',#900);
#900 = AXIS2_PLACEMENT_3D('',#901,#902,#903);
#901 = CARTESIAN_POINT('',(43.4,7.5,2.));
#902 = DIRECTION('',(-0.,-0.,-1.));
#903 = DIRECTION('',(-1.,0.,0.));
#904 = ADVANCED_FACE('',(#905),#916,.F.);
#905 = FACE_BOUND('',#906,.T.);
#906 = EDGE_LOOP('',(#907,#913,#914,#915));
#907 = ORIENTED_EDGE('',*,*,#908,.F.);
#908 = EDGE_CURVE('',#892,#872,#909,.T.);
#909 = LINE('',#910,#911);
#910 = CARTESIAN_POINT('',(41.7,7.5,2.));
#911 = VECTOR('',#912,1.);
#912 = DIRECTION('',(5.792467954566E-17,0.,1.));
#913 = ORIENTED_EDGE('',*,*,#891,.T.);
#914 = ORIENTED_EDGE('',*,*,#908,.T.);
#915 = ORIENTED_EDGE('',*,*,#871,.T.);
#916 = CYLINDRICAL_SURFACE('',#917,1.7);
#917 = AXIS2_PLACEMENT_3D('',#918,#919,#920);
#918 = CARTESIAN_POINT('',(43.4,7.5,2.));
#919 = DIRECTION('',(0.,0.,1.));
#920 = DIRECTION('',(-1.,0.,0.));
#921 = ( GEOMETRIC_REPRESENTATION_CONTEXT(3) 
GLOBAL_UNCERTAINTY_ASSIGNED_CONTEXT((#925)) GLOBAL_UNIT_ASSIGNED_CONTEXT
((#922,#923,#924)) REPRESENTATION_CONTEXT('Context #1',
  '3D Context with UNIT and UNCERTAINTY') );
#922 = ( LENGTH_UNIT() NAMED_UNIT(*) SI_UNIT(.MILLI.,.METRE.) );
#923 = ( NAMED_UNIT(*) PLANE_ANGLE_UNIT() SI_UNIT($,.RADIAN.) );
#924 = ( NAMED_UNIT(*) SI_UNIT($,.STERADIAN.) SOLID_ANGLE_UNIT() );
#925 = UNCERTAINTY_MEASURE_WITH_UNIT(LENGTH_MEASURE(5.E-07),#922,
  'distance_accuracy_value','confusion accuracy');
#926 = PRODUCT_RELATED_PRODUCT_CATEGORY('part',$,(#7));
#927 = MECHANICAL_DESIGN_GEOMETRIC_PRESENTATION_REPRESENTATION('',(#928)
  ,#921);
#928 = STYLED_ITEM('color',(#929),#15);
#929 = PRESENTATION_STYLE_ASSIGNMENT((#930,#936));
#930 = SURFACE_STYLE_USAGE(.BOTH.,#931);
#931 = SURFACE_SIDE_STYLE('',(#932));
#932 = SURFACE_STYLE_FILL_AREA(#933);
#933 = FILL_AREA_STYLE('',(#934));
#934 = FILL_AREA_STYLE_COLOUR('',#935);
#935 = COLOUR_RGB('',0.447058818107,0.474509808674,0.501960817233);
#936 = CURVE_STYLE('',#937,POSITIVE_LENGTH_MEASURE(0.1),#938);
#937 = DRAUGHTING_PRE_DEFINED_CURVE_FONT('continuous');
#938 = COLOUR_RGB('',0.678431390124,0.709803936702,0.741176476869);
ENDSEC;
END-ISO-10303-21;
