G04 #@! TF.GenerationSoftware,KiCad,Pcbnew,9.0.9-9.0.9~ubuntu24.04.1*
G04 #@! TF.CreationDate,2026-06-14T13:09:34+09:30*
G04 #@! TF.ProjectId,cloudSmoker_ver2f,636c6f75-6453-46d6-9f6b-65725f766572,2f*
G04 #@! TF.SameCoordinates,Original*
G04 #@! TF.FileFunction,Soldermask,Top*
G04 #@! TF.FilePolarity,Negative*
%FSLAX46Y46*%
G04 Gerber Fmt 4.6, Leading zero omitted, Abs format (unit mm)*
G04 Created by KiCad (PCBNEW 9.0.9-9.0.9~ubuntu24.04.1) date 2026-06-14 13:09:34*
%MOMM*%
%LPD*%
G01*
G04 APERTURE LIST*
G04 Aperture macros list*
%AMRoundRect*
0 Rectangle with rounded corners*
0 $1 Rounding radius*
0 $2 $3 $4 $5 $6 $7 $8 $9 X,Y pos of 4 corners*
0 Add a 4 corners polygon primitive as box body*
4,1,4,$2,$3,$4,$5,$6,$7,$8,$9,$2,$3,0*
0 Add four circle primitives for the rounded corners*
1,1,$1+$1,$2,$3*
1,1,$1+$1,$4,$5*
1,1,$1+$1,$6,$7*
1,1,$1+$1,$8,$9*
0 Add four rect primitives between the rounded corners*
20,1,$1+$1,$2,$3,$4,$5,0*
20,1,$1+$1,$4,$5,$6,$7,0*
20,1,$1+$1,$6,$7,$8,$9,0*
20,1,$1+$1,$8,$9,$2,$3,0*%
%AMFreePoly0*
4,1,23,0.000000,0.745722,0.065263,0.745722,0.191342,0.711940,0.304381,0.646677,0.396677,0.554381,0.461940,0.441342,0.495722,0.315263,0.495722,0.250000,0.500000,0.250000,0.500000,-0.250000,0.495722,-0.250000,0.495722,-0.315263,0.461940,-0.441342,0.396677,-0.554381,0.304381,-0.646677,0.191342,-0.711940,0.065263,-0.745722,0.000000,-0.745722,0.000000,-0.750000,-0.500000,-0.750000,
-0.500000,0.750000,0.000000,0.750000,0.000000,0.745722,0.000000,0.745722,$1*%
%AMFreePoly1*
4,1,23,0.500000,-0.750000,0.000000,-0.750000,0.000000,-0.745722,-0.065263,-0.745722,-0.191342,-0.711940,-0.304381,-0.646677,-0.396677,-0.554381,-0.461940,-0.441342,-0.495722,-0.315263,-0.495722,-0.250000,-0.500000,-0.250000,-0.500000,0.250000,-0.495722,0.250000,-0.495722,0.315263,-0.461940,0.441342,-0.396677,0.554381,-0.304381,0.646677,-0.191342,0.711940,-0.065263,0.745722,0.000000,0.745722,
0.000000,0.750000,0.500000,0.750000,0.500000,-0.750000,0.500000,-0.750000,$1*%
G04 Aperture macros list end*
%ADD10C,0.650000*%
%ADD11R,1.140000X0.600000*%
%ADD12R,1.240000X0.300000*%
%ADD13O,2.100000X1.000000*%
%ADD14O,1.800000X1.000000*%
%ADD15R,0.806477X0.864008*%
%ADD16R,0.864008X0.806477*%
%ADD17C,1.000000*%
%ADD18R,0.900000X0.800000*%
%ADD19O,1.620015X0.280010*%
%ADD20O,1.950000X1.700000*%
%ADD21RoundRect,0.250000X-0.725000X0.600000X-0.725000X-0.600000X0.725000X-0.600000X0.725000X0.600000X0*%
%ADD22R,1.700000X2.100000*%
%ADD23O,1.691999X0.364008*%
%ADD24R,0.629997X0.350013*%
%ADD25R,0.300000X0.580010*%
%ADD26R,0.250013X0.580010*%
%ADD27R,0.800000X0.900000*%
%ADD28R,0.700000X1.250013*%
%ADD29R,0.800000X0.800000*%
%ADD30R,1.100000X0.600000*%
%ADD31C,2.000000*%
%ADD32O,1.700000X1.950000*%
%ADD33RoundRect,0.250000X-0.600000X-0.725000X0.600000X-0.725000X0.600000X0.725000X-0.600000X0.725000X0*%
%ADD34C,0.800000*%
%ADD35C,6.400000*%
%ADD36C,0.600000*%
%ADD37R,2.900000X2.900000*%
%ADD38R,1.500000X0.900000*%
%ADD39R,3.456007X1.282525*%
%ADD40R,1.350013X1.410008*%
%ADD41C,3.200000*%
%ADD42FreePoly0,180.000000*%
%ADD43FreePoly1,180.000000*%
%ADD44R,0.600000X1.100000*%
%ADD45R,1.000000X0.750013*%
%ADD46RoundRect,0.250000X0.600000X0.725000X-0.600000X0.725000X-0.600000X-0.725000X0.600000X-0.725000X0*%
%ADD47C,1.400000*%
G04 APERTURE END LIST*
G04 #@! TO.C,JP2*
G36*
X46650000Y19750000D02*
G01*
X46350000Y19750000D01*
X46350000Y21250000D01*
X46650000Y21250000D01*
X46650000Y19750000D01*
G37*
G04 #@! TO.C,JP1*
G36*
X66650000Y19750000D02*
G01*
X66350000Y19750000D01*
X66350000Y21250000D01*
X66650000Y21250000D01*
X66650000Y19750000D01*
G37*
G04 #@! TD*
D10*
G04 #@! TO.C,U3*
X64595000Y48610000D03*
X64595000Y54390000D03*
D11*
X63425000Y48300000D03*
X63425000Y49100000D03*
D12*
X63475000Y50250000D03*
X63475000Y51250000D03*
X63475000Y51750000D03*
X63475000Y52750000D03*
D11*
X63425000Y53900000D03*
X63425000Y54700000D03*
X63425000Y54700000D03*
X63425000Y53900000D03*
D12*
X63475000Y53250000D03*
X63475000Y52250000D03*
X63475000Y50750000D03*
X63475000Y49750000D03*
D11*
X63425000Y49100000D03*
X63425000Y48300000D03*
D13*
X64075000Y47180000D03*
D14*
X68275000Y47180000D03*
D13*
X64075000Y55820000D03*
D14*
X68275000Y55820000D03*
G04 #@! TD*
D15*
G04 #@! TO.C,R12*
X18996634Y46750000D03*
X20503366Y46750000D03*
G04 #@! TD*
D16*
G04 #@! TO.C,R23*
X15250000Y21253366D03*
X15250000Y19746634D03*
G04 #@! TD*
D17*
G04 #@! TO.C,TP6*
X35000000Y36300000D03*
G04 #@! TD*
D18*
G04 #@! TO.C,C9*
X23750000Y52450025D03*
X23750000Y51049975D03*
G04 #@! TD*
D15*
G04 #@! TO.C,R4*
X62753366Y37500000D03*
X61246634Y37500000D03*
G04 #@! TD*
G04 #@! TO.C,R14*
X20503366Y41500000D03*
X18996634Y41500000D03*
G04 #@! TD*
G04 #@! TO.C,R5*
X62246634Y45000000D03*
X63753366Y45000000D03*
G04 #@! TD*
D19*
G04 #@! TO.C,U2*
X56609982Y36700000D03*
X56609982Y36199873D03*
X56609982Y35700000D03*
X56609982Y35199873D03*
X56609982Y34700000D03*
X52390018Y34700000D03*
X52390018Y35199873D03*
X52390018Y35700000D03*
X52390018Y36199873D03*
X52390018Y36700000D03*
G04 #@! TD*
D20*
G04 #@! TO.C,J6*
X4000000Y48450000D03*
X4000000Y50950000D03*
X4000000Y53450000D03*
D21*
X4000000Y55950000D03*
G04 #@! TD*
D22*
G04 #@! TO.C,U1*
X55750000Y23500000D03*
D23*
X57896050Y24475108D03*
X57896050Y23824867D03*
X57896050Y23174879D03*
X57896050Y22524892D03*
X53603950Y22524892D03*
X53603950Y23174879D03*
X53603950Y23824867D03*
X53603950Y24475108D03*
G04 #@! TD*
D17*
G04 #@! TO.C,TP2*
X61850000Y27175000D03*
G04 #@! TD*
D24*
G04 #@! TO.C,U6*
X22109995Y20500000D03*
D25*
X22000013Y19864999D03*
D26*
X21499886Y19864999D03*
X21000013Y19864999D03*
D25*
X20499886Y19864999D03*
D24*
X20389903Y20500000D03*
D25*
X20499886Y21135001D03*
D26*
X21000013Y21135001D03*
X21499886Y21135001D03*
D25*
X22000013Y21135001D03*
G04 #@! TD*
D27*
G04 #@! TO.C,C13*
X22549975Y17500000D03*
X23950025Y17500000D03*
G04 #@! TD*
D28*
G04 #@! TO.C,Q2*
X31500000Y22500000D03*
X30550038Y24500000D03*
X32449962Y24500000D03*
G04 #@! TD*
D15*
G04 #@! TO.C,R10*
X20503366Y49250000D03*
X18996634Y49250000D03*
G04 #@! TD*
D17*
G04 #@! TO.C,TP7*
X13260000Y49150000D03*
G04 #@! TD*
D15*
G04 #@! TO.C,R19*
X37496634Y20500000D03*
X39003366Y20500000D03*
G04 #@! TD*
D27*
G04 #@! TO.C,C3*
X58200025Y33250000D03*
X56799975Y33250000D03*
G04 #@! TD*
D18*
G04 #@! TO.C,C11*
X17000000Y21200025D03*
X17000000Y19799975D03*
G04 #@! TD*
D29*
G04 #@! TO.C,LED2*
X46500000Y24300102D03*
X46500000Y22699898D03*
G04 #@! TD*
D30*
G04 #@! TO.C,U7*
X28100013Y10199962D03*
X28100013Y9250000D03*
X28100013Y8300038D03*
X25399987Y8300038D03*
X25399987Y9250000D03*
X25399987Y10199962D03*
G04 #@! TD*
D18*
G04 #@! TO.C,C2*
X50750000Y22799975D03*
X50750000Y24200025D03*
G04 #@! TD*
D31*
G04 #@! TO.C,FID3*
X60000000Y66000000D03*
G04 #@! TD*
D32*
G04 #@! TO.C,J11*
X21500000Y4000000D03*
D33*
X19000000Y4000000D03*
D32*
X16500000Y4000000D03*
D33*
X14000000Y4000000D03*
G04 #@! TD*
D34*
G04 #@! TO.C,H2*
X68400000Y66000000D03*
X67697056Y64302944D03*
X67697056Y67697056D03*
X66000000Y63600000D03*
D35*
X66000000Y66000000D03*
D34*
X66000000Y68400000D03*
X64302944Y64302944D03*
X64302944Y67697056D03*
X63600000Y66000000D03*
G04 #@! TD*
D15*
G04 #@! TO.C,R22*
X18996634Y25250000D03*
X20503366Y25250000D03*
G04 #@! TD*
D16*
G04 #@! TO.C,R3*
X59250000Y43746634D03*
X59250000Y45253366D03*
G04 #@! TD*
D36*
G04 #@! TO.C,U4*
X37060000Y45750000D03*
X37060000Y46850000D03*
X36510000Y45200000D03*
X36510000Y46300000D03*
X36510000Y47400000D03*
X35960000Y45750000D03*
D37*
X35960000Y46300000D03*
D36*
X35960000Y46850000D03*
X35410000Y45200000D03*
X35410000Y46300000D03*
X35410000Y47400000D03*
X34860000Y45750000D03*
X34860000Y46850000D03*
D38*
X43750000Y52500000D03*
X43750000Y51000000D03*
X43750000Y49500000D03*
X43750000Y48000000D03*
X43750000Y46500000D03*
X43750000Y45000000D03*
X43750000Y43500000D03*
X43750000Y42000000D03*
X43750000Y40500000D03*
X26250000Y40500000D03*
X26250000Y42000000D03*
X26250000Y43500000D03*
X26250000Y45000000D03*
X26250000Y46500000D03*
X26250000Y48000000D03*
X26250000Y49500000D03*
X26250000Y51000000D03*
X26250000Y52500000D03*
G04 #@! TD*
D31*
G04 #@! TO.C,FID1*
X4000000Y9500000D03*
G04 #@! TD*
D15*
G04 #@! TO.C,R13*
X18996634Y44000000D03*
X20503366Y44000000D03*
G04 #@! TD*
D39*
G04 #@! TO.C,R8*
X65500000Y33433706D03*
X65500000Y39566294D03*
G04 #@! TD*
D28*
G04 #@! TO.C,Q1*
X38250000Y22500000D03*
X37300038Y24500000D03*
X39199962Y24500000D03*
G04 #@! TD*
D15*
G04 #@! TO.C,R21*
X30746634Y20500000D03*
X32253366Y20500000D03*
G04 #@! TD*
D40*
G04 #@! TO.C,C8*
X22000000Y56750000D03*
X22000000Y54750000D03*
G04 #@! TD*
D27*
G04 #@! TO.C,C4*
X55799975Y45250000D03*
X57200025Y45250000D03*
G04 #@! TD*
D41*
G04 #@! TO.C,H5*
X44824909Y66000000D03*
G04 #@! TD*
D17*
G04 #@! TO.C,TP8*
X16500000Y36400000D03*
G04 #@! TD*
D27*
G04 #@! TO.C,C5*
X55799975Y43250000D03*
X57200025Y43250000D03*
G04 #@! TD*
D18*
G04 #@! TO.C,C6*
X59500000Y37200025D03*
X59500000Y35799975D03*
G04 #@! TD*
D15*
G04 #@! TO.C,PR1*
X18996634Y27000000D03*
X20503366Y27000000D03*
G04 #@! TD*
D17*
G04 #@! TO.C,TP9*
X14930000Y51120000D03*
G04 #@! TD*
D15*
G04 #@! TO.C,R18*
X39003366Y26750000D03*
X37496634Y26750000D03*
G04 #@! TD*
D27*
G04 #@! TO.C,C10*
X20450025Y23500000D03*
X19049975Y23500000D03*
G04 #@! TD*
D15*
G04 #@! TO.C,R6*
X62753366Y35500000D03*
X61246634Y35500000D03*
G04 #@! TD*
D32*
G04 #@! TO.C,J15*
X39500000Y4000000D03*
D33*
X37000000Y4000000D03*
D32*
X34500000Y4000000D03*
D33*
X32000000Y4000000D03*
G04 #@! TD*
D16*
G04 #@! TO.C,R1*
X66500000Y26246634D03*
X66500000Y27753366D03*
G04 #@! TD*
G04 #@! TO.C,R16*
X23750000Y40253366D03*
X23750000Y38746634D03*
G04 #@! TD*
D18*
G04 #@! TO.C,C1*
X61250000Y22799975D03*
X61250000Y24200025D03*
G04 #@! TD*
D41*
G04 #@! TO.C,H6*
X37900000Y66000000D03*
G04 #@! TD*
D42*
G04 #@! TO.C,JP2*
X45850000Y20500000D03*
D43*
X47150000Y20500000D03*
G04 #@! TD*
D15*
G04 #@! TO.C,PR4*
X24003366Y13750000D03*
X22496634Y13750000D03*
G04 #@! TD*
D16*
G04 #@! TO.C,R17*
X20500000Y52503366D03*
X20500000Y50996634D03*
G04 #@! TD*
D31*
G04 #@! TO.C,FID2*
X66000000Y9500000D03*
G04 #@! TD*
D15*
G04 #@! TO.C,R15*
X18996634Y38750000D03*
X20503366Y38750000D03*
G04 #@! TD*
D34*
G04 #@! TO.C,H1*
X6400000Y66000000D03*
X5697056Y64302944D03*
X5697056Y67697056D03*
X4000000Y63600000D03*
D35*
X4000000Y66000000D03*
D34*
X4000000Y68400000D03*
X2302944Y64302944D03*
X2302944Y67697056D03*
X1600000Y66000000D03*
G04 #@! TD*
D15*
G04 #@! TO.C,R20*
X32253366Y26750000D03*
X30746634Y26750000D03*
G04 #@! TD*
D29*
G04 #@! TO.C,LED3*
X48749873Y40248997D03*
X48750127Y38751003D03*
G04 #@! TD*
D15*
G04 #@! TO.C,PR3*
X18996634Y13750000D03*
X20503366Y13750000D03*
G04 #@! TD*
D42*
G04 #@! TO.C,JP1*
X65850000Y20500000D03*
D43*
X67150000Y20500000D03*
G04 #@! TD*
D16*
G04 #@! TO.C,R11*
X23750000Y42246634D03*
X23750000Y43753366D03*
G04 #@! TD*
G04 #@! TO.C,R9*
X48750000Y41996634D03*
X48750000Y43503366D03*
G04 #@! TD*
D34*
G04 #@! TO.C,H3*
X68400000Y4000000D03*
X67697056Y2302944D03*
X67697056Y5697056D03*
X66000000Y1600000D03*
D35*
X66000000Y4000000D03*
D34*
X66000000Y6400000D03*
X64302944Y2302944D03*
X64302944Y5697056D03*
X63600000Y4000000D03*
G04 #@! TD*
D44*
G04 #@! TO.C,U5*
X58550038Y52350013D03*
X59500000Y52350013D03*
X60449962Y52350013D03*
X60449962Y49649987D03*
X59500000Y49649987D03*
X58550038Y49649987D03*
G04 #@! TD*
D45*
G04 #@! TO.C,SW2*
X31500000Y34150114D03*
X25500000Y34150114D03*
X31500000Y37849886D03*
X25500000Y37849886D03*
G04 #@! TD*
D20*
G04 #@! TO.C,J3*
X4000000Y33350000D03*
X4000000Y35850000D03*
X4000000Y38350000D03*
D21*
X4000000Y40850000D03*
G04 #@! TD*
D27*
G04 #@! TO.C,C12*
X20450025Y17500000D03*
X19049975Y17500000D03*
G04 #@! TD*
D45*
G04 #@! TO.C,SW3*
X44250000Y34150114D03*
X38250000Y34150114D03*
X44250000Y37849886D03*
X38250000Y37849886D03*
G04 #@! TD*
D15*
G04 #@! TO.C,R25*
X24003366Y15500000D03*
X22496634Y15500000D03*
G04 #@! TD*
G04 #@! TO.C,R7*
X62246634Y58000000D03*
X63753366Y58000000D03*
G04 #@! TD*
D16*
G04 #@! TO.C,PR2*
X13500000Y19746634D03*
X13500000Y21253366D03*
G04 #@! TD*
D17*
G04 #@! TO.C,TP3*
X27400000Y55400000D03*
G04 #@! TD*
D16*
G04 #@! TO.C,R2*
X46500000Y26246634D03*
X46500000Y27753366D03*
G04 #@! TD*
D18*
G04 #@! TO.C,C7*
X24250000Y55950025D03*
X24250000Y54549975D03*
G04 #@! TD*
D17*
G04 #@! TO.C,TP5*
X64100000Y27150000D03*
G04 #@! TD*
G04 #@! TO.C,TP4*
X26100000Y57600000D03*
G04 #@! TD*
D29*
G04 #@! TO.C,LED1*
X66499873Y24248997D03*
X66500127Y22751003D03*
G04 #@! TD*
D32*
G04 #@! TO.C,J1*
X14050000Y66000000D03*
X16550000Y66000000D03*
X19050000Y66000000D03*
D46*
X21550000Y66000000D03*
G04 #@! TD*
D15*
G04 #@! TO.C,R24*
X18996634Y15500000D03*
X20503366Y15500000D03*
G04 #@! TD*
D34*
G04 #@! TO.C,H4*
X6400000Y4000000D03*
X5697056Y2302944D03*
X5697056Y5697056D03*
X4000000Y1600000D03*
D35*
X4000000Y4000000D03*
D34*
X4000000Y6400000D03*
X2302944Y2302944D03*
X2302944Y5697056D03*
X1600000Y4000000D03*
G04 #@! TD*
D20*
G04 #@! TO.C,J7*
X4000000Y15750000D03*
X4000000Y18250000D03*
X4000000Y20750000D03*
X4000000Y23250000D03*
D21*
X4000000Y25750000D03*
G04 #@! TD*
D47*
G04 #@! TO.C,TP1*
X49920000Y1950000D03*
X55000000Y1950000D03*
G04 #@! TD*
D36*
X40100000Y24500000D03*
M02*
