G04 #@! TF.GenerationSoftware,KiCad,Pcbnew,9.0.9-9.0.9~ubuntu24.04.1*
G04 #@! TF.CreationDate,2026-06-14T13:09:34+09:30*
G04 #@! TF.ProjectId,cloudSmoker_ver2f,636c6f75-6453-46d6-9f6b-65725f766572,2f*
G04 #@! TF.SameCoordinates,Original*
G04 #@! TF.FileFunction,Soldermask,Bot*
G04 #@! TF.FilePolarity,Negative*
%FSLAX46Y46*%
G04 Gerber Fmt 4.6, Leading zero omitted, Abs format (unit mm)*
G04 Created by KiCad (PCBNEW 9.0.9-9.0.9~ubuntu24.04.1) date 2026-06-14 13:09:34*
%MOMM*%
%LPD*%
G01*
G04 APERTURE LIST*
G04 Aperture macros list*
%AMRoundRect*
0 Rectangle with rounded corners*
0 $1 Rounding radius*
0 $2 $3 $4 $5 $6 $7 $8 $9 X,Y pos of 4 corners*
0 Add a 4 corners polygon primitive as box body*
4,1,4,$2,$3,$4,$5,$6,$7,$8,$9,$2,$3,0*
0 Add four circle primitives for the rounded corners*
1,1,$1+$1,$2,$3*
1,1,$1+$1,$4,$5*
1,1,$1+$1,$6,$7*
1,1,$1+$1,$8,$9*
0 Add four rect primitives between the rounded corners*
20,1,$1+$1,$2,$3,$4,$5,0*
20,1,$1+$1,$4,$5,$6,$7,0*
20,1,$1+$1,$6,$7,$8,$9,0*
20,1,$1+$1,$8,$9,$2,$3,0*%
G04 Aperture macros list end*
%ADD10C,0.000000*%
%ADD11C,0.650000*%
%ADD12O,2.100000X1.000000*%
%ADD13O,1.800000X1.000000*%
%ADD14O,1.950000X1.700000*%
%ADD15RoundRect,0.250000X-0.725000X0.600000X-0.725000X-0.600000X0.725000X-0.600000X0.725000X0.600000X0*%
%ADD16O,1.700000X1.950000*%
%ADD17RoundRect,0.250000X-0.600000X-0.725000X0.600000X-0.725000X0.600000X0.725000X-0.600000X0.725000X0*%
%ADD18C,0.800000*%
%ADD19C,6.400000*%
%ADD20C,3.200000*%
%ADD21RoundRect,0.250000X0.600000X0.725000X-0.600000X0.725000X-0.600000X-0.725000X0.600000X-0.725000X0*%
%ADD22C,1.400000*%
%ADD23C,1.000000*%
G04 APERTURE END LIST*
D10*
G04 #@! TO.C,REF\u002A\u002A*
G36*
X38730000Y33634987D02*
G01*
X38756126Y33632464D01*
X38782136Y33628266D01*
X38807972Y33622393D01*
X38833577Y33614845D01*
X38858891Y33605624D01*
X38883858Y33594727D01*
X38908418Y33582157D01*
X38932515Y33567914D01*
X38956090Y33551996D01*
X38979085Y33534406D01*
X39001442Y33515142D01*
X39023104Y33494206D01*
X39044012Y33471598D01*
X39064108Y33447316D01*
X39083334Y33421363D01*
X39112970Y33376838D01*
X39141707Y33329081D01*
X39169302Y33278473D01*
X39195511Y33225393D01*
X39220090Y33170223D01*
X39242796Y33113341D01*
X39263385Y33055129D01*
X39281613Y32995966D01*
X39297236Y32936233D01*
X39310012Y32876309D01*
X39319695Y32816576D01*
X39326043Y32757412D01*
X39328812Y32699198D01*
X39327757Y32642314D01*
X39322636Y32587140D01*
X39313205Y32534057D01*
X39300985Y32485037D01*
X39287264Y32439099D01*
X39272394Y32395999D01*
X39256729Y32355496D01*
X39240623Y32317347D01*
X39224428Y32281310D01*
X39193189Y32214599D01*
X39165840Y32153425D01*
X39154507Y32124308D01*
X39145207Y32095847D01*
X39138293Y32067801D01*
X39134120Y32039927D01*
X39133170Y32025978D01*
X39133039Y32011982D01*
X39133769Y31997907D01*
X39135405Y31983724D01*
X39138641Y31967475D01*
X39143617Y31950259D01*
X39150138Y31932216D01*
X39158007Y31913490D01*
X39167029Y31894223D01*
X39177009Y31874558D01*
X39187753Y31854638D01*
X39199063Y31834604D01*
X39222605Y31794770D01*
X39246073Y31756195D01*
X39267904Y31720022D01*
X39286534Y31687390D01*
X39535719Y31256066D01*
X39565651Y31199732D01*
X39594034Y31143039D01*
X39620483Y31086042D01*
X39644615Y31028796D01*
X39666045Y30971354D01*
X39684391Y30913769D01*
X39699267Y30856097D01*
X39710291Y30798390D01*
X39717163Y30744660D01*
X39721633Y30688649D01*
X39723767Y30630723D01*
X39723633Y30571252D01*
X39721299Y30510603D01*
X39716832Y30449143D01*
X39710301Y30387240D01*
X39701772Y30325263D01*
X39691313Y30263577D01*
X39678992Y30202553D01*
X39664876Y30142556D01*
X39649033Y30083956D01*
X39631531Y30027119D01*
X39612437Y29972413D01*
X39591819Y29920207D01*
X39569744Y29870867D01*
X39553042Y29837788D01*
X39535147Y29805788D01*
X39516274Y29774514D01*
X39496640Y29743616D01*
X39455950Y29681543D01*
X39435326Y29649666D01*
X39414804Y29616761D01*
X39394599Y29582477D01*
X39374928Y29546463D01*
X39356006Y29508368D01*
X39338048Y29467840D01*
X39321272Y29424530D01*
X39313393Y29401721D01*
X39305891Y29378085D01*
X39298792Y29353578D01*
X39292124Y29328156D01*
X39285912Y29301775D01*
X39280184Y29274390D01*
X39277416Y29255220D01*
X39276210Y29234154D01*
X39278196Y29186873D01*
X39285573Y29133631D01*
X39297772Y29075510D01*
X39314226Y29013590D01*
X39334365Y28948955D01*
X39357621Y28882687D01*
X39383425Y28815867D01*
X39411208Y28749579D01*
X39440402Y28684903D01*
X39470438Y28622922D01*
X39500748Y28564718D01*
X39530762Y28511374D01*
X39559913Y28463971D01*
X39587631Y28423591D01*
X39613348Y28391317D01*
X39625864Y28377457D01*
X39637776Y28364995D01*
X39649201Y28353789D01*
X39660258Y28343699D01*
X39671068Y28334583D01*
X39681749Y28326301D01*
X39692420Y28318713D01*
X39703200Y28311677D01*
X39714208Y28305053D01*
X39725564Y28298700D01*
X39737386Y28292478D01*
X39749793Y28286244D01*
X39807657Y28258390D01*
X39609961Y28681724D01*
X39596944Y28727069D01*
X39585392Y28777530D01*
X39575365Y28832378D01*
X39566920Y28890883D01*
X39560115Y28952319D01*
X39555007Y29015955D01*
X39551653Y29081063D01*
X39550112Y29146914D01*
X39550442Y29212781D01*
X39552700Y29277933D01*
X39556943Y29341644D01*
X39563229Y29403183D01*
X39571617Y29461823D01*
X39582163Y29516834D01*
X39594925Y29567488D01*
X39609961Y29613057D01*
X39627733Y29665526D01*
X39649640Y29719655D01*
X39675008Y29775068D01*
X39703161Y29831391D01*
X39765114Y29945271D01*
X39830094Y30058298D01*
X39892693Y30167475D01*
X39921410Y30219683D01*
X39947503Y30269806D01*
X39970298Y30317467D01*
X39989117Y30362294D01*
X40003286Y30403911D01*
X40012128Y30441944D01*
X40013944Y30462202D01*
X40013376Y30485742D01*
X40006135Y30541660D01*
X39992505Y30607692D01*
X39974584Y30681828D01*
X39934261Y30846384D01*
X39916057Y30932788D01*
X39901955Y31019264D01*
X39894055Y31103806D01*
X39893086Y31144724D01*
X39894455Y31184406D01*
X39898422Y31222599D01*
X39905252Y31259054D01*
X39915206Y31293520D01*
X39928546Y31325745D01*
X39945535Y31355478D01*
X39966435Y31382468D01*
X39991509Y31406465D01*
X40021018Y31427217D01*
X40055225Y31444474D01*
X40094393Y31457984D01*
X40138783Y31467496D01*
X40188658Y31472760D01*
X40201290Y31473326D01*
X40214231Y31473598D01*
X40240840Y31473269D01*
X40268095Y31471800D01*
X40295602Y31469215D01*
X40322971Y31465538D01*
X40349809Y31460794D01*
X40362906Y31458030D01*
X40375724Y31455009D01*
X40388213Y31451734D01*
X40400324Y31448207D01*
X40424769Y31440186D01*
X40449477Y31430809D01*
X40474373Y31420199D01*
X40499384Y31408480D01*
X40524434Y31395773D01*
X40549450Y31382202D01*
X40574356Y31367889D01*
X40599079Y31352957D01*
X40647677Y31321728D01*
X40694647Y31289497D01*
X40739394Y31257246D01*
X40781324Y31225957D01*
X40848573Y31173074D01*
X40921825Y31111383D01*
X40999313Y31041781D01*
X41079272Y30965164D01*
X41159935Y30882427D01*
X41239536Y30794467D01*
X41316310Y30702180D01*
X41388490Y30606461D01*
X41454310Y30508208D01*
X41484283Y30458411D01*
X41512004Y30408316D01*
X41537252Y30358035D01*
X41559806Y30307681D01*
X41579446Y30257364D01*
X41595950Y30207199D01*
X41609098Y30157295D01*
X41618669Y30107766D01*
X41624443Y30058723D01*
X41626198Y30010278D01*
X41623715Y29962544D01*
X41616771Y29915632D01*
X41605147Y29869655D01*
X41588621Y29824724D01*
X41143274Y29189724D01*
X41114270Y29153867D01*
X41081898Y29114721D01*
X41048106Y29073005D01*
X41031288Y29051409D01*
X41014846Y29029439D01*
X40999024Y29007187D01*
X40984066Y28984742D01*
X40970215Y28962194D01*
X40957716Y28939633D01*
X40946811Y28917149D01*
X40937745Y28894832D01*
X40933978Y28883764D01*
X40930762Y28872771D01*
X40928127Y28861865D01*
X40926105Y28851057D01*
X40924583Y28838866D01*
X40923805Y28826663D01*
X40923734Y28814451D01*
X40924334Y28802234D01*
X40925571Y28790014D01*
X40927408Y28777793D01*
X40932739Y28753366D01*
X40940042Y28728976D01*
X40949032Y28704647D01*
X40959421Y28680404D01*
X40970925Y28656271D01*
X40983257Y28632271D01*
X40996132Y28608430D01*
X41022367Y28561318D01*
X41047341Y28515130D01*
X41058640Y28492442D01*
X41068768Y28470057D01*
X41088907Y28419797D01*
X41107145Y28367891D01*
X41123559Y28314543D01*
X41138221Y28259951D01*
X41151206Y28204318D01*
X41162589Y28147844D01*
X41172444Y28090730D01*
X41180845Y28033177D01*
X41187867Y27975386D01*
X41193585Y27917557D01*
X41201403Y27802593D01*
X41204896Y27689890D01*
X41204658Y27581057D01*
X41203480Y27514713D01*
X41202693Y27497274D01*
X41201458Y27479750D01*
X41199650Y27462267D01*
X41197144Y27444955D01*
X41193814Y27427941D01*
X41189535Y27411352D01*
X41184182Y27395316D01*
X41177630Y27379960D01*
X41173865Y27372578D01*
X41169754Y27365414D01*
X41165279Y27358484D01*
X41160427Y27351804D01*
X41155181Y27345390D01*
X41149526Y27339258D01*
X41143445Y27333424D01*
X41136924Y27327904D01*
X41130342Y27323125D01*
X41123239Y27318699D01*
X41115645Y27314614D01*
X41107593Y27310856D01*
X41090239Y27304269D01*
X41071426Y27298833D01*
X41051409Y27294441D01*
X41030438Y27290987D01*
X41008764Y27288366D01*
X40986641Y27286470D01*
X40964319Y27285195D01*
X40942050Y27284434D01*
X40898680Y27284029D01*
X40823658Y27284724D01*
X37182991Y27284724D01*
X36378658Y27284724D01*
X36312314Y27285901D01*
X36294875Y27286688D01*
X36277351Y27287923D01*
X36259869Y27289731D01*
X36242556Y27292238D01*
X36225542Y27295568D01*
X36208953Y27299846D01*
X36192917Y27305199D01*
X36177561Y27311751D01*
X36170179Y27315516D01*
X36163015Y27319628D01*
X36156085Y27324102D01*
X36149405Y27328954D01*
X36142991Y27334200D01*
X36136859Y27339856D01*
X36131025Y27345936D01*
X36125505Y27352458D01*
X36120725Y27359039D01*
X36116300Y27366142D01*
X36112214Y27373736D01*
X36108457Y27381788D01*
X36101870Y27399143D01*
X36096434Y27417955D01*
X36092042Y27437972D01*
X36088588Y27458944D01*
X36085966Y27480617D01*
X36084071Y27502740D01*
X36082796Y27525062D01*
X36082034Y27547331D01*
X36081630Y27590701D01*
X36082324Y27665723D01*
X36082324Y27835057D01*
X36083291Y27877888D01*
X36085136Y27919177D01*
X36087943Y27959089D01*
X36091797Y27997789D01*
X36096782Y28035443D01*
X36102982Y28072215D01*
X36110482Y28108270D01*
X36119366Y28143773D01*
X36129719Y28178889D01*
X36141624Y28213783D01*
X36155167Y28248621D01*
X36170431Y28283566D01*
X36187501Y28318784D01*
X36206461Y28354439D01*
X36227395Y28390698D01*
X36250388Y28427724D01*
X36267011Y28452296D01*
X36285499Y28477255D01*
X36305457Y28502572D01*
X36326489Y28528219D01*
X36370187Y28580384D01*
X36413424Y28633517D01*
X36433879Y28660373D01*
X36453030Y28687383D01*
X36470480Y28714519D01*
X36485834Y28741751D01*
X36492601Y28755394D01*
X36498695Y28769050D01*
X36504067Y28782715D01*
X36508667Y28796387D01*
X36512446Y28810060D01*
X36515353Y28823732D01*
X36517341Y28837399D01*
X36518358Y28851057D01*
X36517803Y28867210D01*
X36515187Y28886059D01*
X36510752Y28907246D01*
X36504738Y28930412D01*
X36497388Y28955198D01*
X36488942Y28981244D01*
X36469727Y29035683D01*
X36428763Y29143891D01*
X36410873Y29191916D01*
X36397284Y29232057D01*
X36363214Y29337383D01*
X36329129Y29436057D01*
X36263915Y29617389D01*
X36234285Y29702023D01*
X36207640Y29783949D01*
X36184730Y29864155D01*
X36166303Y29943627D01*
X36153110Y30023353D01*
X36145901Y30104318D01*
X36144775Y30145573D01*
X36145425Y30187509D01*
X36147947Y30230248D01*
X36152432Y30273913D01*
X36158976Y30318628D01*
X36167672Y30364517D01*
X36178614Y30411702D01*
X36191894Y30460306D01*
X36207608Y30510454D01*
X36225849Y30562269D01*
X36246710Y30615873D01*
X36270285Y30671390D01*
X36296907Y30726897D01*
X36329101Y30785917D01*
X36366313Y30847698D01*
X36407994Y30911486D01*
X36453591Y30976530D01*
X36502553Y31042077D01*
X36554330Y31107372D01*
X36608369Y31171664D01*
X36664120Y31234201D01*
X36721031Y31294228D01*
X36778551Y31350993D01*
X36836129Y31403744D01*
X36893213Y31451727D01*
X36949253Y31494190D01*
X37003696Y31530380D01*
X37055991Y31559544D01*
X37081235Y31570986D01*
X37107132Y31580559D01*
X37133580Y31588284D01*
X37160477Y31594178D01*
X37187722Y31598263D01*
X37215213Y31600556D01*
X37242849Y31601077D01*
X37270529Y31599846D01*
X37298150Y31596882D01*
X37325611Y31592204D01*
X37352811Y31585831D01*
X37379648Y31577783D01*
X37406020Y31568078D01*
X37431827Y31556737D01*
X37456966Y31543779D01*
X37481335Y31529222D01*
X37504835Y31513087D01*
X37527362Y31495392D01*
X37548815Y31476157D01*
X37569093Y31455401D01*
X37588094Y31433144D01*
X37605717Y31409404D01*
X37621860Y31384201D01*
X37636421Y31357554D01*
X37649299Y31329483D01*
X37660393Y31300007D01*
X37669601Y31269145D01*
X37676821Y31236917D01*
X37681952Y31203341D01*
X37684892Y31168437D01*
X37685540Y31132225D01*
X37683794Y31094724D01*
X37555101Y30459723D01*
X37560101Y30437415D01*
X37566464Y30415826D01*
X37574091Y30394859D01*
X37582884Y30374414D01*
X37592744Y30354392D01*
X37603572Y30334695D01*
X37615271Y30315224D01*
X37627742Y30295880D01*
X37743484Y30133863D01*
X37773248Y30087719D01*
X37787712Y30063257D01*
X37801767Y30037738D01*
X37815314Y30011063D01*
X37828255Y29983132D01*
X37840491Y29953847D01*
X37851924Y29923109D01*
X37862455Y29890820D01*
X37871986Y29856880D01*
X37880419Y29821192D01*
X37887654Y29783656D01*
X37893595Y29744173D01*
X37898141Y29702644D01*
X37901195Y29658972D01*
X37902658Y29613057D01*
X37903349Y29525886D01*
X37902473Y29444008D01*
X37901106Y29404575D01*
X37898937Y29365891D01*
X37895831Y29327763D01*
X37891651Y29290001D01*
X37886261Y29252412D01*
X37879523Y29214805D01*
X37871303Y29176989D01*
X37861462Y29138771D01*
X37849865Y29099961D01*
X37836376Y29060366D01*
X37820858Y29019795D01*
X37803174Y28978057D01*
X37573728Y28555571D01*
X37570779Y28544219D01*
X37568431Y28533197D01*
X37566673Y28522521D01*
X37565489Y28512211D01*
X37564868Y28502285D01*
X37564794Y28492762D01*
X37565256Y28483660D01*
X37566240Y28474998D01*
X37567732Y28466794D01*
X37569720Y28459067D01*
X37572189Y28451836D01*
X37575127Y28445118D01*
X37578520Y28438932D01*
X37582355Y28433297D01*
X37586618Y28428232D01*
X37591296Y28423755D01*
X37596377Y28419884D01*
X37601845Y28416638D01*
X37607689Y28414036D01*
X37613895Y28412096D01*
X37620449Y28410836D01*
X37627339Y28410276D01*
X37634550Y28410433D01*
X37642070Y28411326D01*
X37649885Y28412974D01*
X37657982Y28415395D01*
X37666347Y28418608D01*
X37674968Y28422632D01*
X37683830Y28427484D01*
X37692921Y28433183D01*
X37702227Y28439748D01*
X37711735Y28447197D01*
X37733378Y28466520D01*
X37754573Y28488353D01*
X37775325Y28512546D01*
X37795638Y28538952D01*
X37834963Y28597800D01*
X37872581Y28663706D01*
X37908525Y28735475D01*
X37942827Y28811915D01*
X37975521Y28891833D01*
X38006639Y28974035D01*
X38064279Y29140521D01*
X38116011Y29301827D01*
X38162097Y29448410D01*
X38202801Y29570724D01*
X38220946Y29618084D01*
X38242707Y29670207D01*
X38266224Y29725505D01*
X38289637Y29782390D01*
X38311086Y29839276D01*
X38320492Y29867222D01*
X38328709Y29894574D01*
X38335506Y29921131D01*
X38340648Y29946697D01*
X38343904Y29971071D01*
X38345041Y29994057D01*
X38344510Y30010835D01*
X38343024Y30027371D01*
X38340628Y30043693D01*
X38337363Y30059827D01*
X38333273Y30075801D01*
X38328400Y30091642D01*
X38322788Y30107375D01*
X38316479Y30123028D01*
X38301944Y30154201D01*
X38285138Y30185375D01*
X38266404Y30216766D01*
X38246087Y30248586D01*
X38155851Y30384463D01*
X38132768Y30421654D01*
X38110162Y30460562D01*
X38088378Y30501403D01*
X38067758Y30544390D01*
X38030851Y30640012D01*
X37982767Y30784374D01*
X37928403Y30961369D01*
X37872654Y31154890D01*
X37820418Y31348827D01*
X37776590Y31527073D01*
X37746068Y31673519D01*
X37737327Y31729783D01*
X37733747Y31772057D01*
X37735696Y31863528D01*
X37745110Y31961638D01*
X37761390Y32065296D01*
X37783932Y32173410D01*
X37812138Y32284890D01*
X37845406Y32398646D01*
X37883135Y32513585D01*
X37924724Y32628619D01*
X37969572Y32742655D01*
X38017079Y32854604D01*
X38066644Y32963373D01*
X38117665Y33067874D01*
X38169542Y33167013D01*
X38221673Y33259702D01*
X38273459Y33344849D01*
X38324298Y33421363D01*
X38343524Y33447353D01*
X38363620Y33471663D01*
X38384528Y33494294D01*
X38406190Y33515247D01*
X38428547Y33534521D01*
X38451542Y33552117D01*
X38475117Y33568036D01*
X38499214Y33582276D01*
X38523774Y33594840D01*
X38548741Y33605726D01*
X38574055Y33614935D01*
X38599659Y33622467D01*
X38625496Y33628323D01*
X38651506Y33632503D01*
X38677632Y33635007D01*
X38703816Y33635835D01*
X38730000Y33634987D01*
G37*
G04 #@! TD*
D11*
G04 #@! TO.C,U3*
X64595000Y48610000D03*
X64595000Y54390000D03*
D12*
X64075000Y47180000D03*
D13*
X68275000Y47180000D03*
D12*
X64075000Y55820000D03*
D13*
X68275000Y55820000D03*
G04 #@! TD*
D14*
G04 #@! TO.C,J6*
X4000000Y48450000D03*
X4000000Y50950000D03*
X4000000Y53450000D03*
D15*
X4000000Y55950000D03*
G04 #@! TD*
D16*
G04 #@! TO.C,J11*
X21500000Y4000000D03*
D17*
X19000000Y4000000D03*
D16*
X16500000Y4000000D03*
D17*
X14000000Y4000000D03*
G04 #@! TD*
D18*
G04 #@! TO.C,H2*
X68400000Y66000000D03*
X67697056Y64302944D03*
X67697056Y67697056D03*
X66000000Y63600000D03*
D19*
X66000000Y66000000D03*
D18*
X66000000Y68400000D03*
X64302944Y64302944D03*
X64302944Y67697056D03*
X63600000Y66000000D03*
G04 #@! TD*
D20*
G04 #@! TO.C,H5*
X44824909Y66000000D03*
G04 #@! TD*
D16*
G04 #@! TO.C,J15*
X39500000Y4000000D03*
D17*
X37000000Y4000000D03*
D16*
X34500000Y4000000D03*
D17*
X32000000Y4000000D03*
G04 #@! TD*
D20*
G04 #@! TO.C,H6*
X37900000Y66000000D03*
G04 #@! TD*
D18*
G04 #@! TO.C,H1*
X6400000Y66000000D03*
X5697056Y64302944D03*
X5697056Y67697056D03*
X4000000Y63600000D03*
D19*
X4000000Y66000000D03*
D18*
X4000000Y68400000D03*
X2302944Y64302944D03*
X2302944Y67697056D03*
X1600000Y66000000D03*
G04 #@! TD*
G04 #@! TO.C,H3*
X68400000Y4000000D03*
X67697056Y2302944D03*
X67697056Y5697056D03*
X66000000Y1600000D03*
D19*
X66000000Y4000000D03*
D18*
X66000000Y6400000D03*
X64302944Y2302944D03*
X64302944Y5697056D03*
X63600000Y4000000D03*
G04 #@! TD*
D14*
G04 #@! TO.C,J3*
X4000000Y33350000D03*
X4000000Y35850000D03*
X4000000Y38350000D03*
D15*
X4000000Y40850000D03*
G04 #@! TD*
D16*
G04 #@! TO.C,J1*
X14050000Y66000000D03*
X16550000Y66000000D03*
X19050000Y66000000D03*
D21*
X21550000Y66000000D03*
G04 #@! TD*
D18*
G04 #@! TO.C,H4*
X6400000Y4000000D03*
X5697056Y2302944D03*
X5697056Y5697056D03*
X4000000Y1600000D03*
D19*
X4000000Y4000000D03*
D18*
X4000000Y6400000D03*
X2302944Y2302944D03*
X2302944Y5697056D03*
X1600000Y4000000D03*
G04 #@! TD*
D14*
G04 #@! TO.C,J7*
X4000000Y15750000D03*
X4000000Y18250000D03*
X4000000Y20750000D03*
X4000000Y23250000D03*
D15*
X4000000Y25750000D03*
G04 #@! TD*
D22*
G04 #@! TO.C,TP1*
X49920000Y1950000D03*
X55000000Y1950000D03*
G04 #@! TD*
D23*
G04 #@! TO.C,TP10*
X17850000Y22200000D03*
G04 #@! TD*
G04 #@! TO.C,TP11*
X16012310Y23075000D03*
G04 #@! TD*
G04 #@! TO.C,TP12*
X16012310Y21035445D03*
G04 #@! TD*
G04 #@! TO.C,TP14*
X17836431Y20189347D03*
G04 #@! TD*
G04 #@! TO.C,TP13*
X16000000Y18800000D03*
G04 #@! TD*
M02*
