M48
; DRILL file {KiCad 9.0.9-9.0.9~ubuntu24.04.1} date 2026-06-14T13:09:34+0930
; FORMAT={-:-/ absolute / metric / decimal}
; #@! TF.CreationDate,2026-06-14T13:09:34+09:30
; #@! TF.GenerationSoftware,Kicad,Pcbnew,9.0.9-9.0.9~ubuntu24.04.1
; #@! TF.FileFunction,Plated,1,4,PTH
FMAT,2
METRIC
; #@! TA.AperFunction,Plated,PTH,ComponentDrill
T1C0.200
; #@! TA.AperFunction,Plated,PTH,ViaDrill
T2C0.300
; #@! TA.AperFunction,Plated,PTH,ComponentDrill
T3C0.500
; #@! TA.AperFunction,Plated,PTH,ComponentDrill
T4C0.600
; #@! TA.AperFunction,Plated,PTH,ComponentDrill
T5C0.700
; #@! TA.AperFunction,Plated,PTH,ComponentDrill
T6C0.950
; #@! TA.AperFunction,Plated,PTH,ComponentDrill
T7C3.200
%
G90
G05
T1
X34.86Y46.85
X34.86Y45.75
X35.41Y47.4
X35.41Y46.3
X35.41Y45.2
X35.96Y46.85
X35.96Y45.75
X36.51Y47.4
X36.51Y46.3
X36.51Y45.2
X37.06Y46.85
X37.06Y45.75
T2
X1.0Y61.0
X1.0Y45.0
X1.0Y30.0
X1.0Y10.0
X6.8Y25.8
X6.8Y15.75
X7.01Y56.02
X7.12Y53.45
X7.9Y57.9
X8.0Y34.9
X8.0Y10.0
X8.0Y4.0
X8.25Y69.0
X8.25Y64.0
X10.0Y1.0
X11.03Y61.83
X12.55Y20.85
X14.0Y9.8
X14.0Y6.65
X14.05Y63.28
X14.15Y18.4
X14.66Y40.74
X14.8Y30.1
X15.1Y41.49
X15.9Y58.0
X16.21Y51.12
X17.46Y49.93
X17.53Y18.88
X17.975Y23.5
X18.68Y19.055
X18.76Y53.75
X18.79Y54.89
X19.0Y6.7
X19.425Y18.55
X19.55Y22.0
X19.755Y21.124
X20.0Y58.0
X20.28Y54.83
X20.28Y53.77
X20.975Y21.993
X21.5Y13.5
X21.55Y63.28
X21.694Y18.137
X21.75Y26.25
X21.95Y19.0
X21.975Y21.993
X22.0Y30.2
X22.0Y23.0
X22.56Y48.11
X22.8Y12.7
X22.9Y34.9
X23.45Y7.75
X23.51Y8.7
X23.55Y56.99
X23.87Y9.55
X24.0Y18.5
X24.18Y7.21
X24.3Y48.05
X24.31Y8.0
X24.42Y8.92
X24.8Y43.8
X24.8Y40.3
X24.9Y51.9
X25.56Y56.27
X26.0Y64.0
X26.0Y20.0
X26.0Y4.0
X26.75Y39.0
X27.0Y1.0
X29.0Y69.0
X29.0Y40.0
X29.35Y9.25
X30.5Y9.6
X31.0Y46.0
X31.3Y51.8
X31.7Y56.4
X32.0Y64.0
X32.0Y30.2
X32.0Y17.0
X32.0Y6.7
X32.8Y34.15
X33.2Y20.5
X33.3Y24.5
X33.9Y26.8
X35.5Y69.0
X36.997Y6.71
X37.175Y34.15
X38.0Y40.0
X38.0Y13.7
X38.0Y9.9
X38.3Y58.0
X39.2Y51.8
X40.0Y26.8
X40.0Y20.5
X40.1Y24.5
X41.0Y46.0
X42.1Y28.2
X42.2Y55.0
X42.3Y69.0
X43.7Y4.0
X44.2Y17.8
X44.6Y20.85
X45.7Y49.5
X45.7Y48.1
X45.7Y40.5
X45.9Y58.0
X46.0Y1.0
X46.5Y28.75
X47.0Y52.0
X47.0Y40.0
X47.09Y48.16
X47.11Y49.45
X47.8Y13.7
X47.8Y9.875
X48.625Y49.3
X48.75Y37.425
X48.8Y21.6
X48.9Y19.7
X49.3Y24.15
X49.35Y24.95
X49.7Y22.1
X49.783Y50.217
X49.8Y64.0
X49.987Y47.938
X50.0Y69.0
X50.0Y34.0
X50.57Y51.45
X50.6Y4.0
X50.75Y21.6
X50.85Y19.7
X50.91Y46.89
X51.125Y48.875
X51.7Y37.525
X52.0Y26.2
X52.65Y48.87
X52.9Y27.25
X52.938Y21.6
X53.32Y19.7
X53.65Y26.2
X54.0Y29.0
X54.15Y35.8
X54.8Y45.3
X55.125Y21.6
X55.41Y42.24
X55.6Y27.2
X55.89Y19.7
X56.0Y69.0
X56.0Y52.0
X56.0Y40.0
X57.05Y32.0
X57.3Y26.2
X57.312Y21.6
X58.0Y29.0
X58.15Y32.0
X58.3Y21.9
X58.36Y19.7
X58.39Y48.53
X58.5Y58.0
X58.65Y27.2
X58.957Y47.9
X59.0Y1.0
X59.1Y26.2
X59.5Y48.75
X59.5Y21.6
X59.823Y47.9
X60.0Y69.0
X60.39Y48.53
X60.73Y19.7
X61.1Y45.0
X61.2Y58.0
X62.0Y64.0
X62.0Y56.0
X62.0Y47.0
X62.0Y46.1
X62.0Y34.0
X62.0Y21.6
X62.0Y17.5
X62.0Y9.9
X62.0Y4.0
X62.1Y54.7
X62.1Y48.3
X62.365Y22.75
X62.4Y25.6
X62.4Y24.4
X63.2Y19.7
X63.35Y32.4
X63.9Y25.6
X63.9Y24.4
X64.3Y31.15
X64.6Y52.9
X64.841Y50.3
X65.45Y32.4
X65.6Y48.1
X65.897Y54.2
X65.9Y48.85
X66.5Y28.7
X66.6Y31.15
X67.7Y32.4
X68.0Y62.0
X68.0Y46.0
X68.0Y43.0
X68.0Y40.0
X68.0Y34.0
X68.0Y29.4
X68.0Y18.5
X68.0Y13.65
X68.0Y9.9
X68.03Y53.75
X68.05Y49.12
X68.1Y25.6
X68.45Y20.9
T3
X1.6Y66.0
X1.6Y4.0
X2.303Y67.697
X2.303Y64.303
X2.303Y5.697
X2.303Y2.303
X4.0Y68.4
X4.0Y63.6
X4.0Y6.4
X4.0Y1.6
X5.697Y67.697
X5.697Y64.303
X5.697Y5.697
X5.697Y2.303
X6.4Y66.0
X6.4Y4.0
X63.6Y66.0
X63.6Y4.0
X64.303Y67.697
X64.303Y64.303
X64.303Y5.697
X64.303Y2.303
X66.0Y68.4
X66.0Y63.6
X66.0Y6.4
X66.0Y1.6
X67.697Y67.697
X67.697Y64.303
X67.697Y5.697
X67.697Y2.303
X68.4Y66.0
X68.4Y4.0
T5
X49.92Y1.95
X55.0Y1.95
T6
X4.0Y55.95
X4.0Y53.45
X4.0Y50.95
X4.0Y48.45
X4.0Y40.85
X4.0Y38.35
X4.0Y35.85
X4.0Y33.35
X4.0Y25.75
X4.0Y23.25
X4.0Y20.75
X4.0Y18.25
X4.0Y15.75
X14.0Y4.0
X14.05Y66.0
X16.5Y4.0
X16.55Y66.0
X19.0Y4.0
X19.05Y66.0
X21.5Y4.0
X21.55Y66.0
X32.0Y4.0
X34.5Y4.0
X37.0Y4.0
X39.5Y4.0
T7
X4.0Y66.0
X4.0Y4.0
X66.0Y66.0
X66.0Y4.0
T4
G00X63.525Y55.82
M15
G01X64.625Y55.82
M16
G05
G00X63.525Y47.18
M15
G01X64.625Y47.18
M16
G05
G00X67.875Y55.82
M15
G01X68.675Y55.82
M16
G05
G00X67.875Y47.18
M15
G01X68.675Y47.18
M16
G05
M30
