G04 #@! TF.GenerationSoftware,KiCad,Pcbnew,9.0.9-9.0.9~ubuntu24.04.1*
G04 #@! TF.CreationDate,2026-06-14T13:09:34+09:30*
G04 #@! TF.ProjectId,cloudSmoker_ver2f,636c6f75-6453-46d6-9f6b-65725f766572,2f*
G04 #@! TF.SameCoordinates,Original*
G04 #@! TF.FileFunction,Copper,L4,Bot*
G04 #@! TF.FilePolarity,Positive*
%FSLAX46Y46*%
G04 Gerber Fmt 4.6, Leading zero omitted, Abs format (unit mm)*
G04 Created by KiCad (PCBNEW 9.0.9-9.0.9~ubuntu24.04.1) date 2026-06-14 13:09:34*
%MOMM*%
%LPD*%
G01*
G04 APERTURE LIST*
G04 Aperture macros list*
%AMRoundRect*
0 Rectangle with rounded corners*
0 $1 Rounding radius*
0 $2 $3 $4 $5 $6 $7 $8 $9 X,Y pos of 4 corners*
0 Add a 4 corners polygon primitive as box body*
4,1,4,$2,$3,$4,$5,$6,$7,$8,$9,$2,$3,0*
0 Add four circle primitives for the rounded corners*
1,1,$1+$1,$2,$3*
1,1,$1+$1,$4,$5*
1,1,$1+$1,$6,$7*
1,1,$1+$1,$8,$9*
0 Add four rect primitives between the rounded corners*
20,1,$1+$1,$2,$3,$4,$5,0*
20,1,$1+$1,$4,$5,$6,$7,0*
20,1,$1+$1,$6,$7,$8,$9,0*
20,1,$1+$1,$8,$9,$2,$3,0*%
G04 Aperture macros list end*
G04 #@! TA.AperFunction,EtchedComponent*
%ADD10C,0.000000*%
G04 #@! TD*
G04 #@! TA.AperFunction,HeatsinkPad*
%ADD11O,2.100000X1.000000*%
G04 #@! TD*
G04 #@! TA.AperFunction,HeatsinkPad*
%ADD12O,1.800000X1.000000*%
G04 #@! TD*
G04 #@! TA.AperFunction,ComponentPad*
%ADD13O,1.950000X1.700000*%
G04 #@! TD*
G04 #@! TA.AperFunction,ComponentPad*
%ADD14RoundRect,0.250000X-0.725000X0.600000X-0.725000X-0.600000X0.725000X-0.600000X0.725000X0.600000X0*%
G04 #@! TD*
G04 #@! TA.AperFunction,ComponentPad*
%ADD15O,1.700000X1.950000*%
G04 #@! TD*
G04 #@! TA.AperFunction,ComponentPad*
%ADD16RoundRect,0.250000X-0.600000X-0.725000X0.600000X-0.725000X0.600000X0.725000X-0.600000X0.725000X0*%
G04 #@! TD*
G04 #@! TA.AperFunction,ComponentPad*
%ADD17C,0.800000*%
G04 #@! TD*
G04 #@! TA.AperFunction,ComponentPad*
%ADD18C,6.400000*%
G04 #@! TD*
G04 #@! TA.AperFunction,HeatsinkPad*
%ADD19C,0.600000*%
G04 #@! TD*
G04 #@! TA.AperFunction,ComponentPad*
%ADD20RoundRect,0.250000X0.600000X0.725000X-0.600000X0.725000X-0.600000X-0.725000X0.600000X-0.725000X0*%
G04 #@! TD*
G04 #@! TA.AperFunction,ComponentPad*
%ADD21C,1.400000*%
G04 #@! TD*
G04 #@! TA.AperFunction,SMDPad,CuDef*
%ADD22C,1.000000*%
G04 #@! TD*
G04 #@! TA.AperFunction,ViaPad*
%ADD23C,0.600000*%
G04 #@! TD*
G04 #@! TA.AperFunction,Conductor*
%ADD24C,0.150000*%
G04 #@! TD*
G04 #@! TA.AperFunction,Conductor*
%ADD25C,0.220000*%
G04 #@! TD*
G04 #@! TA.AperFunction,Conductor*
%ADD26C,0.250000*%
G04 #@! TD*
G04 #@! TA.AperFunction,Conductor*
%ADD27C,0.200000*%
G04 #@! TD*
G04 APERTURE END LIST*
D10*
G04 #@! TA.AperFunction,EtchedComponent*
G04 #@! TO.C,REF\u002A\u002A*
G36*
X38716799Y33550000D02*
G01*
X38741401Y33546595D01*
X38765731Y33540916D01*
X38789753Y33533067D01*
X38813432Y33523151D01*
X38836731Y33511274D01*
X38859615Y33497538D01*
X38882047Y33482049D01*
X38903992Y33464910D01*
X38925413Y33446226D01*
X38946276Y33426100D01*
X38966542Y33404638D01*
X38986178Y33381943D01*
X39005146Y33358120D01*
X39023411Y33333271D01*
X39057688Y33280919D01*
X39088720Y33225718D01*
X39116220Y33168504D01*
X39222478Y32872171D01*
X39231651Y32830954D01*
X39238247Y32791013D01*
X39242425Y32752298D01*
X39244350Y32714759D01*
X39244182Y32678347D01*
X39242085Y32643013D01*
X39238220Y32608708D01*
X39232750Y32575381D01*
X39225837Y32542983D01*
X39217643Y32511466D01*
X39198062Y32450875D01*
X39175305Y32393212D01*
X39150670Y32338083D01*
X39100955Y32233843D01*
X39078472Y32183942D01*
X39059302Y32134995D01*
X39044744Y32086606D01*
X39039599Y32062497D01*
X39036094Y32038380D01*
X39034391Y32014205D01*
X39034652Y31989922D01*
X39037039Y31965483D01*
X39041714Y31940837D01*
X39046695Y31923154D01*
X39053261Y31904779D01*
X39061232Y31885817D01*
X39070428Y31866370D01*
X39080669Y31846541D01*
X39091773Y31826433D01*
X39115850Y31785791D01*
X39166432Y31705689D01*
X39190048Y31667875D01*
X39210623Y31632651D01*
X39293026Y31489178D01*
X39375023Y31350532D01*
X39452633Y31213841D01*
X39488551Y31145331D01*
X39521880Y31076232D01*
X39552123Y31006186D01*
X39578783Y30934833D01*
X39601363Y30861814D01*
X39619365Y30786771D01*
X39626494Y30748378D01*
X39632293Y30709344D01*
X39636698Y30669625D01*
X39639647Y30629174D01*
X39641080Y30587949D01*
X39640932Y30545903D01*
X39639143Y30502992D01*
X39635650Y30459170D01*
X39627595Y30398029D01*
X39614464Y30325080D01*
X39597097Y30244590D01*
X39576331Y30160826D01*
X39553005Y30078055D01*
X39527958Y30000542D01*
X39515051Y29965090D01*
X39502028Y29932554D01*
X39488994Y29903465D01*
X39476054Y29878357D01*
X39425992Y29793307D01*
X39374011Y29708574D01*
X39323111Y29623087D01*
X39299004Y29579726D01*
X39276293Y29535775D01*
X39255354Y29491099D01*
X39236561Y29445565D01*
X39220289Y29399039D01*
X39206913Y29351387D01*
X39201429Y29327097D01*
X39196810Y29302475D01*
X39193102Y29277504D01*
X39190353Y29252168D01*
X39188609Y29226450D01*
X39187918Y29200334D01*
X39188327Y29173802D01*
X39189881Y29146837D01*
X39195850Y29108181D01*
X39208067Y29060613D01*
X39225853Y29005529D01*
X39248532Y28944325D01*
X39275425Y28878399D01*
X39305855Y28809146D01*
X39339143Y28737964D01*
X39374613Y28666248D01*
X39411585Y28595396D01*
X39449383Y28526803D01*
X39487329Y28461866D01*
X39524744Y28401983D01*
X39560951Y28348548D01*
X39595273Y28302959D01*
X39627031Y28266612D01*
X39655548Y28240904D01*
X39672816Y28228745D01*
X39689891Y28218217D01*
X39706826Y28209199D01*
X39723678Y28201568D01*
X39740499Y28195198D01*
X39757346Y28189968D01*
X39774272Y28185753D01*
X39791332Y28182431D01*
X39808580Y28179878D01*
X39826071Y28177971D01*
X39843861Y28176585D01*
X39862002Y28175598D01*
X39939181Y28173171D01*
X39923032Y28228174D01*
X39905975Y28279164D01*
X39888182Y28326563D01*
X39869827Y28370795D01*
X39851082Y28412280D01*
X39832121Y28451442D01*
X39794242Y28524484D01*
X39757573Y28593300D01*
X39723499Y28661267D01*
X39707867Y28695989D01*
X39693403Y28731765D01*
X39680280Y28769018D01*
X39668670Y28808171D01*
X39662851Y28832646D01*
X39657890Y28858774D01*
X39653724Y28886334D01*
X39650289Y28915102D01*
X39647521Y28944858D01*
X39645357Y28975379D01*
X39642583Y29037829D01*
X39641456Y29100676D01*
X39641465Y29162144D01*
X39642848Y29273837D01*
X39643978Y29339540D01*
X39645147Y29370836D01*
X39647133Y29401631D01*
X39650251Y29432327D01*
X39652332Y29447763D01*
X39654813Y29463325D01*
X39657733Y29479064D01*
X39661131Y29495028D01*
X39665046Y29511269D01*
X39669517Y29527837D01*
X39686929Y29580823D01*
X39709001Y29635455D01*
X39735012Y29691453D01*
X39764245Y29748540D01*
X39795980Y29806434D01*
X39829500Y29864859D01*
X39899017Y29982180D01*
X39967046Y30098271D01*
X39998705Y30155157D01*
X40027836Y30210899D01*
X40053720Y30265217D01*
X40075639Y30317832D01*
X40092873Y30368465D01*
X40104705Y30416837D01*
X40108225Y30440700D01*
X40109989Y30465341D01*
X40110133Y30490705D01*
X40108797Y30516737D01*
X40102236Y30570584D01*
X40091409Y30626440D01*
X40077422Y30683864D01*
X40061380Y30742414D01*
X40027552Y30861126D01*
X40011975Y30920405D01*
X39998763Y30979044D01*
X39989022Y31036602D01*
X39983855Y31092636D01*
X39983333Y31119944D01*
X39984370Y31146706D01*
X39987102Y31172866D01*
X39991669Y31198370D01*
X39998208Y31223162D01*
X40006859Y31247187D01*
X40017758Y31270389D01*
X40031044Y31292714D01*
X40042968Y31309032D01*
X40055765Y31323583D01*
X40069381Y31336430D01*
X40083760Y31347639D01*
X40098848Y31357274D01*
X40114590Y31365401D01*
X40130931Y31372083D01*
X40147817Y31377387D01*
X40165193Y31381377D01*
X40183004Y31384118D01*
X40201196Y31385674D01*
X40219713Y31386111D01*
X40238501Y31385494D01*
X40257506Y31383886D01*
X40276672Y31381354D01*
X40295944Y31377963D01*
X40334592Y31368859D01*
X40373009Y31357095D01*
X40410760Y31343188D01*
X40447405Y31327659D01*
X40482508Y31311026D01*
X40515630Y31293808D01*
X40546333Y31276525D01*
X40574180Y31259694D01*
X40632159Y31220792D01*
X40695784Y31173600D01*
X40763897Y31119050D01*
X40835337Y31058068D01*
X40908945Y30991585D01*
X40983562Y30920530D01*
X41058027Y30845830D01*
X41131181Y30768416D01*
X41201865Y30689215D01*
X41268918Y30609158D01*
X41331182Y30529173D01*
X41387496Y30450188D01*
X41436702Y30373133D01*
X41477638Y30298937D01*
X41494644Y30263202D01*
X41509147Y30228529D01*
X41521003Y30195035D01*
X41530067Y30162837D01*
X41537819Y30120079D01*
X41540712Y30076927D01*
X41539040Y30033432D01*
X41533096Y29989645D01*
X41523173Y29945617D01*
X41509564Y29901397D01*
X41492562Y29857038D01*
X41472461Y29812589D01*
X41449554Y29768100D01*
X41424134Y29723623D01*
X41366930Y29634907D01*
X41303192Y29546844D01*
X41235269Y29459840D01*
X41096246Y29290626D01*
X41029839Y29209227D01*
X40968628Y29130506D01*
X40914961Y29054868D01*
X40871183Y28982719D01*
X40853735Y28948079D01*
X40839640Y28914463D01*
X40829189Y28881921D01*
X40822677Y28850504D01*
X40820972Y28835306D01*
X40820195Y28820405D01*
X40820304Y28805769D01*
X40821257Y28791362D01*
X40823011Y28777151D01*
X40825526Y28763102D01*
X40828758Y28749180D01*
X40832665Y28735351D01*
X40837207Y28721581D01*
X40842340Y28707835D01*
X40854214Y28680282D01*
X40867951Y28652417D01*
X40883214Y28623968D01*
X40916976Y28564221D01*
X40934803Y28532376D01*
X40952813Y28498853D01*
X40970668Y28463378D01*
X40988034Y28425677D01*
X41004573Y28385477D01*
X41012428Y28364354D01*
X41019951Y28342504D01*
X41039961Y28278466D01*
X41057260Y28215899D01*
X41072044Y28154581D01*
X41084509Y28094285D01*
X41094850Y28034788D01*
X41103265Y27975866D01*
X41109947Y27917293D01*
X41115095Y27858846D01*
X41121567Y27741428D01*
X41124250Y27621818D01*
X41124514Y27368837D01*
X36171514Y27368837D01*
X36167936Y27597457D01*
X36167116Y27710286D01*
X36168015Y27766311D01*
X36170191Y27822069D01*
X36173950Y27877553D01*
X36179596Y27932759D01*
X36187434Y27987682D01*
X36197768Y28042314D01*
X36210902Y28096652D01*
X36227140Y28150689D01*
X36246789Y28204419D01*
X36270151Y28257837D01*
X36284195Y28286349D01*
X36298514Y28313509D01*
X36313061Y28339389D01*
X36327790Y28364060D01*
X36357599Y28410056D01*
X36387566Y28452062D01*
X36417312Y28490641D01*
X36446460Y28526361D01*
X36501450Y28591477D01*
X36526536Y28622004D01*
X36549514Y28651930D01*
X36570005Y28681821D01*
X36579200Y28696929D01*
X36587631Y28712240D01*
X36595252Y28727824D01*
X36602016Y28743753D01*
X36607874Y28760096D01*
X36612781Y28776924D01*
X36616688Y28794309D01*
X36619548Y28812320D01*
X36621315Y28831028D01*
X36621941Y28850504D01*
X36621018Y28870163D01*
X36618229Y28891375D01*
X36613782Y28913924D01*
X36607885Y28937598D01*
X36600745Y28962182D01*
X36592569Y28987463D01*
X36573945Y29039258D01*
X36533418Y29141790D01*
X36514839Y29189105D01*
X36499598Y29231504D01*
X36368787Y29654837D01*
X36280410Y29903460D01*
X36264084Y29953779D01*
X36250566Y30001346D01*
X36240105Y30047154D01*
X36232951Y30092194D01*
X36229353Y30137456D01*
X36228967Y30160481D01*
X36229563Y30183934D01*
X36231174Y30207938D01*
X36233830Y30232618D01*
X36237562Y30258097D01*
X36242403Y30284499D01*
X36255533Y30340571D01*
X36273469Y30401823D01*
X36296462Y30469248D01*
X36324761Y30543837D01*
X36350451Y30603968D01*
X36381200Y30667197D01*
X36416579Y30732803D01*
X36456159Y30800066D01*
X36499512Y30868265D01*
X36546210Y30936677D01*
X36595823Y31004581D01*
X36647923Y31071258D01*
X36702082Y31135984D01*
X36757871Y31198040D01*
X36814862Y31256704D01*
X36872627Y31311255D01*
X36930736Y31360971D01*
X36988761Y31405131D01*
X37046275Y31443015D01*
X37102847Y31473900D01*
X37125388Y31483885D01*
X37148119Y31492039D01*
X37170976Y31498404D01*
X37193895Y31503023D01*
X37216811Y31505937D01*
X37239659Y31507188D01*
X37262375Y31506818D01*
X37284894Y31504870D01*
X37307151Y31501385D01*
X37329082Y31496406D01*
X37350621Y31489974D01*
X37371705Y31482131D01*
X37392269Y31472919D01*
X37412248Y31462381D01*
X37431577Y31450559D01*
X37450192Y31437494D01*
X37468029Y31423228D01*
X37485021Y31407804D01*
X37501106Y31391263D01*
X37516218Y31373648D01*
X37530292Y31355001D01*
X37543264Y31335362D01*
X37555069Y31314776D01*
X37565643Y31293283D01*
X37574921Y31270925D01*
X37582839Y31247745D01*
X37589331Y31223785D01*
X37594333Y31199086D01*
X37597780Y31173691D01*
X37599608Y31147641D01*
X37599752Y31120980D01*
X37598148Y31093747D01*
X37591136Y31031512D01*
X37582097Y30973535D01*
X37571407Y30919547D01*
X37559439Y30869281D01*
X37546568Y30822471D01*
X37533169Y30778849D01*
X37506284Y30700100D01*
X37481780Y30630896D01*
X37471358Y30599205D01*
X37462654Y30569098D01*
X37456044Y30540309D01*
X37451902Y30512569D01*
X37450603Y30485612D01*
X37452521Y30459170D01*
X37454663Y30447652D01*
X37457949Y30435275D01*
X37467694Y30408142D01*
X37481230Y30378164D01*
X37498029Y30345737D01*
X37517567Y30311254D01*
X37539317Y30275107D01*
X37587352Y30199403D01*
X37686836Y30045369D01*
X37709350Y30008611D01*
X37729870Y29973340D01*
X37747870Y29939951D01*
X37762824Y29908837D01*
X37776824Y29874337D01*
X37788621Y29839147D01*
X37798394Y29803343D01*
X37806321Y29767001D01*
X37812582Y29730195D01*
X37817355Y29692999D01*
X37820817Y29655491D01*
X37823149Y29617743D01*
X37825133Y29541831D01*
X37824737Y29465865D01*
X37822514Y29316171D01*
X37823182Y29236531D01*
X37822894Y29194935D01*
X37821191Y29153082D01*
X37819576Y29132275D01*
X37817326Y29111665D01*
X37814348Y29091337D01*
X37810548Y29071378D01*
X37805833Y29051877D01*
X37800110Y29032918D01*
X37793283Y29014589D01*
X37785260Y28996977D01*
X37776685Y28981106D01*
X37766762Y28964702D01*
X37743400Y28930405D01*
X37716223Y28894297D01*
X37686280Y28856590D01*
X37622294Y28777218D01*
X37590349Y28735976D01*
X37559836Y28693977D01*
X37531803Y28651432D01*
X37519044Y28630021D01*
X37507300Y28608553D01*
X37496699Y28587053D01*
X37487375Y28565549D01*
X37479458Y28544067D01*
X37473079Y28522633D01*
X37468369Y28501273D01*
X37465460Y28480014D01*
X37464483Y28458882D01*
X37465568Y28437903D01*
X37468847Y28417105D01*
X37474452Y28396512D01*
X37482513Y28376152D01*
X37493161Y28356051D01*
X37505946Y28336616D01*
X37519112Y28320134D01*
X37532617Y28306475D01*
X37546422Y28295510D01*
X37560486Y28287108D01*
X37574766Y28281139D01*
X37589223Y28277474D01*
X37603816Y28275981D01*
X37618504Y28276532D01*
X37633246Y28278997D01*
X37648001Y28283244D01*
X37662728Y28289145D01*
X37677387Y28296569D01*
X37691936Y28305387D01*
X37706336Y28315468D01*
X37720544Y28326682D01*
X37734520Y28338900D01*
X37748223Y28351990D01*
X37774648Y28380272D01*
X37799492Y28410488D01*
X37822428Y28441597D01*
X37843129Y28472560D01*
X37861268Y28502336D01*
X37876518Y28529887D01*
X37888554Y28554171D01*
X38163297Y29146837D01*
X38290721Y29527837D01*
X38386394Y29758290D01*
X38398056Y29788922D01*
X38408923Y29819487D01*
X38418779Y29849842D01*
X38427405Y29879846D01*
X38434582Y29909356D01*
X38440092Y29938230D01*
X38443716Y29966327D01*
X38445238Y29993504D01*
X38445031Y30013373D01*
X38443805Y30032763D01*
X38441605Y30051713D01*
X38438476Y30070262D01*
X38434463Y30088449D01*
X38429612Y30106314D01*
X38423968Y30123896D01*
X38417575Y30141234D01*
X38402725Y30175336D01*
X38385423Y30208933D01*
X38366030Y30242339D01*
X38344907Y30275867D01*
X38250332Y30417486D01*
X38225972Y30456335D01*
X38202047Y30497190D01*
X38178919Y30540364D01*
X38156947Y30586171D01*
X37833098Y31602171D01*
X37830128Y31638084D01*
X37827680Y31674845D01*
X37825917Y31712192D01*
X37825001Y31749861D01*
X37825098Y31787590D01*
X37826371Y31825115D01*
X37828982Y31862174D01*
X37830842Y31880447D01*
X37833098Y31898504D01*
X37838360Y31966153D01*
X37851542Y32045087D01*
X37871834Y32133592D01*
X37898423Y32229954D01*
X37930499Y32332460D01*
X37967251Y32439397D01*
X38007868Y32549052D01*
X38051538Y32659710D01*
X38144793Y32877185D01*
X38240530Y33078115D01*
X38287300Y33168093D01*
X38332257Y33248794D01*
X38374590Y33318505D01*
X38413488Y33375514D01*
X38438543Y33407530D01*
X38463759Y33436022D01*
X38489098Y33461094D01*
X38514526Y33482849D01*
X38540005Y33501391D01*
X38565501Y33516826D01*
X38590977Y33529257D01*
X38616397Y33538788D01*
X38641725Y33545524D01*
X38666926Y33549568D01*
X38691962Y33551026D01*
X38716799Y33550000D01*
G37*
G04 #@! TD.AperFunction*
G04 #@! TD*
D11*
G04 #@! TO.P,U3,S1,SHIELD*
G04 #@! TO.N,GND*
X64075000Y47180000D03*
D12*
X68275000Y47180000D03*
D11*
X64075000Y55820000D03*
D12*
X68275000Y55820000D03*
G04 #@! TD*
D13*
G04 #@! TO.P,J6,4,Pin_4*
G04 #@! TO.N,SPI_MOSI*
X4000000Y48450000D03*
G04 #@! TO.P,J6,3,Pin_3*
G04 #@! TO.N,SPI_SCK*
X4000000Y50950000D03*
G04 #@! TO.P,J6,2,Pin_2*
G04 #@! TO.N,+5V*
X4000000Y53450000D03*
D14*
G04 #@! TO.P,J6,1,Pin_1*
G04 #@! TO.N,GND*
X4000000Y55950000D03*
G04 #@! TD*
D15*
G04 #@! TO.P,J11,4,Pin_4*
G04 #@! TO.N,/MEAT1_IN*
X21500000Y4000000D03*
D16*
G04 #@! TO.P,J11,3,Pin_3*
G04 #@! TO.N,GND*
X19000000Y4000000D03*
D15*
G04 #@! TO.P,J11,2,Pin_2*
G04 #@! TO.N,/PIT_IN*
X16500000Y4000000D03*
D16*
G04 #@! TO.P,J11,1,Pin_1*
G04 #@! TO.N,GND*
X14000000Y4000000D03*
G04 #@! TD*
D17*
G04 #@! TO.P,H2,1,1*
G04 #@! TO.N,GND*
X68400000Y66000000D03*
X67697056Y64302944D03*
X67697056Y67697056D03*
X66000000Y63600000D03*
D18*
X66000000Y66000000D03*
D17*
X66000000Y68400000D03*
X64302944Y64302944D03*
X64302944Y67697056D03*
X63600000Y66000000D03*
G04 #@! TD*
D19*
G04 #@! TO.P,U4,19,GND*
G04 #@! TO.N,GND*
X37060000Y45750000D03*
X37060000Y46850000D03*
X36510000Y45200000D03*
X36510000Y46300000D03*
X36510000Y47400000D03*
X35960000Y45750000D03*
X35960000Y46850000D03*
X35410000Y45200000D03*
X35410000Y46300000D03*
X35410000Y47400000D03*
X34860000Y45750000D03*
X34860000Y46850000D03*
G04 #@! TD*
D15*
G04 #@! TO.P,J15,4,Pin_4*
G04 #@! TO.N,/MEAT3_IN*
X39500000Y4000000D03*
D16*
G04 #@! TO.P,J15,3,Pin_3*
G04 #@! TO.N,GND*
X37000000Y4000000D03*
D15*
G04 #@! TO.P,J15,2,Pin_2*
G04 #@! TO.N,/MEAT2_IN*
X34500000Y4000000D03*
D16*
G04 #@! TO.P,J15,1,Pin_1*
G04 #@! TO.N,GND*
X32000000Y4000000D03*
G04 #@! TD*
D17*
G04 #@! TO.P,H1,1,1*
G04 #@! TO.N,GND*
X6400000Y66000000D03*
X5697056Y64302944D03*
X5697056Y67697056D03*
X4000000Y63600000D03*
D18*
X4000000Y66000000D03*
D17*
X4000000Y68400000D03*
X2302944Y64302944D03*
X2302944Y67697056D03*
X1600000Y66000000D03*
G04 #@! TD*
G04 #@! TO.P,H3,1,1*
G04 #@! TO.N,GND*
X68400000Y4000000D03*
X67697056Y2302944D03*
X67697056Y5697056D03*
X66000000Y1600000D03*
D18*
X66000000Y4000000D03*
D17*
X66000000Y6400000D03*
X64302944Y2302944D03*
X64302944Y5697056D03*
X63600000Y4000000D03*
G04 #@! TD*
D13*
G04 #@! TO.P,J3,4,Pin_4*
G04 #@! TO.N,DISP_BL*
X4000000Y33350000D03*
G04 #@! TO.P,J3,3,Pin_3*
G04 #@! TO.N,DISP_CS*
X4000000Y35850000D03*
G04 #@! TO.P,J3,2,Pin_2*
G04 #@! TO.N,DISP_DC*
X4000000Y38350000D03*
D14*
G04 #@! TO.P,J3,1,Pin_1*
G04 #@! TO.N,~{BOOT}_DISP_RST*
X4000000Y40850000D03*
G04 #@! TD*
D15*
G04 #@! TO.P,J1,4,Pin_4*
G04 #@! TO.N,+3.3V*
X14050000Y66000000D03*
G04 #@! TO.P,J1,3,Pin_3*
G04 #@! TO.N,DEBUG_RX*
X16550000Y66000000D03*
G04 #@! TO.P,J1,2,Pin_2*
G04 #@! TO.N,DEBUG_TX{slash}LED*
X19050000Y66000000D03*
D20*
G04 #@! TO.P,J1,1,Pin_1*
G04 #@! TO.N,GND*
X21550000Y66000000D03*
G04 #@! TD*
D17*
G04 #@! TO.P,H4,1,1*
G04 #@! TO.N,GND*
X6400000Y4000000D03*
X5697056Y2302944D03*
X5697056Y5697056D03*
X4000000Y1600000D03*
D18*
X4000000Y4000000D03*
D17*
X4000000Y6400000D03*
X2302944Y2302944D03*
X2302944Y5697056D03*
X1600000Y4000000D03*
G04 #@! TD*
D13*
G04 #@! TO.P,J7,5,Pin_5*
G04 #@! TO.N,+3.3V*
X4000000Y15750000D03*
G04 #@! TO.P,J7,4,Pin_4*
G04 #@! TO.N,ENC_SW*
X4000000Y18250000D03*
G04 #@! TO.P,J7,3,Pin_3*
G04 #@! TO.N,ENC_CLK*
X4000000Y20750000D03*
G04 #@! TO.P,J7,2,Pin_2*
G04 #@! TO.N,ENC_DT*
X4000000Y23250000D03*
D14*
G04 #@! TO.P,J7,1,Pin_1*
G04 #@! TO.N,GND*
X4000000Y25750000D03*
G04 #@! TD*
D21*
G04 #@! TO.P,TP1,1,1*
G04 #@! TO.N,GND*
X49920000Y1950000D03*
X55000000Y1950000D03*
G04 #@! TD*
D22*
G04 #@! TO.P,TP10,1,1*
G04 #@! TO.N,PIT*
X17850000Y22200000D03*
G04 #@! TD*
G04 #@! TO.P,TP11,1,1*
G04 #@! TO.N,MEAT1*
X16012310Y23075000D03*
G04 #@! TD*
G04 #@! TO.P,TP12,1,1*
G04 #@! TO.N,GND*
X16012310Y21035445D03*
G04 #@! TD*
G04 #@! TO.P,TP14,1,1*
G04 #@! TO.N,MEAT3*
X17836431Y20189347D03*
G04 #@! TD*
G04 #@! TO.P,TP13,1,1*
G04 #@! TO.N,MEAT2*
X16000000Y18800000D03*
G04 #@! TD*
D23*
G04 #@! TO.N,GND*
X23510000Y8700000D03*
X8000000Y34900000D03*
X56000000Y69000000D03*
X52650000Y48870000D03*
X23450000Y7750000D03*
X62100000Y48300000D03*
X1000000Y61000000D03*
X45900000Y58000000D03*
X38000000Y9900000D03*
X42300000Y69000000D03*
X23870000Y9550000D03*
X68000000Y34000000D03*
X8000000Y10000000D03*
X56000000Y40000000D03*
X17975013Y23500000D03*
X44600000Y20850000D03*
X15900000Y58000000D03*
X20000000Y58000000D03*
X35500000Y69000000D03*
X47000000Y40000000D03*
X61100000Y45000000D03*
X62100000Y54700000D03*
X59100000Y26200000D03*
X55125000Y21600000D03*
X65600000Y48100000D03*
X63200000Y19700000D03*
X14660000Y40740000D03*
X22000000Y30200000D03*
X55890000Y19700000D03*
X62000000Y64000000D03*
X22560000Y48110000D03*
X26750000Y39000000D03*
X68000000Y13650000D03*
X44200000Y17800000D03*
X54000000Y29000000D03*
X50910000Y46890000D03*
X54800000Y45300000D03*
X53320000Y19700000D03*
X42200000Y55000000D03*
X37174943Y34150000D03*
X50600000Y4000000D03*
X62000000Y9900000D03*
X38000000Y40000000D03*
X24310000Y8000000D03*
X51700000Y37525000D03*
X20975000Y21993419D03*
X62000000Y56000000D03*
X68000000Y29400000D03*
X38300000Y58000000D03*
X48900000Y19700000D03*
X50750000Y21600000D03*
X52900000Y27250000D03*
X59500000Y21600000D03*
X32000000Y30200000D03*
X59823333Y47900000D03*
X14000000Y6650000D03*
X24180000Y7210000D03*
X16210000Y51120000D03*
X14000000Y9800000D03*
X53650000Y26200000D03*
X49700000Y22100000D03*
X36997415Y6710220D03*
X1000000Y10000000D03*
X47800000Y13700000D03*
X32800000Y34150114D03*
X24420000Y8920000D03*
X58500000Y58000000D03*
X52937500Y21600000D03*
X68450000Y20900000D03*
X26000000Y64000000D03*
X32000000Y6700000D03*
X31000000Y46000000D03*
X68000000Y62000000D03*
X10000000Y1000000D03*
X55410000Y42240000D03*
X26000000Y4000000D03*
X48750000Y37425000D03*
X17530232Y18880232D03*
X62000000Y21600000D03*
X43700000Y4000000D03*
X8250000Y69000000D03*
X6800000Y25800000D03*
X60000000Y69000000D03*
X58000000Y29000000D03*
X68050000Y49120000D03*
X47800000Y9875000D03*
X38000000Y13700000D03*
X68000000Y46000000D03*
X68000000Y40000000D03*
X58390000Y48530000D03*
X50850000Y19700000D03*
X55600000Y27200000D03*
X58150000Y32000000D03*
X8250000Y64000000D03*
X19000000Y6700000D03*
X47000000Y52000000D03*
X32000000Y17000000D03*
X49800000Y64000000D03*
X47090000Y48160000D03*
X29000000Y69000000D03*
X42100000Y28200000D03*
X39200000Y51800000D03*
X68000000Y18500000D03*
X62000000Y17500000D03*
X57300000Y26200000D03*
X60390000Y48530000D03*
X50000000Y69000000D03*
X32000000Y64000000D03*
X54150000Y35800000D03*
X68000000Y9900000D03*
X22900000Y34900000D03*
X60730000Y19700000D03*
X25560000Y56270000D03*
X23550000Y56990000D03*
X21550000Y63280000D03*
X62365319Y22749975D03*
X58956667Y47900000D03*
X62000000Y46100000D03*
X7900000Y57900000D03*
X62000000Y4000000D03*
X59000000Y1000000D03*
X48800000Y21600000D03*
X1000000Y45000000D03*
X56000000Y52000000D03*
X14150000Y18400000D03*
X41000000Y46000000D03*
X62000000Y34000000D03*
X59500000Y48750000D03*
X1000000Y30000000D03*
X68030000Y53750000D03*
X27000000Y1000000D03*
X29000000Y40000000D03*
X30500000Y9600000D03*
X24000000Y18500000D03*
X19425000Y18550000D03*
X11030000Y61830000D03*
X31300000Y51800000D03*
X22000000Y23000000D03*
X7010000Y56020000D03*
X68000000Y43000000D03*
X46000000Y1000000D03*
X8000000Y4000000D03*
X62000000Y47000000D03*
X47110000Y49450000D03*
X31700000Y56400000D03*
X21975000Y21993419D03*
X58650000Y27200000D03*
X50000000Y34000000D03*
X50570000Y51450000D03*
X57312500Y21600000D03*
X58360000Y19700000D03*
X14800000Y30100000D03*
X68100000Y25600000D03*
X24900000Y51900000D03*
X26000000Y20000000D03*
X52000000Y26200000D03*
X61200000Y58000000D03*
G04 #@! TO.N,+3.3V*
X40000000Y26800000D03*
X46500000Y28750000D03*
X33300000Y24500000D03*
X49300000Y24150000D03*
X14050000Y63280000D03*
X49350000Y24950000D03*
X20280000Y53770000D03*
X40100000Y24500000D03*
X57050000Y32000000D03*
X20280000Y54830000D03*
X6800000Y15750000D03*
X18790000Y54890000D03*
X24800000Y40300000D03*
X33900000Y26800000D03*
X24800000Y43800000D03*
X18760000Y53750000D03*
G04 #@! TO.N,PIT*
X19550000Y22000000D03*
G04 #@! TO.N,MEAT1*
X19755097Y21123679D03*
G04 #@! TO.N,MEAT2*
X18680270Y19055353D03*
G04 #@! TO.N,MEAT3*
X21694320Y18137079D03*
G04 #@! TO.N,DISP_DC*
X17460000Y49930000D03*
G04 #@! TO.N,DISP_BL*
X24300000Y48050000D03*
G04 #@! TO.N,DISP_CS*
X15100000Y41490000D03*
G04 #@! TO.N,+5V*
X7120000Y53450000D03*
X21500000Y13500000D03*
X63900000Y24400000D03*
X64300000Y31150000D03*
X65450000Y32400000D03*
X63900000Y25600000D03*
X66500000Y28700000D03*
X40000000Y20500000D03*
X67700000Y32400000D03*
X22800000Y12700000D03*
X29350000Y9250000D03*
X12550000Y20850000D03*
X63350000Y32400000D03*
X62400000Y24400000D03*
X33200000Y20500000D03*
X21950000Y19000000D03*
X58300000Y21900000D03*
X21750000Y26250000D03*
X66600000Y31150000D03*
X62400000Y25600000D03*
G04 #@! TO.N,ENC_CLK*
X45700000Y48100000D03*
G04 #@! TO.N,ENC_DT*
X45700000Y49500000D03*
G04 #@! TO.N,ENC_SW*
X45700000Y40500000D03*
G04 #@! TO.N,I2C_SDA_3V3*
X51125000Y48875000D03*
X49782514Y50217486D03*
G04 #@! TO.N,I2C_SCL_3V3*
X49987500Y47937500D03*
X48625000Y49300000D03*
G04 #@! TO.N,Net-(U3-CC1)*
X65900000Y48850000D03*
X64841345Y50300493D03*
G04 #@! TO.N,Net-(U3-CC2)*
X65896899Y54200000D03*
X64600000Y52900000D03*
G04 #@! TD*
D24*
G04 #@! TO.N,GND*
X17595057Y18815407D02*
X17595057Y18695057D01*
X14835445Y21035445D02*
X14100000Y20300000D01*
X16012310Y21035445D02*
X14835445Y21035445D01*
X17530232Y18880232D02*
X17595057Y18815407D01*
X14100000Y20300000D02*
X14100000Y18450000D01*
X14100000Y18450000D02*
X14150000Y18400000D01*
D25*
G04 #@! TO.N,PIT*
X19550000Y22000000D02*
X18800000Y22000000D01*
X18650000Y22150000D02*
X17850000Y22150000D01*
X18800000Y22000000D02*
X18650000Y22150000D01*
G04 #@! TO.N,MEAT1*
X16012310Y23075000D02*
X16012310Y23812310D01*
X16012310Y23812310D02*
X16425000Y24225000D01*
X20260000Y21310000D02*
X20073679Y21123679D01*
X20073679Y21123679D02*
X19755097Y21123679D01*
X16440000Y24210000D02*
X18640000Y24210000D01*
X16425000Y24225000D02*
X16440000Y24210000D01*
X20260000Y22590000D02*
X20260000Y21310000D01*
X18640000Y24210000D02*
X20260000Y22590000D01*
G04 #@! TO.N,MEAT2*
X16100000Y18725000D02*
X16100000Y18825000D01*
X18680270Y19055353D02*
X18680270Y19026178D01*
X18680270Y19026178D02*
X17704092Y18050000D01*
X16775000Y18050000D02*
X16100000Y18725000D01*
X17704092Y18050000D02*
X16775000Y18050000D01*
D24*
G04 #@! TO.N,MEAT3*
X20225000Y18850000D02*
X20937921Y18137079D01*
X20937921Y18137079D02*
X21694320Y18137079D01*
X18700000Y20750000D02*
X19250000Y20200000D01*
X17850000Y20750000D02*
X18700000Y20750000D01*
X19250000Y20200000D02*
X19700000Y20200000D01*
X20225000Y19679595D02*
X20225000Y18850000D01*
X19700000Y20200000D02*
X19825000Y20075000D01*
X19825000Y20075000D02*
X19829595Y20075000D01*
X19829595Y20075000D02*
X20225000Y19679595D01*
D26*
G04 #@! TO.N,DISP_DC*
X9470000Y43060000D02*
X9470000Y41320000D01*
X6500000Y38350000D02*
X3990000Y38350000D01*
X16340000Y49930000D02*
X9470000Y43060000D01*
X9470000Y41320000D02*
X6500000Y38350000D01*
X17460000Y49930000D02*
X16340000Y49930000D01*
X3990000Y38350000D02*
X3920000Y38420000D01*
G04 #@! TO.N,DISP_BL*
X9580000Y33330000D02*
X3850000Y33330000D01*
X24300000Y48050000D02*
X9580000Y33330000D01*
G04 #@! TO.N,DISP_CS*
X13710000Y41490000D02*
X8060000Y35840000D01*
X8060000Y35840000D02*
X4080000Y35840000D01*
X4080000Y35840000D02*
X4010000Y35770000D01*
X15100000Y41490000D02*
X13710000Y41490000D01*
D27*
G04 #@! TO.N,ENC_CLK*
X6800000Y20700000D02*
X3900000Y20700000D01*
X34800000Y48700000D02*
X6800000Y20700000D01*
X45480000Y48700000D02*
X34800000Y48700000D01*
X45700000Y48100000D02*
X45700000Y48480000D01*
X45700000Y48480000D02*
X45480000Y48700000D01*
G04 #@! TO.N,ENC_DT*
X45410000Y50300000D02*
X45700000Y50010000D01*
X4000000Y23250000D02*
X6550000Y23250000D01*
X45700000Y50010000D02*
X45700000Y49500000D01*
X33600000Y50300000D02*
X45410000Y50300000D01*
X6550000Y23250000D02*
X33600000Y50300000D01*
G04 #@! TO.N,ENC_SW*
X29100000Y39000000D02*
X8200000Y18100000D01*
X45290000Y41300000D02*
X31500000Y41300000D01*
X31500000Y41300000D02*
X29200000Y39000000D01*
X8200000Y18100000D02*
X4200000Y18100000D01*
X45700000Y40500000D02*
X45700000Y40890000D01*
X45700000Y40890000D02*
X45290000Y41300000D01*
X29200000Y39000000D02*
X29100000Y39000000D01*
G04 #@! TO.N,I2C_SDA_3V3*
X51125000Y48875000D02*
X50025000Y49975000D01*
X49782514Y50217486D02*
X50025000Y49975000D01*
X50025000Y49975000D02*
X50025000Y50000000D01*
D25*
G04 #@! TO.N,I2C_SCL_3V3*
X48625000Y49300000D02*
X49987500Y47937500D01*
D27*
G04 #@! TO.N,Net-(U3-CC1)*
X65900000Y49200000D02*
X65900000Y48850000D01*
X64900000Y50241838D02*
X64900000Y50200000D01*
X64900000Y50200000D02*
X65900000Y49200000D01*
X64841345Y50300493D02*
X64900000Y50241838D01*
G04 #@! TO.N,Net-(U3-CC2)*
X64600000Y52900000D02*
X64600000Y52903101D01*
X64600000Y52903101D02*
X65896899Y54200000D01*
X65900000Y54200000D02*
X65896899Y54200000D01*
G04 #@! TD*
G04 #@! TA.AperFunction,Conductor*
G04 #@! TO.N,GND*
G36*
X66002422Y69599381D02*
G01*
X66347957Y69582406D01*
X66357617Y69581455D01*
X66697424Y69531050D01*
X66706949Y69529155D01*
X67040173Y69445686D01*
X67049444Y69442874D01*
X67372893Y69327142D01*
X67381862Y69323427D01*
X67692410Y69176548D01*
X67700953Y69171981D01*
X67995599Y68995378D01*
X68003677Y68989981D01*
X68279596Y68785346D01*
X68287103Y68779184D01*
X68541632Y68548493D01*
X68548492Y68541633D01*
X68779181Y68287107D01*
X68785345Y68279597D01*
X68989980Y68003678D01*
X68995377Y67995600D01*
X69171973Y67700967D01*
X69176553Y67692399D01*
X69323424Y67381866D01*
X69327142Y67372890D01*
X69442869Y67049458D01*
X69445689Y67040161D01*
X69529153Y66706952D01*
X69531049Y66697423D01*
X69581453Y66357622D01*
X69582405Y66347954D01*
X69599381Y66002423D01*
X69599500Y65997565D01*
X69599500Y56548722D01*
X69580593Y56490531D01*
X69531093Y56454567D01*
X69469907Y56454567D01*
X69430496Y56478718D01*
X69312466Y56596748D01*
X69312462Y56596751D01*
X69148685Y56706186D01*
X69148673Y56706192D01*
X68966689Y56781571D01*
X68773493Y56820000D01*
X68525001Y56820000D01*
X68525000Y56819999D01*
X68525000Y56120000D01*
X68025000Y56120000D01*
X68025000Y56819999D01*
X68024999Y56820000D01*
X67776506Y56820000D01*
X67583311Y56781571D01*
X67583309Y56781571D01*
X67401326Y56706192D01*
X67401314Y56706186D01*
X67237537Y56596751D01*
X67237533Y56596748D01*
X67098252Y56457467D01*
X67098249Y56457463D01*
X66988814Y56293686D01*
X66988808Y56293674D01*
X66913431Y56111696D01*
X66913428Y56111685D01*
X66905137Y56070000D01*
X67708012Y56070000D01*
X67690795Y56060060D01*
X67634940Y56004205D01*
X67595444Y55935796D01*
X67575000Y55859496D01*
X67575000Y55780504D01*
X67595444Y55704204D01*
X67634940Y55635795D01*
X67690795Y55579940D01*
X67708012Y55570000D01*
X66905137Y55570000D01*
X66913428Y55528316D01*
X66913431Y55528305D01*
X66988808Y55346327D01*
X66988814Y55346315D01*
X67098249Y55182538D01*
X67098252Y55182534D01*
X67237533Y55043253D01*
X67237537Y55043250D01*
X67401314Y54933815D01*
X67401326Y54933809D01*
X67583310Y54858430D01*
X67776506Y54820001D01*
X67776510Y54820000D01*
X68024999Y54820000D01*
X68025000Y54820001D01*
X68025000Y55520000D01*
X68525000Y55520000D01*
X68525000Y54820001D01*
X68525001Y54820000D01*
X68773490Y54820000D01*
X68773493Y54820001D01*
X68966688Y54858430D01*
X68966690Y54858430D01*
X69148673Y54933809D01*
X69148685Y54933815D01*
X69312462Y55043250D01*
X69312466Y55043253D01*
X69430496Y55161282D01*
X69485013Y55189059D01*
X69545445Y55179488D01*
X69588710Y55136223D01*
X69599500Y55091278D01*
X69599500Y47908722D01*
X69580593Y47850531D01*
X69531093Y47814567D01*
X69469907Y47814567D01*
X69430496Y47838718D01*
X69312466Y47956748D01*
X69312462Y47956751D01*
X69148685Y48066186D01*
X69148673Y48066192D01*
X68966689Y48141571D01*
X68773493Y48180000D01*
X68525001Y48180000D01*
X68525000Y48179999D01*
X68525000Y47480000D01*
X68025000Y47480000D01*
X68025000Y48179999D01*
X68024999Y48180000D01*
X67776506Y48180000D01*
X67583311Y48141571D01*
X67583309Y48141571D01*
X67401326Y48066192D01*
X67401314Y48066186D01*
X67237537Y47956751D01*
X67237533Y47956748D01*
X67098252Y47817467D01*
X67098249Y47817463D01*
X66988814Y47653686D01*
X66988808Y47653674D01*
X66913431Y47471696D01*
X66913428Y47471685D01*
X66905137Y47430000D01*
X67708012Y47430000D01*
X67690795Y47420060D01*
X67634940Y47364205D01*
X67595444Y47295796D01*
X67575000Y47219496D01*
X67575000Y47140504D01*
X67595444Y47064204D01*
X67634940Y46995795D01*
X67690795Y46939940D01*
X67708012Y46930000D01*
X66905137Y46930000D01*
X66913428Y46888316D01*
X66913431Y46888305D01*
X66988808Y46706327D01*
X66988814Y46706315D01*
X67098249Y46542538D01*
X67098252Y46542534D01*
X67237533Y46403253D01*
X67237537Y46403250D01*
X67401314Y46293815D01*
X67401326Y46293809D01*
X67583310Y46218430D01*
X67776506Y46180001D01*
X67776510Y46180000D01*
X68024999Y46180000D01*
X68025000Y46180001D01*
X68025000Y46880000D01*
X68525000Y46880000D01*
X68525000Y46180001D01*
X68525001Y46180000D01*
X68773490Y46180000D01*
X68773493Y46180001D01*
X68966688Y46218430D01*
X68966690Y46218430D01*
X69148673Y46293809D01*
X69148685Y46293815D01*
X69312462Y46403250D01*
X69312466Y46403253D01*
X69430496Y46521282D01*
X69485013Y46549059D01*
X69545445Y46539488D01*
X69588710Y46496223D01*
X69599500Y46451278D01*
X69599500Y4002436D01*
X69599381Y3997578D01*
X69582405Y3652047D01*
X69581453Y3642379D01*
X69531049Y3302578D01*
X69529153Y3293049D01*
X69445689Y2959840D01*
X69442869Y2950543D01*
X69327142Y2627111D01*
X69323424Y2618135D01*
X69176553Y2307602D01*
X69171973Y2299034D01*
X68995377Y2004401D01*
X68989980Y1996323D01*
X68785345Y1720404D01*
X68779181Y1712894D01*
X68548497Y1458373D01*
X68541627Y1451503D01*
X68287106Y1220819D01*
X68279596Y1214655D01*
X68003677Y1010020D01*
X67995599Y1004623D01*
X67700966Y828027D01*
X67692398Y823447D01*
X67381865Y676576D01*
X67372889Y672858D01*
X67049457Y557131D01*
X67040160Y554311D01*
X66706951Y470847D01*
X66697422Y468951D01*
X66357621Y418547D01*
X66347953Y417595D01*
X66002422Y400619D01*
X65997564Y400500D01*
X4002436Y400500D01*
X3997578Y400619D01*
X3652046Y417595D01*
X3642378Y418547D01*
X3302577Y468951D01*
X3293048Y470847D01*
X2959839Y554311D01*
X2950542Y557131D01*
X2627110Y672858D01*
X2618134Y676576D01*
X2400420Y779547D01*
X2307596Y823450D01*
X2299038Y828024D01*
X2108685Y942117D01*
X49265670Y942117D01*
X49291059Y923670D01*
X49291063Y923668D01*
X49459364Y837915D01*
X49639003Y779547D01*
X49825555Y750000D01*
X50014445Y750000D01*
X50200996Y779547D01*
X50380635Y837915D01*
X50548939Y923671D01*
X50574328Y942117D01*
X54345670Y942117D01*
X54371059Y923670D01*
X54371063Y923668D01*
X54539364Y837915D01*
X54719003Y779547D01*
X54905555Y750000D01*
X55094445Y750000D01*
X55280996Y779547D01*
X55460635Y837915D01*
X55628939Y923671D01*
X55654328Y942117D01*
X54999999Y1596446D01*
X54345670Y942117D01*
X50574328Y942117D01*
X49919999Y1596446D01*
X49265670Y942117D01*
X2108685Y942117D01*
X2004400Y1004623D01*
X1996322Y1010020D01*
X1720403Y1214655D01*
X1712893Y1220819D01*
X1458367Y1451508D01*
X1451507Y1458368D01*
X1220816Y1712897D01*
X1214654Y1720404D01*
X1203758Y1735095D01*
X1114420Y1855555D01*
X1015185Y1989358D01*
X1015185Y1989359D01*
X1010022Y1996320D01*
X1004622Y2004401D01*
X980620Y2044446D01*
X48720000Y2044446D01*
X48720000Y1855555D01*
X48749546Y1669004D01*
X48807914Y1489365D01*
X48893666Y1321066D01*
X48912115Y1295672D01*
X49566444Y1950001D01*
X49520367Y1996078D01*
X49570000Y1996078D01*
X49570000Y1903922D01*
X49593852Y1814905D01*
X49639930Y1735095D01*
X49705095Y1669930D01*
X49784905Y1623852D01*
X49873922Y1600000D01*
X49966078Y1600000D01*
X50055095Y1623852D01*
X50134905Y1669930D01*
X50200070Y1735095D01*
X50246148Y1814905D01*
X50270000Y1903922D01*
X50270000Y1950001D01*
X50273554Y1950001D01*
X50927883Y1295672D01*
X50946329Y1321061D01*
X51032085Y1489365D01*
X51090453Y1669004D01*
X51120000Y1855555D01*
X51120000Y2044446D01*
X53800000Y2044446D01*
X53800000Y1855555D01*
X53829546Y1669004D01*
X53887914Y1489365D01*
X53973666Y1321066D01*
X53992115Y1295672D01*
X54646444Y1950001D01*
X54600367Y1996078D01*
X54650000Y1996078D01*
X54650000Y1903922D01*
X54673852Y1814905D01*
X54719930Y1735095D01*
X54785095Y1669930D01*
X54864905Y1623852D01*
X54953922Y1600000D01*
X55046078Y1600000D01*
X55135095Y1623852D01*
X55214905Y1669930D01*
X55280070Y1735095D01*
X55326148Y1814905D01*
X55350000Y1903922D01*
X55350000Y1950001D01*
X55353554Y1950001D01*
X56007883Y1295672D01*
X56026329Y1321061D01*
X56112085Y1489365D01*
X56170453Y1669004D01*
X56200000Y1855555D01*
X56200000Y2044446D01*
X56170453Y2230997D01*
X56112085Y2410636D01*
X56026332Y2578937D01*
X56026330Y2578941D01*
X56007883Y2604330D01*
X55353554Y1950001D01*
X55350000Y1950001D01*
X55350000Y1996078D01*
X55326148Y2085095D01*
X55280070Y2164905D01*
X55214905Y2230070D01*
X55135095Y2276148D01*
X55046078Y2300000D01*
X54953922Y2300000D01*
X54864905Y2276148D01*
X54785095Y2230070D01*
X54719930Y2164905D01*
X54673852Y2085095D01*
X54650000Y1996078D01*
X54600367Y1996078D01*
X53992115Y2604330D01*
X53973668Y2578937D01*
X53887914Y2410636D01*
X53829546Y2230997D01*
X53800000Y2044446D01*
X51120000Y2044446D01*
X51090453Y2230997D01*
X51032085Y2410636D01*
X50946332Y2578937D01*
X50946330Y2578941D01*
X50927883Y2604330D01*
X50273554Y1950001D01*
X50270000Y1950001D01*
X50270000Y1996078D01*
X50246148Y2085095D01*
X50200070Y2164905D01*
X50134905Y2230070D01*
X50055095Y2276148D01*
X49966078Y2300000D01*
X49873922Y2300000D01*
X49784905Y2276148D01*
X49705095Y2230070D01*
X49639930Y2164905D01*
X49593852Y2085095D01*
X49570000Y1996078D01*
X49520367Y1996078D01*
X48912115Y2604330D01*
X48893668Y2578937D01*
X48807914Y2410636D01*
X48749546Y2230997D01*
X48720000Y2044446D01*
X980620Y2044446D01*
X908420Y2164905D01*
X828019Y2299047D01*
X823452Y2307590D01*
X676573Y2618138D01*
X672857Y2627111D01*
X608613Y2806660D01*
X557126Y2950556D01*
X554314Y2959827D01*
X470845Y3293051D01*
X468950Y3302578D01*
X440709Y3492964D01*
X418545Y3642383D01*
X417594Y3652047D01*
X414828Y3708343D01*
X400619Y3997578D01*
X400500Y4002436D01*
X400500Y4774988D01*
X12650000Y4774988D01*
X12650000Y4250001D01*
X12650001Y4250000D01*
X13595854Y4250000D01*
X13557370Y4183343D01*
X13525000Y4062535D01*
X13525000Y3937465D01*
X13557370Y3816657D01*
X13595854Y3750000D01*
X12650002Y3750000D01*
X12650001Y3749999D01*
X12650001Y3225014D01*
X12660492Y3122313D01*
X12660495Y3122301D01*
X12715643Y2955876D01*
X12807680Y2806660D01*
X12931659Y2682681D01*
X13080875Y2590644D01*
X13247306Y2535494D01*
X13350012Y2525001D01*
X13749998Y2525001D01*
X13750000Y2525002D01*
X13750000Y3595855D01*
X13816657Y3557370D01*
X13937465Y3525000D01*
X14062535Y3525000D01*
X14183343Y3557370D01*
X14250000Y3595855D01*
X14250000Y2525002D01*
X14250001Y2525001D01*
X14649986Y2525001D01*
X14752687Y2535493D01*
X14752699Y2535496D01*
X14919124Y2590644D01*
X15068340Y2682681D01*
X15192319Y2806660D01*
X15284356Y2955876D01*
X15339506Y3122307D01*
X15349999Y3225013D01*
X15349999Y3408550D01*
X15368906Y3466741D01*
X15418406Y3502705D01*
X15479591Y3502706D01*
X15529091Y3466742D01*
X15540463Y3446437D01*
X15569058Y3377403D01*
X15670881Y3225013D01*
X15684023Y3205345D01*
X15830345Y3059023D01*
X16002402Y2944059D01*
X16193580Y2864870D01*
X16396535Y2824500D01*
X16396536Y2824500D01*
X16603464Y2824500D01*
X16603465Y2824500D01*
X16806420Y2864870D01*
X16997598Y2944059D01*
X17169655Y3059023D01*
X17315977Y3205345D01*
X17430941Y3377402D01*
X17459537Y3446441D01*
X17499272Y3492964D01*
X17558766Y3507248D01*
X17615294Y3483834D01*
X17647264Y3431665D01*
X17650000Y3408554D01*
X17650000Y3225014D01*
X17660492Y3122313D01*
X17660495Y3122301D01*
X17715643Y2955876D01*
X17807680Y2806660D01*
X17931659Y2682681D01*
X18080875Y2590644D01*
X18247306Y2535494D01*
X18350012Y2525001D01*
X18749998Y2525001D01*
X18750000Y2525002D01*
X18750000Y3595855D01*
X18816657Y3557370D01*
X18937465Y3525000D01*
X19062535Y3525000D01*
X19183343Y3557370D01*
X19250000Y3595855D01*
X19250000Y2525002D01*
X19250001Y2525001D01*
X19649986Y2525001D01*
X19752687Y2535493D01*
X19752699Y2535496D01*
X19919124Y2590644D01*
X20068340Y2682681D01*
X20192319Y2806660D01*
X20284356Y2955876D01*
X20339506Y3122307D01*
X20349999Y3225013D01*
X20349999Y3408550D01*
X20368906Y3466741D01*
X20418406Y3502705D01*
X20479591Y3502706D01*
X20529091Y3466742D01*
X20540463Y3446437D01*
X20569058Y3377403D01*
X20670881Y3225013D01*
X20684023Y3205345D01*
X20830345Y3059023D01*
X21002402Y2944059D01*
X21193580Y2864870D01*
X21396535Y2824500D01*
X21396536Y2824500D01*
X21603464Y2824500D01*
X21603465Y2824500D01*
X21806420Y2864870D01*
X21997598Y2944059D01*
X22169655Y3059023D01*
X22315977Y3205345D01*
X22430941Y3377402D01*
X22510130Y3568580D01*
X22550500Y3771535D01*
X22550500Y4228465D01*
X22510130Y4431420D01*
X22430941Y4622598D01*
X22329118Y4774988D01*
X30650000Y4774988D01*
X30650000Y4250001D01*
X30650001Y4250000D01*
X31595854Y4250000D01*
X31557370Y4183343D01*
X31525000Y4062535D01*
X31525000Y3937465D01*
X31557370Y3816657D01*
X31595854Y3750000D01*
X30650002Y3750000D01*
X30650001Y3749999D01*
X30650001Y3225014D01*
X30660492Y3122313D01*
X30660495Y3122301D01*
X30715643Y2955876D01*
X30807680Y2806660D01*
X30931659Y2682681D01*
X31080875Y2590644D01*
X31247306Y2535494D01*
X31350012Y2525001D01*
X31749998Y2525001D01*
X31750000Y2525002D01*
X31750000Y3595855D01*
X31816657Y3557370D01*
X31937465Y3525000D01*
X32062535Y3525000D01*
X32183343Y3557370D01*
X32250000Y3595855D01*
X32250000Y2525002D01*
X32250001Y2525001D01*
X32649986Y2525001D01*
X32752687Y2535493D01*
X32752699Y2535496D01*
X32919124Y2590644D01*
X33068340Y2682681D01*
X33192319Y2806660D01*
X33284356Y2955876D01*
X33339506Y3122307D01*
X33349999Y3225013D01*
X33349999Y3408550D01*
X33368906Y3466741D01*
X33418406Y3502705D01*
X33479591Y3502706D01*
X33529091Y3466742D01*
X33540463Y3446437D01*
X33569058Y3377403D01*
X33670881Y3225013D01*
X33684023Y3205345D01*
X33830345Y3059023D01*
X34002402Y2944059D01*
X34193580Y2864870D01*
X34396535Y2824500D01*
X34396536Y2824500D01*
X34603464Y2824500D01*
X34603465Y2824500D01*
X34806420Y2864870D01*
X34997598Y2944059D01*
X35169655Y3059023D01*
X35315977Y3205345D01*
X35430941Y3377402D01*
X35459537Y3446441D01*
X35499272Y3492964D01*
X35558766Y3507248D01*
X35615294Y3483834D01*
X35647264Y3431665D01*
X35650000Y3408554D01*
X35650000Y3225014D01*
X35660492Y3122313D01*
X35660495Y3122301D01*
X35715643Y2955876D01*
X35807680Y2806660D01*
X35931659Y2682681D01*
X36080875Y2590644D01*
X36247306Y2535494D01*
X36350012Y2525001D01*
X36749998Y2525001D01*
X36750000Y2525002D01*
X36750000Y3595855D01*
X36816657Y3557370D01*
X36937465Y3525000D01*
X37062535Y3525000D01*
X37183343Y3557370D01*
X37250000Y3595855D01*
X37250000Y2525002D01*
X37250001Y2525001D01*
X37649986Y2525001D01*
X37752687Y2535493D01*
X37752699Y2535496D01*
X37919124Y2590644D01*
X38068340Y2682681D01*
X38192319Y2806660D01*
X38284356Y2955876D01*
X38339506Y3122307D01*
X38349999Y3225013D01*
X38349999Y3408550D01*
X38368906Y3466741D01*
X38418406Y3502705D01*
X38479591Y3502706D01*
X38529091Y3466742D01*
X38540463Y3446437D01*
X38569058Y3377403D01*
X38670881Y3225013D01*
X38684023Y3205345D01*
X38830345Y3059023D01*
X39002402Y2944059D01*
X39193580Y2864870D01*
X39396535Y2824500D01*
X39396536Y2824500D01*
X39603464Y2824500D01*
X39603465Y2824500D01*
X39806420Y2864870D01*
X39997598Y2944059D01*
X40018290Y2957885D01*
X49265670Y2957885D01*
X49919999Y2303556D01*
X50574328Y2957885D01*
X54345670Y2957885D01*
X54999999Y2303556D01*
X55654328Y2957885D01*
X55628934Y2976334D01*
X55460635Y3062086D01*
X55280996Y3120454D01*
X55094445Y3150000D01*
X54905555Y3150000D01*
X54719003Y3120454D01*
X54539364Y3062086D01*
X54371063Y2976332D01*
X54345670Y2957885D01*
X50574328Y2957885D01*
X50548934Y2976334D01*
X50380635Y3062086D01*
X50200996Y3120454D01*
X50014445Y3150000D01*
X49825555Y3150000D01*
X49639003Y3120454D01*
X49459364Y3062086D01*
X49291063Y2976332D01*
X49265670Y2957885D01*
X40018290Y2957885D01*
X40169655Y3059023D01*
X40315977Y3205345D01*
X40430941Y3377402D01*
X40510130Y3568580D01*
X40550500Y3771535D01*
X40550500Y4228465D01*
X40510130Y4431420D01*
X40430941Y4622598D01*
X40315977Y4794655D01*
X40169655Y4940977D01*
X40169651Y4940980D01*
X39997597Y5055942D01*
X39806418Y5135131D01*
X39603467Y5175500D01*
X39603465Y5175500D01*
X39396535Y5175500D01*
X39396532Y5175500D01*
X39193581Y5135131D01*
X39002402Y5055942D01*
X38830348Y4940980D01*
X38684020Y4794652D01*
X38569058Y4622598D01*
X38540463Y4553562D01*
X38500726Y4507036D01*
X38441231Y4492753D01*
X38384703Y4516168D01*
X38352734Y4568337D01*
X38349999Y4591448D01*
X38349999Y4774987D01*
X38339507Y4877688D01*
X38339504Y4877700D01*
X38284356Y5044125D01*
X38192319Y5193341D01*
X38068340Y5317320D01*
X37919124Y5409357D01*
X37752693Y5464507D01*
X37649987Y5475000D01*
X37250001Y5475000D01*
X37250000Y5474999D01*
X37250000Y4404146D01*
X37183343Y4442630D01*
X37062535Y4475000D01*
X36937465Y4475000D01*
X36816657Y4442630D01*
X36750000Y4404146D01*
X36750000Y5474999D01*
X36749999Y5475000D01*
X36350013Y5475000D01*
X36247312Y5464508D01*
X36247300Y5464505D01*
X36080875Y5409357D01*
X35931659Y5317320D01*
X35807680Y5193341D01*
X35715643Y5044125D01*
X35660493Y4877694D01*
X35650000Y4774988D01*
X35650000Y4591450D01*
X35631093Y4533259D01*
X35581593Y4497295D01*
X35520407Y4497295D01*
X35470907Y4533259D01*
X35459536Y4553564D01*
X35430941Y4622598D01*
X35315979Y4794652D01*
X35315977Y4794655D01*
X35169655Y4940977D01*
X35169651Y4940980D01*
X34997597Y5055942D01*
X34806418Y5135131D01*
X34603467Y5175500D01*
X34603465Y5175500D01*
X34396535Y5175500D01*
X34396532Y5175500D01*
X34193581Y5135131D01*
X34002402Y5055942D01*
X33830348Y4940980D01*
X33684020Y4794652D01*
X33569058Y4622598D01*
X33540463Y4553562D01*
X33500726Y4507036D01*
X33441231Y4492753D01*
X33384703Y4516168D01*
X33352734Y4568337D01*
X33349999Y4591448D01*
X33349999Y4774987D01*
X33339507Y4877688D01*
X33339504Y4877700D01*
X33284356Y5044125D01*
X33192319Y5193341D01*
X33068340Y5317320D01*
X32919124Y5409357D01*
X32752693Y5464507D01*
X32649987Y5475000D01*
X32250001Y5475000D01*
X32250000Y5474999D01*
X32250000Y4404146D01*
X32183343Y4442630D01*
X32062535Y4475000D01*
X31937465Y4475000D01*
X31816657Y4442630D01*
X31750000Y4404146D01*
X31750000Y5474999D01*
X31749999Y5475000D01*
X31350013Y5475000D01*
X31247312Y5464508D01*
X31247300Y5464505D01*
X31080875Y5409357D01*
X30931659Y5317320D01*
X30807680Y5193341D01*
X30715643Y5044125D01*
X30660493Y4877694D01*
X30650000Y4774988D01*
X22329118Y4774988D01*
X22315977Y4794655D01*
X22169655Y4940977D01*
X22169651Y4940980D01*
X21997597Y5055942D01*
X21806418Y5135131D01*
X21603467Y5175500D01*
X21603465Y5175500D01*
X21396535Y5175500D01*
X21396532Y5175500D01*
X21193581Y5135131D01*
X21002402Y5055942D01*
X20830348Y4940980D01*
X20684020Y4794652D01*
X20569058Y4622598D01*
X20540463Y4553562D01*
X20500726Y4507036D01*
X20441231Y4492753D01*
X20384703Y4516168D01*
X20352734Y4568337D01*
X20349999Y4591448D01*
X20349999Y4774987D01*
X20339507Y4877688D01*
X20339504Y4877700D01*
X20284356Y5044125D01*
X20192319Y5193341D01*
X20068340Y5317320D01*
X19919124Y5409357D01*
X19752693Y5464507D01*
X19649987Y5475000D01*
X19250001Y5475000D01*
X19250000Y5474999D01*
X19250000Y4404146D01*
X19183343Y4442630D01*
X19062535Y4475000D01*
X18937465Y4475000D01*
X18816657Y4442630D01*
X18750000Y4404146D01*
X18750000Y5474999D01*
X18749999Y5475000D01*
X18350013Y5475000D01*
X18247312Y5464508D01*
X18247300Y5464505D01*
X18080875Y5409357D01*
X17931659Y5317320D01*
X17807680Y5193341D01*
X17715643Y5044125D01*
X17660493Y4877694D01*
X17650000Y4774988D01*
X17650000Y4591450D01*
X17631093Y4533259D01*
X17581593Y4497295D01*
X17520407Y4497295D01*
X17470907Y4533259D01*
X17459536Y4553564D01*
X17430941Y4622598D01*
X17315979Y4794652D01*
X17315977Y4794655D01*
X17169655Y4940977D01*
X17169651Y4940980D01*
X16997597Y5055942D01*
X16806418Y5135131D01*
X16603467Y5175500D01*
X16603465Y5175500D01*
X16396535Y5175500D01*
X16396532Y5175500D01*
X16193581Y5135131D01*
X16002402Y5055942D01*
X15830348Y4940980D01*
X15684020Y4794652D01*
X15569058Y4622598D01*
X15540463Y4553562D01*
X15500726Y4507036D01*
X15441231Y4492753D01*
X15384703Y4516168D01*
X15352734Y4568337D01*
X15349999Y4591448D01*
X15349999Y4774987D01*
X15339507Y4877688D01*
X15339504Y4877700D01*
X15284356Y5044125D01*
X15192319Y5193341D01*
X15068340Y5317320D01*
X14919124Y5409357D01*
X14752693Y5464507D01*
X14649987Y5475000D01*
X14250001Y5475000D01*
X14250000Y5474999D01*
X14250000Y4404146D01*
X14183343Y4442630D01*
X14062535Y4475000D01*
X13937465Y4475000D01*
X13816657Y4442630D01*
X13750000Y4404146D01*
X13750000Y5474999D01*
X13749999Y5475000D01*
X13350013Y5475000D01*
X13247312Y5464508D01*
X13247300Y5464505D01*
X13080875Y5409357D01*
X12931659Y5317320D01*
X12807680Y5193341D01*
X12715643Y5044125D01*
X12660493Y4877694D01*
X12650000Y4774988D01*
X400500Y4774988D01*
X400500Y9315892D01*
X28849500Y9315892D01*
X28849500Y9184108D01*
X28879579Y9071849D01*
X28883609Y9056810D01*
X28949496Y8942691D01*
X28949498Y8942689D01*
X28949500Y8942686D01*
X29042686Y8849500D01*
X29042688Y8849499D01*
X29042690Y8849497D01*
X29156810Y8783610D01*
X29156808Y8783610D01*
X29156812Y8783609D01*
X29156814Y8783608D01*
X29284108Y8749500D01*
X29284110Y8749500D01*
X29415890Y8749500D01*
X29415892Y8749500D01*
X29543186Y8783608D01*
X29543188Y8783610D01*
X29543190Y8783610D01*
X29657309Y8849497D01*
X29657309Y8849498D01*
X29657314Y8849500D01*
X29750500Y8942686D01*
X29816392Y9056814D01*
X29850500Y9184108D01*
X29850500Y9315892D01*
X29816392Y9443186D01*
X29816390Y9443189D01*
X29816390Y9443191D01*
X29750503Y9557310D01*
X29750501Y9557312D01*
X29750500Y9557314D01*
X29657314Y9650500D01*
X29657311Y9650502D01*
X29657309Y9650504D01*
X29543189Y9716391D01*
X29543191Y9716391D01*
X29493799Y9729625D01*
X29415892Y9750500D01*
X29284108Y9750500D01*
X29206200Y9729625D01*
X29156809Y9716391D01*
X29042690Y9650504D01*
X28949496Y9557310D01*
X28883609Y9443191D01*
X28883608Y9443186D01*
X28849500Y9315892D01*
X400500Y9315892D01*
X400500Y12765892D01*
X22299500Y12765892D01*
X22299500Y12634108D01*
X22329579Y12521849D01*
X22333609Y12506810D01*
X22399496Y12392691D01*
X22399498Y12392689D01*
X22399500Y12392686D01*
X22492686Y12299500D01*
X22492688Y12299499D01*
X22492690Y12299497D01*
X22606810Y12233610D01*
X22606808Y12233610D01*
X22606812Y12233609D01*
X22606814Y12233608D01*
X22734108Y12199500D01*
X22734110Y12199500D01*
X22865890Y12199500D01*
X22865892Y12199500D01*
X22993186Y12233608D01*
X22993188Y12233610D01*
X22993190Y12233610D01*
X23107309Y12299497D01*
X23107309Y12299498D01*
X23107314Y12299500D01*
X23200500Y12392686D01*
X23266392Y12506814D01*
X23300500Y12634108D01*
X23300500Y12765892D01*
X23266392Y12893186D01*
X23266390Y12893189D01*
X23266390Y12893191D01*
X23200503Y13007310D01*
X23200501Y13007312D01*
X23200500Y13007314D01*
X23107314Y13100500D01*
X23107311Y13100502D01*
X23107309Y13100504D01*
X22993189Y13166391D01*
X22993191Y13166391D01*
X22943799Y13179625D01*
X22865892Y13200500D01*
X22734108Y13200500D01*
X22656200Y13179625D01*
X22606809Y13166391D01*
X22492690Y13100504D01*
X22399496Y13007310D01*
X22333609Y12893191D01*
X22333608Y12893186D01*
X22299500Y12765892D01*
X400500Y12765892D01*
X400500Y13565892D01*
X20999500Y13565892D01*
X20999500Y13434108D01*
X21029579Y13321849D01*
X21033609Y13306810D01*
X21099496Y13192691D01*
X21099498Y13192689D01*
X21099500Y13192686D01*
X21192686Y13099500D01*
X21192688Y13099499D01*
X21192690Y13099497D01*
X21306810Y13033610D01*
X21306808Y13033610D01*
X21306812Y13033609D01*
X21306814Y13033608D01*
X21434108Y12999500D01*
X21434110Y12999500D01*
X21565890Y12999500D01*
X21565892Y12999500D01*
X21693186Y13033608D01*
X21693188Y13033610D01*
X21693190Y13033610D01*
X21807309Y13099497D01*
X21807309Y13099498D01*
X21807314Y13099500D01*
X21900500Y13192686D01*
X21900503Y13192691D01*
X21966390Y13306810D01*
X21966390Y13306812D01*
X21966392Y13306814D01*
X22000500Y13434108D01*
X22000500Y13565892D01*
X21966392Y13693186D01*
X21966390Y13693189D01*
X21966390Y13693191D01*
X21900503Y13807310D01*
X21900501Y13807312D01*
X21900500Y13807314D01*
X21807314Y13900500D01*
X21807311Y13900502D01*
X21807309Y13900504D01*
X21693189Y13966391D01*
X21693191Y13966391D01*
X21643799Y13979625D01*
X21565892Y14000500D01*
X21434108Y14000500D01*
X21356200Y13979625D01*
X21306809Y13966391D01*
X21192690Y13900504D01*
X21099496Y13807310D01*
X21033609Y13693191D01*
X21033608Y13693186D01*
X20999500Y13565892D01*
X400500Y13565892D01*
X400500Y15853468D01*
X2824500Y15853468D01*
X2824500Y15646533D01*
X2864869Y15443582D01*
X2944058Y15252403D01*
X2944059Y15252402D01*
X3059023Y15080345D01*
X3205345Y14934023D01*
X3377402Y14819059D01*
X3568580Y14739870D01*
X3771535Y14699500D01*
X3771536Y14699500D01*
X4228464Y14699500D01*
X4228465Y14699500D01*
X4431420Y14739870D01*
X4622598Y14819059D01*
X4794655Y14934023D01*
X4940977Y15080345D01*
X5055941Y15252402D01*
X5135130Y15443580D01*
X5175500Y15646535D01*
X5175500Y15815892D01*
X6299500Y15815892D01*
X6299500Y15684108D01*
X6309567Y15646537D01*
X6333609Y15556810D01*
X6399496Y15442691D01*
X6399498Y15442689D01*
X6399500Y15442686D01*
X6492686Y15349500D01*
X6492688Y15349499D01*
X6492690Y15349497D01*
X6606810Y15283610D01*
X6606808Y15283610D01*
X6606812Y15283609D01*
X6606814Y15283608D01*
X6734108Y15249500D01*
X6734110Y15249500D01*
X6865890Y15249500D01*
X6865892Y15249500D01*
X6993186Y15283608D01*
X6993188Y15283610D01*
X6993190Y15283610D01*
X7107309Y15349497D01*
X7107309Y15349498D01*
X7107314Y15349500D01*
X7200500Y15442686D01*
X7266392Y15556814D01*
X7300500Y15684108D01*
X7300500Y15815892D01*
X7266392Y15943186D01*
X7266390Y15943189D01*
X7266390Y15943191D01*
X7200503Y16057310D01*
X7200501Y16057312D01*
X7200500Y16057314D01*
X7107314Y16150500D01*
X7107311Y16150502D01*
X7107309Y16150504D01*
X6993189Y16216391D01*
X6993191Y16216391D01*
X6943799Y16229625D01*
X6865892Y16250500D01*
X6734108Y16250500D01*
X6656200Y16229625D01*
X6606809Y16216391D01*
X6492690Y16150504D01*
X6399496Y16057310D01*
X6333609Y15943191D01*
X6333608Y15943186D01*
X6299500Y15815892D01*
X5175500Y15815892D01*
X5175500Y15853465D01*
X5135130Y16056420D01*
X5055941Y16247598D01*
X4940977Y16419655D01*
X4794655Y16565977D01*
X4622598Y16680941D01*
X4622599Y16680941D01*
X4622597Y16680942D01*
X4431418Y16760131D01*
X4228467Y16800500D01*
X4228465Y16800500D01*
X3771535Y16800500D01*
X3771532Y16800500D01*
X3568581Y16760131D01*
X3377402Y16680942D01*
X3205348Y16565980D01*
X3059020Y16419652D01*
X2944058Y16247598D01*
X2864869Y16056419D01*
X2824500Y15853468D01*
X400500Y15853468D01*
X400500Y18353468D01*
X2824500Y18353468D01*
X2824500Y18146533D01*
X2864869Y17943582D01*
X2944058Y17752403D01*
X3015546Y17645413D01*
X3059023Y17580345D01*
X3205345Y17434023D01*
X3377402Y17319059D01*
X3568580Y17239870D01*
X3771535Y17199500D01*
X3771536Y17199500D01*
X4228464Y17199500D01*
X4228465Y17199500D01*
X4431420Y17239870D01*
X4622598Y17319059D01*
X4629933Y17323961D01*
X4649396Y17334049D01*
X5842664Y17792904D01*
X5878197Y17799500D01*
X8239563Y17799500D01*
X8239563Y17799501D01*
X8315989Y17819979D01*
X8384511Y17859540D01*
X8440460Y17915489D01*
X9393967Y18868996D01*
X15299500Y18868996D01*
X15299500Y18731005D01*
X15326420Y18595673D01*
X15326420Y18595671D01*
X15379222Y18468194D01*
X15379228Y18468183D01*
X15455885Y18353459D01*
X15553458Y18255886D01*
X15668182Y18179229D01*
X15668186Y18179227D01*
X15668189Y18179225D01*
X15795672Y18126420D01*
X15813213Y18122932D01*
X15837639Y18114647D01*
X15839470Y18113745D01*
X16147498Y17998032D01*
X16512430Y17860941D01*
X16547614Y17838272D01*
X16584348Y17801538D01*
X16655151Y17760660D01*
X16734121Y17739500D01*
X16734122Y17739500D01*
X16734123Y17739500D01*
X17744969Y17739500D01*
X17744971Y17739500D01*
X17823941Y17760660D01*
X17894744Y17801538D01*
X18450508Y18357304D01*
X18474001Y18374693D01*
X18932092Y18618440D01*
X18940862Y18623386D01*
X18941834Y18623966D01*
X18945461Y18627401D01*
X18964036Y18641259D01*
X18987584Y18654853D01*
X19080770Y18748039D01*
X19080773Y18748044D01*
X19146660Y18862163D01*
X19146660Y18862165D01*
X19146662Y18862167D01*
X19180770Y18989461D01*
X19180770Y19121245D01*
X19146662Y19248539D01*
X19146660Y19248542D01*
X19146660Y19248544D01*
X19080773Y19362663D01*
X19080771Y19362665D01*
X19080770Y19362667D01*
X18987584Y19455853D01*
X18987581Y19455855D01*
X18987579Y19455857D01*
X18873459Y19521744D01*
X18873461Y19521744D01*
X18824069Y19534978D01*
X18746162Y19555853D01*
X18614378Y19555853D01*
X18536470Y19534978D01*
X18487079Y19521744D01*
X18372960Y19455857D01*
X18372955Y19455853D01*
X18279773Y19362672D01*
X18279772Y19362671D01*
X18251283Y19313331D01*
X18251284Y19313330D01*
X18248984Y19309346D01*
X18237565Y19293231D01*
X18230327Y19277032D01*
X18227771Y19272604D01*
X18227769Y19272600D01*
X18213879Y19248541D01*
X18213875Y19248530D01*
X18210330Y19235304D01*
X18205096Y19220554D01*
X18026488Y18820748D01*
X18006102Y18791126D01*
X17604475Y18389497D01*
X17549958Y18361719D01*
X17534471Y18360500D01*
X17007321Y18360500D01*
X16949130Y18379407D01*
X16916117Y18420991D01*
X16868567Y18533608D01*
X16680854Y18978187D01*
X16674963Y18997374D01*
X16673580Y19004328D01*
X16620775Y19131811D01*
X16606468Y19153222D01*
X16602216Y19162106D01*
X16601178Y19164036D01*
X16597400Y19170755D01*
X16588286Y19180433D01*
X16575378Y19199752D01*
X16544116Y19246541D01*
X16446550Y19344107D01*
X16446541Y19344115D01*
X16331817Y19420772D01*
X16331806Y19420778D01*
X16204328Y19473580D01*
X16068995Y19500500D01*
X16068993Y19500500D01*
X15931007Y19500500D01*
X15931004Y19500500D01*
X15795672Y19473580D01*
X15795670Y19473580D01*
X15668193Y19420778D01*
X15668182Y19420772D01*
X15553458Y19344115D01*
X15455885Y19246542D01*
X15379228Y19131818D01*
X15379222Y19131807D01*
X15326420Y19004330D01*
X15326420Y19004328D01*
X15299500Y18868996D01*
X9393967Y18868996D01*
X10697842Y20172871D01*
X15503289Y20172871D01*
X15538634Y20149255D01*
X15720620Y20073875D01*
X15913816Y20035446D01*
X15913820Y20035445D01*
X16110800Y20035445D01*
X16110803Y20035446D01*
X16303998Y20073875D01*
X16304000Y20073875D01*
X16485985Y20149255D01*
X16521329Y20172871D01*
X16012309Y20681891D01*
X15503289Y20172871D01*
X10697842Y20172871D01*
X11440863Y20915892D01*
X12049500Y20915892D01*
X12049500Y20784108D01*
X12063306Y20732583D01*
X12083609Y20656810D01*
X12149496Y20542691D01*
X12149498Y20542689D01*
X12149500Y20542686D01*
X12242686Y20449500D01*
X12242688Y20449499D01*
X12242690Y20449497D01*
X12356810Y20383610D01*
X12356808Y20383610D01*
X12356812Y20383609D01*
X12356814Y20383608D01*
X12484108Y20349500D01*
X12484110Y20349500D01*
X12615890Y20349500D01*
X12615892Y20349500D01*
X12743186Y20383608D01*
X12743188Y20383610D01*
X12743190Y20383610D01*
X12857309Y20449497D01*
X12857309Y20449498D01*
X12857314Y20449500D01*
X12950500Y20542686D01*
X12956984Y20553917D01*
X13016390Y20656810D01*
X13016390Y20656812D01*
X13016392Y20656814D01*
X13050500Y20784108D01*
X13050500Y20915892D01*
X13016392Y21043186D01*
X12963996Y21133939D01*
X15012310Y21133939D01*
X15012310Y20936952D01*
X15050739Y20743757D01*
X15050739Y20743755D01*
X15126120Y20561767D01*
X15149734Y20526426D01*
X15658754Y21035446D01*
X16365864Y21035446D01*
X16874884Y20526426D01*
X16898500Y20561770D01*
X16973880Y20743755D01*
X16973880Y20743757D01*
X17012309Y20936952D01*
X17012310Y20936955D01*
X17012310Y21133936D01*
X17012309Y21133939D01*
X16973880Y21327134D01*
X16973880Y21327136D01*
X16898500Y21509121D01*
X16874884Y21544466D01*
X16365864Y21035446D01*
X15658754Y21035446D01*
X15149734Y21544466D01*
X15126125Y21509131D01*
X15126119Y21509121D01*
X15050739Y21327136D01*
X15050739Y21327134D01*
X15012310Y21133939D01*
X12963996Y21133939D01*
X12950500Y21157314D01*
X12857314Y21250500D01*
X12857311Y21250502D01*
X12857309Y21250504D01*
X12743189Y21316391D01*
X12743191Y21316391D01*
X12693799Y21329625D01*
X12615892Y21350500D01*
X12484108Y21350500D01*
X12406200Y21329625D01*
X12356809Y21316391D01*
X12242690Y21250504D01*
X12149496Y21157310D01*
X12083609Y21043191D01*
X12083608Y21043186D01*
X12049500Y20915892D01*
X11440863Y20915892D01*
X12422992Y21898021D01*
X15503289Y21898021D01*
X16012309Y21389001D01*
X16521329Y21898021D01*
X16485988Y21921634D01*
X16485988Y21921635D01*
X16303999Y21997016D01*
X16110803Y22035445D01*
X15913816Y22035445D01*
X15720621Y21997016D01*
X15720619Y21997016D01*
X15538634Y21921636D01*
X15538624Y21921630D01*
X15503289Y21898021D01*
X12422992Y21898021D01*
X13668967Y23143996D01*
X15311810Y23143996D01*
X15311810Y23006005D01*
X15338730Y22870673D01*
X15338730Y22870671D01*
X15391532Y22743194D01*
X15391538Y22743183D01*
X15468195Y22628459D01*
X15565768Y22530886D01*
X15680492Y22454229D01*
X15680503Y22454223D01*
X15716432Y22439341D01*
X15807982Y22401420D01*
X15943317Y22374500D01*
X15943318Y22374500D01*
X16081302Y22374500D01*
X16081303Y22374500D01*
X16216638Y22401420D01*
X16344121Y22454225D01*
X16458852Y22530886D01*
X16556424Y22628458D01*
X16633085Y22743189D01*
X16685890Y22870672D01*
X16712810Y23006007D01*
X16712810Y23143993D01*
X16697714Y23219882D01*
X16694767Y23246784D01*
X16688257Y23267427D01*
X16685890Y23279328D01*
X16681736Y23289355D01*
X16678786Y23297461D01*
X16529542Y23770726D01*
X16530074Y23831909D01*
X16566466Y23881095D01*
X16623959Y23899500D01*
X18470378Y23899500D01*
X18528569Y23880593D01*
X18540382Y23870504D01*
X19756920Y22653966D01*
X19784697Y22599449D01*
X19775126Y22539017D01*
X19731861Y22495752D01*
X19671429Y22486181D01*
X19661294Y22488335D01*
X19633612Y22495752D01*
X19615892Y22500500D01*
X19484108Y22500500D01*
X19441078Y22488971D01*
X19441077Y22488972D01*
X19434998Y22487344D01*
X19412015Y22484223D01*
X19371993Y22470460D01*
X19368669Y22469569D01*
X19356815Y22466393D01*
X19350819Y22463909D01*
X19350764Y22464042D01*
X19342846Y22460437D01*
X18981525Y22336175D01*
X18920349Y22335130D01*
X18879326Y22359789D01*
X18840654Y22398460D01*
X18840652Y22398462D01*
X18769849Y22439340D01*
X18769846Y22439341D01*
X18723586Y22451737D01*
X18691825Y22466692D01*
X18256752Y22776185D01*
X18256702Y22776220D01*
X18254086Y22778050D01*
X18253823Y22778231D01*
X18239661Y22784229D01*
X18223272Y22793073D01*
X18181811Y22820776D01*
X18054328Y22873580D01*
X17918995Y22900500D01*
X17918993Y22900500D01*
X17781007Y22900500D01*
X17781004Y22900500D01*
X17645672Y22873580D01*
X17645670Y22873580D01*
X17518193Y22820778D01*
X17518182Y22820772D01*
X17403458Y22744115D01*
X17305885Y22646542D01*
X17229228Y22531818D01*
X17229222Y22531807D01*
X17176420Y22404330D01*
X17176420Y22404328D01*
X17149500Y22268996D01*
X17149500Y22131005D01*
X17176420Y21995673D01*
X17176420Y21995671D01*
X17229222Y21868194D01*
X17229228Y21868183D01*
X17305885Y21753459D01*
X17403458Y21655886D01*
X17518182Y21579229D01*
X17518193Y21579223D01*
X17565283Y21559718D01*
X17645672Y21526420D01*
X17781007Y21499500D01*
X17781008Y21499500D01*
X17918992Y21499500D01*
X17918993Y21499500D01*
X17990893Y21513802D01*
X18018956Y21516486D01*
X18047552Y21525073D01*
X18054328Y21526420D01*
X18055730Y21527002D01*
X18065124Y21530349D01*
X18645558Y21704628D01*
X18699647Y21705436D01*
X18759121Y21689500D01*
X18759122Y21689500D01*
X18890329Y21689500D01*
X18922525Y21684118D01*
X18931763Y21680941D01*
X19291339Y21557280D01*
X19340218Y21520477D01*
X19358129Y21461971D01*
X19344879Y21414162D01*
X19288706Y21316870D01*
X19288705Y21316865D01*
X19254597Y21189571D01*
X19254597Y21057787D01*
X19274487Y20983557D01*
X19288706Y20930489D01*
X19354593Y20816370D01*
X19354595Y20816368D01*
X19354597Y20816365D01*
X19447783Y20723179D01*
X19447785Y20723178D01*
X19447787Y20723176D01*
X19556802Y20660236D01*
X19597743Y20614767D01*
X19604139Y20553917D01*
X19573546Y20500929D01*
X19517650Y20476042D01*
X19507302Y20475500D01*
X19405124Y20475500D01*
X19346933Y20494407D01*
X19335121Y20504496D01*
X18856059Y20983556D01*
X18856058Y20983557D01*
X18855037Y20983980D01*
X18855032Y20983983D01*
X18785710Y21012697D01*
X18754800Y21025500D01*
X17795200Y21025500D01*
X17693942Y20983557D01*
X17616441Y20906056D01*
X17607324Y20884047D01*
X17567585Y20837523D01*
X17553749Y20830474D01*
X17504627Y20810127D01*
X17504622Y20810124D01*
X17389889Y20733461D01*
X17389885Y20733458D01*
X17292316Y20635889D01*
X17215659Y20521165D01*
X17215653Y20521154D01*
X17162851Y20393677D01*
X17162851Y20393675D01*
X17135931Y20258343D01*
X17135931Y20120352D01*
X17162851Y19985020D01*
X17162851Y19985018D01*
X17215653Y19857541D01*
X17215659Y19857530D01*
X17292316Y19742806D01*
X17389889Y19645233D01*
X17504613Y19568576D01*
X17504624Y19568570D01*
X17535326Y19555853D01*
X17632103Y19515767D01*
X17767438Y19488847D01*
X17767439Y19488847D01*
X17905423Y19488847D01*
X17905424Y19488847D01*
X18040759Y19515767D01*
X18168242Y19568572D01*
X18282973Y19645233D01*
X18380545Y19742805D01*
X18457206Y19857536D01*
X18510011Y19985019D01*
X18536931Y20120354D01*
X18536931Y20258340D01*
X18536930Y20258342D01*
X18536930Y20258348D01*
X18534773Y20269191D01*
X18541963Y20329952D01*
X18583494Y20374883D01*
X18643504Y20386821D01*
X18699070Y20361207D01*
X18701868Y20358517D01*
X19093941Y19966443D01*
X19121336Y19955096D01*
X19121337Y19955095D01*
X19121338Y19955095D01*
X19195200Y19924500D01*
X19544876Y19924500D01*
X19550966Y19922522D01*
X19557258Y19923723D01*
X19576952Y19914078D01*
X19603067Y19905593D01*
X19612627Y19897686D01*
X19613782Y19896602D01*
X19668942Y19841442D01*
X19675404Y19838766D01*
X19687433Y19827476D01*
X19687767Y19826869D01*
X19689686Y19825294D01*
X19920504Y19594476D01*
X19948281Y19539959D01*
X19949500Y19524472D01*
X19949500Y18795201D01*
X19973675Y18736837D01*
X19991441Y18693945D01*
X19991442Y18693944D01*
X19991443Y18693942D01*
X20781863Y17903521D01*
X20781864Y17903521D01*
X20781865Y17903520D01*
X20883119Y17861579D01*
X20883121Y17861579D01*
X21027971Y17861579D01*
X21065468Y17854203D01*
X21177293Y17808439D01*
X21470072Y17688621D01*
X21501134Y17670687D01*
X21538084Y17660788D01*
X21543893Y17658410D01*
X21543894Y17658409D01*
X21543905Y17658405D01*
X21544865Y17658012D01*
X21563077Y17651541D01*
X21565188Y17650901D01*
X21572848Y17648740D01*
X21572919Y17648738D01*
X21595459Y17645413D01*
X21612257Y17640912D01*
X21628425Y17636580D01*
X21628427Y17636579D01*
X21628428Y17636579D01*
X21760210Y17636579D01*
X21760212Y17636579D01*
X21887506Y17670687D01*
X21887508Y17670689D01*
X21887510Y17670689D01*
X22001629Y17736576D01*
X22001629Y17736577D01*
X22001634Y17736579D01*
X22094820Y17829765D01*
X22094823Y17829770D01*
X22160710Y17943889D01*
X22160710Y17943891D01*
X22160712Y17943893D01*
X22194820Y18071187D01*
X22194820Y18202971D01*
X22160712Y18330265D01*
X22160710Y18330268D01*
X22160710Y18330270D01*
X22117781Y18404625D01*
X22105059Y18464473D01*
X22129946Y18520369D01*
X22154013Y18539860D01*
X22257314Y18599500D01*
X22350500Y18692686D01*
X22409687Y18795200D01*
X22416390Y18806810D01*
X22416391Y18806813D01*
X22416392Y18806814D01*
X22450500Y18934108D01*
X22450500Y19065892D01*
X22416392Y19193186D01*
X22416390Y19193189D01*
X22416390Y19193191D01*
X22350503Y19307310D01*
X22350501Y19307312D01*
X22350500Y19307314D01*
X22257314Y19400500D01*
X22257311Y19400502D01*
X22257309Y19400504D01*
X22143189Y19466391D01*
X22143191Y19466391D01*
X22093799Y19479625D01*
X22015892Y19500500D01*
X21884108Y19500500D01*
X21806200Y19479625D01*
X21756809Y19466391D01*
X21642690Y19400504D01*
X21549496Y19307310D01*
X21483609Y19193191D01*
X21467162Y19131808D01*
X21449500Y19065892D01*
X21449500Y18934108D01*
X21472238Y18849246D01*
X21483608Y18806813D01*
X21526539Y18732455D01*
X21529799Y18717116D01*
X21537639Y18703536D01*
X21535999Y18687945D01*
X21539260Y18672606D01*
X21532881Y18658280D01*
X21531242Y18642686D01*
X21520750Y18631035D01*
X21514373Y18616711D01*
X21490300Y18597217D01*
X21475873Y18588888D01*
X21463872Y18583002D01*
X21111643Y18438854D01*
X21050626Y18434312D01*
X21004142Y18460474D01*
X20529496Y18935120D01*
X20501719Y18989637D01*
X20500500Y19005124D01*
X20500500Y19734395D01*
X20458557Y19835653D01*
X20458557Y19835654D01*
X19985653Y20308557D01*
X19985651Y20308558D01*
X19979921Y20312386D01*
X19975031Y20318588D01*
X19967853Y20321880D01*
X19964936Y20324679D01*
X19856058Y20433557D01*
X19854728Y20434108D01*
X19854722Y20434111D01*
X32699499Y20434111D01*
X32733609Y20306810D01*
X32799496Y20192691D01*
X32799498Y20192689D01*
X32799500Y20192686D01*
X32892686Y20099500D01*
X32892688Y20099499D01*
X32892690Y20099497D01*
X33006810Y20033610D01*
X33006808Y20033610D01*
X33006812Y20033609D01*
X33006814Y20033608D01*
X33134108Y19999500D01*
X33134110Y19999500D01*
X33265890Y19999500D01*
X33265892Y19999500D01*
X33393186Y20033608D01*
X33393188Y20033610D01*
X33393190Y20033610D01*
X33507309Y20099497D01*
X33507309Y20099498D01*
X33507314Y20099500D01*
X33600500Y20192686D01*
X33638405Y20258339D01*
X33666390Y20306810D01*
X33666390Y20306812D01*
X33666392Y20306814D01*
X33700500Y20434108D01*
X33700500Y20434111D01*
X39499499Y20434111D01*
X39533609Y20306810D01*
X39599496Y20192691D01*
X39599498Y20192689D01*
X39599500Y20192686D01*
X39692686Y20099500D01*
X39692688Y20099499D01*
X39692690Y20099497D01*
X39806810Y20033610D01*
X39806808Y20033610D01*
X39806812Y20033609D01*
X39806814Y20033608D01*
X39934108Y19999500D01*
X39934110Y19999500D01*
X40065890Y19999500D01*
X40065892Y19999500D01*
X40193186Y20033608D01*
X40193188Y20033610D01*
X40193190Y20033610D01*
X40307309Y20099497D01*
X40307309Y20099498D01*
X40307314Y20099500D01*
X40400500Y20192686D01*
X40438405Y20258339D01*
X40466390Y20306810D01*
X40466390Y20306812D01*
X40466392Y20306814D01*
X40500500Y20434108D01*
X40500500Y20565892D01*
X40466392Y20693186D01*
X40466390Y20693189D01*
X40466390Y20693191D01*
X40400503Y20807310D01*
X40400501Y20807312D01*
X40400500Y20807314D01*
X40307314Y20900500D01*
X40307311Y20900502D01*
X40307309Y20900504D01*
X40193189Y20966391D01*
X40193191Y20966391D01*
X40129128Y20983556D01*
X40065892Y21000500D01*
X39934108Y21000500D01*
X39870872Y20983556D01*
X39806809Y20966391D01*
X39692690Y20900504D01*
X39599496Y20807310D01*
X39533609Y20693191D01*
X39525765Y20663917D01*
X39508253Y20598557D01*
X39499500Y20565891D01*
X39499500Y20434111D01*
X39499499Y20434111D01*
X33700500Y20434111D01*
X33700500Y20565892D01*
X33666392Y20693186D01*
X33666390Y20693189D01*
X33666390Y20693191D01*
X33600503Y20807310D01*
X33600501Y20807312D01*
X33600500Y20807314D01*
X33507314Y20900500D01*
X33507311Y20900502D01*
X33507309Y20900504D01*
X33393189Y20966391D01*
X33393191Y20966391D01*
X33329128Y20983556D01*
X33265892Y21000500D01*
X33134108Y21000500D01*
X33070872Y20983556D01*
X33006809Y20966391D01*
X32892690Y20900504D01*
X32799496Y20807310D01*
X32733609Y20693191D01*
X32725765Y20663917D01*
X32708253Y20598557D01*
X32699500Y20565891D01*
X32699500Y20434111D01*
X32699499Y20434111D01*
X19854722Y20434111D01*
X19854720Y20434112D01*
X19833754Y20442797D01*
X19812457Y20460987D01*
X19790186Y20477992D01*
X19789377Y20480700D01*
X19787229Y20482534D01*
X19780689Y20509774D01*
X19772669Y20536616D01*
X19773605Y20539282D01*
X19772946Y20542029D01*
X19783667Y20567913D01*
X19792956Y20594341D01*
X19795252Y20595880D01*
X19796362Y20598557D01*
X19843298Y20629116D01*
X19844614Y20629510D01*
X19948283Y20657287D01*
X19959765Y20663917D01*
X19959767Y20663917D01*
X20010470Y20693191D01*
X20062411Y20723179D01*
X20066777Y20727546D01*
X20072191Y20732570D01*
X20177172Y20822906D01*
X20192239Y20833596D01*
X20193524Y20834338D01*
X20193528Y20834339D01*
X20264331Y20875217D01*
X20426959Y21037846D01*
X20462261Y21068223D01*
X20468037Y21073386D01*
X20468679Y21073982D01*
X20481426Y21092314D01*
X20508462Y21119349D01*
X20530381Y21157313D01*
X20549338Y21190147D01*
X20549338Y21190149D01*
X20549340Y21190151D01*
X20570500Y21269122D01*
X20570500Y21350879D01*
X20570500Y21965892D01*
X57799500Y21965892D01*
X57799500Y21834108D01*
X57819322Y21760131D01*
X57833609Y21706810D01*
X57899496Y21592691D01*
X57899498Y21592689D01*
X57899500Y21592686D01*
X57992686Y21499500D01*
X57992688Y21499499D01*
X57992690Y21499497D01*
X58106810Y21433610D01*
X58106808Y21433610D01*
X58106812Y21433609D01*
X58106814Y21433608D01*
X58234108Y21399500D01*
X58234110Y21399500D01*
X58365890Y21399500D01*
X58365892Y21399500D01*
X58493186Y21433608D01*
X58493188Y21433610D01*
X58493190Y21433610D01*
X58607309Y21499497D01*
X58607309Y21499498D01*
X58607314Y21499500D01*
X58700500Y21592686D01*
X58715658Y21618940D01*
X58766390Y21706810D01*
X58766390Y21706812D01*
X58766392Y21706814D01*
X58800500Y21834108D01*
X58800500Y21965892D01*
X58766392Y22093186D01*
X58766390Y22093189D01*
X58766390Y22093191D01*
X58700503Y22207310D01*
X58700501Y22207312D01*
X58700500Y22207314D01*
X58607314Y22300500D01*
X58607311Y22300502D01*
X58607309Y22300504D01*
X58493189Y22366391D01*
X58493191Y22366391D01*
X58443799Y22379625D01*
X58365892Y22400500D01*
X58234108Y22400500D01*
X58156200Y22379625D01*
X58106809Y22366391D01*
X57992690Y22300504D01*
X57899496Y22207310D01*
X57833609Y22093191D01*
X57833608Y22093186D01*
X57799500Y21965892D01*
X20570500Y21965892D01*
X20570500Y22630878D01*
X20549340Y22709848D01*
X20549340Y22709849D01*
X20508462Y22780652D01*
X18830652Y24458462D01*
X18830649Y24458464D01*
X18781841Y24486644D01*
X18781839Y24486644D01*
X18759849Y24499340D01*
X18680879Y24520500D01*
X18680878Y24520500D01*
X18680877Y24520500D01*
X16534894Y24520500D01*
X16509272Y24523873D01*
X16486271Y24530036D01*
X16465879Y24535500D01*
X16384121Y24535500D01*
X16305151Y24514340D01*
X16265737Y24491584D01*
X16234345Y24473460D01*
X16176537Y24415653D01*
X16176538Y24415652D01*
X16176536Y24415650D01*
X16176535Y24415650D01*
X15943585Y24182702D01*
X15943586Y24182701D01*
X15942322Y24181438D01*
X15938805Y24178165D01*
X15938168Y24177284D01*
X15934780Y24173895D01*
X15934777Y24173894D01*
X15763850Y24002965D01*
X15763848Y24002963D01*
X15763848Y24002962D01*
X15747988Y23975492D01*
X15722969Y23932158D01*
X15719620Y23919655D01*
X15712459Y23892929D01*
X15712458Y23892925D01*
X15705058Y23865313D01*
X15689711Y23833007D01*
X15437050Y23482901D01*
X15434690Y23479565D01*
X15434531Y23479336D01*
X15428586Y23465362D01*
X15419806Y23449123D01*
X15391533Y23406808D01*
X15338730Y23279330D01*
X15338730Y23279328D01*
X15311810Y23143996D01*
X13668967Y23143996D01*
X15090863Y24565892D01*
X32799500Y24565892D01*
X32799500Y24434108D01*
X32809372Y24397266D01*
X32833609Y24306810D01*
X32899496Y24192691D01*
X32899498Y24192689D01*
X32899500Y24192686D01*
X32992686Y24099500D01*
X32992688Y24099499D01*
X32992690Y24099497D01*
X33106810Y24033610D01*
X33106808Y24033610D01*
X33106812Y24033609D01*
X33106814Y24033608D01*
X33234108Y23999500D01*
X33234110Y23999500D01*
X33365890Y23999500D01*
X33365892Y23999500D01*
X33493186Y24033608D01*
X33493188Y24033610D01*
X33493190Y24033610D01*
X33607309Y24099497D01*
X33607309Y24099498D01*
X33607314Y24099500D01*
X33700500Y24192686D01*
X33712320Y24213158D01*
X33766390Y24306810D01*
X33766390Y24306812D01*
X33766392Y24306814D01*
X33800500Y24434108D01*
X33800500Y24565892D01*
X39599500Y24565892D01*
X39599500Y24434108D01*
X39609372Y24397266D01*
X39633609Y24306810D01*
X39699496Y24192691D01*
X39699498Y24192689D01*
X39699500Y24192686D01*
X39792686Y24099500D01*
X39792688Y24099499D01*
X39792690Y24099497D01*
X39906810Y24033610D01*
X39906808Y24033610D01*
X39906812Y24033609D01*
X39906814Y24033608D01*
X40034108Y23999500D01*
X40034110Y23999500D01*
X40165890Y23999500D01*
X40165892Y23999500D01*
X40293186Y24033608D01*
X40293188Y24033610D01*
X40293190Y24033610D01*
X40407309Y24099497D01*
X40407309Y24099498D01*
X40407314Y24099500D01*
X40500500Y24192686D01*
X40512320Y24213158D01*
X40513898Y24215892D01*
X48799500Y24215892D01*
X48799500Y24084108D01*
X48822171Y23999497D01*
X48833609Y23956810D01*
X48899496Y23842691D01*
X48899498Y23842689D01*
X48899500Y23842686D01*
X48992686Y23749500D01*
X48992688Y23749499D01*
X48992690Y23749497D01*
X49106810Y23683610D01*
X49106808Y23683610D01*
X49106812Y23683609D01*
X49106814Y23683608D01*
X49234108Y23649500D01*
X49234110Y23649500D01*
X49365890Y23649500D01*
X49365892Y23649500D01*
X49493186Y23683608D01*
X49493188Y23683610D01*
X49493190Y23683610D01*
X49607309Y23749497D01*
X49607309Y23749498D01*
X49607314Y23749500D01*
X49700500Y23842686D01*
X49733302Y23899500D01*
X49766390Y23956810D01*
X49766390Y23956812D01*
X49766392Y23956814D01*
X49800500Y24084108D01*
X49800500Y24215892D01*
X49766392Y24343186D01*
X49753627Y24365296D01*
X49721382Y24421146D01*
X49721378Y24421153D01*
X49700500Y24457314D01*
X49695042Y24462772D01*
X49693068Y24465892D01*
X61899500Y24465892D01*
X61899500Y24334108D01*
X61913197Y24282989D01*
X61933609Y24206810D01*
X61999496Y24092691D01*
X61999498Y24092689D01*
X61999500Y24092686D01*
X62092686Y23999500D01*
X62092688Y23999499D01*
X62092690Y23999497D01*
X62206810Y23933610D01*
X62206808Y23933610D01*
X62206812Y23933609D01*
X62206814Y23933608D01*
X62334108Y23899500D01*
X62334110Y23899500D01*
X62465890Y23899500D01*
X62465892Y23899500D01*
X62593186Y23933608D01*
X62593188Y23933610D01*
X62593190Y23933610D01*
X62707309Y23999497D01*
X62707309Y23999498D01*
X62707314Y23999500D01*
X62800500Y24092686D01*
X62828989Y24142030D01*
X62866390Y24206810D01*
X62866390Y24206812D01*
X62866392Y24206814D01*
X62900500Y24334108D01*
X62900500Y24465892D01*
X63399500Y24465892D01*
X63399500Y24334108D01*
X63413197Y24282989D01*
X63433609Y24206810D01*
X63499496Y24092691D01*
X63499498Y24092689D01*
X63499500Y24092686D01*
X63592686Y23999500D01*
X63592688Y23999499D01*
X63592690Y23999497D01*
X63706810Y23933610D01*
X63706808Y23933610D01*
X63706812Y23933609D01*
X63706814Y23933608D01*
X63834108Y23899500D01*
X63834110Y23899500D01*
X63965890Y23899500D01*
X63965892Y23899500D01*
X64093186Y23933608D01*
X64093188Y23933610D01*
X64093190Y23933610D01*
X64207309Y23999497D01*
X64207309Y23999498D01*
X64207314Y23999500D01*
X64300500Y24092686D01*
X64328989Y24142030D01*
X64366390Y24206810D01*
X64366390Y24206812D01*
X64366392Y24206814D01*
X64400500Y24334108D01*
X64400500Y24465892D01*
X64366392Y24593186D01*
X64366390Y24593189D01*
X64366390Y24593191D01*
X64300503Y24707310D01*
X64300501Y24707312D01*
X64300500Y24707314D01*
X64207314Y24800500D01*
X64207311Y24800502D01*
X64207309Y24800504D01*
X64093189Y24866391D01*
X64093191Y24866391D01*
X64027068Y24884108D01*
X63965892Y24900500D01*
X63834108Y24900500D01*
X63772932Y24884108D01*
X63706809Y24866391D01*
X63592690Y24800504D01*
X63499496Y24707310D01*
X63433609Y24593191D01*
X63422170Y24550500D01*
X63399500Y24465892D01*
X62900500Y24465892D01*
X62866392Y24593186D01*
X62866390Y24593189D01*
X62866390Y24593191D01*
X62800503Y24707310D01*
X62800501Y24707312D01*
X62800500Y24707314D01*
X62707314Y24800500D01*
X62707311Y24800502D01*
X62707309Y24800504D01*
X62593189Y24866391D01*
X62593191Y24866391D01*
X62527068Y24884108D01*
X62465892Y24900500D01*
X62334108Y24900500D01*
X62272932Y24884108D01*
X62206809Y24866391D01*
X62092690Y24800504D01*
X61999496Y24707310D01*
X61933609Y24593191D01*
X61922170Y24550500D01*
X61899500Y24465892D01*
X49693068Y24465892D01*
X49689162Y24472065D01*
X49684178Y24491584D01*
X49675036Y24509536D01*
X49676782Y24520548D01*
X49674025Y24531348D01*
X49681464Y24550067D01*
X49684621Y24569965D01*
X49695110Y24584400D01*
X49696624Y24588207D01*
X49698945Y24589676D01*
X49702815Y24595002D01*
X49750500Y24642686D01*
X49816392Y24756814D01*
X49850500Y24884108D01*
X49850500Y25015892D01*
X49816392Y25143186D01*
X49816390Y25143189D01*
X49816390Y25143191D01*
X49750503Y25257310D01*
X49750501Y25257312D01*
X49750500Y25257314D01*
X49657314Y25350500D01*
X49657311Y25350502D01*
X49657309Y25350504D01*
X49543189Y25416391D01*
X49543191Y25416391D01*
X49493799Y25429625D01*
X49415892Y25450500D01*
X49284108Y25450500D01*
X49206200Y25429625D01*
X49156809Y25416391D01*
X49042690Y25350504D01*
X48949496Y25257310D01*
X48883609Y25143191D01*
X48872040Y25100014D01*
X48849500Y25015892D01*
X48849500Y24884108D01*
X48879579Y24771849D01*
X48883609Y24756810D01*
X48949496Y24642691D01*
X48953449Y24637540D01*
X48951680Y24636184D01*
X48974963Y24590465D01*
X48965378Y24530036D01*
X48947182Y24504997D01*
X48899500Y24457316D01*
X48899496Y24457310D01*
X48833609Y24343191D01*
X48825488Y24312881D01*
X48799500Y24215892D01*
X40513898Y24215892D01*
X40546224Y24271881D01*
X40566390Y24306810D01*
X40566390Y24306812D01*
X40566392Y24306814D01*
X40600500Y24434108D01*
X40600500Y24565892D01*
X40566392Y24693186D01*
X40566390Y24693189D01*
X40566390Y24693191D01*
X40500503Y24807310D01*
X40500501Y24807312D01*
X40500500Y24807314D01*
X40407314Y24900500D01*
X40407311Y24900502D01*
X40407309Y24900504D01*
X40293189Y24966391D01*
X40293191Y24966391D01*
X40243799Y24979625D01*
X40165892Y25000500D01*
X40034108Y25000500D01*
X39956200Y24979625D01*
X39906809Y24966391D01*
X39792690Y24900504D01*
X39699496Y24807310D01*
X39633609Y24693191D01*
X39614539Y24622022D01*
X39599500Y24565892D01*
X33800500Y24565892D01*
X33766392Y24693186D01*
X33766390Y24693189D01*
X33766390Y24693191D01*
X33700503Y24807310D01*
X33700501Y24807312D01*
X33700500Y24807314D01*
X33607314Y24900500D01*
X33607311Y24900502D01*
X33607309Y24900504D01*
X33493189Y24966391D01*
X33493191Y24966391D01*
X33443799Y24979625D01*
X33365892Y25000500D01*
X33234108Y25000500D01*
X33156200Y24979625D01*
X33106809Y24966391D01*
X32992690Y24900504D01*
X32899496Y24807310D01*
X32833609Y24693191D01*
X32814539Y24622022D01*
X32799500Y24565892D01*
X15090863Y24565892D01*
X16190863Y25665892D01*
X61899500Y25665892D01*
X61899500Y25534108D01*
X61929579Y25421849D01*
X61933609Y25406810D01*
X61999496Y25292691D01*
X61999498Y25292689D01*
X61999500Y25292686D01*
X62092686Y25199500D01*
X62092688Y25199499D01*
X62092690Y25199497D01*
X62206810Y25133610D01*
X62206808Y25133610D01*
X62206812Y25133609D01*
X62206814Y25133608D01*
X62334108Y25099500D01*
X62334110Y25099500D01*
X62465890Y25099500D01*
X62465892Y25099500D01*
X62593186Y25133608D01*
X62593188Y25133610D01*
X62593190Y25133610D01*
X62707309Y25199497D01*
X62707309Y25199498D01*
X62707314Y25199500D01*
X62800500Y25292686D01*
X62833879Y25350500D01*
X62866390Y25406810D01*
X62866390Y25406812D01*
X62866392Y25406814D01*
X62900500Y25534108D01*
X62900500Y25665892D01*
X63399500Y25665892D01*
X63399500Y25534108D01*
X63429579Y25421849D01*
X63433609Y25406810D01*
X63499496Y25292691D01*
X63499498Y25292689D01*
X63499500Y25292686D01*
X63592686Y25199500D01*
X63592688Y25199499D01*
X63592690Y25199497D01*
X63706810Y25133610D01*
X63706808Y25133610D01*
X63706812Y25133609D01*
X63706814Y25133608D01*
X63834108Y25099500D01*
X63834110Y25099500D01*
X63965890Y25099500D01*
X63965892Y25099500D01*
X64093186Y25133608D01*
X64093188Y25133610D01*
X64093190Y25133610D01*
X64207309Y25199497D01*
X64207309Y25199498D01*
X64207314Y25199500D01*
X64300500Y25292686D01*
X64333879Y25350500D01*
X64366390Y25406810D01*
X64366390Y25406812D01*
X64366392Y25406814D01*
X64400500Y25534108D01*
X64400500Y25665892D01*
X64366392Y25793186D01*
X64366390Y25793189D01*
X64366390Y25793191D01*
X64300503Y25907310D01*
X64300501Y25907312D01*
X64300500Y25907314D01*
X64207314Y26000500D01*
X64207311Y26000502D01*
X64207309Y26000504D01*
X64093189Y26066391D01*
X64093191Y26066391D01*
X64043799Y26079625D01*
X63965892Y26100500D01*
X63834108Y26100500D01*
X63756200Y26079625D01*
X63706809Y26066391D01*
X63592690Y26000504D01*
X63499496Y25907310D01*
X63433609Y25793191D01*
X63421902Y25749500D01*
X63399500Y25665892D01*
X62900500Y25665892D01*
X62866392Y25793186D01*
X62866390Y25793189D01*
X62866390Y25793191D01*
X62800503Y25907310D01*
X62800501Y25907312D01*
X62800500Y25907314D01*
X62707314Y26000500D01*
X62707311Y26000502D01*
X62707309Y26000504D01*
X62593189Y26066391D01*
X62593191Y26066391D01*
X62543799Y26079625D01*
X62465892Y26100500D01*
X62334108Y26100500D01*
X62256200Y26079625D01*
X62206809Y26066391D01*
X62092690Y26000504D01*
X61999496Y25907310D01*
X61933609Y25793191D01*
X61921902Y25749500D01*
X61899500Y25665892D01*
X16190863Y25665892D01*
X16840863Y26315892D01*
X21249500Y26315892D01*
X21249500Y26184108D01*
X21279579Y26071849D01*
X21283609Y26056810D01*
X21349496Y25942691D01*
X21349498Y25942689D01*
X21349500Y25942686D01*
X21442686Y25849500D01*
X21442688Y25849499D01*
X21442690Y25849497D01*
X21556810Y25783610D01*
X21556808Y25783610D01*
X21556812Y25783609D01*
X21556814Y25783608D01*
X21684108Y25749500D01*
X21684110Y25749500D01*
X21815890Y25749500D01*
X21815892Y25749500D01*
X21943186Y25783608D01*
X21943188Y25783610D01*
X21943190Y25783610D01*
X22057309Y25849497D01*
X22057309Y25849498D01*
X22057314Y25849500D01*
X22150500Y25942686D01*
X22150503Y25942691D01*
X22216390Y26056810D01*
X22216390Y26056812D01*
X22216392Y26056814D01*
X22250500Y26184108D01*
X22250500Y26315892D01*
X22216392Y26443186D01*
X22216390Y26443189D01*
X22216390Y26443191D01*
X22150503Y26557310D01*
X22150501Y26557312D01*
X22150500Y26557314D01*
X22057314Y26650500D01*
X22057311Y26650502D01*
X22057309Y26650504D01*
X21943189Y26716391D01*
X21943191Y26716391D01*
X21877068Y26734108D01*
X21815892Y26750500D01*
X21684108Y26750500D01*
X21622932Y26734108D01*
X21556809Y26716391D01*
X21442690Y26650504D01*
X21349496Y26557310D01*
X21283609Y26443191D01*
X21283608Y26443186D01*
X21249500Y26315892D01*
X16840863Y26315892D01*
X17390863Y26865892D01*
X33399500Y26865892D01*
X33399500Y26734108D01*
X33429579Y26621849D01*
X33433609Y26606810D01*
X33499496Y26492691D01*
X33499498Y26492689D01*
X33499500Y26492686D01*
X33592686Y26399500D01*
X33592688Y26399499D01*
X33592690Y26399497D01*
X33706810Y26333610D01*
X33706808Y26333610D01*
X33706812Y26333609D01*
X33706814Y26333608D01*
X33834108Y26299500D01*
X33834110Y26299500D01*
X33965890Y26299500D01*
X33965892Y26299500D01*
X34093186Y26333608D01*
X34093188Y26333610D01*
X34093190Y26333610D01*
X34207309Y26399497D01*
X34207309Y26399498D01*
X34207314Y26399500D01*
X34300500Y26492686D01*
X34366392Y26606814D01*
X34400500Y26734108D01*
X34400500Y26865892D01*
X34366392Y26993186D01*
X34366390Y26993190D01*
X34366390Y26993191D01*
X34300503Y27107310D01*
X34300501Y27107312D01*
X34300500Y27107314D01*
X34207314Y27200500D01*
X34207311Y27200502D01*
X34207309Y27200504D01*
X34093189Y27266391D01*
X34093191Y27266391D01*
X34042896Y27279867D01*
X33965892Y27300500D01*
X33834108Y27300500D01*
X33757104Y27279867D01*
X33706809Y27266391D01*
X33592690Y27200504D01*
X33499496Y27107310D01*
X33433609Y26993191D01*
X33433608Y26993186D01*
X33399500Y26865892D01*
X17390863Y26865892D01*
X18233737Y27708766D01*
X35961620Y27708766D01*
X35962440Y27596004D01*
X35962458Y27594441D01*
X35962460Y27594274D01*
X35962461Y27594241D01*
X35966039Y27365621D01*
X35971166Y27323109D01*
X36010848Y27240710D01*
X36082351Y27183688D01*
X36171514Y27163337D01*
X39460371Y27163337D01*
X39518562Y27144430D01*
X39554526Y27094930D01*
X39554526Y27033744D01*
X39546108Y27014838D01*
X39533609Y26993190D01*
X39533608Y26993186D01*
X39499500Y26865892D01*
X39499500Y26734108D01*
X39529579Y26621849D01*
X39533609Y26606810D01*
X39599496Y26492691D01*
X39599498Y26492689D01*
X39599500Y26492686D01*
X39692686Y26399500D01*
X39692688Y26399499D01*
X39692690Y26399497D01*
X39806810Y26333610D01*
X39806808Y26333610D01*
X39806812Y26333609D01*
X39806814Y26333608D01*
X39934108Y26299500D01*
X39934110Y26299500D01*
X40065890Y26299500D01*
X40065892Y26299500D01*
X40193186Y26333608D01*
X40193188Y26333610D01*
X40193190Y26333610D01*
X40307309Y26399497D01*
X40307309Y26399498D01*
X40307314Y26399500D01*
X40400500Y26492686D01*
X40466392Y26606814D01*
X40500500Y26734108D01*
X40500500Y26865892D01*
X40466392Y26993186D01*
X40466389Y26993191D01*
X40453892Y27014838D01*
X40441171Y27074686D01*
X40466058Y27130582D01*
X40519047Y27161174D01*
X40539629Y27163337D01*
X41124515Y27163337D01*
X41129715Y27163926D01*
X41170451Y27168537D01*
X41252809Y27208304D01*
X41309756Y27279867D01*
X41330014Y27369051D01*
X41329750Y27622032D01*
X41329698Y27626426D01*
X41327015Y27746036D01*
X41326756Y27752738D01*
X41320284Y27870156D01*
X41319802Y27876877D01*
X41314654Y27935324D01*
X41314123Y27940585D01*
X41307441Y27999158D01*
X41306701Y28004920D01*
X41298286Y28063842D01*
X41297315Y28069978D01*
X41286974Y28129475D01*
X41285754Y28135888D01*
X41273289Y28196184D01*
X41271819Y28202748D01*
X41257035Y28264066D01*
X41255329Y28270663D01*
X41238030Y28333230D01*
X41236108Y28339756D01*
X41216098Y28403794D01*
X41214276Y28409347D01*
X41214261Y28409393D01*
X41212599Y28414220D01*
X41206734Y28431254D01*
X41205887Y28433618D01*
X41205046Y28435969D01*
X41197189Y28457096D01*
X41197186Y28457104D01*
X41194618Y28463665D01*
X41178079Y28503865D01*
X41174685Y28511653D01*
X41157319Y28549354D01*
X41157309Y28549376D01*
X41154234Y28555755D01*
X41154229Y28555766D01*
X41136374Y28591241D01*
X41133842Y28596109D01*
X41115832Y28629632D01*
X41114118Y28632757D01*
X41096291Y28664602D01*
X41096253Y28664670D01*
X41095797Y28665483D01*
X41063785Y28722129D01*
X41062737Y28724031D01*
X41051480Y28745013D01*
X41049968Y28747951D01*
X41041968Y28764180D01*
X41039860Y28768747D01*
X41039073Y28770574D01*
X41037010Y28775359D01*
X41034632Y28800918D01*
X41032737Y28804594D01*
X41033704Y28810895D01*
X41033239Y28815892D01*
X45999500Y28815892D01*
X45999500Y28684108D01*
X46024381Y28591249D01*
X46033609Y28556810D01*
X46099496Y28442691D01*
X46099498Y28442689D01*
X46099500Y28442686D01*
X46192686Y28349500D01*
X46192688Y28349499D01*
X46192690Y28349497D01*
X46306810Y28283610D01*
X46306808Y28283610D01*
X46306812Y28283609D01*
X46306814Y28283608D01*
X46434108Y28249500D01*
X46434110Y28249500D01*
X46565890Y28249500D01*
X46565892Y28249500D01*
X46693186Y28283608D01*
X46693188Y28283610D01*
X46693190Y28283610D01*
X46807309Y28349497D01*
X46807309Y28349498D01*
X46807314Y28349500D01*
X46900500Y28442686D01*
X46935822Y28503865D01*
X46966390Y28556810D01*
X46966390Y28556812D01*
X46966392Y28556814D01*
X47000500Y28684108D01*
X47000500Y28765892D01*
X65999500Y28765892D01*
X65999500Y28634108D01*
X66022204Y28549376D01*
X66033609Y28506810D01*
X66099496Y28392691D01*
X66099498Y28392689D01*
X66099500Y28392686D01*
X66192686Y28299500D01*
X66192688Y28299499D01*
X66192690Y28299497D01*
X66306810Y28233610D01*
X66306808Y28233610D01*
X66306812Y28233609D01*
X66306814Y28233608D01*
X66434108Y28199500D01*
X66434110Y28199500D01*
X66565890Y28199500D01*
X66565892Y28199500D01*
X66693186Y28233608D01*
X66693188Y28233610D01*
X66693190Y28233610D01*
X66807309Y28299497D01*
X66807309Y28299498D01*
X66807314Y28299500D01*
X66900500Y28392686D01*
X66925490Y28435969D01*
X66966390Y28506810D01*
X66966390Y28506812D01*
X66966392Y28506814D01*
X67000500Y28634108D01*
X67000500Y28765892D01*
X66966392Y28893186D01*
X66966390Y28893189D01*
X66966390Y28893191D01*
X66900503Y29007310D01*
X66900501Y29007312D01*
X66900500Y29007314D01*
X66807314Y29100500D01*
X66807311Y29100502D01*
X66807309Y29100504D01*
X66693189Y29166391D01*
X66693191Y29166391D01*
X66637544Y29181301D01*
X66565892Y29200500D01*
X66434108Y29200500D01*
X66362456Y29181301D01*
X66306809Y29166391D01*
X66192690Y29100504D01*
X66099496Y29007310D01*
X66033609Y28893191D01*
X66024194Y28858053D01*
X65999500Y28765892D01*
X47000500Y28765892D01*
X47000500Y28815892D01*
X46966392Y28943186D01*
X46966390Y28943189D01*
X46966390Y28943191D01*
X46900503Y29057310D01*
X46900501Y29057312D01*
X46900500Y29057314D01*
X46807314Y29150500D01*
X46807311Y29150502D01*
X46807309Y29150504D01*
X46693189Y29216391D01*
X46693191Y29216391D01*
X46627016Y29234122D01*
X46565892Y29250500D01*
X46434108Y29250500D01*
X46372984Y29234122D01*
X46306809Y29216391D01*
X46192690Y29150504D01*
X46099496Y29057310D01*
X46033609Y28943191D01*
X46020212Y28893191D01*
X45999500Y28815892D01*
X41033239Y28815892D01*
X41031342Y28836280D01*
X41036623Y28852812D01*
X41039159Y28858861D01*
X41042006Y28865042D01*
X41049334Y28879592D01*
X41053088Y28886364D01*
X41084998Y28938954D01*
X41088866Y28944842D01*
X41132370Y29006158D01*
X41134940Y29009617D01*
X41189923Y29080328D01*
X41191319Y29082078D01*
X41255305Y29160509D01*
X41255332Y29160487D01*
X41255514Y29160766D01*
X41394052Y29329387D01*
X41397252Y29333382D01*
X41465175Y29420386D01*
X41469664Y29426356D01*
X41533402Y29514419D01*
X41539639Y29523544D01*
X41596843Y29612260D01*
X41602550Y29621653D01*
X41627970Y29666130D01*
X41632258Y29674027D01*
X41642557Y29694031D01*
X41655159Y29718503D01*
X41659709Y29727921D01*
X41673934Y29759377D01*
X41679806Y29772362D01*
X41684450Y29783491D01*
X41701452Y29827850D01*
X41705973Y29840951D01*
X41719582Y29885171D01*
X41723645Y29900435D01*
X41733568Y29944463D01*
X41736728Y29962002D01*
X41741595Y29997857D01*
X41742672Y30005788D01*
X41744387Y30025525D01*
X41744387Y30025528D01*
X41744388Y30025538D01*
X41746060Y30069033D01*
X41746034Y30070826D01*
X41745951Y30076684D01*
X41745752Y30090673D01*
X41742859Y30133825D01*
X41740023Y30156738D01*
X41732271Y30199496D01*
X41727878Y30218523D01*
X41718814Y30250721D01*
X41714725Y30263607D01*
X41702869Y30297101D01*
X41698731Y30307828D01*
X41684228Y30342501D01*
X41680203Y30351508D01*
X41663197Y30387243D01*
X41657569Y30398210D01*
X41616633Y30472406D01*
X41609900Y30483734D01*
X41560694Y30560789D01*
X41554822Y30569487D01*
X41509953Y30632420D01*
X41498509Y30648471D01*
X41493334Y30655415D01*
X41444217Y30718510D01*
X41431077Y30735390D01*
X41426459Y30741109D01*
X41359406Y30821166D01*
X41359391Y30821183D01*
X41359362Y30821218D01*
X41355213Y30826017D01*
X41330002Y30854265D01*
X41284501Y30905249D01*
X41280543Y30909559D01*
X41279833Y30910310D01*
X41257565Y30933875D01*
X41207389Y30986973D01*
X41203566Y30990911D01*
X41129101Y31065611D01*
X41125277Y31069349D01*
X41104946Y31088709D01*
X41050679Y31140386D01*
X41046668Y31144107D01*
X41041355Y31148905D01*
X41041354Y31148906D01*
X40973079Y31210572D01*
X40973058Y31210591D01*
X40968773Y31214353D01*
X40968756Y31214368D01*
X40966971Y31215892D01*
X63799500Y31215892D01*
X63799500Y31084108D01*
X63824472Y30990911D01*
X63833609Y30956810D01*
X63899496Y30842691D01*
X63899498Y30842689D01*
X63899500Y30842686D01*
X63992686Y30749500D01*
X63992688Y30749499D01*
X63992690Y30749497D01*
X64106810Y30683610D01*
X64106808Y30683610D01*
X64106812Y30683609D01*
X64106814Y30683608D01*
X64234108Y30649500D01*
X64234110Y30649500D01*
X64365890Y30649500D01*
X64365892Y30649500D01*
X64493186Y30683608D01*
X64493188Y30683610D01*
X64493190Y30683610D01*
X64607309Y30749497D01*
X64607309Y30749498D01*
X64607314Y30749500D01*
X64700500Y30842686D01*
X64721831Y30879632D01*
X64766390Y30956810D01*
X64766390Y30956812D01*
X64766392Y30956814D01*
X64800500Y31084108D01*
X64800500Y31215892D01*
X66099500Y31215892D01*
X66099500Y31084108D01*
X66124472Y30990911D01*
X66133609Y30956810D01*
X66199496Y30842691D01*
X66199498Y30842689D01*
X66199500Y30842686D01*
X66292686Y30749500D01*
X66292688Y30749499D01*
X66292690Y30749497D01*
X66406810Y30683610D01*
X66406808Y30683610D01*
X66406812Y30683609D01*
X66406814Y30683608D01*
X66534108Y30649500D01*
X66534110Y30649500D01*
X66665890Y30649500D01*
X66665892Y30649500D01*
X66793186Y30683608D01*
X66793188Y30683610D01*
X66793190Y30683610D01*
X66907309Y30749497D01*
X66907309Y30749498D01*
X66907314Y30749500D01*
X67000500Y30842686D01*
X67021831Y30879632D01*
X67066390Y30956810D01*
X67066390Y30956812D01*
X67066392Y30956814D01*
X67100500Y31084108D01*
X67100500Y31215892D01*
X67066392Y31343186D01*
X67066390Y31343189D01*
X67066390Y31343191D01*
X67000503Y31457310D01*
X67000501Y31457312D01*
X67000500Y31457314D01*
X66907314Y31550500D01*
X66907311Y31550502D01*
X66907309Y31550504D01*
X66793189Y31616391D01*
X66793191Y31616391D01*
X66713696Y31637691D01*
X66665892Y31650500D01*
X66534108Y31650500D01*
X66486304Y31637691D01*
X66406809Y31616391D01*
X66292690Y31550504D01*
X66199496Y31457310D01*
X66133609Y31343191D01*
X66126137Y31315305D01*
X66099500Y31215892D01*
X64800500Y31215892D01*
X64766392Y31343186D01*
X64766390Y31343189D01*
X64766390Y31343191D01*
X64700503Y31457310D01*
X64700501Y31457312D01*
X64700500Y31457314D01*
X64607314Y31550500D01*
X64607311Y31550502D01*
X64607309Y31550504D01*
X64493189Y31616391D01*
X64493191Y31616391D01*
X64413696Y31637691D01*
X64365892Y31650500D01*
X64234108Y31650500D01*
X64186304Y31637691D01*
X64106809Y31616391D01*
X63992690Y31550504D01*
X63899496Y31457310D01*
X63833609Y31343191D01*
X63826137Y31315305D01*
X63799500Y31215892D01*
X40966971Y31215892D01*
X40897316Y31275350D01*
X40892357Y31279450D01*
X40824244Y31334000D01*
X40818208Y31338654D01*
X40754583Y31385846D01*
X40746657Y31391439D01*
X40688802Y31430258D01*
X40688683Y31430338D01*
X40680476Y31435568D01*
X40652628Y31452400D01*
X40647167Y31455585D01*
X40644095Y31457314D01*
X40616434Y31472885D01*
X40610414Y31476143D01*
X40610411Y31476145D01*
X40610364Y31476170D01*
X40577324Y31493345D01*
X40570517Y31496726D01*
X40535402Y31513365D01*
X40532288Y31514762D01*
X40527587Y31516871D01*
X40518280Y31520815D01*
X40490951Y31532397D01*
X40481788Y31536024D01*
X40444049Y31549927D01*
X40433179Y31553589D01*
X40394746Y31565359D01*
X40381721Y31568882D01*
X40354095Y31575389D01*
X40343062Y31577988D01*
X40337739Y31579083D01*
X40331531Y31580360D01*
X40312310Y31583741D01*
X40307471Y31584486D01*
X40303587Y31585084D01*
X40284421Y31587616D01*
X40284406Y31587618D01*
X40274852Y31588652D01*
X40274840Y31588653D01*
X40274831Y31588654D01*
X40255826Y31590262D01*
X40253599Y31590393D01*
X40245244Y31590884D01*
X40228770Y31591425D01*
X40226458Y31591500D01*
X40214865Y31591554D01*
X40214861Y31591554D01*
X40214846Y31591554D01*
X40196356Y31591118D01*
X40183691Y31590427D01*
X40165486Y31588870D01*
X40151744Y31587227D01*
X40133949Y31584489D01*
X40119181Y31581660D01*
X40101837Y31577678D01*
X40086232Y31573443D01*
X40069339Y31568137D01*
X40053161Y31562299D01*
X40036813Y31555615D01*
X40020322Y31548004D01*
X40004579Y31539877D01*
X39988258Y31530479D01*
X39988231Y31530463D01*
X39973172Y31520847D01*
X39973125Y31520815D01*
X39957432Y31509725D01*
X39957427Y31509721D01*
X39943046Y31498510D01*
X39943009Y31498479D01*
X39928381Y31485925D01*
X39928340Y31485889D01*
X39914738Y31473054D01*
X39901457Y31459302D01*
X39901446Y31459290D01*
X39888665Y31444757D01*
X39877037Y31430265D01*
X39877032Y31430258D01*
X39865123Y31413961D01*
X39854457Y31397820D01*
X39841158Y31375473D01*
X39831755Y31357758D01*
X39831754Y31357757D01*
X39820867Y31334580D01*
X39820843Y31334526D01*
X39813765Y31317423D01*
X39774042Y31270885D01*
X39714552Y31256584D01*
X39658017Y31279982D01*
X39635180Y31308606D01*
X39635037Y31308527D01*
X39634657Y31309223D01*
X39634637Y31309261D01*
X39631337Y31315305D01*
X39553727Y31451996D01*
X39551904Y31455142D01*
X39470923Y31592070D01*
X39470289Y31593158D01*
X39466648Y31599497D01*
X39388823Y31734999D01*
X39388813Y31735016D01*
X39388727Y31735166D01*
X39388154Y31736155D01*
X39367500Y31771514D01*
X39364330Y31776761D01*
X39340800Y31814438D01*
X39340273Y31815278D01*
X39291911Y31891865D01*
X39290444Y31894263D01*
X39270911Y31927234D01*
X39269422Y31929837D01*
X39267340Y31933608D01*
X39262591Y31942207D01*
X39261304Y31944617D01*
X39255456Y31955942D01*
X39253931Y31959025D01*
X39250123Y31967079D01*
X39249968Y31968288D01*
X39249153Y31969194D01*
X39246089Y31998540D01*
X39242343Y32027768D01*
X39242792Y32030009D01*
X39243115Y32031521D01*
X39245124Y32039350D01*
X39252538Y32063993D01*
X39253195Y32065892D01*
X56549500Y32065892D01*
X56549500Y31934108D01*
X56560501Y31893051D01*
X56583609Y31806810D01*
X56649496Y31692691D01*
X56649498Y31692689D01*
X56649500Y31692686D01*
X56742686Y31599500D01*
X56742688Y31599499D01*
X56742690Y31599497D01*
X56856810Y31533610D01*
X56856808Y31533610D01*
X56856812Y31533609D01*
X56856814Y31533608D01*
X56984108Y31499500D01*
X56984110Y31499500D01*
X57115890Y31499500D01*
X57115892Y31499500D01*
X57243186Y31533608D01*
X57243188Y31533610D01*
X57243190Y31533610D01*
X57357309Y31599497D01*
X57357309Y31599498D01*
X57357314Y31599500D01*
X57450500Y31692686D01*
X57450863Y31693314D01*
X57516390Y31806810D01*
X57516390Y31806812D01*
X57516392Y31806814D01*
X57550500Y31934108D01*
X57550500Y32065892D01*
X57516392Y32193186D01*
X57516390Y32193189D01*
X57516390Y32193191D01*
X57450503Y32307310D01*
X57450501Y32307312D01*
X57450500Y32307314D01*
X57357314Y32400500D01*
X57357311Y32400502D01*
X57357309Y32400504D01*
X57244053Y32465892D01*
X62849500Y32465892D01*
X62849500Y32334108D01*
X62879579Y32221849D01*
X62883609Y32206810D01*
X62949496Y32092691D01*
X62949498Y32092689D01*
X62949500Y32092686D01*
X63042686Y31999500D01*
X63042688Y31999499D01*
X63042690Y31999497D01*
X63156810Y31933610D01*
X63156808Y31933610D01*
X63156812Y31933609D01*
X63156814Y31933608D01*
X63284108Y31899500D01*
X63284110Y31899500D01*
X63415890Y31899500D01*
X63415892Y31899500D01*
X63543186Y31933608D01*
X63543188Y31933610D01*
X63543190Y31933610D01*
X63657309Y31999497D01*
X63657309Y31999498D01*
X63657314Y31999500D01*
X63750500Y32092686D01*
X63762258Y32113052D01*
X63816390Y32206810D01*
X63816390Y32206812D01*
X63816392Y32206814D01*
X63850500Y32334108D01*
X63850500Y32465892D01*
X64949500Y32465892D01*
X64949500Y32334108D01*
X64979579Y32221849D01*
X64983609Y32206810D01*
X65049496Y32092691D01*
X65049498Y32092689D01*
X65049500Y32092686D01*
X65142686Y31999500D01*
X65142688Y31999499D01*
X65142690Y31999497D01*
X65256810Y31933610D01*
X65256808Y31933610D01*
X65256812Y31933609D01*
X65256814Y31933608D01*
X65384108Y31899500D01*
X65384110Y31899500D01*
X65515890Y31899500D01*
X65515892Y31899500D01*
X65643186Y31933608D01*
X65643188Y31933610D01*
X65643190Y31933610D01*
X65757309Y31999497D01*
X65757309Y31999498D01*
X65757314Y31999500D01*
X65850500Y32092686D01*
X65862258Y32113052D01*
X65916390Y32206810D01*
X65916390Y32206812D01*
X65916392Y32206814D01*
X65950500Y32334108D01*
X65950500Y32465892D01*
X67199500Y32465892D01*
X67199500Y32334108D01*
X67229579Y32221849D01*
X67233609Y32206810D01*
X67299496Y32092691D01*
X67299498Y32092689D01*
X67299500Y32092686D01*
X67392686Y31999500D01*
X67392688Y31999499D01*
X67392690Y31999497D01*
X67506810Y31933610D01*
X67506808Y31933610D01*
X67506812Y31933609D01*
X67506814Y31933608D01*
X67634108Y31899500D01*
X67634110Y31899500D01*
X67765890Y31899500D01*
X67765892Y31899500D01*
X67893186Y31933608D01*
X67893188Y31933610D01*
X67893190Y31933610D01*
X68007309Y31999497D01*
X68007309Y31999498D01*
X68007314Y31999500D01*
X68100500Y32092686D01*
X68112258Y32113052D01*
X68166390Y32206810D01*
X68166390Y32206812D01*
X68166392Y32206814D01*
X68200500Y32334108D01*
X68200500Y32465892D01*
X68166392Y32593186D01*
X68166390Y32593189D01*
X68166390Y32593191D01*
X68100503Y32707310D01*
X68100501Y32707312D01*
X68100500Y32707314D01*
X68007314Y32800500D01*
X68007311Y32800502D01*
X68007309Y32800504D01*
X67893189Y32866391D01*
X67893191Y32866391D01*
X67843799Y32879625D01*
X67765892Y32900500D01*
X67634108Y32900500D01*
X67556200Y32879625D01*
X67506809Y32866391D01*
X67392690Y32800504D01*
X67299496Y32707310D01*
X67233609Y32593191D01*
X67219920Y32542101D01*
X67199500Y32465892D01*
X65950500Y32465892D01*
X65916392Y32593186D01*
X65916390Y32593189D01*
X65916390Y32593191D01*
X65850503Y32707310D01*
X65850501Y32707312D01*
X65850500Y32707314D01*
X65757314Y32800500D01*
X65757311Y32800502D01*
X65757309Y32800504D01*
X65643189Y32866391D01*
X65643191Y32866391D01*
X65593799Y32879625D01*
X65515892Y32900500D01*
X65384108Y32900500D01*
X65306200Y32879625D01*
X65256809Y32866391D01*
X65142690Y32800504D01*
X65049496Y32707310D01*
X64983609Y32593191D01*
X64969920Y32542101D01*
X64949500Y32465892D01*
X63850500Y32465892D01*
X63816392Y32593186D01*
X63816390Y32593189D01*
X63816390Y32593191D01*
X63750503Y32707310D01*
X63750501Y32707312D01*
X63750500Y32707314D01*
X63657314Y32800500D01*
X63657311Y32800502D01*
X63657309Y32800504D01*
X63543189Y32866391D01*
X63543191Y32866391D01*
X63493799Y32879625D01*
X63415892Y32900500D01*
X63284108Y32900500D01*
X63206200Y32879625D01*
X63156809Y32866391D01*
X63042690Y32800504D01*
X62949496Y32707310D01*
X62883609Y32593191D01*
X62869920Y32542101D01*
X62849500Y32465892D01*
X57244053Y32465892D01*
X57243189Y32466391D01*
X57243191Y32466391D01*
X57193799Y32479625D01*
X57115892Y32500500D01*
X56984108Y32500500D01*
X56906200Y32479625D01*
X56856809Y32466391D01*
X56742690Y32400504D01*
X56649496Y32307310D01*
X56583609Y32193191D01*
X56564539Y32122022D01*
X56549500Y32065892D01*
X39253195Y32065892D01*
X39255150Y32071546D01*
X39267042Y32101908D01*
X39268963Y32106474D01*
X39271927Y32113052D01*
X39273029Y32115501D01*
X39286996Y32146499D01*
X39287819Y32148274D01*
X39336155Y32249620D01*
X39338290Y32254243D01*
X39362925Y32309372D01*
X39366457Y32317773D01*
X39389214Y32375436D01*
X39393605Y32387682D01*
X39413186Y32448273D01*
X39416477Y32459571D01*
X39416526Y32459739D01*
X39424729Y32491292D01*
X39426813Y32500099D01*
X39433726Y32532497D01*
X39435537Y32542097D01*
X39441007Y32575424D01*
X39442428Y32585701D01*
X39446293Y32620006D01*
X39447224Y32630838D01*
X39449321Y32666172D01*
X39449680Y32677399D01*
X39449848Y32713811D01*
X39449580Y32725283D01*
X39447655Y32762822D01*
X39446739Y32774347D01*
X39442561Y32813062D01*
X39441001Y32824496D01*
X39434405Y32864437D01*
X39432243Y32875597D01*
X39423070Y32916814D01*
X39415918Y32941534D01*
X39415915Y32941542D01*
X39415911Y32941555D01*
X39335247Y33166509D01*
X39309660Y33237867D01*
X39301436Y33257528D01*
X39273936Y33314742D01*
X39273929Y33314757D01*
X39267858Y33326416D01*
X39236830Y33381609D01*
X39236823Y33381622D01*
X39229615Y33393486D01*
X39195338Y33445838D01*
X39190042Y33453468D01*
X39188987Y33454988D01*
X39170743Y33479808D01*
X39165920Y33486112D01*
X39165912Y33486123D01*
X39157159Y33497116D01*
X39146921Y33509976D01*
X39141602Y33516380D01*
X39141584Y33516402D01*
X39121948Y33539097D01*
X39121937Y33539110D01*
X39115971Y33545709D01*
X39115956Y33545726D01*
X39095690Y33567188D01*
X39088951Y33573999D01*
X39068088Y33594125D01*
X39060492Y33601093D01*
X39039071Y33619777D01*
X39039066Y33619781D01*
X39039049Y33619796D01*
X39030483Y33626868D01*
X39008531Y33644012D01*
X38998821Y33651146D01*
X38976385Y33666638D01*
X38976379Y33666642D01*
X38965376Y33673734D01*
X38947447Y33684496D01*
X38942491Y33687471D01*
X38930057Y33694361D01*
X38906777Y33706228D01*
X38892809Y33712703D01*
X38874902Y33720201D01*
X38869131Y33722618D01*
X38869126Y33722620D01*
X38869121Y33722622D01*
X38853590Y33728400D01*
X38829548Y33736256D01*
X38812451Y33741035D01*
X38788116Y33746715D01*
X38788120Y33746715D01*
X38788112Y33746716D01*
X38788108Y33746717D01*
X38788084Y33746722D01*
X38769591Y33750152D01*
X38769587Y33750153D01*
X38769574Y33750155D01*
X38752833Y33752472D01*
X38744989Y33753558D01*
X38744981Y33753559D01*
X38744972Y33753560D01*
X38725281Y33755325D01*
X38700444Y33756351D01*
X38700435Y33756351D01*
X38700409Y33756352D01*
X38680032Y33756179D01*
X38654960Y33754719D01*
X38634385Y33752475D01*
X38609150Y33748426D01*
X38588934Y33744128D01*
X38588921Y33744125D01*
X38566249Y33738095D01*
X38563580Y33737385D01*
X38544251Y33731207D01*
X38544241Y33731204D01*
X38544237Y33731202D01*
X38518841Y33721681D01*
X38518811Y33721668D01*
X38500866Y33713947D01*
X38500865Y33713946D01*
X38475366Y33701504D01*
X38463980Y33695296D01*
X38459076Y33692621D01*
X38459066Y33692616D01*
X38459066Y33692615D01*
X38433592Y33677195D01*
X38419070Y33667540D01*
X38393600Y33649005D01*
X38380947Y33639012D01*
X38355507Y33617247D01*
X38344550Y33607164D01*
X38319225Y33582106D01*
X38309876Y33572222D01*
X38284657Y33543728D01*
X38277626Y33535281D01*
X38276708Y33534178D01*
X38262797Y33516402D01*
X38251636Y33502140D01*
X38243744Y33491348D01*
X38204822Y33434305D01*
X38198952Y33425189D01*
X38156612Y33355468D01*
X38152727Y33348791D01*
X38107783Y33268114D01*
X38104969Y33262885D01*
X38058179Y33172870D01*
X38055031Y33166550D01*
X37959266Y32965560D01*
X37955929Y32958183D01*
X37862658Y32740671D01*
X37860376Y32735128D01*
X37816723Y32624512D01*
X37815160Y32620425D01*
X37774551Y32510790D01*
X37772902Y32506175D01*
X37736154Y32399247D01*
X37734369Y32393809D01*
X37702311Y32291359D01*
X37700326Y32284618D01*
X37681576Y32216663D01*
X37678858Y32206810D01*
X37673731Y32188230D01*
X37671527Y32179505D01*
X37651243Y32091034D01*
X37648848Y32078932D01*
X37635666Y32000001D01*
X37633479Y31982095D01*
X37628860Y31922727D01*
X37628858Y31922697D01*
X37628589Y31919234D01*
X37626927Y31905924D01*
X37626398Y31901257D01*
X37624538Y31882984D01*
X37623990Y31876617D01*
X37621379Y31839558D01*
X37620989Y31832082D01*
X37619716Y31794557D01*
X37619599Y31788118D01*
X37619502Y31750389D01*
X37619539Y31746952D01*
X37619372Y31743796D01*
X37609466Y31718040D01*
X37601218Y31691702D01*
X37598586Y31689747D01*
X37597410Y31686688D01*
X37574255Y31671672D01*
X37552102Y31655214D01*
X37548824Y31655180D01*
X37546075Y31653396D01*
X37518512Y31654858D01*
X37490921Y31654564D01*
X37485822Y31656591D01*
X37484975Y31656635D01*
X37484268Y31657208D01*
X37477182Y31660024D01*
X37476310Y31660449D01*
X37455710Y31669677D01*
X37443365Y31674732D01*
X37422268Y31682580D01*
X37409401Y31686889D01*
X37387885Y31693314D01*
X37374589Y31696804D01*
X37361153Y31699854D01*
X37352648Y31701785D01*
X37352636Y31701788D01*
X37352633Y31701788D01*
X37338955Y31704409D01*
X37316681Y31707897D01*
X37302593Y31709607D01*
X37280111Y31711552D01*
X37265711Y31712292D01*
X37243009Y31712661D01*
X37243007Y31712661D01*
X37243006Y31712661D01*
X37239360Y31712591D01*
X37228415Y31712381D01*
X37205564Y31711130D01*
X37190902Y31709797D01*
X37176377Y31707950D01*
X37167972Y31706881D01*
X37160968Y31705732D01*
X37153301Y31704474D01*
X37130374Y31699854D01*
X37115835Y31696369D01*
X37092995Y31690009D01*
X37078740Y31685473D01*
X37055991Y31677313D01*
X37042161Y31671778D01*
X37019619Y31661793D01*
X37004375Y31654271D01*
X36947803Y31623387D01*
X36933241Y31614635D01*
X36875705Y31576737D01*
X36864306Y31568660D01*
X36806284Y31524502D01*
X36797139Y31517120D01*
X36739021Y31467395D01*
X36731547Y31460676D01*
X36731535Y31460666D01*
X36731532Y31460662D01*
X36714690Y31444757D01*
X36673770Y31406114D01*
X36667470Y31399902D01*
X36610471Y31341230D01*
X36605022Y31335401D01*
X36549282Y31273400D01*
X36544463Y31267844D01*
X36490326Y31203143D01*
X36486002Y31197797D01*
X36433890Y31131104D01*
X36429872Y31125788D01*
X36380290Y31057927D01*
X36376490Y31052545D01*
X36329771Y30984103D01*
X36326079Y30978500D01*
X36282732Y30910310D01*
X36279058Y30904305D01*
X36239464Y30837018D01*
X36235712Y30830361D01*
X36200308Y30764707D01*
X36196395Y30757074D01*
X36165653Y30693860D01*
X36161470Y30684695D01*
X36135790Y30624588D01*
X36132621Y30616722D01*
X36104319Y30542126D01*
X36101960Y30535574D01*
X36078976Y30468179D01*
X36076251Y30459578D01*
X36058309Y30398307D01*
X36056261Y30390524D01*
X36055445Y30387424D01*
X36044926Y30342501D01*
X36042312Y30331339D01*
X36040274Y30321569D01*
X36035430Y30295151D01*
X36034232Y30287881D01*
X36030500Y30262404D01*
X36029506Y30254573D01*
X36026854Y30229934D01*
X36026136Y30221726D01*
X36024522Y30197668D01*
X36024129Y30189170D01*
X36023532Y30165698D01*
X36023495Y30157040D01*
X36023881Y30134022D01*
X36024290Y30125514D01*
X36024499Y30121172D01*
X36028097Y30075910D01*
X36028098Y30075904D01*
X36029996Y30059947D01*
X36037148Y30014917D01*
X36039760Y30001414D01*
X36041249Y29994895D01*
X36050224Y29955595D01*
X36052893Y29945170D01*
X36058380Y29925861D01*
X36066410Y29897605D01*
X36068609Y29890377D01*
X36068615Y29890359D01*
X36084645Y29840951D01*
X36084957Y29839992D01*
X36086771Y29834651D01*
X36173024Y29592002D01*
X36174329Y29588072D01*
X36303257Y29170834D01*
X36306207Y29162004D01*
X36321447Y29119608D01*
X36321454Y29119590D01*
X36323557Y29113995D01*
X36328856Y29100500D01*
X36342100Y29066771D01*
X36342270Y29066339D01*
X36381087Y28968131D01*
X36382179Y28965237D01*
X36397522Y28922565D01*
X36398556Y28919536D01*
X36403806Y28903305D01*
X36404681Y28900452D01*
X36408894Y28885948D01*
X36409891Y28882251D01*
X36411958Y28873949D01*
X36411537Y28867964D01*
X36414098Y28862536D01*
X36409426Y28837913D01*
X36407670Y28812915D01*
X36402693Y28802423D01*
X36402461Y28802000D01*
X36400224Y28798132D01*
X36398743Y28795699D01*
X36395835Y28791200D01*
X36384656Y28774892D01*
X36381521Y28770574D01*
X36366608Y28751152D01*
X36364573Y28748590D01*
X36343975Y28723525D01*
X36343127Y28722507D01*
X36289408Y28658894D01*
X36287275Y28656325D01*
X36258104Y28620576D01*
X36254576Y28616130D01*
X36254570Y28616122D01*
X36224824Y28577543D01*
X36224817Y28577533D01*
X36220251Y28571378D01*
X36190333Y28529440D01*
X36185130Y28521792D01*
X36155335Y28475817D01*
X36151346Y28469409D01*
X36136611Y28444727D01*
X36133924Y28440089D01*
X36119383Y28414220D01*
X36116729Y28409348D01*
X36102401Y28382169D01*
X36099836Y28377137D01*
X36085806Y28348652D01*
X36085801Y28348641D01*
X36081870Y28340180D01*
X36078830Y28333228D01*
X36058501Y28286746D01*
X36053785Y28274988D01*
X36034150Y28221297D01*
X36030329Y28209814D01*
X36014098Y28155802D01*
X36011153Y28144932D01*
X35998019Y28090592D01*
X35995845Y28080492D01*
X35985515Y28025881D01*
X35983997Y28016728D01*
X35983995Y28016715D01*
X35976157Y27961792D01*
X35975162Y27953667D01*
X35975157Y27953626D01*
X35969515Y27898461D01*
X35968924Y27891495D01*
X35968920Y27891444D01*
X35967480Y27870188D01*
X35965160Y27835947D01*
X35964847Y27830084D01*
X35962671Y27774337D01*
X35962539Y27769552D01*
X35961641Y27713600D01*
X35961620Y27708766D01*
X18233737Y27708766D01*
X29200192Y38675222D01*
X29244568Y38700842D01*
X29315989Y38719979D01*
X29315992Y38719981D01*
X29315993Y38719981D01*
X29339899Y38733784D01*
X29384511Y38759540D01*
X29440460Y38815489D01*
X31595475Y40970504D01*
X31649992Y40998281D01*
X31665479Y40999500D01*
X45124521Y40999500D01*
X45132118Y40997032D01*
X45140008Y40998281D01*
X45160663Y40987757D01*
X45182712Y40980593D01*
X45194525Y40970504D01*
X45226117Y40938912D01*
X45253894Y40884395D01*
X45253278Y40849937D01*
X45206302Y40609334D01*
X45206302Y40609327D01*
X45206312Y40604557D01*
X45202940Y40578733D01*
X45199500Y40565894D01*
X45199500Y40565892D01*
X45199500Y40434108D01*
X45207159Y40405525D01*
X45233609Y40306810D01*
X45299496Y40192691D01*
X45299498Y40192689D01*
X45299500Y40192686D01*
X45392686Y40099500D01*
X45392688Y40099499D01*
X45392690Y40099497D01*
X45506810Y40033610D01*
X45506808Y40033610D01*
X45506812Y40033609D01*
X45506814Y40033608D01*
X45634108Y39999500D01*
X45634110Y39999500D01*
X45765890Y39999500D01*
X45765892Y39999500D01*
X45893186Y40033608D01*
X45893188Y40033610D01*
X45893190Y40033610D01*
X46007309Y40099497D01*
X46007309Y40099498D01*
X46007314Y40099500D01*
X46100500Y40192686D01*
X46166392Y40306814D01*
X46200500Y40434108D01*
X46200500Y40565892D01*
X46166392Y40693186D01*
X46118354Y40776389D01*
X46114471Y40783827D01*
X46107622Y40798420D01*
X46106089Y40800500D01*
X46005609Y40936835D01*
X45989680Y40969941D01*
X45980022Y41005988D01*
X45980020Y41005991D01*
X45980020Y41005993D01*
X45940463Y41074507D01*
X45940459Y41074512D01*
X45807330Y41207642D01*
X45807330Y41207641D01*
X45802361Y41212610D01*
X45799792Y41216096D01*
X45790203Y41228135D01*
X45789058Y41229467D01*
X45786453Y41232439D01*
X45772951Y41242020D01*
X45767050Y41247921D01*
X45767048Y41247924D01*
X45474511Y41540460D01*
X45462109Y41547620D01*
X45462108Y41547621D01*
X45405987Y41580022D01*
X45329564Y41600500D01*
X45329562Y41600500D01*
X31460438Y41600500D01*
X31460435Y41600500D01*
X31384012Y41580022D01*
X31327889Y41547619D01*
X31315490Y41540461D01*
X29099809Y39324781D01*
X29065567Y39302470D01*
X29060482Y39300500D01*
X29060438Y39300500D01*
X28984011Y39280021D01*
X28942480Y39256043D01*
X28935869Y39252227D01*
X28935863Y39252224D01*
X28915491Y39240462D01*
X8104525Y18429496D01*
X8050008Y18401719D01*
X8034521Y18400500D01*
X5903961Y18400500D01*
X5851511Y18415536D01*
X4714700Y19125672D01*
X4714698Y19125673D01*
X4714695Y19125675D01*
X4714692Y19125677D01*
X4714685Y19125680D01*
X4698126Y19132642D01*
X4681496Y19141587D01*
X4622597Y19180942D01*
X4431418Y19260131D01*
X4228467Y19300500D01*
X4228465Y19300500D01*
X3771535Y19300500D01*
X3771532Y19300500D01*
X3568581Y19260131D01*
X3377402Y19180942D01*
X3205348Y19065980D01*
X3059020Y18919652D01*
X2944058Y18747598D01*
X2864869Y18556419D01*
X2824500Y18353468D01*
X400500Y18353468D01*
X400500Y26399988D01*
X2525000Y26399988D01*
X2525000Y26000001D01*
X2525001Y26000000D01*
X3595854Y26000000D01*
X3557370Y25933343D01*
X3525000Y25812535D01*
X3525000Y25687465D01*
X3557370Y25566657D01*
X3595854Y25500000D01*
X2525002Y25500000D01*
X2525001Y25499999D01*
X2525001Y25100014D01*
X2535492Y24997313D01*
X2535495Y24997301D01*
X2590643Y24830876D01*
X2682680Y24681660D01*
X2806659Y24557681D01*
X2955875Y24465644D01*
X3122306Y24410494D01*
X3225012Y24400001D01*
X3408549Y24400001D01*
X3466740Y24381094D01*
X3502704Y24331594D01*
X3502705Y24270409D01*
X3466741Y24220909D01*
X3446437Y24209537D01*
X3377401Y24180941D01*
X3205348Y24065980D01*
X3059020Y23919652D01*
X2944058Y23747598D01*
X2864869Y23556419D01*
X2824500Y23353468D01*
X2824500Y23146533D01*
X2864869Y22943582D01*
X2944058Y22752403D01*
X2972492Y22709848D01*
X3059023Y22580345D01*
X3205345Y22434023D01*
X3377402Y22319059D01*
X3568580Y22239870D01*
X3771535Y22199500D01*
X3771536Y22199500D01*
X4228464Y22199500D01*
X4228465Y22199500D01*
X4431420Y22239870D01*
X4622598Y22319059D01*
X4670264Y22350910D01*
X4693153Y22361365D01*
X4692952Y22361891D01*
X4697484Y22363629D01*
X4697489Y22363630D01*
X5846307Y22939019D01*
X5890641Y22949500D01*
X6589563Y22949500D01*
X6589563Y22949501D01*
X6665989Y22969979D01*
X6734511Y23009540D01*
X6790460Y23065489D01*
X24130496Y40405525D01*
X24185013Y40433302D01*
X24245445Y40423731D01*
X24288710Y40380466D01*
X24299500Y40335521D01*
X24299500Y40234108D01*
X24310598Y40192691D01*
X24333609Y40106810D01*
X24399496Y39992691D01*
X24399498Y39992689D01*
X24399500Y39992686D01*
X24492686Y39899500D01*
X24492688Y39899499D01*
X24492690Y39899497D01*
X24606810Y39833610D01*
X24606808Y39833610D01*
X24606812Y39833609D01*
X24606814Y39833608D01*
X24734108Y39799500D01*
X24734110Y39799500D01*
X24865890Y39799500D01*
X24865892Y39799500D01*
X24993186Y39833608D01*
X24993188Y39833610D01*
X24993190Y39833610D01*
X25107309Y39899497D01*
X25107309Y39899498D01*
X25107314Y39899500D01*
X25200500Y39992686D01*
X25204434Y39999500D01*
X25266390Y40106810D01*
X25266390Y40106812D01*
X25266392Y40106814D01*
X25300500Y40234108D01*
X25300500Y40365892D01*
X25266392Y40493186D01*
X25266390Y40493189D01*
X25266390Y40493191D01*
X25200503Y40607310D01*
X25200501Y40607312D01*
X25200500Y40607314D01*
X25107314Y40700500D01*
X25107311Y40700502D01*
X25107309Y40700504D01*
X24993189Y40766391D01*
X24993191Y40766391D01*
X24928117Y40783827D01*
X24865892Y40800500D01*
X24764479Y40800500D01*
X24706288Y40819407D01*
X24670324Y40868907D01*
X24670324Y40930093D01*
X24694475Y40969504D01*
X33695475Y49970504D01*
X33749992Y49998281D01*
X33765479Y49999500D01*
X45208175Y49999500D01*
X45210255Y49998825D01*
X45212361Y49999411D01*
X45239147Y49989437D01*
X45266366Y49980593D01*
X45267652Y49978823D01*
X45269700Y49978060D01*
X45285507Y49954247D01*
X45302330Y49931093D01*
X45302330Y49928906D01*
X45303539Y49927084D01*
X45302330Y49898516D01*
X45302330Y49869907D01*
X45300952Y49865953D01*
X45244985Y49715651D01*
X45237950Y49700710D01*
X45235734Y49696871D01*
X45233607Y49693185D01*
X45227087Y49668852D01*
X45224240Y49659938D01*
X45217971Y49643101D01*
X45212885Y49627586D01*
X45212382Y49625819D01*
X45211151Y49621292D01*
X45211150Y49621291D01*
X45211094Y49619396D01*
X45207767Y49596749D01*
X45203468Y49580703D01*
X45199500Y49565892D01*
X45199500Y49434108D01*
X45223452Y49344718D01*
X45233609Y49306810D01*
X45299496Y49192691D01*
X45299498Y49192689D01*
X45299500Y49192686D01*
X45322684Y49169502D01*
X45350460Y49114987D01*
X45340889Y49054555D01*
X45297624Y49011290D01*
X45252679Y49000500D01*
X34839562Y49000500D01*
X34760438Y49000500D01*
X34713661Y48987967D01*
X34684007Y48980021D01*
X34615493Y48940464D01*
X6704525Y21029496D01*
X6650008Y21001719D01*
X6634521Y21000500D01*
X5895119Y21000500D01*
X5847936Y21012467D01*
X5650773Y21119354D01*
X4703535Y21632877D01*
X4703531Y21632879D01*
X4703529Y21632880D01*
X4694622Y21636150D01*
X4673746Y21646767D01*
X4622600Y21680941D01*
X4431418Y21760131D01*
X4228467Y21800500D01*
X4228465Y21800500D01*
X3771535Y21800500D01*
X3771532Y21800500D01*
X3568581Y21760131D01*
X3377402Y21680942D01*
X3205348Y21565980D01*
X3059020Y21419652D01*
X2944058Y21247598D01*
X2864869Y21056419D01*
X2824500Y20853468D01*
X2824500Y20646533D01*
X2864869Y20443582D01*
X2944058Y20252403D01*
X3032290Y20120354D01*
X3059023Y20080345D01*
X3205345Y19934023D01*
X3377402Y19819059D01*
X3568580Y19739870D01*
X3771535Y19699500D01*
X3771536Y19699500D01*
X4228464Y19699500D01*
X4228465Y19699500D01*
X4431420Y19739870D01*
X4622598Y19819059D01*
X4666225Y19848211D01*
X4688913Y19859474D01*
X4691115Y19860235D01*
X4691124Y19860237D01*
X5844827Y20390455D01*
X5886168Y20399500D01*
X6839563Y20399500D01*
X6839563Y20399501D01*
X6915989Y20419979D01*
X6984511Y20459540D01*
X7040460Y20515489D01*
X33954971Y47430000D01*
X62555137Y47430000D01*
X63358012Y47430000D01*
X63340795Y47420060D01*
X63284940Y47364205D01*
X63245444Y47295796D01*
X63225000Y47219496D01*
X63225000Y47140504D01*
X63245444Y47064204D01*
X63284940Y46995795D01*
X63340795Y46939940D01*
X63358012Y46930000D01*
X62555137Y46930000D01*
X62563428Y46888316D01*
X62563431Y46888305D01*
X62638808Y46706327D01*
X62638814Y46706315D01*
X62748249Y46542538D01*
X62748252Y46542534D01*
X62887533Y46403253D01*
X62887537Y46403250D01*
X63051314Y46293815D01*
X63051326Y46293809D01*
X63233310Y46218430D01*
X63426506Y46180001D01*
X63426510Y46180000D01*
X63824999Y46180000D01*
X63825000Y46180001D01*
X63825000Y46880000D01*
X64325000Y46880000D01*
X64325000Y46180001D01*
X64325001Y46180000D01*
X64723490Y46180000D01*
X64723493Y46180001D01*
X64916688Y46218430D01*
X64916690Y46218430D01*
X65098673Y46293809D01*
X65098685Y46293815D01*
X65262462Y46403250D01*
X65262466Y46403253D01*
X65401747Y46542534D01*
X65401750Y46542538D01*
X65511185Y46706315D01*
X65511191Y46706327D01*
X65586568Y46888305D01*
X65586571Y46888316D01*
X65594863Y46930000D01*
X64791988Y46930000D01*
X64809205Y46939940D01*
X64865060Y46995795D01*
X64904556Y47064204D01*
X64925000Y47140504D01*
X64925000Y47219496D01*
X64904556Y47295796D01*
X64865060Y47364205D01*
X64809205Y47420060D01*
X64791988Y47430000D01*
X65594862Y47430000D01*
X65586571Y47471685D01*
X65586568Y47471696D01*
X65511191Y47653674D01*
X65511185Y47653686D01*
X65401750Y47817463D01*
X65401747Y47817467D01*
X65262466Y47956748D01*
X65262462Y47956751D01*
X65098675Y48066191D01*
X65070377Y48077912D01*
X65023851Y48117648D01*
X65009567Y48177143D01*
X65032982Y48233671D01*
X65038247Y48239368D01*
X65055515Y48256635D01*
X65055518Y48256640D01*
X65131279Y48387861D01*
X65131279Y48387863D01*
X65131281Y48387865D01*
X65170500Y48534234D01*
X65170500Y48685766D01*
X65131281Y48832135D01*
X65131279Y48832138D01*
X65131279Y48832140D01*
X65055518Y48963361D01*
X65055516Y48963363D01*
X65055515Y48963365D01*
X64948365Y49070515D01*
X64948362Y49070517D01*
X64948360Y49070519D01*
X64817138Y49146280D01*
X64817140Y49146280D01*
X64748069Y49164787D01*
X64670766Y49185500D01*
X64519234Y49185500D01*
X64441931Y49164787D01*
X64372860Y49146280D01*
X64241639Y49070519D01*
X64134481Y48963361D01*
X64058720Y48832140D01*
X64045851Y48784110D01*
X64019500Y48685766D01*
X64019500Y48534234D01*
X64041935Y48450504D01*
X64058720Y48387861D01*
X64134481Y48256640D01*
X64134483Y48256638D01*
X64134485Y48256635D01*
X64241635Y48149485D01*
X64275499Y48129934D01*
X64316440Y48084465D01*
X64325000Y48044197D01*
X64325000Y47480000D01*
X63825000Y47480000D01*
X63825000Y48179999D01*
X63824999Y48180000D01*
X63426506Y48180000D01*
X63233311Y48141571D01*
X63233309Y48141571D01*
X63051326Y48066192D01*
X63051314Y48066186D01*
X62887537Y47956751D01*
X62887533Y47956748D01*
X62748252Y47817467D01*
X62748249Y47817463D01*
X62638814Y47653686D01*
X62638808Y47653674D01*
X62563431Y47471696D01*
X62563428Y47471685D01*
X62555137Y47430000D01*
X33954971Y47430000D01*
X34895475Y48370504D01*
X34949992Y48398281D01*
X34965479Y48399500D01*
X45121844Y48399500D01*
X45143723Y48392392D01*
X45166452Y48388880D01*
X45172255Y48383121D01*
X45180035Y48380593D01*
X45193557Y48361982D01*
X45209882Y48345781D01*
X45211067Y48337881D01*
X45215999Y48331093D01*
X45219683Y48285386D01*
X45219496Y48284182D01*
X45205501Y48206030D01*
X45205660Y48194611D01*
X45204393Y48186408D01*
X45203194Y48184034D01*
X45202182Y48175904D01*
X45199500Y48165895D01*
X45199500Y48165892D01*
X45199500Y48034108D01*
X45221393Y47952403D01*
X45233609Y47906810D01*
X45299496Y47792691D01*
X45299498Y47792689D01*
X45299500Y47792686D01*
X45392686Y47699500D01*
X45392688Y47699499D01*
X45392690Y47699497D01*
X45506810Y47633610D01*
X45506808Y47633610D01*
X45506812Y47633609D01*
X45506814Y47633608D01*
X45634108Y47599500D01*
X45634110Y47599500D01*
X45765890Y47599500D01*
X45765892Y47599500D01*
X45893186Y47633608D01*
X45893188Y47633610D01*
X45893190Y47633610D01*
X46007309Y47699497D01*
X46007309Y47699498D01*
X46007314Y47699500D01*
X46100500Y47792686D01*
X46114805Y47817463D01*
X46166390Y47906810D01*
X46166390Y47906812D01*
X46166392Y47906814D01*
X46200500Y48034108D01*
X46200500Y48165892D01*
X46166392Y48293186D01*
X46114884Y48382399D01*
X46111577Y48388630D01*
X46105715Y48400692D01*
X46105714Y48400694D01*
X46003972Y48534883D01*
X45987234Y48569072D01*
X45980022Y48595986D01*
X45980021Y48595987D01*
X45980021Y48595989D01*
X45940460Y48664511D01*
X45919205Y48685766D01*
X45884511Y48720461D01*
X45884511Y48720460D01*
X45801440Y48803531D01*
X45800984Y48803991D01*
X45796451Y48808584D01*
X45791083Y48815664D01*
X45782207Y48826574D01*
X45781157Y48827778D01*
X45779512Y48829641D01*
X45766680Y48838747D01*
X45760585Y48844922D01*
X45750573Y48864894D01*
X45737238Y48882822D01*
X45737138Y48891693D01*
X45733165Y48899619D01*
X45736803Y48921661D01*
X45736554Y48944004D01*
X45741686Y48951237D01*
X45743131Y48959987D01*
X45759032Y48975682D01*
X45771962Y48993903D01*
X45782812Y48999154D01*
X45786678Y49002968D01*
X45792532Y49003857D01*
X45805419Y49010092D01*
X45893186Y49033608D01*
X46007314Y49099500D01*
X46100500Y49192686D01*
X46142815Y49265977D01*
X46166390Y49306810D01*
X46166390Y49306812D01*
X46166392Y49306814D01*
X46182222Y49365892D01*
X48124500Y49365892D01*
X48124500Y49234108D01*
X48145077Y49157314D01*
X48158609Y49106810D01*
X48224496Y48992691D01*
X48224498Y48992689D01*
X48224500Y48992686D01*
X48317686Y48899500D01*
X48356271Y48877223D01*
X48356270Y48877223D01*
X48361721Y48874076D01*
X48380172Y48860034D01*
X48418182Y48841478D01*
X48421161Y48839758D01*
X48421174Y48839751D01*
X48431814Y48833608D01*
X48431819Y48833607D01*
X48437808Y48831126D01*
X48437752Y48830993D01*
X48445913Y48827940D01*
X48799526Y48655308D01*
X48845325Y48632949D01*
X48871897Y48613989D01*
X49301484Y48184402D01*
X49320443Y48157832D01*
X49350246Y48096788D01*
X49350248Y48096785D01*
X49515443Y47758401D01*
X49518493Y47750251D01*
X49518626Y47750305D01*
X49521109Y47744312D01*
X49527246Y47733682D01*
X49530470Y47727624D01*
X49547533Y47692673D01*
X49547546Y47692647D01*
X49553894Y47680668D01*
X49553901Y47680655D01*
X49554666Y47679320D01*
X49555618Y47677676D01*
X49558062Y47675074D01*
X49571633Y47656802D01*
X49575849Y47649500D01*
X49584111Y47635189D01*
X49587000Y47630186D01*
X49680186Y47537000D01*
X49680188Y47536999D01*
X49680190Y47536997D01*
X49794310Y47471110D01*
X49794308Y47471110D01*
X49794312Y47471109D01*
X49794314Y47471108D01*
X49921608Y47437000D01*
X49921610Y47437000D01*
X50053390Y47437000D01*
X50053392Y47437000D01*
X50180686Y47471108D01*
X50211894Y47489127D01*
X50211897Y47489127D01*
X50294809Y47536997D01*
X50294809Y47536998D01*
X50294814Y47537000D01*
X50388000Y47630186D01*
X50390215Y47634023D01*
X50453890Y47744310D01*
X50453890Y47744312D01*
X50453892Y47744314D01*
X50488000Y47871608D01*
X50488000Y48003392D01*
X50453892Y48130686D01*
X50453890Y48130689D01*
X50453890Y48130691D01*
X50388003Y48244810D01*
X50388001Y48244812D01*
X50388000Y48244814D01*
X50294814Y48338000D01*
X50294811Y48338002D01*
X50294809Y48338004D01*
X50256236Y48360274D01*
X50250779Y48363425D01*
X50232327Y48377467D01*
X50194324Y48396020D01*
X50191329Y48397749D01*
X50191320Y48397753D01*
X50180685Y48403893D01*
X50174692Y48406376D01*
X50174746Y48406508D01*
X50166592Y48409559D01*
X50084778Y48449500D01*
X50033569Y48474500D01*
X49767172Y48604554D01*
X49740600Y48623514D01*
X49311011Y49053103D01*
X49292051Y49079675D01*
X49273349Y49117984D01*
X49092869Y49487672D01*
X49091392Y49493186D01*
X49083526Y49506810D01*
X49082019Y49509898D01*
X49082018Y49509900D01*
X49064972Y49544816D01*
X49058597Y49556847D01*
X49057770Y49558291D01*
X49056882Y49559824D01*
X49054432Y49562433D01*
X49040865Y49580700D01*
X49025500Y49607314D01*
X48932314Y49700500D01*
X48932311Y49700502D01*
X48932309Y49700504D01*
X48818189Y49766391D01*
X48818191Y49766391D01*
X48768799Y49779625D01*
X48690892Y49800500D01*
X48559108Y49800500D01*
X48481200Y49779625D01*
X48431809Y49766391D01*
X48317690Y49700504D01*
X48224496Y49607310D01*
X48158609Y49493191D01*
X48142778Y49434108D01*
X48124500Y49365892D01*
X46182222Y49365892D01*
X46200500Y49434108D01*
X46200500Y49565892D01*
X46166392Y49693186D01*
X46139589Y49739610D01*
X46129908Y49762720D01*
X46128380Y49768246D01*
X46128377Y49768251D01*
X46128375Y49768257D01*
X46011064Y50001408D01*
X46000500Y50045905D01*
X46000500Y50049563D01*
X46000499Y50049565D01*
X45980021Y50125989D01*
X45980019Y50125993D01*
X45940461Y50194509D01*
X45940460Y50194511D01*
X45900368Y50234603D01*
X45884511Y50250461D01*
X45884511Y50250460D01*
X45874322Y50260649D01*
X45871173Y50264158D01*
X45869477Y50265755D01*
X45869475Y50265757D01*
X45869472Y50265759D01*
X45866128Y50268907D01*
X45863985Y50270987D01*
X45851594Y50283378D01*
X49282014Y50283378D01*
X49282014Y50151594D01*
X49289626Y50123186D01*
X49316123Y50024296D01*
X49382010Y49910177D01*
X49382012Y49910175D01*
X49382014Y49910172D01*
X49475200Y49816986D01*
X49491160Y49807772D01*
X49518552Y49791956D01*
X49523289Y49789221D01*
X49541063Y49776154D01*
X49566676Y49764172D01*
X49581055Y49755871D01*
X49589324Y49751096D01*
X49589328Y49751094D01*
X49593321Y49750025D01*
X49609639Y49744075D01*
X50009740Y49556905D01*
X50037793Y49537236D01*
X50444746Y49130283D01*
X50464415Y49102229D01*
X50643010Y48720460D01*
X50655282Y48694227D01*
X50658608Y48681814D01*
X50671682Y48659169D01*
X50673488Y48655309D01*
X50673488Y48655308D01*
X50683667Y48633547D01*
X50690673Y48619920D01*
X50691506Y48618438D01*
X50691527Y48618402D01*
X50693306Y48615301D01*
X50693308Y48615299D01*
X50695075Y48613417D01*
X50708645Y48595146D01*
X50724497Y48567691D01*
X50724500Y48567686D01*
X50817686Y48474500D01*
X50817688Y48474499D01*
X50817690Y48474497D01*
X50931810Y48408610D01*
X50931808Y48408610D01*
X50931812Y48408609D01*
X50931814Y48408608D01*
X51059108Y48374500D01*
X51059110Y48374500D01*
X51190890Y48374500D01*
X51190892Y48374500D01*
X51318186Y48408608D01*
X51318188Y48408610D01*
X51318190Y48408610D01*
X51432309Y48474497D01*
X51432309Y48474498D01*
X51432314Y48474500D01*
X51525500Y48567686D01*
X51547080Y48605064D01*
X51591390Y48681810D01*
X51591390Y48681812D01*
X51591392Y48681814D01*
X51625500Y48809108D01*
X51625500Y48940892D01*
X51591392Y49068186D01*
X51591390Y49068189D01*
X51591390Y49068191D01*
X51525503Y49182310D01*
X51525501Y49182312D01*
X51525500Y49182314D01*
X51432314Y49275500D01*
X51384231Y49303261D01*
X51366450Y49316333D01*
X51340832Y49328318D01*
X51337138Y49330451D01*
X51318189Y49341391D01*
X51318184Y49341393D01*
X51314194Y49342462D01*
X51297873Y49348414D01*
X50897772Y49535584D01*
X50869718Y49555253D01*
X50462765Y49962206D01*
X50443096Y49990261D01*
X50283732Y50330924D01*
X50267143Y50366385D01*
X64340845Y50366385D01*
X64340845Y50234601D01*
X64367795Y50134023D01*
X64374954Y50107303D01*
X64440841Y49993184D01*
X64440843Y49993182D01*
X64440845Y49993179D01*
X64534031Y49899993D01*
X64564746Y49882259D01*
X64577761Y49873287D01*
X64589875Y49863420D01*
X64589876Y49863420D01*
X64589878Y49863418D01*
X65048316Y49620535D01*
X65071971Y49603058D01*
X65406231Y49268798D01*
X65434008Y49214281D01*
X65434411Y49186112D01*
X65403354Y48945681D01*
X65403182Y48941252D01*
X65402484Y48941280D01*
X65399978Y48917680D01*
X65399501Y48915901D01*
X65399500Y48915894D01*
X65399500Y48915892D01*
X65399500Y48784108D01*
X65417246Y48717878D01*
X65433609Y48656810D01*
X65499496Y48542691D01*
X65499498Y48542689D01*
X65499500Y48542686D01*
X65592686Y48449500D01*
X65592688Y48449499D01*
X65592690Y48449497D01*
X65706810Y48383610D01*
X65706808Y48383610D01*
X65706812Y48383609D01*
X65706814Y48383608D01*
X65834108Y48349500D01*
X65834110Y48349500D01*
X65965890Y48349500D01*
X65965892Y48349500D01*
X66093186Y48383608D01*
X66093188Y48383610D01*
X66093190Y48383610D01*
X66207309Y48449497D01*
X66207309Y48449498D01*
X66207314Y48449500D01*
X66300500Y48542686D01*
X66300503Y48542691D01*
X66366390Y48656810D01*
X66366390Y48656812D01*
X66366392Y48656814D01*
X66400500Y48784108D01*
X66400500Y48915892D01*
X66366392Y49043186D01*
X66366390Y49043189D01*
X66366390Y49043191D01*
X66300503Y49157310D01*
X66300499Y49157315D01*
X66300089Y49157725D01*
X66293679Y49164787D01*
X66198908Y49279867D01*
X66183243Y49310303D01*
X66182504Y49309996D01*
X66180020Y49315992D01*
X66140463Y49384507D01*
X66140459Y49384512D01*
X65986707Y49538265D01*
X65986707Y49538264D01*
X65983331Y49541640D01*
X65964834Y49564101D01*
X65958268Y49571689D01*
X65957509Y49572524D01*
X65940452Y49584519D01*
X65504798Y50020173D01*
X65483194Y50052641D01*
X65329382Y50428039D01*
X65328988Y50428702D01*
X65328641Y50429525D01*
X65327753Y50431305D01*
X65327866Y50431362D01*
X65318456Y50453671D01*
X65307737Y50493679D01*
X65241845Y50607807D01*
X65148659Y50700993D01*
X65148656Y50700995D01*
X65148654Y50700997D01*
X65034534Y50766884D01*
X65034536Y50766884D01*
X64985144Y50780118D01*
X64907237Y50800993D01*
X64775453Y50800993D01*
X64697545Y50780118D01*
X64648154Y50766884D01*
X64534035Y50700997D01*
X64440841Y50607803D01*
X64374954Y50493684D01*
X64357365Y50428039D01*
X64340845Y50366385D01*
X50267143Y50366385D01*
X50255928Y50390358D01*
X50249974Y50406687D01*
X50248907Y50410670D01*
X50248906Y50410672D01*
X50244657Y50418031D01*
X50237948Y50429650D01*
X50234027Y50437172D01*
X50223846Y50458937D01*
X50216835Y50472575D01*
X50215986Y50474085D01*
X50214207Y50477186D01*
X50212438Y50479070D01*
X50198865Y50497345D01*
X50183015Y50524798D01*
X50183014Y50524800D01*
X50089828Y50617986D01*
X50089825Y50617988D01*
X50089823Y50617990D01*
X49975703Y50683877D01*
X49975705Y50683877D01*
X49911810Y50700997D01*
X49848406Y50717986D01*
X49716622Y50717986D01*
X49653218Y50700997D01*
X49589323Y50683877D01*
X49475204Y50617990D01*
X49382010Y50524796D01*
X49316123Y50410677D01*
X49312295Y50396391D01*
X49282014Y50283378D01*
X45851594Y50283378D01*
X45594511Y50540460D01*
X45566138Y50556842D01*
X45566138Y50556841D01*
X45525989Y50580021D01*
X45525988Y50580022D01*
X45525987Y50580022D01*
X45449564Y50600500D01*
X45449562Y50600500D01*
X33560438Y50600500D01*
X33560435Y50600500D01*
X33484012Y50580022D01*
X33443862Y50556841D01*
X33443861Y50556842D01*
X33415490Y50540461D01*
X6454525Y23579496D01*
X6400008Y23551719D01*
X6384521Y23550500D01*
X5890644Y23550500D01*
X5846310Y23560982D01*
X4697493Y24136370D01*
X4697486Y24136373D01*
X4695526Y24137039D01*
X4693155Y24137844D01*
X4679349Y24143737D01*
X4674531Y24146241D01*
X4622598Y24180941D01*
X4549592Y24211182D01*
X4545789Y24213158D01*
X4527192Y24232059D01*
X4507036Y24249274D01*
X4505997Y24253600D01*
X4502876Y24256772D01*
X4498941Y24282989D01*
X4492752Y24308768D01*
X4494455Y24312881D01*
X4493795Y24317280D01*
X4506021Y24340802D01*
X4516167Y24365296D01*
X4519960Y24367621D01*
X4522013Y24371569D01*
X4545726Y24383411D01*
X4568336Y24397266D01*
X4575068Y24398063D01*
X4576753Y24398904D01*
X4579005Y24398529D01*
X4591447Y24400001D01*
X4774986Y24400001D01*
X4877687Y24410493D01*
X4877699Y24410496D01*
X5044124Y24465644D01*
X5193340Y24557681D01*
X5317319Y24681660D01*
X5409356Y24830876D01*
X5464506Y24997307D01*
X5475000Y25100013D01*
X5475000Y25499999D01*
X5474999Y25500000D01*
X4404146Y25500000D01*
X4442630Y25566657D01*
X4475000Y25687465D01*
X4475000Y25812535D01*
X4442630Y25933343D01*
X4404146Y26000000D01*
X5474998Y26000000D01*
X5474999Y26000001D01*
X5474999Y26399987D01*
X5464507Y26502688D01*
X5464504Y26502700D01*
X5409356Y26669125D01*
X5317319Y26818341D01*
X5193340Y26942320D01*
X5044124Y27034357D01*
X4877693Y27089507D01*
X4774987Y27100000D01*
X4250001Y27100000D01*
X4250000Y27099999D01*
X4250000Y26154146D01*
X4183343Y26192630D01*
X4062535Y26225000D01*
X3937465Y26225000D01*
X3816657Y26192630D01*
X3750000Y26154146D01*
X3750000Y27099999D01*
X3749999Y27100000D01*
X3225013Y27100000D01*
X3122312Y27089508D01*
X3122300Y27089505D01*
X2955875Y27034357D01*
X2806659Y26942320D01*
X2682680Y26818341D01*
X2590643Y26669125D01*
X2535493Y26502694D01*
X2525000Y26399988D01*
X400500Y26399988D01*
X400500Y33453468D01*
X2824500Y33453468D01*
X2824500Y33246533D01*
X2864869Y33043582D01*
X2944058Y32852403D01*
X3059020Y32680349D01*
X3059023Y32680345D01*
X3205345Y32534023D01*
X3377402Y32419059D01*
X3568580Y32339870D01*
X3771535Y32299500D01*
X3771536Y32299500D01*
X4228464Y32299500D01*
X4228465Y32299500D01*
X4431420Y32339870D01*
X4622598Y32419059D01*
X4666538Y32448420D01*
X4688907Y32459571D01*
X4691762Y32460569D01*
X4691774Y32460571D01*
X5844968Y32995315D01*
X5886615Y33004500D01*
X9622851Y33004500D01*
X9622853Y33004500D01*
X9705639Y33026682D01*
X9705641Y33026684D01*
X9705643Y33026684D01*
X9779857Y33069532D01*
X9779857Y33069533D01*
X9779862Y33069535D01*
X20576217Y43865892D01*
X24299500Y43865892D01*
X24299500Y43734108D01*
X24329579Y43621849D01*
X24333609Y43606810D01*
X24399496Y43492691D01*
X24399498Y43492689D01*
X24399500Y43492686D01*
X24492686Y43399500D01*
X24492688Y43399499D01*
X24492690Y43399497D01*
X24606810Y43333610D01*
X24606808Y43333610D01*
X24606812Y43333609D01*
X24606814Y43333608D01*
X24734108Y43299500D01*
X24734110Y43299500D01*
X24865890Y43299500D01*
X24865892Y43299500D01*
X24993186Y43333608D01*
X24993188Y43333610D01*
X24993190Y43333610D01*
X25107309Y43399497D01*
X25107309Y43399498D01*
X25107314Y43399500D01*
X25200500Y43492686D01*
X25266392Y43606814D01*
X25300500Y43734108D01*
X25300500Y43865892D01*
X25266392Y43993186D01*
X25266390Y43993189D01*
X25266390Y43993191D01*
X25200503Y44107310D01*
X25200501Y44107312D01*
X25200500Y44107314D01*
X25107314Y44200500D01*
X25107311Y44200502D01*
X25107309Y44200504D01*
X24993189Y44266391D01*
X24993191Y44266391D01*
X24943799Y44279625D01*
X24865892Y44300500D01*
X24734108Y44300500D01*
X24656200Y44279625D01*
X24606809Y44266391D01*
X24492690Y44200504D01*
X24399496Y44107310D01*
X24333609Y43993191D01*
X24333608Y43993186D01*
X24299500Y43865892D01*
X20576217Y43865892D01*
X24065586Y47355262D01*
X24089918Y47373092D01*
X24549911Y47612223D01*
X24559561Y47617573D01*
X24560632Y47618205D01*
X24564125Y47621498D01*
X24582519Y47635186D01*
X24607314Y47649500D01*
X24700500Y47742686D01*
X24709573Y47758401D01*
X24766390Y47856810D01*
X24766390Y47856812D01*
X24766392Y47856814D01*
X24800500Y47984108D01*
X24800500Y48115892D01*
X24766392Y48243186D01*
X24766390Y48243189D01*
X24766390Y48243191D01*
X24700503Y48357310D01*
X24700501Y48357312D01*
X24700500Y48357314D01*
X24607314Y48450500D01*
X24607311Y48450502D01*
X24607309Y48450504D01*
X24493189Y48516391D01*
X24493191Y48516391D01*
X24426598Y48534234D01*
X24365892Y48550500D01*
X24234108Y48550500D01*
X24173402Y48534234D01*
X24106809Y48516391D01*
X23992690Y48450504D01*
X23899498Y48357312D01*
X23880775Y48324884D01*
X23872286Y48312467D01*
X23862227Y48299920D01*
X23862223Y48299914D01*
X23623092Y47839924D01*
X23605257Y47815585D01*
X9474169Y33684496D01*
X9419652Y33656719D01*
X9404165Y33655500D01*
X5890195Y33655500D01*
X5846153Y33665836D01*
X4696865Y34236716D01*
X4696860Y34236718D01*
X4693019Y34238013D01*
X4669639Y34249509D01*
X4622598Y34280941D01*
X4622595Y34280943D01*
X4622594Y34280943D01*
X4431418Y34360131D01*
X4228467Y34400500D01*
X4228465Y34400500D01*
X3771535Y34400500D01*
X3771532Y34400500D01*
X3568581Y34360131D01*
X3377402Y34280942D01*
X3205348Y34165980D01*
X3059020Y34019652D01*
X2944058Y33847598D01*
X2864869Y33656419D01*
X2824500Y33453468D01*
X400500Y33453468D01*
X400500Y35953468D01*
X2824500Y35953468D01*
X2824500Y35746533D01*
X2864869Y35543582D01*
X2944058Y35352403D01*
X2944059Y35352402D01*
X3059023Y35180345D01*
X3205345Y35034023D01*
X3377402Y34919059D01*
X3568580Y34839870D01*
X3771535Y34799500D01*
X3771536Y34799500D01*
X4228464Y34799500D01*
X4228465Y34799500D01*
X4431420Y34839870D01*
X4622598Y34919059D01*
X4667137Y34948820D01*
X4688874Y34959748D01*
X4693060Y34961242D01*
X4693066Y34961243D01*
X5521863Y35352403D01*
X5845253Y35505030D01*
X5887507Y35514500D01*
X8102851Y35514500D01*
X8102853Y35514500D01*
X8185639Y35536682D01*
X8185641Y35536684D01*
X8185643Y35536684D01*
X8259857Y35579532D01*
X8259857Y35579533D01*
X8259862Y35579535D01*
X13815830Y41135505D01*
X13870347Y41163281D01*
X13885834Y41164500D01*
X14442989Y41164500D01*
X14472809Y41159902D01*
X14695661Y41089500D01*
X14967141Y41003736D01*
X14967153Y41003733D01*
X14967158Y41003731D01*
X14977667Y41000716D01*
X14978871Y41000405D01*
X14983690Y41000262D01*
X15006374Y40996932D01*
X15025111Y40991911D01*
X15034107Y40989500D01*
X15034108Y40989500D01*
X15165890Y40989500D01*
X15165892Y40989500D01*
X15293186Y41023608D01*
X15293188Y41023610D01*
X15293190Y41023610D01*
X15407309Y41089497D01*
X15407309Y41089498D01*
X15407314Y41089500D01*
X15500500Y41182686D01*
X15514908Y41207641D01*
X15566390Y41296810D01*
X15566390Y41296812D01*
X15566392Y41296814D01*
X15600500Y41424108D01*
X15600500Y41555892D01*
X15566392Y41683186D01*
X15566390Y41683189D01*
X15566390Y41683191D01*
X15500503Y41797310D01*
X15500501Y41797312D01*
X15500500Y41797314D01*
X15407314Y41890500D01*
X15407311Y41890502D01*
X15407309Y41890504D01*
X15293189Y41956391D01*
X15293191Y41956391D01*
X15243799Y41969625D01*
X15165892Y41990500D01*
X15034108Y41990500D01*
X15020373Y41986821D01*
X14997932Y41980808D01*
X14983150Y41978031D01*
X14967158Y41976270D01*
X14472808Y41820099D01*
X14442986Y41815500D01*
X13758932Y41815500D01*
X13758916Y41815501D01*
X13752853Y41815501D01*
X13667147Y41815501D01*
X13656647Y41812688D01*
X13599277Y41797316D01*
X13599278Y41797315D01*
X13584363Y41793319D01*
X13510135Y41750463D01*
X13449534Y41689863D01*
X13449535Y41689862D01*
X7954169Y36194496D01*
X7899652Y36166719D01*
X7884165Y36165500D01*
X5889298Y36165500D01*
X5845846Y36175545D01*
X5748037Y36223322D01*
X4695611Y36737401D01*
X4695605Y36737403D01*
X4695601Y36737405D01*
X4692741Y36738353D01*
X4668898Y36750006D01*
X4622600Y36780941D01*
X4431418Y36860131D01*
X4228467Y36900500D01*
X4228465Y36900500D01*
X3771535Y36900500D01*
X3771532Y36900500D01*
X3568581Y36860131D01*
X3377402Y36780942D01*
X3205348Y36665980D01*
X3059020Y36519652D01*
X2944058Y36347598D01*
X2864869Y36156419D01*
X2824500Y35953468D01*
X400500Y35953468D01*
X400500Y38453468D01*
X2824500Y38453468D01*
X2824500Y38246533D01*
X2864869Y38043582D01*
X2944058Y37852403D01*
X2944059Y37852402D01*
X3059023Y37680345D01*
X3205345Y37534023D01*
X3377402Y37419059D01*
X3568580Y37339870D01*
X3771535Y37299500D01*
X3771536Y37299500D01*
X4228464Y37299500D01*
X4228465Y37299500D01*
X4431420Y37339870D01*
X4622598Y37419059D01*
X4667961Y37449371D01*
X4690132Y37459268D01*
X4689773Y37460253D01*
X4694331Y37461916D01*
X4694346Y37461919D01*
X5845545Y38014744D01*
X5888401Y38024500D01*
X6542851Y38024500D01*
X6542853Y38024500D01*
X6625639Y38046682D01*
X6625641Y38046684D01*
X6625643Y38046684D01*
X6699857Y38089532D01*
X6699857Y38089533D01*
X6699862Y38089535D01*
X9730465Y41120138D01*
X9755374Y41163281D01*
X9757968Y41167774D01*
X9766577Y41182686D01*
X9773318Y41194362D01*
X9795500Y41277147D01*
X9795500Y42884165D01*
X9814407Y42942356D01*
X9824496Y42954169D01*
X16445831Y49575504D01*
X16500348Y49603281D01*
X16515835Y49604500D01*
X16802989Y49604500D01*
X16832809Y49599902D01*
X17036403Y49535584D01*
X17327141Y49443736D01*
X17327153Y49443733D01*
X17327158Y49443731D01*
X17337667Y49440716D01*
X17338871Y49440405D01*
X17343690Y49440262D01*
X17366374Y49436932D01*
X17385111Y49431911D01*
X17394107Y49429500D01*
X17394108Y49429500D01*
X17525890Y49429500D01*
X17525892Y49429500D01*
X17653186Y49463608D01*
X17653188Y49463610D01*
X17653190Y49463610D01*
X17767309Y49529497D01*
X17767309Y49529498D01*
X17767314Y49529500D01*
X17860500Y49622686D01*
X17863338Y49627601D01*
X17926390Y49736810D01*
X17926390Y49736812D01*
X17926392Y49736814D01*
X17960500Y49864108D01*
X17960500Y49995892D01*
X17926392Y50123186D01*
X17926390Y50123189D01*
X17926390Y50123191D01*
X17860503Y50237310D01*
X17860501Y50237312D01*
X17860500Y50237314D01*
X17767314Y50330500D01*
X17767311Y50330502D01*
X17767309Y50330504D01*
X17653189Y50396391D01*
X17653191Y50396391D01*
X17599873Y50410677D01*
X17525892Y50430500D01*
X17394108Y50430500D01*
X17384934Y50428042D01*
X17357932Y50420808D01*
X17343150Y50418031D01*
X17327158Y50416270D01*
X16906496Y50283378D01*
X16845657Y50264158D01*
X16832808Y50260099D01*
X16802986Y50255500D01*
X16382853Y50255500D01*
X16297147Y50255500D01*
X16246478Y50241924D01*
X16214356Y50233317D01*
X16140142Y50190469D01*
X9209531Y43259858D01*
X9166683Y43185642D01*
X9164253Y43176572D01*
X9164253Y43176571D01*
X9144500Y43102852D01*
X9144500Y41495835D01*
X9125593Y41437644D01*
X9115504Y41425831D01*
X6394169Y38704496D01*
X6339652Y38676719D01*
X6324165Y38675500D01*
X5888402Y38675500D01*
X5845546Y38685257D01*
X4694343Y39238083D01*
X4694330Y39238088D01*
X4692476Y39238692D01*
X4668151Y39250504D01*
X4622605Y39280938D01*
X4622596Y39280942D01*
X4431418Y39360131D01*
X4228467Y39400500D01*
X4228465Y39400500D01*
X3771535Y39400500D01*
X3771532Y39400500D01*
X3568581Y39360131D01*
X3377402Y39280942D01*
X3205348Y39165980D01*
X3059020Y39019652D01*
X2944058Y38847598D01*
X2864869Y38656419D01*
X2824500Y38453468D01*
X400500Y38453468D01*
X400500Y41504275D01*
X2824500Y41504275D01*
X2824500Y40195726D01*
X2827353Y40165306D01*
X2827355Y40165297D01*
X2872207Y40037117D01*
X2952845Y39927856D01*
X2952847Y39927854D01*
X2952850Y39927850D01*
X2952853Y39927848D01*
X2952855Y39927846D01*
X3062116Y39847208D01*
X3062117Y39847208D01*
X3062118Y39847207D01*
X3190301Y39802354D01*
X3220725Y39799501D01*
X3220727Y39799500D01*
X3220734Y39799500D01*
X4779273Y39799500D01*
X4779273Y39799501D01*
X4809699Y39802354D01*
X4937882Y39847207D01*
X5047150Y39927850D01*
X5127793Y40037118D01*
X5172646Y40165301D01*
X5175499Y40195727D01*
X5175500Y40195727D01*
X5175500Y41504273D01*
X5175499Y41504275D01*
X5172646Y41534695D01*
X5172646Y41534699D01*
X5127793Y41662882D01*
X5112804Y41683191D01*
X5047154Y41772145D01*
X5047152Y41772147D01*
X5047150Y41772150D01*
X5047146Y41772153D01*
X5047144Y41772155D01*
X4937883Y41852793D01*
X4809703Y41897645D01*
X4809694Y41897647D01*
X4779274Y41900500D01*
X4779266Y41900500D01*
X3220734Y41900500D01*
X3220725Y41900500D01*
X3190305Y41897647D01*
X3190296Y41897645D01*
X3062116Y41852793D01*
X2952855Y41772155D01*
X2952845Y41772145D01*
X2872207Y41662884D01*
X2827355Y41534704D01*
X2827353Y41534695D01*
X2824500Y41504275D01*
X400500Y41504275D01*
X400500Y48553468D01*
X2824500Y48553468D01*
X2824500Y48346533D01*
X2864869Y48143582D01*
X2944058Y47952403D01*
X3050777Y47792686D01*
X3059023Y47780345D01*
X3205345Y47634023D01*
X3377402Y47519059D01*
X3568580Y47439870D01*
X3771535Y47399500D01*
X3771536Y47399500D01*
X4228464Y47399500D01*
X4228465Y47399500D01*
X4431420Y47439870D01*
X4622598Y47519059D01*
X4794655Y47634023D01*
X4940977Y47780345D01*
X5055941Y47952402D01*
X5135130Y48143580D01*
X5175500Y48346535D01*
X5175500Y48553465D01*
X5135130Y48756420D01*
X5055941Y48947598D01*
X4940977Y49119655D01*
X4794655Y49265977D01*
X4794651Y49265980D01*
X4622597Y49380942D01*
X4431418Y49460131D01*
X4228467Y49500500D01*
X4228465Y49500500D01*
X3771535Y49500500D01*
X3771532Y49500500D01*
X3568581Y49460131D01*
X3377402Y49380942D01*
X3205348Y49265980D01*
X3059020Y49119652D01*
X2944058Y48947598D01*
X2864869Y48756419D01*
X2824500Y48553468D01*
X400500Y48553468D01*
X400500Y51053468D01*
X2824500Y51053468D01*
X2824500Y50846533D01*
X2864869Y50643582D01*
X2944058Y50452403D01*
X3056996Y50283378D01*
X3059023Y50280345D01*
X3205345Y50134023D01*
X3377402Y50019059D01*
X3568580Y49939870D01*
X3771535Y49899500D01*
X3771536Y49899500D01*
X4228464Y49899500D01*
X4228465Y49899500D01*
X4431420Y49939870D01*
X4622598Y50019059D01*
X4794655Y50134023D01*
X4940977Y50280345D01*
X5055941Y50452402D01*
X5135130Y50643580D01*
X5175500Y50846535D01*
X5175500Y51053465D01*
X5135130Y51256420D01*
X5055941Y51447598D01*
X4940977Y51619655D01*
X4794655Y51765977D01*
X4622598Y51880941D01*
X4622599Y51880941D01*
X4622597Y51880942D01*
X4431418Y51960131D01*
X4228467Y52000500D01*
X4228465Y52000500D01*
X3771535Y52000500D01*
X3771532Y52000500D01*
X3568581Y51960131D01*
X3377402Y51880942D01*
X3205348Y51765980D01*
X3059020Y51619652D01*
X2944058Y51447598D01*
X2864869Y51256419D01*
X2824500Y51053468D01*
X400500Y51053468D01*
X400500Y56599988D01*
X2525000Y56599988D01*
X2525000Y56200001D01*
X2525001Y56200000D01*
X3595854Y56200000D01*
X3557370Y56133343D01*
X3525000Y56012535D01*
X3525000Y55887465D01*
X3557370Y55766657D01*
X3595854Y55700000D01*
X2525002Y55700000D01*
X2525001Y55699999D01*
X2525001Y55300014D01*
X2535492Y55197313D01*
X2535495Y55197301D01*
X2590643Y55030876D01*
X2682680Y54881660D01*
X2806659Y54757681D01*
X2955875Y54665644D01*
X3122306Y54610494D01*
X3225012Y54600001D01*
X3408549Y54600001D01*
X3466740Y54581094D01*
X3502704Y54531594D01*
X3502705Y54470409D01*
X3466741Y54420909D01*
X3446437Y54409537D01*
X3377401Y54380941D01*
X3205348Y54265980D01*
X3059020Y54119652D01*
X2944058Y53947598D01*
X2864869Y53756419D01*
X2824500Y53553468D01*
X2824500Y53346533D01*
X2864869Y53143582D01*
X2944058Y52952403D01*
X3023100Y52834108D01*
X3059023Y52780345D01*
X3205345Y52634023D01*
X3377402Y52519059D01*
X3568580Y52439870D01*
X3771535Y52399500D01*
X3771536Y52399500D01*
X4228464Y52399500D01*
X4228465Y52399500D01*
X4431420Y52439870D01*
X4622598Y52519059D01*
X4794655Y52634023D01*
X4940977Y52780345D01*
X5055941Y52952402D01*
X5135130Y53143580D01*
X5175500Y53346535D01*
X5175500Y53515892D01*
X6619500Y53515892D01*
X6619500Y53384108D01*
X6646428Y53283610D01*
X6653609Y53256810D01*
X6719496Y53142691D01*
X6719498Y53142689D01*
X6719500Y53142686D01*
X6812686Y53049500D01*
X6812688Y53049499D01*
X6812690Y53049497D01*
X6926810Y52983610D01*
X6926808Y52983610D01*
X6926812Y52983609D01*
X6926814Y52983608D01*
X7054108Y52949500D01*
X7054110Y52949500D01*
X7185890Y52949500D01*
X7185892Y52949500D01*
X7313186Y52983608D01*
X7313188Y52983610D01*
X7313190Y52983610D01*
X7427309Y53049497D01*
X7427309Y53049498D01*
X7427314Y53049500D01*
X7520500Y53142686D01*
X7557814Y53207315D01*
X7586390Y53256810D01*
X7586390Y53256812D01*
X7586392Y53256814D01*
X7620500Y53384108D01*
X7620500Y53515892D01*
X7586392Y53643186D01*
X7586390Y53643189D01*
X7586390Y53643191D01*
X7520503Y53757310D01*
X7520501Y53757312D01*
X7520500Y53757314D01*
X7461922Y53815892D01*
X18259500Y53815892D01*
X18259500Y53684108D01*
X18270464Y53643191D01*
X18293609Y53556810D01*
X18359496Y53442691D01*
X18359498Y53442689D01*
X18359500Y53442686D01*
X18452686Y53349500D01*
X18452688Y53349499D01*
X18452690Y53349497D01*
X18566810Y53283610D01*
X18566808Y53283610D01*
X18566812Y53283609D01*
X18566814Y53283608D01*
X18694108Y53249500D01*
X18694110Y53249500D01*
X18825890Y53249500D01*
X18825892Y53249500D01*
X18953186Y53283608D01*
X18953188Y53283610D01*
X18953190Y53283610D01*
X19067309Y53349497D01*
X19067309Y53349498D01*
X19067314Y53349500D01*
X19160500Y53442686D01*
X19204993Y53519750D01*
X19226390Y53556810D01*
X19226390Y53556812D01*
X19226392Y53556814D01*
X19260500Y53684108D01*
X19260500Y53815892D01*
X19226392Y53943186D01*
X19226390Y53943189D01*
X19226390Y53943191D01*
X19160503Y54057310D01*
X19160501Y54057312D01*
X19160500Y54057314D01*
X19067314Y54150500D01*
X19067311Y54150502D01*
X19067309Y54150504D01*
X18953189Y54216391D01*
X18953190Y54216391D01*
X18950914Y54217001D01*
X18938396Y54220355D01*
X18887083Y54253678D01*
X18865157Y54310800D01*
X18880993Y54369900D01*
X18928543Y54408406D01*
X18938389Y54411605D01*
X18983186Y54423608D01*
X19097314Y54489500D01*
X19190500Y54582686D01*
X19200787Y54600504D01*
X19256390Y54696810D01*
X19256390Y54696812D01*
X19256392Y54696814D01*
X19290500Y54824108D01*
X19290500Y54895892D01*
X19779500Y54895892D01*
X19779500Y54764108D01*
X19796544Y54700500D01*
X19813609Y54636810D01*
X19879496Y54522691D01*
X19879498Y54522689D01*
X19879500Y54522686D01*
X19972686Y54429500D01*
X19982891Y54423608D01*
X20048486Y54385736D01*
X20089426Y54340266D01*
X20095821Y54279416D01*
X20065228Y54226428D01*
X20048486Y54214264D01*
X19972688Y54170502D01*
X19879496Y54077310D01*
X19813609Y53963191D01*
X19810209Y53950500D01*
X19779500Y53835892D01*
X19779500Y53704108D01*
X19784859Y53684108D01*
X19813609Y53576810D01*
X19879496Y53462691D01*
X19879498Y53462689D01*
X19879500Y53462686D01*
X19972686Y53369500D01*
X19972688Y53369499D01*
X19972690Y53369497D01*
X20086810Y53303610D01*
X20086808Y53303610D01*
X20086812Y53303609D01*
X20086814Y53303608D01*
X20214108Y53269500D01*
X20214110Y53269500D01*
X20345890Y53269500D01*
X20345892Y53269500D01*
X20473186Y53303608D01*
X20473188Y53303610D01*
X20473190Y53303610D01*
X20587309Y53369497D01*
X20587309Y53369498D01*
X20587314Y53369500D01*
X20680500Y53462686D01*
X20713446Y53519750D01*
X20746390Y53576810D01*
X20746390Y53576812D01*
X20746392Y53576814D01*
X20780500Y53704108D01*
X20780500Y53835892D01*
X20746392Y53963186D01*
X20746390Y53963189D01*
X20746390Y53963191D01*
X20680503Y54077310D01*
X20680501Y54077312D01*
X20680500Y54077314D01*
X20587314Y54170500D01*
X20587311Y54170502D01*
X20587309Y54170504D01*
X20511514Y54214264D01*
X20470573Y54259733D01*
X20464177Y54320583D01*
X20494770Y54373571D01*
X20511514Y54385736D01*
X20587309Y54429497D01*
X20587309Y54429498D01*
X20587314Y54429500D01*
X20680500Y54522686D01*
X20732144Y54612135D01*
X20746390Y54636810D01*
X20746390Y54636812D01*
X20746392Y54636814D01*
X20780500Y54764108D01*
X20780500Y54895892D01*
X20746392Y55023186D01*
X20746390Y55023189D01*
X20746390Y55023191D01*
X20680503Y55137310D01*
X20680501Y55137312D01*
X20680500Y55137314D01*
X20587314Y55230500D01*
X20587311Y55230502D01*
X20587309Y55230504D01*
X20473189Y55296391D01*
X20473191Y55296391D01*
X20423799Y55309625D01*
X20345892Y55330500D01*
X20214108Y55330500D01*
X20136200Y55309625D01*
X20086809Y55296391D01*
X19972690Y55230504D01*
X19879496Y55137310D01*
X19813609Y55023191D01*
X19813608Y55023186D01*
X19779500Y54895892D01*
X19290500Y54895892D01*
X19290500Y54955892D01*
X19256392Y55083186D01*
X19256390Y55083189D01*
X19256390Y55083191D01*
X19190503Y55197310D01*
X19190501Y55197312D01*
X19190500Y55197314D01*
X19097314Y55290500D01*
X19097311Y55290502D01*
X19097309Y55290504D01*
X18983189Y55356391D01*
X18983191Y55356391D01*
X18933799Y55369625D01*
X18855892Y55390500D01*
X18724108Y55390500D01*
X18646200Y55369625D01*
X18596809Y55356391D01*
X18482690Y55290504D01*
X18389496Y55197310D01*
X18323609Y55083191D01*
X18307531Y55023186D01*
X18289500Y54955892D01*
X18289500Y54824108D01*
X18305577Y54764108D01*
X18323609Y54696810D01*
X18389496Y54582691D01*
X18389498Y54582689D01*
X18389500Y54582686D01*
X18482686Y54489500D01*
X18482688Y54489499D01*
X18482690Y54489497D01*
X18596810Y54423610D01*
X18596811Y54423610D01*
X18596814Y54423608D01*
X18611598Y54419647D01*
X18662914Y54386325D01*
X18684842Y54329204D01*
X18669008Y54270103D01*
X18621459Y54231597D01*
X18611603Y54228394D01*
X18566812Y54216392D01*
X18566810Y54216391D01*
X18452690Y54150504D01*
X18359496Y54057310D01*
X18293609Y53943191D01*
X18286428Y53916391D01*
X18259500Y53815892D01*
X7461922Y53815892D01*
X7427314Y53850500D01*
X7427311Y53850502D01*
X7427309Y53850504D01*
X7313189Y53916391D01*
X7313191Y53916391D01*
X7263799Y53929625D01*
X7185892Y53950500D01*
X7054108Y53950500D01*
X6976200Y53929625D01*
X6926809Y53916391D01*
X6812690Y53850504D01*
X6719496Y53757310D01*
X6653609Y53643191D01*
X6653608Y53643186D01*
X6619500Y53515892D01*
X5175500Y53515892D01*
X5175500Y53553465D01*
X5135130Y53756420D01*
X5055941Y53947598D01*
X4940977Y54119655D01*
X4794655Y54265977D01*
X4774542Y54279416D01*
X4622597Y54380942D01*
X4556292Y54408406D01*
X4553560Y54409538D01*
X4507036Y54449274D01*
X4492752Y54508768D01*
X4516167Y54565296D01*
X4568336Y54597266D01*
X4591447Y54600001D01*
X4774986Y54600001D01*
X4877687Y54610493D01*
X4877699Y54610496D01*
X5044124Y54665644D01*
X5193340Y54757681D01*
X5317319Y54881660D01*
X5409356Y55030876D01*
X5464506Y55197307D01*
X5475000Y55300013D01*
X5475000Y55699999D01*
X5474999Y55700000D01*
X4404146Y55700000D01*
X4442630Y55766657D01*
X4475000Y55887465D01*
X4475000Y56012535D01*
X4459602Y56070000D01*
X62555137Y56070000D01*
X63358012Y56070000D01*
X63340795Y56060060D01*
X63284940Y56004205D01*
X63245444Y55935796D01*
X63225000Y55859496D01*
X63225000Y55780504D01*
X63245444Y55704204D01*
X63284940Y55635795D01*
X63340795Y55579940D01*
X63358012Y55570000D01*
X62555137Y55570000D01*
X62563428Y55528316D01*
X62563431Y55528305D01*
X62638808Y55346327D01*
X62638814Y55346315D01*
X62748249Y55182538D01*
X62748252Y55182534D01*
X62887533Y55043253D01*
X62887537Y55043250D01*
X63051314Y54933815D01*
X63051326Y54933809D01*
X63233310Y54858430D01*
X63426506Y54820001D01*
X63426510Y54820000D01*
X63824999Y54820000D01*
X63825000Y54820001D01*
X63825000Y55520000D01*
X64325000Y55520000D01*
X64325000Y54955805D01*
X64306093Y54897614D01*
X64275502Y54870070D01*
X64241639Y54850519D01*
X64134481Y54743361D01*
X64058720Y54612140D01*
X64046169Y54565296D01*
X64019500Y54465766D01*
X64019500Y54314234D01*
X64045717Y54216391D01*
X64058720Y54167861D01*
X64134481Y54036640D01*
X64134483Y54036638D01*
X64134485Y54036635D01*
X64241635Y53929485D01*
X64241637Y53929484D01*
X64241639Y53929482D01*
X64372861Y53853721D01*
X64372859Y53853721D01*
X64372863Y53853720D01*
X64372865Y53853719D01*
X64519234Y53814500D01*
X64519236Y53814500D01*
X64670764Y53814500D01*
X64670766Y53814500D01*
X64817135Y53853719D01*
X64895844Y53899163D01*
X64955691Y53911884D01*
X65011587Y53886998D01*
X65042180Y53834010D01*
X65035785Y53773160D01*
X65015348Y53743422D01*
X64853440Y53581514D01*
X64825710Y53561998D01*
X64425688Y53373095D01*
X64425686Y53373094D01*
X64417638Y53369293D01*
X64406814Y53366392D01*
X64385787Y53354254D01*
X64382088Y53352506D01*
X64382086Y53352506D01*
X64357808Y53341040D01*
X64344496Y53334150D01*
X64343062Y53333340D01*
X64340269Y53331735D01*
X64338214Y53329804D01*
X64319954Y53316245D01*
X64292685Y53300501D01*
X64199500Y53207315D01*
X64199496Y53207310D01*
X64133609Y53093191D01*
X64133608Y53093186D01*
X64099500Y52965892D01*
X64099500Y52834108D01*
X64113905Y52780349D01*
X64133609Y52706810D01*
X64199496Y52592691D01*
X64199498Y52592689D01*
X64199500Y52592686D01*
X64292686Y52499500D01*
X64292688Y52499499D01*
X64292690Y52499497D01*
X64406810Y52433610D01*
X64406808Y52433610D01*
X64406812Y52433609D01*
X64406814Y52433608D01*
X64534108Y52399500D01*
X64534110Y52399500D01*
X64665890Y52399500D01*
X64665892Y52399500D01*
X64793186Y52433608D01*
X64793188Y52433610D01*
X64793190Y52433610D01*
X64907309Y52499497D01*
X64907309Y52499498D01*
X64907314Y52499500D01*
X65000500Y52592686D01*
X65028826Y52641750D01*
X65041623Y52659289D01*
X65052480Y52682719D01*
X65066392Y52706814D01*
X65067946Y52712617D01*
X65073744Y52728605D01*
X65259173Y53128748D01*
X65278989Y53157121D01*
X65641621Y53519753D01*
X65669668Y53539417D01*
X66077667Y53730281D01*
X66090085Y53733608D01*
X66112740Y53746688D01*
X66138349Y53758668D01*
X66151987Y53765679D01*
X66153497Y53766528D01*
X66156598Y53768307D01*
X66158479Y53770074D01*
X66176752Y53783647D01*
X66204213Y53799500D01*
X66297399Y53892686D01*
X66334540Y53957016D01*
X66363289Y54006810D01*
X66363289Y54006812D01*
X66363291Y54006814D01*
X66397399Y54134108D01*
X66397399Y54265892D01*
X66363291Y54393186D01*
X66363289Y54393189D01*
X66363289Y54393191D01*
X66297402Y54507310D01*
X66297400Y54507312D01*
X66297399Y54507314D01*
X66204213Y54600500D01*
X66204210Y54600502D01*
X66204208Y54600504D01*
X66090088Y54666391D01*
X66090090Y54666391D01*
X66040698Y54679625D01*
X65962791Y54700500D01*
X65831007Y54700500D01*
X65753099Y54679625D01*
X65703708Y54666391D01*
X65589589Y54600504D01*
X65496398Y54507313D01*
X65471372Y54463971D01*
X65471373Y54463970D01*
X65468638Y54459233D01*
X65455566Y54441452D01*
X65443575Y54415824D01*
X65441441Y54412126D01*
X65441439Y54412125D01*
X65430509Y54393193D01*
X65430506Y54393185D01*
X65429440Y54389204D01*
X65423487Y54372880D01*
X65344214Y54203424D01*
X65302430Y54158728D01*
X65242355Y54147127D01*
X65186934Y54173053D01*
X65157337Y54226604D01*
X65158913Y54270994D01*
X65170500Y54314234D01*
X65170500Y54465766D01*
X65131281Y54612135D01*
X65131279Y54612138D01*
X65131279Y54612140D01*
X65055518Y54743361D01*
X65055516Y54743363D01*
X65055515Y54743365D01*
X65038256Y54760624D01*
X65010481Y54815138D01*
X65020052Y54875570D01*
X65063317Y54918835D01*
X65070379Y54922090D01*
X65098675Y54933811D01*
X65098685Y54933815D01*
X65262462Y55043250D01*
X65262466Y55043253D01*
X65401747Y55182534D01*
X65401750Y55182538D01*
X65511185Y55346315D01*
X65511191Y55346327D01*
X65586568Y55528305D01*
X65586571Y55528316D01*
X65594863Y55570000D01*
X64791988Y55570000D01*
X64809205Y55579940D01*
X64865060Y55635795D01*
X64904556Y55704204D01*
X64925000Y55780504D01*
X64925000Y55859496D01*
X64904556Y55935796D01*
X64865060Y56004205D01*
X64809205Y56060060D01*
X64791988Y56070000D01*
X65594862Y56070000D01*
X65586571Y56111685D01*
X65586568Y56111696D01*
X65511191Y56293674D01*
X65511185Y56293686D01*
X65401750Y56457463D01*
X65401747Y56457467D01*
X65262466Y56596748D01*
X65262462Y56596751D01*
X65098685Y56706186D01*
X65098673Y56706192D01*
X64916689Y56781571D01*
X64723493Y56820000D01*
X64325001Y56820000D01*
X64325000Y56819999D01*
X64325000Y56120000D01*
X63825000Y56120000D01*
X63825000Y56819999D01*
X63824999Y56820000D01*
X63426506Y56820000D01*
X63233311Y56781571D01*
X63233309Y56781571D01*
X63051326Y56706192D01*
X63051314Y56706186D01*
X62887537Y56596751D01*
X62887533Y56596748D01*
X62748252Y56457467D01*
X62748249Y56457463D01*
X62638814Y56293686D01*
X62638808Y56293674D01*
X62563431Y56111696D01*
X62563428Y56111685D01*
X62555137Y56070000D01*
X4459602Y56070000D01*
X4442630Y56133343D01*
X4404146Y56200000D01*
X5474998Y56200000D01*
X5474999Y56200001D01*
X5474999Y56599987D01*
X5464507Y56702688D01*
X5464504Y56702700D01*
X5409356Y56869125D01*
X5317319Y57018341D01*
X5193340Y57142320D01*
X5044124Y57234357D01*
X4877693Y57289507D01*
X4774987Y57300000D01*
X4250001Y57300000D01*
X4250000Y57299999D01*
X4250000Y56354146D01*
X4183343Y56392630D01*
X4062535Y56425000D01*
X3937465Y56425000D01*
X3816657Y56392630D01*
X3750000Y56354146D01*
X3750000Y57299999D01*
X3749999Y57300000D01*
X3225013Y57300000D01*
X3122312Y57289508D01*
X3122300Y57289505D01*
X2955875Y57234357D01*
X2806659Y57142320D01*
X2682680Y57018341D01*
X2590643Y56869125D01*
X2535493Y56702694D01*
X2525000Y56599988D01*
X400500Y56599988D01*
X400500Y63345892D01*
X13549500Y63345892D01*
X13549500Y63214108D01*
X13579579Y63101849D01*
X13583609Y63086810D01*
X13649496Y62972691D01*
X13649498Y62972689D01*
X13649500Y62972686D01*
X13742686Y62879500D01*
X13742688Y62879499D01*
X13742690Y62879497D01*
X13856810Y62813610D01*
X13856808Y62813610D01*
X13856812Y62813609D01*
X13856814Y62813608D01*
X13984108Y62779500D01*
X13984110Y62779500D01*
X14115890Y62779500D01*
X14115892Y62779500D01*
X14243186Y62813608D01*
X14243188Y62813610D01*
X14243190Y62813610D01*
X14357309Y62879497D01*
X14357309Y62879498D01*
X14357314Y62879500D01*
X14450500Y62972686D01*
X14516392Y63086814D01*
X14550500Y63214108D01*
X14550500Y63345892D01*
X14516392Y63473186D01*
X14516390Y63473189D01*
X14516390Y63473191D01*
X14450503Y63587310D01*
X14450501Y63587312D01*
X14450500Y63587314D01*
X14357314Y63680500D01*
X14357311Y63680502D01*
X14357309Y63680504D01*
X14243189Y63746391D01*
X14243191Y63746391D01*
X14193799Y63759625D01*
X14115892Y63780500D01*
X13984108Y63780500D01*
X13906200Y63759625D01*
X13856809Y63746391D01*
X13742690Y63680504D01*
X13649496Y63587310D01*
X13583609Y63473191D01*
X13583608Y63473186D01*
X13549500Y63345892D01*
X400500Y63345892D01*
X400500Y65997565D01*
X400619Y66002423D01*
X403572Y66062535D01*
X411724Y66228464D01*
X12999500Y66228464D01*
X12999500Y65771533D01*
X13039869Y65568582D01*
X13119058Y65377403D01*
X13220881Y65225013D01*
X13234023Y65205345D01*
X13380345Y65059023D01*
X13552402Y64944059D01*
X13743580Y64864870D01*
X13946535Y64824500D01*
X13946536Y64824500D01*
X14153464Y64824500D01*
X14153465Y64824500D01*
X14356420Y64864870D01*
X14547598Y64944059D01*
X14719655Y65059023D01*
X14865977Y65205345D01*
X14980941Y65377402D01*
X15060130Y65568580D01*
X15100500Y65771535D01*
X15100500Y66228464D01*
X15499500Y66228464D01*
X15499500Y65771533D01*
X15539869Y65568582D01*
X15619058Y65377403D01*
X15720881Y65225013D01*
X15734023Y65205345D01*
X15880345Y65059023D01*
X16052402Y64944059D01*
X16243580Y64864870D01*
X16446535Y64824500D01*
X16446536Y64824500D01*
X16653464Y64824500D01*
X16653465Y64824500D01*
X16856420Y64864870D01*
X17047598Y64944059D01*
X17219655Y65059023D01*
X17365977Y65205345D01*
X17480941Y65377402D01*
X17560130Y65568580D01*
X17600500Y65771535D01*
X17600500Y66228464D01*
X17999500Y66228464D01*
X17999500Y65771533D01*
X18039869Y65568582D01*
X18119058Y65377403D01*
X18220881Y65225013D01*
X18234023Y65205345D01*
X18380345Y65059023D01*
X18552402Y64944059D01*
X18743580Y64864870D01*
X18946535Y64824500D01*
X18946536Y64824500D01*
X19153464Y64824500D01*
X19153465Y64824500D01*
X19356420Y64864870D01*
X19547598Y64944059D01*
X19719655Y65059023D01*
X19865977Y65205345D01*
X19980941Y65377402D01*
X20009537Y65446441D01*
X20049272Y65492964D01*
X20108766Y65507248D01*
X20165294Y65483834D01*
X20197264Y65431665D01*
X20200000Y65408554D01*
X20200000Y65225014D01*
X20210492Y65122313D01*
X20210495Y65122301D01*
X20265643Y64955876D01*
X20357680Y64806660D01*
X20481659Y64682681D01*
X20630875Y64590644D01*
X20797306Y64535494D01*
X20900012Y64525001D01*
X21299998Y64525001D01*
X21300000Y64525002D01*
X21300000Y65595855D01*
X21366657Y65557370D01*
X21487465Y65525000D01*
X21612535Y65525000D01*
X21733343Y65557370D01*
X21800000Y65595855D01*
X21800000Y64525002D01*
X21800001Y64525001D01*
X22199986Y64525001D01*
X22302687Y64535493D01*
X22302699Y64535496D01*
X22469124Y64590644D01*
X22618340Y64682681D01*
X22742319Y64806660D01*
X22834356Y64955876D01*
X22889506Y65122307D01*
X22900000Y65225013D01*
X22900000Y65749999D01*
X22899999Y65750000D01*
X21954146Y65750000D01*
X21992630Y65816657D01*
X22025000Y65937465D01*
X22025000Y66062535D01*
X22009257Y66121290D01*
X36049500Y66121290D01*
X36049500Y65878711D01*
X36081161Y65638219D01*
X36081161Y65638214D01*
X36143944Y65403908D01*
X36143948Y65403895D01*
X36236772Y65179796D01*
X36236774Y65179792D01*
X36236776Y65179788D01*
X36306500Y65059023D01*
X36358066Y64969708D01*
X36505729Y64777269D01*
X36505731Y64777267D01*
X36505735Y64777262D01*
X36677262Y64605735D01*
X36677266Y64605732D01*
X36677268Y64605730D01*
X36782477Y64525001D01*
X36869711Y64458064D01*
X37079788Y64336776D01*
X37303900Y64243946D01*
X37538211Y64181162D01*
X37778712Y64149500D01*
X37778713Y64149500D01*
X38021287Y64149500D01*
X38021288Y64149500D01*
X38261789Y64181162D01*
X38496100Y64243946D01*
X38720212Y64336776D01*
X38930289Y64458064D01*
X39122738Y64605735D01*
X39294265Y64777262D01*
X39441936Y64969711D01*
X39563224Y65179788D01*
X39656054Y65403900D01*
X39718838Y65638211D01*
X39750500Y65878712D01*
X39750500Y66121288D01*
X39750500Y66121290D01*
X42974409Y66121290D01*
X42974409Y65878711D01*
X43006070Y65638219D01*
X43006070Y65638214D01*
X43068853Y65403908D01*
X43068857Y65403895D01*
X43161681Y65179796D01*
X43161683Y65179792D01*
X43161685Y65179788D01*
X43231409Y65059023D01*
X43282975Y64969708D01*
X43430638Y64777269D01*
X43430640Y64777267D01*
X43430644Y64777262D01*
X43602171Y64605735D01*
X43602175Y64605732D01*
X43602177Y64605730D01*
X43707386Y64525001D01*
X43794620Y64458064D01*
X44004697Y64336776D01*
X44228809Y64243946D01*
X44463120Y64181162D01*
X44703621Y64149500D01*
X44703622Y64149500D01*
X44946196Y64149500D01*
X44946197Y64149500D01*
X45186698Y64181162D01*
X45421009Y64243946D01*
X45645121Y64336776D01*
X45855198Y64458064D01*
X46047647Y64605735D01*
X46219174Y64777262D01*
X46366845Y64969711D01*
X46488133Y65179788D01*
X46580963Y65403900D01*
X46643747Y65638211D01*
X46675409Y65878712D01*
X46675409Y66121288D01*
X46643747Y66361789D01*
X46580963Y66596100D01*
X46488133Y66820212D01*
X46366845Y67030289D01*
X46219174Y67222738D01*
X46047647Y67394265D01*
X46047642Y67394269D01*
X46047640Y67394271D01*
X45855201Y67541934D01*
X45855198Y67541936D01*
X45645121Y67663224D01*
X45645117Y67663226D01*
X45645113Y67663228D01*
X45421014Y67756052D01*
X45421013Y67756053D01*
X45421009Y67756054D01*
X45186698Y67818838D01*
X45186695Y67818839D01*
X45186693Y67818839D01*
X44946198Y67850500D01*
X44946197Y67850500D01*
X44703621Y67850500D01*
X44703619Y67850500D01*
X44463127Y67818839D01*
X44463122Y67818839D01*
X44228816Y67756056D01*
X44228803Y67756052D01*
X44004704Y67663228D01*
X43794616Y67541934D01*
X43602177Y67394271D01*
X43430638Y67222732D01*
X43282975Y67030293D01*
X43161681Y66820205D01*
X43068857Y66596106D01*
X43068853Y66596093D01*
X43006070Y66361787D01*
X43006070Y66361782D01*
X42974409Y66121290D01*
X39750500Y66121290D01*
X39718838Y66361789D01*
X39656054Y66596100D01*
X39563224Y66820212D01*
X39441936Y67030289D01*
X39294265Y67222738D01*
X39122738Y67394265D01*
X39122733Y67394269D01*
X39122731Y67394271D01*
X38930292Y67541934D01*
X38930289Y67541936D01*
X38720212Y67663224D01*
X38720208Y67663226D01*
X38720204Y67663228D01*
X38496105Y67756052D01*
X38496104Y67756053D01*
X38496100Y67756054D01*
X38261789Y67818838D01*
X38261786Y67818839D01*
X38261784Y67818839D01*
X38021289Y67850500D01*
X38021288Y67850500D01*
X37778712Y67850500D01*
X37778710Y67850500D01*
X37538218Y67818839D01*
X37538213Y67818839D01*
X37303907Y67756056D01*
X37303894Y67756052D01*
X37079795Y67663228D01*
X36869707Y67541934D01*
X36677268Y67394271D01*
X36505729Y67222732D01*
X36358066Y67030293D01*
X36236772Y66820205D01*
X36143948Y66596106D01*
X36143944Y66596093D01*
X36081161Y66361787D01*
X36081161Y66361782D01*
X36049500Y66121290D01*
X22009257Y66121290D01*
X21992630Y66183343D01*
X21954146Y66250000D01*
X22899998Y66250000D01*
X22899999Y66250001D01*
X22899999Y66774987D01*
X22889507Y66877688D01*
X22889504Y66877700D01*
X22834356Y67044125D01*
X22742319Y67193341D01*
X22618340Y67317320D01*
X22469124Y67409357D01*
X22302693Y67464507D01*
X22199987Y67475000D01*
X21800001Y67475000D01*
X21800000Y67474999D01*
X21800000Y66404146D01*
X21733343Y66442630D01*
X21612535Y66475000D01*
X21487465Y66475000D01*
X21366657Y66442630D01*
X21300000Y66404146D01*
X21300000Y67474999D01*
X21299999Y67475000D01*
X20900013Y67475000D01*
X20797312Y67464508D01*
X20797300Y67464505D01*
X20630875Y67409357D01*
X20481659Y67317320D01*
X20357680Y67193341D01*
X20265643Y67044125D01*
X20210493Y66877694D01*
X20200000Y66774988D01*
X20200000Y66591450D01*
X20181093Y66533259D01*
X20131593Y66497295D01*
X20070407Y66497295D01*
X20020907Y66533259D01*
X20009536Y66553564D01*
X19980941Y66622598D01*
X19865979Y66794652D01*
X19865977Y66794655D01*
X19719655Y66940977D01*
X19618490Y67008573D01*
X19547597Y67055942D01*
X19356418Y67135131D01*
X19153467Y67175500D01*
X19153465Y67175500D01*
X18946535Y67175500D01*
X18946532Y67175500D01*
X18743581Y67135131D01*
X18552402Y67055942D01*
X18380348Y66940980D01*
X18234020Y66794652D01*
X18119058Y66622598D01*
X18039869Y66431419D01*
X17999501Y66228471D01*
X17999500Y66228464D01*
X17600500Y66228464D01*
X17600500Y66228465D01*
X17596216Y66250000D01*
X17560130Y66431419D01*
X17555486Y66442630D01*
X17480941Y66622598D01*
X17365977Y66794655D01*
X17219655Y66940977D01*
X17118490Y67008573D01*
X17047597Y67055942D01*
X16856418Y67135131D01*
X16653467Y67175500D01*
X16653465Y67175500D01*
X16446535Y67175500D01*
X16446532Y67175500D01*
X16243581Y67135131D01*
X16052402Y67055942D01*
X15880348Y66940980D01*
X15734020Y66794652D01*
X15619058Y66622598D01*
X15539869Y66431419D01*
X15499501Y66228471D01*
X15499500Y66228464D01*
X15100500Y66228464D01*
X15100500Y66228465D01*
X15096216Y66250000D01*
X15060130Y66431419D01*
X15055486Y66442630D01*
X14980941Y66622598D01*
X14865977Y66794655D01*
X14719655Y66940977D01*
X14618490Y67008573D01*
X14547597Y67055942D01*
X14356418Y67135131D01*
X14153467Y67175500D01*
X14153465Y67175500D01*
X13946535Y67175500D01*
X13946532Y67175500D01*
X13743581Y67135131D01*
X13552402Y67055942D01*
X13380348Y66940980D01*
X13234020Y66794652D01*
X13119058Y66622598D01*
X13039869Y66431419D01*
X12999501Y66228471D01*
X12999500Y66228464D01*
X411724Y66228464D01*
X417594Y66347960D01*
X418546Y66357622D01*
X439265Y66497295D01*
X468951Y66697429D01*
X470846Y66706952D01*
X492814Y66794652D01*
X554315Y67040179D01*
X557124Y67049439D01*
X672861Y67372901D01*
X676570Y67381856D01*
X823456Y67692420D01*
X828014Y67700946D01*
X1004627Y67995609D01*
X1010012Y68003670D01*
X1214665Y68279611D01*
X1220807Y68287095D01*
X1451517Y68541644D01*
X1458356Y68548483D01*
X1712905Y68779193D01*
X1720389Y68785335D01*
X1996330Y68989988D01*
X2004391Y68995373D01*
X2299054Y69171986D01*
X2307580Y69176544D01*
X2618144Y69323430D01*
X2627099Y69327139D01*
X2950561Y69442876D01*
X2959821Y69445685D01*
X3293053Y69529156D01*
X3302571Y69531049D01*
X3642384Y69581455D01*
X3652040Y69582406D01*
X3997578Y69599381D01*
X4002436Y69599500D01*
X4057583Y69599500D01*
X65942417Y69599500D01*
X65997564Y69599500D01*
X66002422Y69599381D01*
G37*
G04 #@! TD.AperFunction*
G04 #@! TD*
G04 #@! TA.AperFunction,Conductor*
G04 #@! TO.N,GND*
G36*
X14399441Y18566671D02*
G01*
X14150000Y18399000D01*
X13855764Y18458527D01*
X14025000Y18994236D01*
X14175000Y18994236D01*
X14399441Y18566671D01*
G37*
G04 #@! TD.AperFunction*
G04 #@! TD*
G04 #@! TA.AperFunction,Conductor*
G04 #@! TO.N,PIT*
G36*
X19487785Y22289344D02*
G01*
X19493716Y22282635D01*
X19494120Y22281150D01*
X19550530Y22002320D01*
X19550530Y21997680D01*
X19494120Y21718851D01*
X19489120Y21711422D01*
X19480332Y21709703D01*
X19478847Y21710107D01*
X18963659Y21887285D01*
X18956950Y21893216D01*
X18955764Y21898349D01*
X18955764Y22101652D01*
X18959191Y22109925D01*
X18963656Y22112715D01*
X19478847Y22289894D01*
X19487785Y22289344D01*
G37*
G04 #@! TD.AperFunction*
G04 #@! TD*
G04 #@! TA.AperFunction,Conductor*
G04 #@! TO.N,PIT*
G36*
X18137319Y22608947D02*
G01*
X18137582Y22608766D01*
X18851132Y22101176D01*
X18855887Y22093588D01*
X18853884Y22084860D01*
X18852623Y22083369D01*
X18708931Y21939677D01*
X18704023Y21936744D01*
X17959860Y21713305D01*
X17950950Y21714208D01*
X17945289Y21721146D01*
X17945022Y21722216D01*
X17850247Y22195938D01*
X17851984Y22204719D01*
X18121085Y22605752D01*
X18128540Y22610712D01*
X18137319Y22608947D01*
G37*
G04 #@! TD.AperFunction*
G04 #@! TD*
G04 #@! TA.AperFunction,Conductor*
G04 #@! TO.N,MEAT1*
G36*
X16121775Y24060545D02*
G01*
X16123201Y24059331D01*
X16267023Y23915509D01*
X16269908Y23910755D01*
X16498781Y23184980D01*
X16498001Y23176059D01*
X16491142Y23170303D01*
X16489918Y23169988D01*
X16016374Y23075248D01*
X16007590Y23076986D01*
X16007560Y23077006D01*
X15606627Y23346040D01*
X15601666Y23353495D01*
X15603431Y23362274D01*
X15603641Y23362577D01*
X16105443Y24057907D01*
X16113061Y24062608D01*
X16121775Y24060545D01*
G37*
G04 #@! TD.AperFunction*
G04 #@! TD*
G04 #@! TA.AperFunction,Conductor*
G04 #@! TO.N,MEAT1*
G36*
X20177936Y21388131D02*
G01*
X20185254Y21384744D01*
X20328864Y21241134D01*
X20332291Y21232861D01*
X20328864Y21224588D01*
X20328222Y21223992D01*
X19931752Y20882830D01*
X19923246Y20880032D01*
X19915252Y20884068D01*
X19914414Y20885167D01*
X19757115Y21118923D01*
X19755339Y21127699D01*
X19811574Y21407712D01*
X19816563Y21415146D01*
X19823997Y21417067D01*
X20177936Y21388131D01*
G37*
G04 #@! TD.AperFunction*
G04 #@! TD*
G04 #@! TA.AperFunction,Conductor*
G04 #@! TO.N,MEAT2*
G36*
X18440646Y19215318D02*
G01*
X18442342Y19214385D01*
X18679004Y19057369D01*
X18682285Y19054088D01*
X18839814Y18816654D01*
X18841533Y18807866D01*
X18836533Y18800437D01*
X18835561Y18799857D01*
X18360096Y18546864D01*
X18351183Y18546003D01*
X18346327Y18548920D01*
X18202581Y18692666D01*
X18199154Y18700939D01*
X18200172Y18705711D01*
X18425193Y19209410D01*
X18431695Y19215564D01*
X18440646Y19215318D01*
G37*
G04 #@! TD.AperFunction*
G04 #@! TD*
G04 #@! TA.AperFunction,Conductor*
G04 #@! TO.N,MEAT2*
G36*
X16420193Y19066698D02*
G01*
X16421231Y19064768D01*
X16787531Y18197224D01*
X16787592Y18188269D01*
X16785025Y18184400D01*
X16640362Y18039737D01*
X16632089Y18036310D01*
X16627974Y18037057D01*
X15911737Y18306120D01*
X15905198Y18312238D01*
X15904373Y18319336D01*
X15998350Y18795930D01*
X16003313Y18803382D01*
X16403971Y19069959D01*
X16412757Y19071688D01*
X16420193Y19066698D01*
G37*
G04 #@! TD.AperFunction*
G04 #@! TD*
G04 #@! TA.AperFunction,Conductor*
G04 #@! TO.N,MEAT3*
G36*
X21631653Y18425919D02*
G01*
X21637958Y18419560D01*
X21638598Y18417449D01*
X21694850Y18139399D01*
X21694850Y18134759D01*
X21638598Y17856710D01*
X21633598Y17849281D01*
X21624810Y17847562D01*
X21622699Y17848202D01*
X21107353Y18059105D01*
X21100994Y18065410D01*
X21100084Y18069933D01*
X21100084Y18204226D01*
X21103511Y18212499D01*
X21107353Y18215054D01*
X21622700Y18425957D01*
X21631653Y18425919D01*
G37*
G04 #@! TD.AperFunction*
G04 #@! TD*
G04 #@! TA.AperFunction,Conductor*
G04 #@! TO.N,DISP_DC*
G36*
X4605384Y39052836D02*
G01*
X5802033Y38478186D01*
X5808006Y38471516D01*
X5808667Y38467640D01*
X5808667Y38232361D01*
X5805240Y38224088D01*
X5802032Y38221814D01*
X4605387Y37647166D01*
X4596446Y37646674D01*
X4591392Y37650154D01*
X4107504Y38221814D01*
X4005397Y38342442D01*
X4002668Y38350970D01*
X4005398Y38357559D01*
X4591393Y39049848D01*
X4599352Y39053948D01*
X4605384Y39052836D01*
G37*
G04 #@! TD.AperFunction*
G04 #@! TD*
G04 #@! TA.AperFunction,Conductor*
G04 #@! TO.N,DISP_DC*
G36*
X17397983Y50219540D02*
G01*
X17403743Y50212683D01*
X17404054Y50211479D01*
X17460530Y49932320D01*
X17460530Y49927680D01*
X17404054Y49648522D01*
X17399054Y49641093D01*
X17390266Y49639374D01*
X17389062Y49639685D01*
X16873940Y49802418D01*
X16867083Y49808178D01*
X16865764Y49813575D01*
X16865764Y50046426D01*
X16869191Y50054699D01*
X16873940Y50057583D01*
X17389063Y50220316D01*
X17397983Y50219540D01*
G37*
G04 #@! TD.AperFunction*
G04 #@! TD*
G04 #@! TA.AperFunction,Conductor*
G04 #@! TO.N,DISP_BL*
G36*
X4605443Y34052672D02*
G01*
X5802173Y33458226D01*
X5808057Y33451478D01*
X5808667Y33447749D01*
X5808667Y33212471D01*
X5805240Y33204198D01*
X5801889Y33201857D01*
X4605325Y32647003D01*
X4596378Y32646631D01*
X4591473Y32650058D01*
X4124397Y33201857D01*
X4005397Y33342442D01*
X4002668Y33350970D01*
X4005398Y33357559D01*
X4591313Y34049754D01*
X4599271Y34053853D01*
X4605443Y34052672D01*
G37*
G04 #@! TD.AperFunction*
G04 #@! TD*
G04 #@! TA.AperFunction,Conductor*
G04 #@! TO.N,DISP_BL*
G36*
X24060333Y48210108D02*
G01*
X24061400Y48209479D01*
X24287419Y48059523D01*
X24298734Y48052016D01*
X24302015Y48048735D01*
X24459475Y47811405D01*
X24461194Y47802617D01*
X24456194Y47795188D01*
X24455123Y47794556D01*
X23975808Y47545379D01*
X23966887Y47544603D01*
X23962138Y47547487D01*
X23797486Y47712139D01*
X23794059Y47720412D01*
X23795377Y47725806D01*
X24044557Y48205126D01*
X24051412Y48210884D01*
X24060333Y48210108D01*
G37*
G04 #@! TD.AperFunction*
G04 #@! TD*
G04 #@! TA.AperFunction,Conductor*
G04 #@! TO.N,DISP_CS*
G36*
X4605416Y36552753D02*
G01*
X5802102Y35968207D01*
X5808032Y35961497D01*
X5808667Y35957694D01*
X5808667Y35722417D01*
X5805240Y35714144D01*
X5801961Y35711836D01*
X4605356Y35147085D01*
X4596411Y35146653D01*
X4591432Y35150107D01*
X4115950Y35711836D01*
X4005397Y35842442D01*
X4002668Y35850970D01*
X4005398Y35857559D01*
X4591352Y36549801D01*
X4599311Y36553900D01*
X4605416Y36552753D01*
G37*
G04 #@! TD.AperFunction*
G04 #@! TD*
G04 #@! TA.AperFunction,Conductor*
G04 #@! TO.N,DISP_CS*
G36*
X15037983Y41779540D02*
G01*
X15043743Y41772683D01*
X15044054Y41771479D01*
X15100530Y41492320D01*
X15100530Y41487680D01*
X15044054Y41208522D01*
X15039054Y41201093D01*
X15030266Y41199374D01*
X15029062Y41199685D01*
X14513940Y41362418D01*
X14507083Y41368178D01*
X14505764Y41373575D01*
X14505764Y41606426D01*
X14509191Y41614699D01*
X14513940Y41617583D01*
X15029063Y41780316D01*
X15037983Y41779540D01*
G37*
G04 #@! TD.AperFunction*
G04 #@! TD*
G04 #@! TA.AperFunction,Conductor*
G04 #@! TO.N,ENC_CLK*
G36*
X4605595Y21452217D02*
G01*
X5802543Y20803320D01*
X5808183Y20796364D01*
X5808667Y20793034D01*
X5808667Y20607500D01*
X5805240Y20599227D01*
X5801853Y20596869D01*
X4605309Y20046962D01*
X4596361Y20046621D01*
X4591493Y20050034D01*
X4119620Y20607500D01*
X4005397Y20742442D01*
X4002668Y20750970D01*
X4005398Y20757559D01*
X4591091Y21449492D01*
X4599049Y21453591D01*
X4605595Y21452217D01*
G37*
G04 #@! TD.AperFunction*
G04 #@! TD*
G04 #@! TA.AperFunction,Conductor*
G04 #@! TO.N,ENC_CLK*
G36*
X45626280Y48692710D02*
G01*
X45627330Y48691506D01*
X45941961Y48276536D01*
X45944229Y48267873D01*
X45939707Y48260144D01*
X45939170Y48259760D01*
X45704756Y48102019D01*
X45695979Y48100243D01*
X45695920Y48100255D01*
X45416996Y48156272D01*
X45409560Y48161261D01*
X45407783Y48169804D01*
X45477155Y48557167D01*
X45480396Y48563372D01*
X45609735Y48692711D01*
X45618007Y48696137D01*
X45626280Y48692710D01*
G37*
G04 #@! TD.AperFunction*
G04 #@! TD*
G04 #@! TA.AperFunction,Conductor*
G04 #@! TO.N,ENC_DT*
G36*
X4605460Y23952630D02*
G01*
X5802207Y23353236D01*
X5808069Y23346467D01*
X5808667Y23342775D01*
X5808667Y23157226D01*
X5805240Y23148953D01*
X5802207Y23146765D01*
X4605461Y22547372D01*
X4596529Y22546731D01*
X4591291Y22550274D01*
X4083646Y23150000D01*
X4005397Y23242442D01*
X4002668Y23250970D01*
X4005398Y23257559D01*
X4591291Y23949727D01*
X4599251Y23953828D01*
X4605460Y23952630D01*
G37*
G04 #@! TD.AperFunction*
G04 #@! TD*
G04 #@! TA.AperFunction,Conductor*
G04 #@! TO.N,ENC_DT*
G36*
X45716243Y50128826D02*
G01*
X45718422Y50125812D01*
X45944807Y49675881D01*
X45945464Y49666950D01*
X45940887Y49660915D01*
X45704756Y49502019D01*
X45695979Y49500243D01*
X45695920Y49500255D01*
X45419211Y49555827D01*
X45411775Y49560816D01*
X45410044Y49569602D01*
X45410550Y49571381D01*
X45568838Y49996470D01*
X45571527Y50000656D01*
X45699698Y50128827D01*
X45707970Y50132253D01*
X45716243Y50128826D01*
G37*
G04 #@! TD.AperFunction*
G04 #@! TD*
G04 #@! TA.AperFunction,Conductor*
G04 #@! TO.N,ENC_SW*
G36*
X4605821Y18951386D02*
G01*
X5803166Y18203436D01*
X5808367Y18196148D01*
X5808667Y18193514D01*
X5808667Y18008036D01*
X5805240Y17999763D01*
X5801166Y17997116D01*
X4302084Y17420662D01*
X4293132Y17420891D01*
X4286965Y17427383D01*
X4286842Y17427716D01*
X4001211Y18243684D01*
X4001712Y18252625D01*
X4003322Y18255107D01*
X4590693Y18949022D01*
X4598653Y18953122D01*
X4605821Y18951386D01*
G37*
G04 #@! TD.AperFunction*
G04 #@! TD*
G04 #@! TA.AperFunction,Conductor*
G04 #@! TO.N,ENC_SW*
G36*
X45633221Y41095508D02*
G01*
X45634366Y41094176D01*
X45942195Y40676502D01*
X45944345Y40667810D01*
X45939718Y40660143D01*
X45939309Y40659854D01*
X45704756Y40502019D01*
X45695979Y40500243D01*
X45695920Y40500255D01*
X45417173Y40556236D01*
X45409737Y40561225D01*
X45407994Y40569949D01*
X45484189Y40960202D01*
X45487396Y40966229D01*
X45616676Y41095509D01*
X45624948Y41098935D01*
X45633221Y41095508D01*
G37*
G04 #@! TD.AperFunction*
G04 #@! TD*
G04 #@! TA.AperFunction,Conductor*
G04 #@! TO.N,I2C_SDA_3V3*
G36*
X50782949Y49362424D02*
G01*
X51093713Y49217047D01*
X51279373Y49130194D01*
X51285414Y49123584D01*
X51285013Y49114638D01*
X51284164Y49113128D01*
X51127015Y48876266D01*
X51123734Y48872985D01*
X50886872Y48715836D01*
X50878084Y48714117D01*
X50870655Y48719117D01*
X50869806Y48720627D01*
X50796997Y48876266D01*
X50637576Y49217049D01*
X50637176Y49225993D01*
X50639900Y49230276D01*
X50769723Y49360099D01*
X50777995Y49363525D01*
X50782949Y49362424D01*
G37*
G04 #@! TD.AperFunction*
G04 #@! TD*
G04 #@! TA.AperFunction,Conductor*
G04 #@! TO.N,I2C_SDA_3V3*
G36*
X50036858Y50373370D02*
G01*
X50037707Y50371860D01*
X50109594Y50218193D01*
X50229305Y49962293D01*
X50269936Y49875440D01*
X50270337Y49866494D01*
X50267611Y49862209D01*
X50137791Y49732389D01*
X50129518Y49728962D01*
X50124561Y49730064D01*
X49973942Y49800525D01*
X49628140Y49962293D01*
X49622099Y49968903D01*
X49622500Y49977849D01*
X49623349Y49979359D01*
X49780499Y50216223D01*
X49783777Y50219501D01*
X50020641Y50376652D01*
X50029429Y50378370D01*
X50036858Y50373370D01*
G37*
G04 #@! TD.AperFunction*
G04 #@! TD*
G04 #@! TA.AperFunction,Conductor*
G04 #@! TO.N,I2C_SCL_3V3*
G36*
X48879532Y49456009D02*
G01*
X48880297Y49454674D01*
X49119306Y48965097D01*
X49119856Y48956159D01*
X49117065Y48951691D01*
X48973309Y48807935D01*
X48965036Y48804508D01*
X48959903Y48805694D01*
X48470326Y49044703D01*
X48464395Y49051412D01*
X48464945Y49060350D01*
X48465705Y49061678D01*
X48622985Y49298737D01*
X48626263Y49302015D01*
X48863316Y49459291D01*
X48872103Y49461009D01*
X48879532Y49456009D01*
G37*
G04 #@! TD.AperFunction*
G04 #@! TD*
G04 #@! TA.AperFunction,Conductor*
G04 #@! TO.N,I2C_SCL_3V3*
G36*
X49652594Y48431808D02*
G01*
X49657186Y48429566D01*
X50142173Y48192798D01*
X50148104Y48186089D01*
X50147554Y48177151D01*
X50146789Y48175816D01*
X49989515Y47938766D01*
X49986234Y47935485D01*
X49749184Y47778211D01*
X49740396Y47776492D01*
X49732967Y47781492D01*
X49732202Y47782827D01*
X49534916Y48186941D01*
X49493192Y48272405D01*
X49492643Y48281342D01*
X49495432Y48285808D01*
X49639191Y48429567D01*
X49647463Y48432993D01*
X49652594Y48431808D01*
G37*
G04 #@! TD.AperFunction*
G04 #@! TD*
G04 #@! TA.AperFunction,Conductor*
G04 #@! TO.N,Net-(U3-CC1)*
G36*
X65805443Y49434299D02*
G01*
X65806202Y49433464D01*
X66141247Y49026621D01*
X66143861Y49018056D01*
X66139653Y49010151D01*
X66138747Y49009476D01*
X65904756Y48852019D01*
X65895979Y48850243D01*
X65895920Y48850255D01*
X65616461Y48906379D01*
X65609025Y48911368D01*
X65607161Y48919347D01*
X65656078Y49298039D01*
X65659408Y49304810D01*
X65788898Y49434300D01*
X65797170Y49437726D01*
X65805443Y49434299D01*
G37*
G04 #@! TD.AperFunction*
G04 #@! TD*
G04 #@! TA.AperFunction,Conductor*
G04 #@! TO.N,Net-(U3-CC1)*
G36*
X65134926Y50355400D02*
G01*
X65139225Y50350126D01*
X65257355Y50061814D01*
X65308372Y49937302D01*
X65308338Y49928347D01*
X65305819Y49924593D01*
X65176015Y49794789D01*
X65167742Y49791362D01*
X65162265Y49792723D01*
X64686085Y50045007D01*
X64680378Y50051909D01*
X64681223Y50060823D01*
X64681802Y50061797D01*
X64837937Y50297130D01*
X64845360Y50302126D01*
X65126148Y50357171D01*
X65134926Y50355400D01*
G37*
G04 #@! TD.AperFunction*
G04 #@! TD*
G04 #@! TA.AperFunction,Conductor*
G04 #@! TO.N,Net-(U3-CC2)*
G36*
X64953750Y53386626D02*
G01*
X65083569Y53256807D01*
X65086996Y53248534D01*
X65085912Y53243615D01*
X64855170Y52745693D01*
X64848582Y52739627D01*
X64839635Y52739996D01*
X64838086Y52740863D01*
X64601265Y52897985D01*
X64597984Y52901266D01*
X64440807Y53138170D01*
X64439088Y53146958D01*
X64444088Y53154387D01*
X64445547Y53155211D01*
X64940481Y53388934D01*
X64949425Y53389367D01*
X64953750Y53386626D01*
G37*
G04 #@! TD.AperFunction*
G04 #@! TD*
G04 #@! TA.AperFunction,Conductor*
G04 #@! TO.N,Net-(U3-CC2)*
G36*
X65657261Y54360014D02*
G01*
X65658771Y54359165D01*
X65895633Y54202016D01*
X65898914Y54198735D01*
X66056063Y53961873D01*
X66057782Y53953085D01*
X66052782Y53945656D01*
X66051272Y53944807D01*
X65554852Y53712578D01*
X65545906Y53712177D01*
X65541621Y53714903D01*
X65411801Y53844723D01*
X65408374Y53852996D01*
X65409474Y53857949D01*
X65641705Y54354375D01*
X65648315Y54360415D01*
X65657261Y54360014D01*
G37*
G04 #@! TD.AperFunction*
G04 #@! TD*
M02*
