#VRML V2.0 utf8

Shape {
  appearance Appearance {
    material Material {
      diffuseColor 1.0000 1.0000 1.0000
      specularColor 0.5020 0.5020 0.5020
      ambientIntensity 0.2
      transparency 0.0000
      shininess 0.5
    }
  }
  geometry IndexedFaceSet {
    ccw TRUE
    solid FALSE
    coord DEF co Coordinate {
      point [
        0.189952 0.130909 0.295963,
        0.189952 -0.130909 0.295963,
        0.196850 0.137807 0.098425,
        0.196850 -0.137807 0.098425,
        -0.170279 0.150582 0.295963,
        0.170279 0.150582 0.295963,
        -0.177177 0.157480 0.098425,
        0.177177 0.157480 0.098425,
        -0.196850 0.137807 0.098425,
        -0.196850 -0.137807 0.098425,
        -0.189952 0.130909 0.295963,
        -0.189952 -0.130909 0.295963,
        0.170279 -0.150582 0.295963,
        -0.170279 -0.150582 0.295963,
        0.177177 -0.157480 0.098425,
        -0.177177 -0.157480 0.098425,
        0.170279 -0.130909 0.314961,
        0.170279 0.130909 0.314961,
        -0.170279 -0.130909 0.314961,
        -0.170279 0.130909 0.314961,
        -0.194215 -0.147646 0.098425,
        -0.195353 -0.145338 0.098425,
        -0.184708 -0.155983 0.098425,
        -0.182270 0.156810 0.098425,
        -0.187016 0.154845 0.098425,
        -0.184708 0.155983 0.098425,
        -0.195353 0.145338 0.098425,
        -0.182270 -0.156810 0.098425,
        -0.196180 -0.142900 0.098425,
        0.194215 0.147646 0.098425,
        0.195353 0.145338 0.098425,
        0.184708 0.155983 0.098425,
        0.196180 -0.142900 0.098425,
        0.184708 -0.155983 0.098425,
        0.182270 -0.156810 0.098425,
        0.195353 -0.145338 0.098425,
        0.194215 -0.147646 0.098425,
        0.187016 -0.154845 0.098425,
        -0.196180 0.142900 0.098425,
        0.182270 0.156810 0.098425,
        0.196180 0.142900 0.098425,
        -0.187016 -0.154845 0.098425,
        -0.189155 -0.153416 0.098425,
        -0.192786 -0.149785 0.098425,
        -0.191090 -0.151720 0.098425,
        0.189155 -0.153416 0.098425,
        0.192786 -0.149785 0.098425,
        0.191090 -0.151720 0.098425,
        -0.194215 0.147646 0.098425,
        -0.192786 0.149785 0.098425,
        -0.189155 0.153416 0.098425,
        -0.191090 0.151720 0.098425,
        0.187016 0.154845 0.098425,
        0.189155 0.153416 0.098425,
        0.192786 0.149785 0.098425,
        0.191090 0.151720 0.098425,
        -0.189277 0.135997 0.296117,
        -0.187309 0.140739 0.296213,
        -0.184181 0.144811 0.296246,
        -0.180109 0.147939 0.296213,
        -0.175367 0.149907 0.296117,
        0.170279 0.149810 0.300776,
        -0.170279 0.149810 0.300776,
        0.170279 0.149750 0.300914,
        -0.170279 0.149750 0.300914,
        0.170279 0.147786 0.305409,
        -0.170279 0.147786 0.305409,
        0.170279 0.147711 0.305503,
        -0.170279 0.147711 0.305503,
        0.170279 0.144648 0.309373,
        -0.170279 0.144648 0.309373,
        0.170279 0.144577 0.309427,
        -0.170279 0.144577 0.309427,
        0.170279 0.140605 0.312407,
        -0.170279 0.140605 0.312407,
        0.170279 0.140550 0.312430,
        -0.170279 0.140550 0.312430,
        0.170279 0.135922 0.314311,
        -0.170279 0.135922 0.314311,
        0.170279 0.135893 0.314315,
        -0.170279 0.135893 0.314315,
        0.175367 0.149907 0.296117,
        0.180109 0.147939 0.296213,
        0.184181 0.144811 0.296246,
        0.187309 0.140739 0.296213,
        0.189277 0.135997 0.296117,
        -0.187081 0.130909 0.305503,
        -0.184019 0.130909 0.309373,
        -0.183550 0.134465 0.309373,
        -0.179645 0.133419 0.312407,
        -0.175122 0.132207 0.314311,
        -0.174621 0.133416 0.314311,
        -0.172786 0.135251 0.314311,
        -0.173824 0.134454 0.314311,
        -0.171577 0.135752 0.314311,
        -0.175263 0.130909 0.314315,
        -0.188536 0.135801 0.300776,
        -0.186648 0.140359 0.300776,
        -0.183644 0.144274 0.300776,
        -0.179730 0.147278 0.300776,
        -0.175171 0.149166 0.300776,
        -0.183947 0.130909 0.309427,
        -0.179975 0.130909 0.312407,
        -0.179920 0.130909 0.312430,
        -0.175293 0.130909 0.314311,
        -0.178676 0.135757 0.312407,
        -0.177135 0.137765 0.312407,
        -0.175127 0.139306 0.312407,
        -0.172789 0.140275 0.312407,
        -0.182178 0.137779 0.309373,
        -0.179994 0.140624 0.309373,
        -0.177149 0.142808 0.309373,
        -0.173835 0.144180 0.309373,
        -0.189120 0.130909 0.300914,
        -0.187156 0.130909 0.305409,
        -0.186581 0.135277 0.305409,
        -0.184895 0.139348 0.305409,
        -0.182213 0.142843 0.305409,
        -0.178718 0.145525 0.305409,
        -0.174647 0.147211 0.305409,
        -0.189180 0.130909 0.300776,
        0.173835 0.144180 0.309373,
        0.172789 0.140275 0.312407,
        0.171577 0.135752 0.314311,
        0.172786 0.135251 0.314311,
        0.174621 0.133416 0.314311,
        0.173824 0.134454 0.314311,
        0.175122 0.132207 0.314311,
        0.175171 0.149166 0.300776,
        0.179730 0.147278 0.300776,
        0.183644 0.144274 0.300776,
        0.186648 0.140359 0.300776,
        0.188536 0.135801 0.300776,
        0.189180 0.130909 0.300776,
        0.175263 0.130909 0.314315,
        0.175127 0.139306 0.312407,
        0.177135 0.137765 0.312407,
        0.178676 0.135757 0.312407,
        0.179645 0.133419 0.312407,
        0.175293 0.130909 0.314311,
        0.179920 0.130909 0.312430,
        0.179975 0.130909 0.312407,
        0.183947 0.130909 0.309427,
        0.177149 0.142808 0.309373,
        0.179994 0.140624 0.309373,
        0.182178 0.137779 0.309373,
        0.183550 0.134465 0.309373,
        0.174647 0.147211 0.305409,
        0.178718 0.145525 0.305409,
        0.182213 0.142843 0.305409,
        0.184895 0.139348 0.305409,
        0.186581 0.135277 0.305409,
        0.184019 0.130909 0.309373,
        0.187081 0.130909 0.305503,
        0.187156 0.130909 0.305409,
        0.189120 0.130909 0.300914,
        -0.175367 -0.149907 0.296117,
        -0.180109 -0.147939 0.296213,
        -0.184181 -0.144811 0.296246,
        -0.187309 -0.140739 0.296213,
        -0.189277 -0.135997 0.296117,
        -0.189180 -0.130909 0.300776,
        -0.189120 -0.130909 0.300914,
        -0.187156 -0.130909 0.305409,
        -0.187081 -0.130909 0.305503,
        -0.184019 -0.130909 0.309373,
        -0.183947 -0.130909 0.309427,
        -0.179975 -0.130909 0.312407,
        -0.179920 -0.130909 0.312430,
        -0.175293 -0.130909 0.314311,
        -0.175263 -0.130909 0.314315,
        0.189180 -0.130909 0.300776,
        0.189120 -0.130909 0.300914,
        0.187156 -0.130909 0.305409,
        0.187081 -0.130909 0.305503,
        0.184019 -0.130909 0.309373,
        0.183947 -0.130909 0.309427,
        0.179975 -0.130909 0.312407,
        0.179920 -0.130909 0.312430,
        0.175293 -0.130909 0.314311,
        0.175263 -0.130909 0.314315,
        0.189277 -0.135997 0.296117,
        0.187309 -0.140739 0.296213,
        0.184181 -0.144811 0.296246,
        0.180109 -0.147939 0.296213,
        0.175367 -0.149907 0.296117,
        -0.170279 -0.147711 0.305503,
        -0.170279 -0.144648 0.309373,
        -0.173835 -0.144180 0.309373,
        -0.172789 -0.140275 0.312407,
        -0.171577 -0.135752 0.314311,
        -0.172786 -0.135251 0.314311,
        -0.174621 -0.133416 0.314311,
        -0.173824 -0.134454 0.314311,
        -0.175122 -0.132207 0.314311,
        -0.170279 -0.135893 0.314315,
        -0.175171 -0.149166 0.300776,
        -0.179730 -0.147278 0.300776,
        -0.183644 -0.144274 0.300776,
        -0.186648 -0.140359 0.300776,
        -0.188536 -0.135801 0.300776,
        -0.170279 -0.144577 0.309427,
        -0.170279 -0.140605 0.312407,
        -0.170279 -0.140550 0.312430,
        -0.170279 -0.135922 0.314311,
        -0.175127 -0.139306 0.312407,
        -0.177135 -0.137765 0.312407,
        -0.178676 -0.135757 0.312407,
        -0.179645 -0.133419 0.312407,
        -0.177149 -0.142808 0.309373,
        -0.179994 -0.140624 0.309373,
        -0.182178 -0.137779 0.309373,
        -0.183550 -0.134465 0.309373,
        -0.170279 -0.149750 0.300914,
        -0.170279 -0.147786 0.305409,
        -0.174647 -0.147211 0.305409,
        -0.178718 -0.145525 0.305409,
        -0.182213 -0.142843 0.305409,
        -0.184895 -0.139348 0.305409,
        -0.186581 -0.135277 0.305409,
        -0.170279 -0.149810 0.300776,
        0.183550 -0.134465 0.309373,
        0.179645 -0.133419 0.312407,
        0.175122 -0.132207 0.314311,
        0.174621 -0.133416 0.314311,
        0.172786 -0.135251 0.314311,
        0.173824 -0.134454 0.314311,
        0.171577 -0.135752 0.314311,
        0.188536 -0.135801 0.300776,
        0.186648 -0.140359 0.300776,
        0.183644 -0.144274 0.300776,
        0.179730 -0.147278 0.300776,
        0.175171 -0.149166 0.300776,
        0.170279 -0.149810 0.300776,
        0.170279 -0.135893 0.314315,
        0.178676 -0.135757 0.312407,
        0.177135 -0.137765 0.312407,
        0.175127 -0.139306 0.312407,
        0.172789 -0.140275 0.312407,
        0.170279 -0.135922 0.314311,
        0.170279 -0.140550 0.312430,
        0.170279 -0.140605 0.312407,
        0.170279 -0.144577 0.309427,
        0.182178 -0.137779 0.309373,
        0.179994 -0.140624 0.309373,
        0.177149 -0.142808 0.309373,
        0.173835 -0.144180 0.309373,
        0.186581 -0.135277 0.305409,
        0.184895 -0.139348 0.305409,
        0.182213 -0.142843 0.305409,
        0.178718 -0.145525 0.305409,
        0.174647 -0.147211 0.305409,
        0.170279 -0.144648 0.309373,
        0.170279 -0.147711 0.305503,
        0.170279 -0.147786 0.305409,
        0.170279 -0.149750 0.300914,
        0.280704 0.009554 0.098425,
        0.284164 0.018536 0.098425,
        0.056976 0.053528 0.098425,
        0.314961 -0.157480 0.098425,
        0.314961 -0.039173 0.098425,
        0.305573 -0.037046 0.098425,
        0.056976 -0.053528 0.098425,
        0.280704 -0.009554 0.098425,
        0.279528 0.000000 0.098425,
        0.289700 0.026410 0.098425,
        0.296981 0.032706 0.098425,
        0.314961 0.157480 0.098425,
        0.305573 0.037046 0.098425,
        0.314961 0.039173 0.098425,
        -0.284164 -0.018536 0.098425,
        -0.056976 -0.053528 0.098425,
        -0.280704 -0.009554 0.098425,
        -0.279528 0.000000 0.098425,
        0.296981 -0.032706 0.098425,
        0.289700 -0.026410 0.098425,
        0.284164 -0.018536 0.098425,
        -0.056976 0.053528 0.098425,
        -0.227046 0.157480 0.098425,
        -0.227046 0.112172 0.098425,
        -0.314961 0.112172 0.098425,
        -0.314961 0.039173 0.098425,
        -0.305573 0.037046 0.098425,
        -0.296981 0.032706 0.098425,
        -0.289700 -0.026410 0.098425,
        -0.296981 -0.032706 0.098425,
        -0.314961 -0.157480 0.098425,
        -0.305573 -0.037046 0.098425,
        -0.314961 -0.039173 0.098425,
        -0.289700 0.026410 0.098425,
        -0.284164 0.018536 0.098425,
        -0.280704 0.009554 0.098425,
        0.020941 0.078539 0.000000,
        0.006538 0.078539 0.000000,
        0.006538 0.093715 0.000000,
        -0.011947 0.078539 0.000000,
        -0.011947 0.093715 0.000000,
        -0.062872 0.093715 0.000000,
        -0.062872 0.043133 0.000000,
        -0.095311 0.043133 0.000000,
        -0.062872 -0.043133 0.000000,
        -0.062872 -0.157480 0.000000,
        -0.095311 -0.043133 0.000000,
        -0.314961 -0.157480 0.000000,
        -0.284164 -0.018536 0.000000,
        -0.280704 -0.009554 0.000000,
        -0.280704 0.009554 0.000000,
        -0.284164 0.018536 0.000000,
        -0.289700 0.026410 0.000000,
        -0.296981 0.032706 0.000000,
        -0.314961 0.093715 0.000000,
        -0.305573 0.037046 0.000000,
        -0.314961 0.039173 0.000000,
        -0.279528 0.000000 0.000000,
        -0.314961 -0.039173 0.000000,
        -0.305573 -0.037046 0.000000,
        -0.296981 -0.032706 0.000000,
        -0.289700 -0.026410 0.000000,
        -0.033342 0.043133 0.000000,
        -0.033342 0.078539 0.000000,
        0.020941 0.093715 0.000000,
        0.038346 0.078539 0.000000,
        0.038346 0.093715 0.000000,
        0.049791 -0.078539 0.000000,
        0.314961 -0.157480 0.000000,
        0.038346 -0.157480 0.000000,
        0.305573 -0.037046 0.000000,
        0.314961 -0.039173 0.000000,
        0.284164 0.018536 0.000000,
        0.049791 0.078539 0.000000,
        0.289700 0.026410 0.000000,
        0.296981 0.032706 0.000000,
        0.280704 0.009554 0.000000,
        0.279528 0.000000 0.000000,
        0.280704 -0.009554 0.000000,
        0.305573 0.037046 0.000000,
        0.314961 0.093715 0.000000,
        0.314961 0.039173 0.000000,
        0.284164 -0.018536 0.000000,
        0.289700 -0.026410 0.000000,
        0.296981 -0.032706 0.000000,
        -0.033342 -0.043133 0.000000,
        -0.033342 -0.078539 0.000000,
        -0.011947 -0.157480 0.000000,
        -0.011947 -0.078539 0.000000,
        0.006538 -0.157480 0.000000,
        0.006538 -0.078539 0.000000,
        0.020941 -0.157480 0.000000,
        0.020941 -0.078539 0.000000,
        0.038346 -0.078539 0.000000,
        0.022862 0.110152 0.000000,
        0.020941 0.109012 0.000000,
        0.022862 0.112313 0.000000,
        0.020941 0.128937 0.000000,
        0.025755 0.128937 0.000000,
        0.025138 0.128894 0.000000,
        0.022862 0.128277 0.000000,
        0.022862 0.125636 0.000000,
        0.025079 0.126585 0.000000,
        0.023215 0.112117 0.000000,
        0.027472 0.126896 0.000000,
        0.029410 0.126679 0.000000,
        0.030883 0.126147 0.000000,
        0.032246 0.125235 0.000000,
        0.033435 0.123923 0.000000,
        0.034865 0.118764 0.000000,
        0.034665 0.116633 0.000000,
        0.034131 0.114940 0.000000,
        0.029750 0.111258 0.000000,
        0.027914 0.111052 0.000000,
        0.031185 0.111786 0.000000,
        0.032393 0.112600 0.000000,
        0.033317 0.113575 0.000000,
        0.025301 0.111342 0.000000,
        0.034246 0.122403 0.000000,
        0.034771 0.120296 0.000000,
        0.027494 0.129057 0.000000,
        0.020941 0.157480 0.000000,
        0.028965 0.128937 0.000000,
        0.038346 0.157480 0.000000,
        0.036467 0.123632 0.000000,
        0.035313 0.125472 0.000000,
        0.038346 0.128937 0.000000,
        0.032612 0.109800 0.000000,
        0.034195 0.110811 0.000000,
        0.038346 0.109012 0.000000,
        0.035674 0.112368 0.000000,
        0.036723 0.114239 0.000000,
        0.033536 0.127182 0.000000,
        0.031666 0.128258 0.000000,
        0.029471 0.128896 0.000000,
        0.037315 0.116323 0.000000,
        0.037506 0.118603 0.000000,
        0.037222 0.121402 0.000000,
        0.024960 0.109291 0.000000,
        0.026949 0.109012 0.000000,
        0.027740 0.108901 0.000000,
        0.028278 0.108892 0.000000,
        0.029436 0.109012 0.000000,
        0.030704 0.109143 0.000000,
        -0.011947 0.109012 0.000000,
        0.006538 0.109012 0.000000,
        0.039186 0.111293 0.000000,
        0.039186 0.109132 0.000000,
        0.049269 0.109132 0.000000,
        0.046628 0.111293 0.000000,
        0.046628 0.128817 0.000000,
        0.049269 0.128817 0.000000,
        0.314961 0.128937 0.000000,
        0.314961 0.109012 0.000000,
        0.008938 0.128817 0.000000,
        0.006538 0.128937 0.000000,
        0.019021 0.109132 0.000000,
        0.019021 0.128817 0.000000,
        0.008938 0.126656 0.000000,
        0.008458 0.111293 0.000000,
        0.008458 0.109132 0.000000,
        0.016380 0.118014 0.000000,
        0.016380 0.111293 0.000000,
        0.009419 0.118014 0.000000,
        0.009419 0.120175 0.000000,
        0.016380 0.120175 0.000000,
        0.016380 0.126656 0.000000,
        -0.010244 0.114527 0.000000,
        -0.009115 0.112767 0.000000,
        -0.007495 0.111215 0.000000,
        -0.005439 0.110020 0.000000,
        -0.000938 0.128817 0.000000,
        -0.011947 0.128937 0.000000,
        -0.003782 0.128513 0.000000,
        -0.006085 0.127704 0.000000,
        -0.008228 0.126268 0.000000,
        -0.008248 0.126250 0.000000,
        -0.009640 0.124707 0.000000,
        -0.010555 0.123014 0.000000,
        -0.003171 0.109344 0.000000,
        -0.000735 0.109132 0.000000,
        0.004617 0.109132 0.000000,
        0.004617 0.128817 0.000000,
        -0.011084 0.121074 0.000000,
        -0.011227 0.119222 0.000000,
        -0.010951 0.116587 0.000000,
        -0.030432 0.109132 0.000000,
        -0.062872 0.109012 0.000000,
        -0.022750 0.128817 0.000000,
        -0.062872 0.128937 0.000000,
        -0.027551 0.109132 0.000000,
        -0.025559 0.114653 0.000000,
        -0.017427 0.114653 0.000000,
        -0.015548 0.109132 0.000000,
        -0.012667 0.109132 0.000000,
        -0.020109 0.128817 0.000000,
        -0.314961 0.109012 0.000000,
        -0.314961 0.128937 0.000000,
        0.314961 0.157480 0.000000,
        -0.314961 0.157480 0.000000,
        -0.062872 0.157480 0.000000,
        -0.011947 0.157480 0.000000,
        0.006538 0.157480 0.000000,
        -0.314961 0.157480 0.098031,
        -0.314961 0.112172 0.098031,
        -0.227046 0.157480 0.098031,
      ]
    }
    coordIndex [
      0, 1, 2, -1,
      2, 1, 3, -1,
      4, 5, 6, -1,
      6, 5, 7, -1,
      8, 9, 10, -1,
      10, 9, 11, -1,
      12, 13, 14, -1,
      14, 13, 15, -1,
      16, 17, 18, -1,
      18, 17, 19, -1,
      2, 3, 14, -1,
      20, 21, 22, -1,
      15, 9, 6, -1,
      6, 9, 8, -1,
      6, 8, 23, -1,
      24, 25, 26, -1,
      15, 6, 14, -1,
      14, 6, 7, -1,
      14, 7, 2, -1,
      15, 27, 9, -1,
      9, 27, 22, -1,
      9, 22, 28, -1,
      28, 22, 21, -1,
      29, 30, 31, -1,
      32, 33, 3, -1,
      3, 33, 34, -1,
      3, 34, 14, -1,
      32, 35, 33, -1,
      33, 35, 36, -1,
      33, 36, 37, -1,
      23, 8, 25, -1,
      25, 8, 38, -1,
      25, 38, 26, -1,
      7, 39, 2, -1,
      2, 39, 31, -1,
      2, 31, 40, -1,
      40, 31, 30, -1,
      22, 41, 20, -1,
      20, 41, 42, -1,
      20, 42, 43, -1,
      43, 42, 44, -1,
      37, 36, 45, -1,
      45, 36, 46, -1,
      45, 46, 47, -1,
      26, 48, 24, -1,
      24, 48, 49, -1,
      24, 49, 50, -1,
      50, 49, 51, -1,
      31, 52, 29, -1,
      29, 52, 53, -1,
      29, 53, 54, -1,
      54, 53, 55, -1,
      10, 56, 8, -1,
      8, 56, 38, -1,
      38, 56, 26, -1,
      26, 56, 57, -1,
      26, 57, 48, -1,
      48, 57, 49, -1,
      49, 57, 58, -1,
      49, 58, 51, -1,
      51, 58, 50, -1,
      50, 58, 59, -1,
      50, 59, 24, -1,
      24, 59, 25, -1,
      25, 59, 60, -1,
      25, 60, 23, -1,
      23, 60, 4, -1,
      23, 4, 6, -1,
      5, 4, 61, -1,
      61, 4, 62, -1,
      61, 62, 63, -1,
      63, 62, 64, -1,
      63, 64, 65, -1,
      65, 64, 66, -1,
      65, 66, 67, -1,
      67, 66, 68, -1,
      67, 68, 69, -1,
      69, 68, 70, -1,
      69, 70, 71, -1,
      71, 70, 72, -1,
      71, 72, 73, -1,
      73, 72, 74, -1,
      73, 74, 75, -1,
      75, 74, 76, -1,
      75, 76, 77, -1,
      77, 76, 78, -1,
      77, 78, 79, -1,
      78, 80, 79, -1,
      79, 80, 19, -1,
      79, 19, 17, -1,
      5, 81, 7, -1,
      7, 81, 39, -1,
      39, 81, 31, -1,
      31, 81, 82, -1,
      31, 82, 52, -1,
      52, 82, 53, -1,
      53, 82, 83, -1,
      53, 83, 55, -1,
      55, 83, 54, -1,
      54, 83, 84, -1,
      54, 84, 29, -1,
      29, 84, 30, -1,
      30, 84, 85, -1,
      30, 85, 40, -1,
      40, 85, 0, -1,
      40, 0, 2, -1,
      86, 87, 88, -1,
      89, 90, 91, -1,
      19, 92, 93, -1,
      94, 92, 19, -1,
      91, 90, 19, -1,
      95, 19, 90, -1,
      56, 96, 97, -1,
      56, 97, 57, -1,
      57, 97, 98, -1,
      57, 98, 58, -1,
      58, 98, 99, -1,
      58, 99, 59, -1,
      59, 99, 100, -1,
      59, 100, 60, -1,
      60, 100, 62, -1,
      60, 62, 4, -1,
      80, 94, 19, -1,
      101, 102, 89, -1,
      89, 102, 103, -1,
      89, 103, 90, -1,
      90, 103, 104, -1,
      90, 104, 95, -1,
      105, 93, 106, -1,
      106, 93, 92, -1,
      106, 92, 107, -1,
      107, 92, 94, -1,
      107, 94, 108, -1,
      80, 78, 94, -1,
      94, 78, 76, -1,
      94, 76, 108, -1,
      108, 76, 74, -1,
      108, 74, 72, -1,
      88, 105, 109, -1,
      109, 105, 106, -1,
      109, 106, 110, -1,
      110, 106, 107, -1,
      110, 107, 111, -1,
      111, 107, 108, -1,
      111, 108, 112, -1,
      112, 108, 72, -1,
      113, 114, 115, -1,
      115, 114, 86, -1,
      86, 88, 115, -1,
      115, 88, 109, -1,
      115, 109, 116, -1,
      116, 109, 110, -1,
      116, 110, 117, -1,
      117, 110, 111, -1,
      117, 111, 118, -1,
      118, 111, 112, -1,
      118, 112, 119, -1,
      87, 101, 88, -1,
      88, 101, 89, -1,
      88, 89, 105, -1,
      105, 89, 91, -1,
      105, 91, 93, -1,
      93, 91, 19, -1,
      56, 10, 96, -1,
      96, 10, 120, -1,
      96, 120, 113, -1,
      72, 70, 112, -1,
      112, 70, 68, -1,
      112, 68, 119, -1,
      119, 68, 66, -1,
      119, 66, 64, -1,
      113, 115, 96, -1,
      96, 115, 116, -1,
      96, 116, 97, -1,
      97, 116, 117, -1,
      97, 117, 98, -1,
      98, 117, 118, -1,
      98, 118, 99, -1,
      99, 118, 119, -1,
      99, 119, 100, -1,
      100, 119, 64, -1,
      100, 64, 62, -1,
      67, 69, 121, -1,
      122, 123, 124, -1,
      17, 125, 126, -1,
      127, 125, 17, -1,
      124, 123, 17, -1,
      79, 17, 123, -1,
      81, 128, 129, -1,
      81, 129, 82, -1,
      82, 129, 130, -1,
      82, 130, 83, -1,
      83, 130, 131, -1,
      83, 131, 84, -1,
      84, 131, 132, -1,
      84, 132, 85, -1,
      85, 132, 133, -1,
      85, 133, 0, -1,
      134, 127, 17, -1,
      71, 73, 122, -1,
      122, 73, 75, -1,
      122, 75, 123, -1,
      123, 75, 77, -1,
      123, 77, 79, -1,
      135, 126, 136, -1,
      136, 126, 125, -1,
      136, 125, 137, -1,
      137, 125, 127, -1,
      137, 127, 138, -1,
      134, 139, 127, -1,
      127, 139, 140, -1,
      127, 140, 138, -1,
      138, 140, 141, -1,
      138, 141, 142, -1,
      121, 135, 143, -1,
      143, 135, 136, -1,
      143, 136, 144, -1,
      144, 136, 137, -1,
      144, 137, 145, -1,
      145, 137, 138, -1,
      145, 138, 146, -1,
      146, 138, 142, -1,
      63, 65, 147, -1,
      147, 65, 67, -1,
      67, 121, 147, -1,
      147, 121, 143, -1,
      147, 143, 148, -1,
      148, 143, 144, -1,
      148, 144, 149, -1,
      149, 144, 145, -1,
      149, 145, 150, -1,
      150, 145, 146, -1,
      150, 146, 151, -1,
      69, 71, 121, -1,
      121, 71, 122, -1,
      121, 122, 135, -1,
      135, 122, 124, -1,
      135, 124, 126, -1,
      126, 124, 17, -1,
      81, 5, 128, -1,
      128, 5, 61, -1,
      128, 61, 63, -1,
      142, 152, 146, -1,
      146, 152, 153, -1,
      146, 153, 151, -1,
      151, 153, 154, -1,
      151, 154, 155, -1,
      63, 147, 128, -1,
      128, 147, 148, -1,
      128, 148, 129, -1,
      129, 148, 149, -1,
      129, 149, 130, -1,
      130, 149, 150, -1,
      130, 150, 131, -1,
      131, 150, 151, -1,
      131, 151, 132, -1,
      132, 151, 155, -1,
      132, 155, 133, -1,
      13, 156, 15, -1,
      15, 156, 27, -1,
      27, 156, 22, -1,
      22, 156, 157, -1,
      22, 157, 41, -1,
      41, 157, 42, -1,
      42, 157, 158, -1,
      42, 158, 44, -1,
      44, 158, 43, -1,
      43, 158, 159, -1,
      43, 159, 20, -1,
      20, 159, 21, -1,
      21, 159, 160, -1,
      21, 160, 28, -1,
      28, 160, 11, -1,
      28, 11, 9, -1,
      10, 11, 120, -1,
      120, 11, 161, -1,
      120, 161, 113, -1,
      113, 161, 162, -1,
      113, 162, 114, -1,
      114, 162, 163, -1,
      114, 163, 86, -1,
      86, 163, 164, -1,
      86, 164, 87, -1,
      87, 164, 165, -1,
      87, 165, 101, -1,
      101, 165, 166, -1,
      101, 166, 102, -1,
      102, 166, 167, -1,
      102, 167, 103, -1,
      103, 167, 168, -1,
      103, 168, 104, -1,
      104, 168, 169, -1,
      104, 169, 95, -1,
      169, 170, 95, -1,
      95, 170, 18, -1,
      95, 18, 19, -1,
      1, 0, 171, -1,
      171, 0, 133, -1,
      171, 133, 172, -1,
      172, 133, 155, -1,
      172, 155, 173, -1,
      173, 155, 154, -1,
      173, 154, 174, -1,
      174, 154, 153, -1,
      174, 153, 175, -1,
      175, 153, 152, -1,
      175, 152, 176, -1,
      176, 152, 142, -1,
      176, 142, 177, -1,
      177, 142, 141, -1,
      177, 141, 178, -1,
      178, 141, 140, -1,
      178, 140, 179, -1,
      179, 140, 139, -1,
      179, 139, 180, -1,
      139, 134, 180, -1,
      180, 134, 17, -1,
      180, 17, 16, -1,
      1, 181, 3, -1,
      3, 181, 32, -1,
      32, 181, 35, -1,
      35, 181, 182, -1,
      35, 182, 36, -1,
      36, 182, 46, -1,
      46, 182, 183, -1,
      46, 183, 47, -1,
      47, 183, 45, -1,
      45, 183, 184, -1,
      45, 184, 37, -1,
      37, 184, 33, -1,
      33, 184, 185, -1,
      33, 185, 34, -1,
      34, 185, 12, -1,
      34, 12, 14, -1,
      186, 187, 188, -1,
      189, 190, 191, -1,
      18, 192, 193, -1,
      194, 192, 18, -1,
      191, 190, 18, -1,
      195, 18, 190, -1,
      156, 196, 197, -1,
      156, 197, 157, -1,
      157, 197, 198, -1,
      157, 198, 158, -1,
      158, 198, 199, -1,
      158, 199, 159, -1,
      159, 199, 200, -1,
      159, 200, 160, -1,
      160, 200, 161, -1,
      160, 161, 11, -1,
      170, 194, 18, -1,
      201, 202, 189, -1,
      189, 202, 203, -1,
      189, 203, 190, -1,
      190, 203, 204, -1,
      190, 204, 195, -1,
      205, 193, 206, -1,
      206, 193, 192, -1,
      206, 192, 207, -1,
      207, 192, 194, -1,
      207, 194, 208, -1,
      170, 169, 194, -1,
      194, 169, 168, -1,
      194, 168, 208, -1,
      208, 168, 167, -1,
      208, 167, 166, -1,
      188, 205, 209, -1,
      209, 205, 206, -1,
      209, 206, 210, -1,
      210, 206, 207, -1,
      210, 207, 211, -1,
      211, 207, 208, -1,
      211, 208, 212, -1,
      212, 208, 166, -1,
      213, 214, 215, -1,
      215, 214, 186, -1,
      186, 188, 215, -1,
      215, 188, 209, -1,
      215, 209, 216, -1,
      216, 209, 210, -1,
      216, 210, 217, -1,
      217, 210, 211, -1,
      217, 211, 218, -1,
      218, 211, 212, -1,
      218, 212, 219, -1,
      187, 201, 188, -1,
      188, 201, 189, -1,
      188, 189, 205, -1,
      205, 189, 191, -1,
      205, 191, 193, -1,
      193, 191, 18, -1,
      156, 13, 196, -1,
      196, 13, 220, -1,
      196, 220, 213, -1,
      166, 165, 212, -1,
      212, 165, 164, -1,
      212, 164, 219, -1,
      219, 164, 163, -1,
      219, 163, 162, -1,
      213, 215, 196, -1,
      196, 215, 216, -1,
      196, 216, 197, -1,
      197, 216, 217, -1,
      197, 217, 198, -1,
      198, 217, 218, -1,
      198, 218, 199, -1,
      199, 218, 219, -1,
      199, 219, 200, -1,
      200, 219, 162, -1,
      200, 162, 161, -1,
      174, 175, 221, -1,
      222, 223, 224, -1,
      16, 225, 226, -1,
      227, 225, 16, -1,
      224, 223, 16, -1,
      180, 16, 223, -1,
      181, 228, 229, -1,
      181, 229, 182, -1,
      182, 229, 230, -1,
      182, 230, 183, -1,
      183, 230, 231, -1,
      183, 231, 184, -1,
      184, 231, 232, -1,
      184, 232, 185, -1,
      185, 232, 233, -1,
      185, 233, 12, -1,
      234, 227, 16, -1,
      176, 177, 222, -1,
      222, 177, 178, -1,
      222, 178, 223, -1,
      223, 178, 179, -1,
      223, 179, 180, -1,
      235, 226, 236, -1,
      236, 226, 225, -1,
      236, 225, 237, -1,
      237, 225, 227, -1,
      237, 227, 238, -1,
      234, 239, 227, -1,
      227, 239, 240, -1,
      227, 240, 238, -1,
      238, 240, 241, -1,
      238, 241, 242, -1,
      221, 235, 243, -1,
      243, 235, 236, -1,
      243, 236, 244, -1,
      244, 236, 237, -1,
      244, 237, 245, -1,
      245, 237, 238, -1,
      245, 238, 246, -1,
      246, 238, 242, -1,
      172, 173, 247, -1,
      247, 173, 174, -1,
      174, 221, 247, -1,
      247, 221, 243, -1,
      247, 243, 248, -1,
      248, 243, 244, -1,
      248, 244, 249, -1,
      249, 244, 245, -1,
      249, 245, 250, -1,
      250, 245, 246, -1,
      250, 246, 251, -1,
      175, 176, 221, -1,
      221, 176, 222, -1,
      221, 222, 235, -1,
      235, 222, 224, -1,
      235, 224, 226, -1,
      226, 224, 16, -1,
      181, 1, 228, -1,
      228, 1, 171, -1,
      228, 171, 172, -1,
      242, 252, 246, -1,
      246, 252, 253, -1,
      246, 253, 251, -1,
      251, 253, 254, -1,
      251, 254, 255, -1,
      172, 247, 228, -1,
      228, 247, 248, -1,
      228, 248, 229, -1,
      229, 248, 249, -1,
      229, 249, 230, -1,
      230, 249, 250, -1,
      230, 250, 231, -1,
      231, 250, 251, -1,
      231, 251, 232, -1,
      232, 251, 255, -1,
      232, 255, 233, -1,
      13, 12, 220, -1,
      220, 12, 233, -1,
      220, 233, 213, -1,
      213, 233, 255, -1,
      213, 255, 214, -1,
      214, 255, 254, -1,
      214, 254, 186, -1,
      186, 254, 253, -1,
      186, 253, 187, -1,
      187, 253, 252, -1,
      187, 252, 201, -1,
      201, 252, 242, -1,
      201, 242, 202, -1,
      202, 242, 241, -1,
      202, 241, 203, -1,
      203, 241, 240, -1,
      203, 240, 204, -1,
      204, 240, 239, -1,
      204, 239, 195, -1,
      239, 234, 195, -1,
      195, 234, 16, -1,
      195, 16, 18, -1,
      256, 257, 258, -1,
      259, 260, 261, -1,
      262, 263, 258, -1,
      258, 263, 264, -1,
      258, 264, 256, -1,
      265, 266, 267, -1,
      267, 266, 268, -1,
      267, 268, 269, -1,
      270, 271, 272, -1,
      272, 271, 273, -1,
      274, 275, 262, -1,
      262, 275, 276, -1,
      262, 276, 263, -1,
      257, 265, 258, -1,
      258, 265, 267, -1,
      258, 267, 277, -1,
      277, 267, 278, -1,
      277, 278, 271, -1,
      271, 278, 279, -1,
      280, 281, 279, -1,
      279, 281, 282, -1,
      279, 282, 283, -1,
      284, 285, 286, -1,
      286, 285, 287, -1,
      286, 287, 288, -1,
      283, 289, 279, -1,
      279, 289, 290, -1,
      279, 290, 271, -1,
      271, 290, 291, -1,
      271, 291, 273, -1,
      270, 284, 271, -1,
      271, 284, 286, -1,
      271, 286, 262, -1,
      262, 286, 259, -1,
      262, 259, 274, -1,
      274, 259, 261, -1,
      292, 293, 294, -1,
      293, 295, 296, -1,
      297, 298, 299, -1,
      300, 301, 302, -1,
      302, 301, 303, -1,
      302, 304, 305, -1,
      306, 307, 299, -1,
      308, 309, 310, -1,
      310, 309, 311, -1,
      310, 311, 312, -1,
      302, 305, 299, -1,
      299, 305, 313, -1,
      299, 313, 306, -1,
      314, 315, 303, -1,
      303, 315, 316, -1,
      303, 316, 302, -1,
      302, 316, 317, -1,
      302, 317, 304, -1,
      318, 298, 319, -1,
      319, 298, 297, -1,
      319, 297, 295, -1,
      292, 320, 321, -1,
      321, 320, 322, -1,
      323, 324, 325, -1,
      326, 327, 324, -1,
      328, 329, 330, -1,
      330, 329, 331, -1,
      328, 332, 329, -1,
      329, 332, 333, -1,
      329, 333, 323, -1,
      323, 333, 334, -1,
      331, 329, 335, -1,
      335, 329, 336, -1,
      335, 336, 337, -1,
      334, 338, 323, -1,
      323, 338, 339, -1,
      323, 339, 324, -1,
      324, 339, 340, -1,
      324, 340, 326, -1,
      300, 341, 301, -1,
      301, 341, 342, -1,
      301, 342, 343, -1,
      343, 342, 344, -1,
      343, 344, 345, -1,
      345, 344, 346, -1,
      345, 346, 347, -1,
      347, 346, 348, -1,
      347, 348, 325, -1,
      325, 348, 349, -1,
      325, 349, 323, -1,
      350, 351, 352, -1,
      352, 351, 353, -1,
      353, 354, 355, -1,
      355, 356, 353, -1,
      353, 356, 357, -1,
      353, 357, 352, -1,
      352, 357, 358, -1,
      352, 358, 359, -1,
      359, 358, 360, -1,
      359, 360, 361, -1,
      361, 362, 359, -1,
      359, 362, 363, -1,
      359, 363, 364, -1,
      365, 366, 359, -1,
      359, 366, 367, -1,
      368, 369, 370, -1,
      370, 369, 371, -1,
      367, 372, 359, -1,
      359, 372, 371, -1,
      359, 371, 373, -1,
      373, 371, 369, -1,
      364, 374, 359, -1,
      359, 374, 375, -1,
      359, 375, 365, -1,
      376, 377, 378, -1,
      378, 377, 379, -1,
      380, 381, 382, -1,
      383, 384, 385, -1,
      385, 384, 386, -1,
      385, 386, 387, -1,
      381, 388, 382, -1,
      382, 388, 389, -1,
      382, 389, 390, -1,
      387, 391, 385, -1,
      385, 391, 392, -1,
      385, 392, 382, -1,
      382, 392, 393, -1,
      382, 393, 380, -1,
      350, 394, 351, -1,
      351, 394, 395, -1,
      351, 395, 320, -1,
      395, 396, 320, -1,
      320, 396, 397, -1,
      320, 397, 322, -1,
      322, 397, 398, -1,
      322, 398, 385, -1,
      385, 398, 399, -1,
      385, 399, 383, -1,
      293, 296, 294, -1,
      294, 296, 400, -1,
      294, 400, 401, -1,
      382, 402, 385, -1,
      385, 402, 403, -1,
      385, 403, 404, -1,
      405, 402, 406, -1,
      406, 402, 382, -1,
      406, 382, 407, -1,
      407, 382, 408, -1,
      407, 408, 404, -1,
      404, 408, 409, -1,
      404, 409, 385, -1,
      385, 409, 336, -1,
      385, 336, 322, -1,
      322, 336, 329, -1,
      322, 329, 321, -1,
      410, 411, 353, -1,
      292, 294, 320, -1,
      320, 294, 401, -1,
      320, 401, 351, -1,
      351, 401, 412, -1,
      351, 412, 353, -1,
      353, 412, 413, -1,
      353, 413, 410, -1,
      410, 414, 411, -1,
      411, 414, 415, -1,
      411, 415, 401, -1,
      401, 415, 416, -1,
      401, 416, 412, -1,
      417, 418, 419, -1,
      419, 418, 415, -1,
      419, 415, 420, -1,
      420, 415, 414, -1,
      420, 414, 421, -1,
      421, 414, 422, -1,
      423, 424, 400, -1,
      400, 424, 425, -1,
      400, 425, 426, -1,
      427, 428, 411, -1,
      427, 429, 428, -1,
      428, 429, 430, -1,
      428, 430, 431, -1,
      431, 432, 428, -1,
      428, 432, 433, -1,
      428, 433, 434, -1,
      426, 435, 400, -1,
      400, 435, 436, -1,
      400, 436, 401, -1,
      401, 436, 437, -1,
      401, 437, 411, -1,
      411, 437, 438, -1,
      411, 438, 427, -1,
      434, 439, 428, -1,
      428, 439, 440, -1,
      428, 440, 400, -1,
      400, 440, 441, -1,
      400, 441, 423, -1,
      442, 443, 444, -1,
      444, 443, 445, -1,
      444, 445, 428, -1,
      295, 297, 296, -1,
      296, 297, 443, -1,
      296, 443, 400, -1,
      400, 443, 442, -1,
      400, 442, 446, -1,
      447, 448, 446, -1,
      446, 448, 449, -1,
      446, 449, 400, -1,
      400, 449, 450, -1,
      400, 450, 428, -1,
      428, 450, 451, -1,
      428, 451, 444, -1,
      307, 308, 299, -1,
      299, 308, 310, -1,
      299, 310, 297, -1,
      297, 310, 452, -1,
      297, 452, 443, -1,
      443, 452, 453, -1,
      443, 453, 445, -1,
      390, 378, 382, -1,
      382, 378, 379, -1,
      382, 379, 408, -1,
      408, 379, 454, -1,
      453, 455, 445, -1,
      445, 455, 456, -1,
      445, 456, 428, -1,
      428, 456, 457, -1,
      428, 457, 411, -1,
      411, 457, 458, -1,
      411, 458, 353, -1,
      353, 458, 377, -1,
      353, 377, 354, -1,
      354, 377, 376, -1,
      459, 455, 460, -1,
      460, 455, 453, -1,
      460, 453, 452, -1,
      281, 280, 312, -1,
      312, 280, 460, -1,
      312, 460, 310, -1,
      310, 460, 452, -1,
      260, 259, 327, -1,
      327, 259, 324, -1,
      408, 454, 267, -1,
      269, 337, 336, -1,
      269, 336, 267, -1,
      267, 336, 409, -1,
      267, 409, 408, -1,
      267, 454, 278, -1,
      278, 454, 379, -1,
      278, 379, 377, -1,
      455, 459, 456, -1,
      456, 459, 461, -1,
      456, 461, 457, -1,
      457, 461, 278, -1,
      457, 278, 458, -1,
      458, 278, 377, -1,
      314, 303, 288, -1,
      288, 303, 286, -1,
      325, 324, 259, -1,
      286, 303, 301, -1,
      301, 343, 286, -1,
      286, 343, 345, -1,
      286, 345, 259, -1,
      259, 345, 347, -1,
      259, 347, 325, -1,
      337, 269, 335, -1,
      335, 269, 268, -1,
      335, 268, 331, -1,
      331, 268, 266, -1,
      331, 266, 330, -1,
      330, 266, 265, -1,
      330, 265, 328, -1,
      328, 265, 257, -1,
      328, 257, 332, -1,
      332, 257, 256, -1,
      332, 256, 333, -1,
      333, 256, 264, -1,
      333, 264, 334, -1,
      334, 264, 263, -1,
      334, 263, 338, -1,
      338, 263, 276, -1,
      338, 276, 339, -1,
      339, 276, 275, -1,
      339, 275, 340, -1,
      340, 275, 274, -1,
      340, 274, 326, -1,
      326, 274, 261, -1,
      326, 261, 327, -1,
      327, 261, 260, -1,
      314, 288, 315, -1,
      315, 288, 287, -1,
      315, 287, 316, -1,
      316, 287, 285, -1,
      316, 285, 317, -1,
      317, 285, 284, -1,
      317, 284, 304, -1,
      304, 284, 270, -1,
      304, 270, 305, -1,
      305, 270, 272, -1,
      305, 272, 313, -1,
      313, 272, 273, -1,
      313, 273, 306, -1,
      306, 273, 291, -1,
      306, 291, 307, -1,
      307, 291, 290, -1,
      307, 290, 308, -1,
      308, 290, 289, -1,
      308, 289, 309, -1,
      309, 289, 283, -1,
      309, 283, 311, -1,
      311, 283, 282, -1,
      311, 282, 312, -1,
      312, 282, 281, -1,
    ]
  }
}

Shape {
  appearance Appearance {
    material Material {
      diffuseColor 0.5020 1.0000 0.5020
      specularColor 0.2510 0.5020 0.2510
      ambientIntensity 0.2
      transparency 0.0000
      shininess 0.5
    }
  }
  geometry IndexedFaceSet {
    ccw TRUE
    solid FALSE
    coord DEF co Coordinate {
      point [
        -0.227046 0.157480 0.098425,
        -0.227046 0.112172 0.098425,
        -0.314961 0.112172 0.098425,
        0.020941 0.078539 0.000000,
        0.006538 0.078539 0.000000,
        -0.011947 0.078539 0.000000,
        -0.062872 0.043133 0.000000,
        -0.095311 0.043133 0.000000,
        -0.062872 -0.043133 0.000000,
        -0.095311 -0.043133 0.000000,
        -0.033342 0.043133 0.000000,
        -0.033342 0.078539 0.000000,
        0.038346 0.078539 0.000000,
        0.049791 -0.078539 0.000000,
        0.049791 0.078539 0.000000,
        -0.033342 -0.043133 0.000000,
        -0.033342 -0.078539 0.000000,
        -0.011947 -0.078539 0.000000,
        0.006538 -0.078539 0.000000,
        0.020941 -0.078539 0.000000,
        0.038346 -0.078539 0.000000,
        -0.314961 0.157480 0.098031,
        -0.314961 0.112172 0.098031,
        -0.227046 0.157480 0.098031,
        -0.227046 0.112172 0.098031,
        0.049791 -0.078539 0.000394,
        0.049791 0.078539 0.000394,
        -0.033342 0.078539 0.000394,
        -0.033342 0.043133 0.000394,
        -0.095311 0.043133 0.000394,
        -0.095311 -0.043133 0.000394,
        -0.033342 -0.043133 0.000394,
        -0.033342 -0.078539 0.000394,
      ]
    }
    coordIndex [
      23, 24, 0, -1,
      0, 24, 1, -1,
      24, 22, 1, -1,
      1, 22, 2, -1,
      21, 22, 23, -1,
      23, 22, 24, -1,
      25, 26, 13, -1,
      13, 26, 14, -1,
      12, 14, 26, -1,
      11, 5, 27, -1,
      27, 5, 4, -1,
      27, 4, 26, -1,
      26, 4, 3, -1,
      26, 3, 12, -1,
      27, 28, 11, -1,
      11, 28, 10, -1,
      10, 28, 6, -1,
      6, 28, 29, -1,
      6, 29, 7, -1,
      29, 30, 7, -1,
      7, 30, 9, -1,
      9, 30, 8, -1,
      8, 30, 31, -1,
      8, 31, 15, -1,
      31, 32, 15, -1,
      15, 32, 16, -1,
      25, 13, 20, -1,
      20, 19, 25, -1,
      25, 19, 18, -1,
      25, 18, 32, -1,
      32, 18, 17, -1,
      32, 17, 16, -1,
      25, 32, 26, -1,
      26, 32, 31, -1,
      27, 26, 28, -1,
      28, 26, 31, -1,
      28, 31, 29, -1,
      29, 31, 30, -1,
    ]
  }
}

Shape {
  appearance Appearance {
    material Material {
      diffuseColor 0.0000 0.0000 0.0000
      specularColor 0.0000 0.0000 0.0000
      ambientIntensity 0.2
      transparency 0.0000
      shininess 0.5
    }
  }
  geometry IndexedFaceSet {
    ccw TRUE
    solid FALSE
    coord DEF co Coordinate {
      point [
        0.022862 0.110152 0.000000,
        0.022862 0.112313 0.000000,
        0.025755 0.128937 0.000000,
        0.025138 0.128894 0.000000,
        0.022862 0.128277 0.000000,
        0.022862 0.125636 0.000000,
        0.025079 0.126585 0.000000,
        0.023215 0.112117 0.000000,
        0.027472 0.126896 0.000000,
        0.029410 0.126679 0.000000,
        0.030883 0.126147 0.000000,
        0.032246 0.125235 0.000000,
        0.033435 0.123923 0.000000,
        0.034865 0.118764 0.000000,
        0.034665 0.116633 0.000000,
        0.034131 0.114940 0.000000,
        0.029750 0.111258 0.000000,
        0.027914 0.111052 0.000000,
        0.031185 0.111786 0.000000,
        0.032393 0.112600 0.000000,
        0.033317 0.113575 0.000000,
        0.025301 0.111342 0.000000,
        0.034246 0.122403 0.000000,
        0.034771 0.120296 0.000000,
        0.027494 0.129057 0.000000,
        0.028965 0.128937 0.000000,
        0.036467 0.123632 0.000000,
        0.035313 0.125472 0.000000,
        0.032612 0.109800 0.000000,
        0.034195 0.110811 0.000000,
        0.035674 0.112368 0.000000,
        0.036723 0.114239 0.000000,
        0.033536 0.127182 0.000000,
        0.031666 0.128258 0.000000,
        0.029471 0.128896 0.000000,
        0.037315 0.116323 0.000000,
        0.037506 0.118603 0.000000,
        0.037222 0.121402 0.000000,
        0.024960 0.109291 0.000000,
        0.026949 0.109012 0.000000,
        0.027740 0.108901 0.000000,
        0.028278 0.108892 0.000000,
        0.029436 0.109012 0.000000,
        0.030704 0.109143 0.000000,
        0.039186 0.111293 0.000000,
        0.039186 0.109132 0.000000,
        0.049269 0.109132 0.000000,
        0.046628 0.111293 0.000000,
        0.046628 0.128817 0.000000,
        0.049269 0.128817 0.000000,
        0.008938 0.128817 0.000000,
        0.019021 0.109132 0.000000,
        0.019021 0.128817 0.000000,
        0.008938 0.126656 0.000000,
        0.008458 0.111293 0.000000,
        0.008458 0.109132 0.000000,
        0.016380 0.118014 0.000000,
        0.016380 0.111293 0.000000,
        0.009419 0.118014 0.000000,
        0.009419 0.120175 0.000000,
        0.016380 0.120175 0.000000,
        0.016380 0.126656 0.000000,
        -0.010244 0.114527 0.000000,
        -0.009115 0.112767 0.000000,
        -0.007495 0.111215 0.000000,
        -0.005439 0.110020 0.000000,
        -0.000938 0.128817 0.000000,
        -0.003782 0.128513 0.000000,
        -0.006085 0.127704 0.000000,
        -0.008228 0.126268 0.000000,
        -0.008248 0.126250 0.000000,
        -0.009640 0.124707 0.000000,
        -0.010555 0.123014 0.000000,
        -0.003171 0.109344 0.000000,
        -0.000735 0.109132 0.000000,
        0.004617 0.109132 0.000000,
        0.004617 0.128817 0.000000,
        -0.011084 0.121074 0.000000,
        -0.011227 0.119222 0.000000,
        -0.010951 0.116587 0.000000,
        -0.030432 0.109132 0.000000,
        -0.022750 0.128817 0.000000,
        -0.027551 0.109132 0.000000,
        -0.025559 0.114653 0.000000,
        -0.017427 0.114653 0.000000,
        -0.015548 0.109132 0.000000,
        -0.012667 0.109132 0.000000,
        -0.020109 0.128817 0.000000,
        -0.022750 0.128817 0.000394,
        -0.030432 0.109132 0.000394,
        -0.027551 0.109132 0.000394,
        -0.025559 0.114653 0.000394,
        -0.017427 0.114653 0.000394,
        -0.015548 0.109132 0.000394,
        -0.012667 0.109132 0.000394,
        -0.020109 0.128817 0.000394,
        -0.018091 0.116814 0.000394,
        -0.024674 0.116814 0.000394,
        -0.021028 0.125036 0.000394,
        -0.021218 0.125719 0.000394,
        -0.021343 0.126416 0.000394,
        -0.021407 0.126416 0.000394,
        -0.021535 0.125721 0.000394,
        -0.021711 0.125036 0.000394,
        -0.018091 0.116814 0.000000,
        -0.024674 0.116814 0.000000,
        -0.021028 0.125036 -0.000000,
        -0.021218 0.125719 -0.000000,
        -0.021343 0.126416 0.000000,
        -0.021407 0.126416 0.000000,
        -0.021535 0.125721 0.000000,
        -0.021711 0.125036 0.000000,
        -0.000735 0.109132 0.000394,
        0.004617 0.109132 0.000394,
        0.004617 0.128817 0.000394,
        -0.000938 0.128817 0.000394,
        -0.011227 0.119222 0.000394,
        -0.011084 0.121074 0.000394,
        -0.010555 0.123014 0.000394,
        -0.009640 0.124707 0.000394,
        -0.008248 0.126250 0.000394,
        -0.008228 0.126268 0.000394,
        -0.006085 0.127704 0.000394,
        -0.003782 0.128513 0.000394,
        -0.003171 0.109344 0.000394,
        -0.005439 0.110020 0.000394,
        -0.007495 0.111215 0.000394,
        -0.009115 0.112767 0.000394,
        -0.010244 0.114527 0.000394,
        -0.010951 0.116587 0.000394,
        -0.007276 0.123896 0.000394,
        -0.006319 0.124911 0.000394,
        -0.004881 0.125840 0.000394,
        -0.003257 0.126409 0.000394,
        -0.000927 0.126656 0.000394,
        0.001976 0.126656 0.000394,
        0.001976 0.111293 0.000394,
        -0.000818 0.111293 0.000394,
        -0.002895 0.111486 0.000394,
        -0.004551 0.112003 0.000394,
        -0.005894 0.112800 0.000394,
        -0.006998 0.113891 0.000394,
        -0.007828 0.115248 0.000394,
        -0.008406 0.117098 0.000394,
        -0.008586 0.119166 0.000394,
        -0.008419 0.121125 0.000394,
        -0.007959 0.122682 0.000394,
        -0.000927 0.126656 0.000000,
        0.001976 0.126656 0.000000,
        -0.003257 0.126409 0.000000,
        -0.004881 0.125840 0.000000,
        -0.006319 0.124911 -0.000000,
        -0.007276 0.123896 0.000000,
        -0.007959 0.122682 0.000000,
        -0.008419 0.121125 0.000000,
        -0.008586 0.119166 0.000000,
        -0.008406 0.117098 -0.000000,
        -0.007828 0.115248 0.000000,
        -0.006998 0.113891 0.000000,
        -0.005894 0.112800 0.000000,
        -0.004551 0.112003 0.000000,
        -0.002895 0.111486 -0.000000,
        -0.000818 0.111293 0.000000,
        0.001976 0.111293 0.000000,
        0.008458 0.111293 0.000394,
        0.008458 0.109132 0.000394,
        0.019021 0.109132 0.000394,
        0.019021 0.128817 0.000394,
        0.008938 0.128817 0.000394,
        0.008938 0.126656 0.000394,
        0.016380 0.126656 0.000394,
        0.016380 0.120175 0.000394,
        0.009419 0.120175 0.000394,
        0.009419 0.118014 0.000394,
        0.016380 0.118014 0.000394,
        0.016380 0.111293 0.000394,
        0.022862 0.112313 0.000394,
        0.022862 0.110152 0.000394,
        0.024960 0.109291 0.000394,
        0.028278 0.108892 0.000394,
        0.027740 0.108901 0.000394,
        0.037506 0.118603 0.000394,
        0.037315 0.116323 0.000394,
        0.036723 0.114239 0.000394,
        0.035674 0.112368 0.000394,
        0.034195 0.110811 0.000394,
        0.032612 0.109800 0.000394,
        0.030704 0.109143 0.000394,
        0.027494 0.129057 0.000394,
        0.029471 0.128896 0.000394,
        0.031666 0.128258 0.000394,
        0.033536 0.127182 0.000394,
        0.035313 0.125472 0.000394,
        0.036467 0.123632 0.000394,
        0.037222 0.121402 0.000394,
        0.025138 0.128894 0.000394,
        0.022862 0.128277 0.000394,
        0.022862 0.125636 0.000394,
        0.027472 0.126896 0.000394,
        0.025079 0.126585 0.000394,
        0.034865 0.118764 0.000394,
        0.034771 0.120296 0.000394,
        0.034246 0.122403 0.000394,
        0.033435 0.123923 0.000394,
        0.032246 0.125235 0.000394,
        0.030883 0.126147 0.000394,
        0.029410 0.126679 0.000394,
        0.027914 0.111052 0.000394,
        0.029750 0.111258 0.000394,
        0.031185 0.111786 0.000394,
        0.032393 0.112600 0.000394,
        0.033317 0.113575 0.000394,
        0.034131 0.114940 0.000394,
        0.034665 0.116633 0.000394,
        0.023215 0.112117 0.000394,
        0.025301 0.111342 0.000394,
        0.039186 0.111293 0.000394,
        0.039186 0.109132 0.000394,
        0.049269 0.109132 0.000394,
        0.049269 0.128817 0.000394,
        0.046628 0.128817 0.000394,
        0.046628 0.111293 0.000394,
      ]
    }
    coordIndex [
      88, 89, 81, -1,
      81, 89, 80, -1,
      89, 90, 80, -1,
      80, 90, 82, -1,
      90, 91, 82, -1,
      82, 91, 83, -1,
      91, 92, 83, -1,
      83, 92, 84, -1,
      92, 93, 84, -1,
      84, 93, 85, -1,
      93, 94, 85, -1,
      85, 94, 86, -1,
      94, 95, 86, -1,
      86, 95, 87, -1,
      95, 88, 87, -1,
      87, 88, 81, -1,
      96, 92, 97, -1,
      97, 92, 91, -1,
      98, 95, 96, -1,
      96, 95, 94, -1,
      96, 94, 92, -1,
      92, 94, 93, -1,
      98, 99, 95, -1,
      95, 99, 100, -1,
      95, 100, 88, -1,
      88, 100, 101, -1,
      88, 101, 102, -1,
      102, 103, 88, -1,
      88, 103, 97, -1,
      88, 97, 89, -1,
      89, 97, 91, -1,
      89, 91, 90, -1,
      96, 97, 104, -1,
      104, 97, 105, -1,
      98, 96, 106, -1,
      106, 96, 104, -1,
      98, 106, 107, -1,
      98, 107, 99, -1,
      99, 107, 108, -1,
      99, 108, 100, -1,
      101, 100, 109, -1,
      109, 100, 108, -1,
      101, 109, 110, -1,
      101, 110, 102, -1,
      102, 110, 111, -1,
      102, 111, 103, -1,
      97, 103, 105, -1,
      105, 103, 111, -1,
      112, 113, 74, -1,
      74, 113, 75, -1,
      113, 114, 75, -1,
      75, 114, 76, -1,
      114, 115, 76, -1,
      76, 115, 66, -1,
      116, 78, 77, -1,
      116, 77, 117, -1,
      117, 77, 72, -1,
      117, 72, 118, -1,
      118, 72, 71, -1,
      118, 71, 119, -1,
      119, 71, 70, -1,
      119, 70, 120, -1,
      120, 70, 69, -1,
      120, 69, 121, -1,
      121, 69, 68, -1,
      121, 68, 122, -1,
      122, 68, 67, -1,
      122, 67, 123, -1,
      123, 67, 66, -1,
      123, 66, 115, -1,
      112, 74, 73, -1,
      112, 73, 124, -1,
      124, 73, 65, -1,
      124, 65, 125, -1,
      125, 65, 64, -1,
      125, 64, 126, -1,
      126, 64, 63, -1,
      126, 63, 127, -1,
      127, 63, 62, -1,
      127, 62, 128, -1,
      128, 62, 79, -1,
      128, 79, 129, -1,
      129, 79, 78, -1,
      129, 78, 116, -1,
      118, 119, 130, -1,
      130, 119, 120, -1,
      130, 120, 131, -1,
      131, 120, 121, -1,
      131, 121, 132, -1,
      132, 121, 122, -1,
      132, 122, 133, -1,
      133, 122, 123, -1,
      133, 123, 134, -1,
      134, 123, 115, -1,
      134, 115, 135, -1,
      135, 115, 114, -1,
      135, 114, 136, -1,
      136, 114, 113, -1,
      136, 113, 137, -1,
      137, 113, 112, -1,
      137, 112, 138, -1,
      138, 112, 124, -1,
      138, 124, 139, -1,
      139, 124, 125, -1,
      139, 125, 140, -1,
      140, 125, 126, -1,
      140, 126, 141, -1,
      141, 126, 127, -1,
      141, 127, 142, -1,
      142, 127, 128, -1,
      142, 128, 143, -1,
      143, 128, 129, -1,
      143, 129, 144, -1,
      144, 129, 116, -1,
      144, 116, 145, -1,
      145, 116, 117, -1,
      145, 117, 146, -1,
      146, 117, 118, -1,
      146, 118, 130, -1,
      134, 135, 147, -1,
      147, 135, 148, -1,
      134, 147, 149, -1,
      134, 149, 133, -1,
      133, 149, 150, -1,
      133, 150, 132, -1,
      132, 150, 151, -1,
      132, 151, 131, -1,
      131, 151, 152, -1,
      131, 152, 130, -1,
      130, 152, 153, -1,
      130, 153, 146, -1,
      146, 153, 154, -1,
      146, 154, 145, -1,
      145, 154, 155, -1,
      145, 155, 144, -1,
      144, 155, 156, -1,
      144, 156, 143, -1,
      143, 156, 157, -1,
      143, 157, 142, -1,
      142, 157, 158, -1,
      142, 158, 141, -1,
      141, 158, 159, -1,
      141, 159, 140, -1,
      140, 159, 160, -1,
      140, 160, 139, -1,
      139, 160, 161, -1,
      139, 161, 138, -1,
      138, 161, 162, -1,
      138, 162, 137, -1,
      136, 137, 163, -1,
      163, 137, 162, -1,
      135, 136, 148, -1,
      148, 136, 163, -1,
      164, 165, 54, -1,
      54, 165, 55, -1,
      165, 166, 55, -1,
      55, 166, 51, -1,
      166, 167, 51, -1,
      51, 167, 52, -1,
      167, 168, 52, -1,
      52, 168, 50, -1,
      168, 169, 50, -1,
      50, 169, 53, -1,
      169, 170, 53, -1,
      53, 170, 61, -1,
      170, 171, 61, -1,
      61, 171, 60, -1,
      171, 172, 60, -1,
      60, 172, 59, -1,
      172, 173, 59, -1,
      59, 173, 58, -1,
      173, 174, 58, -1,
      58, 174, 56, -1,
      174, 175, 56, -1,
      56, 175, 57, -1,
      175, 164, 57, -1,
      57, 164, 54, -1,
      166, 165, 164, -1,
      164, 175, 166, -1,
      166, 175, 174, -1,
      166, 174, 167, -1,
      169, 168, 170, -1,
      170, 168, 167, -1,
      170, 167, 171, -1,
      171, 167, 174, -1,
      171, 174, 172, -1,
      172, 174, 173, -1,
      176, 177, 1, -1,
      1, 177, 0, -1,
      0, 177, 178, -1,
      179, 41, 40, -1,
      179, 40, 180, -1,
      180, 40, 39, -1,
      180, 39, 178, -1,
      178, 39, 38, -1,
      178, 38, 0, -1,
      181, 36, 35, -1,
      181, 35, 182, -1,
      182, 35, 31, -1,
      182, 31, 183, -1,
      183, 31, 30, -1,
      183, 30, 184, -1,
      184, 30, 29, -1,
      184, 29, 185, -1,
      185, 29, 28, -1,
      185, 28, 186, -1,
      186, 28, 43, -1,
      186, 43, 187, -1,
      187, 43, 179, -1,
      179, 43, 42, -1,
      179, 42, 41, -1,
      188, 24, 189, -1,
      189, 24, 25, -1,
      25, 34, 189, -1,
      189, 34, 33, -1,
      189, 33, 190, -1,
      190, 33, 32, -1,
      190, 32, 191, -1,
      191, 32, 27, -1,
      191, 27, 192, -1,
      192, 27, 26, -1,
      192, 26, 193, -1,
      193, 26, 37, -1,
      193, 37, 194, -1,
      194, 37, 36, -1,
      194, 36, 181, -1,
      24, 188, 2, -1,
      2, 188, 195, -1,
      2, 195, 3, -1,
      3, 195, 196, -1,
      3, 196, 4, -1,
      196, 197, 4, -1,
      4, 197, 5, -1,
      198, 8, 6, -1,
      198, 6, 199, -1,
      199, 6, 5, -1,
      199, 5, 197, -1,
      200, 13, 23, -1,
      200, 23, 201, -1,
      201, 23, 22, -1,
      201, 22, 202, -1,
      202, 22, 12, -1,
      202, 12, 203, -1,
      203, 12, 11, -1,
      203, 11, 204, -1,
      204, 11, 10, -1,
      204, 10, 205, -1,
      205, 10, 9, -1,
      205, 9, 206, -1,
      206, 9, 8, -1,
      206, 8, 198, -1,
      207, 17, 16, -1,
      207, 16, 208, -1,
      208, 16, 18, -1,
      208, 18, 209, -1,
      209, 18, 19, -1,
      209, 19, 210, -1,
      210, 19, 20, -1,
      210, 20, 211, -1,
      211, 20, 15, -1,
      211, 15, 212, -1,
      212, 15, 14, -1,
      212, 14, 213, -1,
      213, 14, 13, -1,
      213, 13, 200, -1,
      176, 1, 7, -1,
      176, 7, 214, -1,
      214, 7, 21, -1,
      214, 21, 215, -1,
      215, 21, 17, -1,
      215, 17, 207, -1,
      208, 179, 207, -1,
      207, 179, 180, -1,
      207, 180, 215, -1,
      215, 180, 178, -1,
      215, 178, 214, -1,
      214, 178, 177, -1,
      214, 177, 176, -1,
      197, 196, 199, -1,
      199, 196, 195, -1,
      199, 195, 198, -1,
      198, 195, 188, -1,
      198, 188, 206, -1,
      206, 188, 189, -1,
      206, 189, 205, -1,
      205, 189, 190, -1,
      205, 190, 204, -1,
      204, 190, 191, -1,
      204, 191, 203, -1,
      203, 191, 192, -1,
      203, 192, 202, -1,
      202, 192, 193, -1,
      202, 193, 201, -1,
      201, 193, 194, -1,
      201, 194, 200, -1,
      200, 194, 181, -1,
      200, 181, 213, -1,
      213, 181, 182, -1,
      213, 182, 212, -1,
      212, 182, 183, -1,
      212, 183, 211, -1,
      211, 183, 184, -1,
      211, 184, 210, -1,
      210, 184, 185, -1,
      210, 185, 209, -1,
      209, 185, 186, -1,
      209, 186, 208, -1,
      208, 186, 187, -1,
      208, 187, 179, -1,
      216, 217, 44, -1,
      44, 217, 45, -1,
      217, 218, 45, -1,
      45, 218, 46, -1,
      218, 219, 46, -1,
      46, 219, 49, -1,
      219, 220, 49, -1,
      49, 220, 48, -1,
      220, 221, 48, -1,
      48, 221, 47, -1,
      221, 216, 47, -1,
      47, 216, 44, -1,
      220, 219, 221, -1,
      221, 219, 218, -1,
      221, 218, 216, -1,
      216, 218, 217, -1,
    ]
  }
}

Shape {
  appearance Appearance {
    material Material {
      diffuseColor 1.0000 1.0000 1.0000
      specularColor 0.5020 0.5020 0.5020
      ambientIntensity 0.2
      transparency 0.0000
      shininess 0.5
    }
  }
  geometry IndexedFaceSet {
    ccw TRUE
    solid FALSE
    coord DEF co Coordinate {
      point [
        -0.018091 0.116814 0.000000,
        -0.024674 0.116814 0.000000,
        -0.021028 0.125036 -0.000000,
        -0.021218 0.125719 -0.000000,
        -0.021343 0.126416 0.000000,
        -0.021407 0.126416 0.000000,
        -0.021535 0.125721 0.000000,
        -0.021711 0.125036 0.000000,
        -0.000927 0.126656 0.000000,
        0.001976 0.126656 0.000000,
        -0.003257 0.126409 0.000000,
        -0.004881 0.125840 0.000000,
        -0.006319 0.124911 -0.000000,
        -0.007276 0.123896 0.000000,
        -0.007959 0.122682 0.000000,
        -0.008419 0.121125 0.000000,
        -0.008586 0.119166 0.000000,
        -0.008406 0.117098 -0.000000,
        -0.007828 0.115248 0.000000,
        -0.006998 0.113891 0.000000,
        -0.005894 0.112800 0.000000,
        -0.004551 0.112003 0.000000,
        -0.002895 0.111486 -0.000000,
        -0.000818 0.111293 0.000000,
        0.001976 0.111293 0.000000,
      ]
    }
    coordIndex [
      0, 1, 2, -1,
      2, 1, 7, -1,
      2, 7, 3, -1,
      3, 7, 6, -1,
      3, 6, 4, -1,
      4, 6, 5, -1,
      9, 24, 8, -1,
      8, 24, 23, -1,
      8, 23, 22, -1,
      16, 15, 8, -1,
      8, 15, 14, -1,
      8, 14, 10, -1,
      22, 21, 8, -1,
      8, 21, 20, -1,
      8, 20, 19, -1,
      19, 18, 8, -1,
      8, 18, 17, -1,
      8, 17, 16, -1,
      13, 12, 14, -1,
      14, 12, 11, -1,
      14, 11, 10, -1,
    ]
  }
}

Shape {
  appearance Appearance {
    material Material {
      diffuseColor 0.2510 0.2510 0.2510
      specularColor 0.1255 0.1255 0.1255
      ambientIntensity 0.2
      transparency 0.0000
      shininess 0.5
    }
  }
  geometry IndexedFaceSet {
    ccw TRUE
    solid FALSE
    coord DEF co Coordinate {
      point [
        0.056976 0.053528 0.098425,
        0.056976 -0.053528 0.098425,
        -0.056976 -0.053528 0.098425,
        -0.056976 0.053528 0.098425,
        0.056976 0.053528 0.216535,
        0.056976 -0.053528 0.216535,
        -0.056976 0.053528 0.216535,
        -0.056976 -0.053528 0.216535,
      ]
    }
    coordIndex [
      4, 5, 0, -1,
      0, 5, 1, -1,
      6, 4, 3, -1,
      3, 4, 0, -1,
      7, 6, 2, -1,
      2, 6, 3, -1,
      5, 7, 1, -1,
      1, 7, 2, -1,
      6, 7, 4, -1,
      4, 7, 5, -1,
    ]
  }
}

Shape {
  appearance Appearance {
    material Material {
      diffuseColor 0.7529 0.7529 0.7529
      specularColor 0.3765 0.3765 0.3765
      ambientIntensity 0.2
      transparency 0.0000
      shininess 0.5
    }
  }
  geometry IndexedFaceSet {
    ccw TRUE
    solid FALSE
    coord DEF co Coordinate {
      point [
        0.314961 -0.157480 0.098425,
        0.314961 -0.039173 0.098425,
        0.279528 0.000000 0.098425,
        0.314961 0.157480 0.098425,
        0.314961 0.039173 0.098425,
        -0.279528 0.000000 0.098425,
        -0.314961 0.039173 0.098425,
        -0.314961 -0.157480 0.098425,
        -0.314961 -0.039173 0.098425,
        -0.314961 -0.157480 0.000000,
        -0.314961 0.039173 0.000000,
        -0.279528 0.000000 0.000000,
        -0.314961 -0.039173 0.000000,
        0.314961 -0.157480 0.000000,
        0.314961 -0.039173 0.000000,
        0.279528 0.000000 0.000000,
        0.314961 0.039173 0.000000,
        0.314961 0.157480 0.000000,
        -0.314961 0.157480 0.000000,
        0.318898 -0.035433 0.102362,
        0.318898 -0.157480 0.102362,
        0.318898 -0.035433 -0.003937,
        0.318898 -0.157480 -0.003937,
        0.236220 -0.032912 0.102362,
        0.236220 0.157480 0.102362,
        0.236220 -0.032912 0.098425,
        0.236220 0.157480 0.098425,
        0.299324 -0.034159 0.000000,
        0.196850 -0.157480 -0.000000,
        0.306878 -0.037491 0.000000,
        0.282952 0.016060 0.000000,
        0.287092 0.023203 0.000000,
        0.196850 0.157480 -0.000000,
        0.292630 -0.029326 0.000000,
        0.287092 -0.023203 0.000000,
        0.282952 -0.016060 0.000000,
        0.292630 0.029326 0.000000,
        0.299324 0.034159 0.000000,
        0.306878 0.037491 0.000000,
        0.280393 -0.008211 0.000000,
        0.280393 0.008211 0.000000,
        0.236220 -0.157480 0.098425,
        0.236220 -0.085800 0.098425,
        0.292630 -0.029326 0.098425,
        0.200580 -0.085800 0.098425,
        0.200580 -0.032912 0.098425,
        0.306878 -0.037491 0.098425,
        0.299324 -0.034159 0.098425,
        0.306878 0.037491 0.098425,
        0.299324 0.034159 0.098425,
        0.292630 0.029326 0.098425,
        0.280393 -0.008211 0.098425,
        0.282952 -0.016060 0.098425,
        0.287092 -0.023203 0.098425,
        0.287092 0.023203 0.098425,
        0.282952 0.016060 0.098425,
        0.280393 0.008211 0.098425,
        0.236220 -0.085800 0.102362,
        0.236220 -0.157480 0.102362,
        0.200580 -0.032912 0.102362,
        0.200580 -0.085800 0.102362,
        0.311531 -0.034659 0.102362,
        0.304486 -0.032370 0.102362,
        0.298070 -0.028666 0.102362,
        0.292566 -0.023709 0.102362,
        0.288212 -0.017717 0.102362,
        0.285199 -0.010950 0.102362,
        0.288212 0.017717 0.102362,
        0.292566 0.023709 0.102362,
        0.283659 -0.003704 0.102362,
        0.283659 0.003704 0.102362,
        0.285199 0.010950 0.102362,
        0.298070 0.028666 0.102362,
        0.304486 0.032370 0.102362,
        0.318898 0.157480 0.102362,
        0.311531 0.034659 0.102362,
        0.318898 0.035433 0.102362,
        0.318898 0.035433 -0.003937,
        0.318898 0.157480 -0.003937,
        0.288212 -0.017717 -0.003937,
        0.292566 -0.023709 -0.003937,
        0.196850 -0.157480 -0.003937,
        0.311531 0.034659 -0.003937,
        0.298070 0.028666 -0.003937,
        0.292566 0.023709 -0.003937,
        0.196850 0.157480 -0.003937,
        0.288212 0.017717 -0.003937,
        0.285199 -0.010950 -0.003937,
        0.285199 0.010950 -0.003937,
        0.283659 0.003704 -0.003937,
        0.283659 -0.003704 -0.003937,
        0.298070 -0.028666 -0.003937,
        0.304486 -0.032370 -0.003937,
        0.311531 -0.034659 -0.003937,
        0.304486 0.032370 -0.003937,
        -0.196850 0.157480 -0.000000,
        -0.196850 0.157480 -0.003937,
        -0.318898 0.157480 -0.003937,
        -0.314961 0.157480 0.098425,
        -0.318898 0.157480 0.098425,
        -0.314961 0.098346 0.098425,
        -0.318898 0.098425 0.098425,
        -0.318898 0.035433 -0.003937,
        -0.318898 0.098425 0.102362,
        -0.318898 0.035433 0.102362,
        -0.280393 0.008211 0.000000,
        -0.196850 -0.157480 -0.000000,
        -0.280393 -0.008211 0.000000,
        -0.282952 -0.016060 0.000000,
        -0.299324 -0.034159 0.000000,
        -0.306878 -0.037491 0.000000,
        -0.306878 0.037491 0.000000,
        -0.292630 0.029326 0.000000,
        -0.287092 0.023203 0.000000,
        -0.282952 0.016060 0.000000,
        -0.287092 -0.023203 0.000000,
        -0.292630 -0.029326 0.000000,
        -0.299324 0.034159 0.000000,
        -0.306878 0.037491 0.098425,
        -0.225665 0.031546 0.098425,
        -0.307491 0.097762 0.098425,
        -0.203722 0.087993 0.098425,
        -0.203722 0.031546 0.098425,
        -0.274798 0.087993 0.098425,
        -0.236220 -0.053404 0.098425,
        -0.306878 -0.037491 0.098425,
        -0.299324 -0.034159 0.098425,
        -0.236220 -0.157480 0.098425,
        -0.296239 0.095781 0.098425,
        -0.285292 0.092510 0.098425,
        -0.280393 0.008211 0.098425,
        -0.282952 0.016060 0.098425,
        -0.222390 0.019335 0.098425,
        -0.220708 0.006804 0.098425,
        -0.220646 -0.005839 0.098425,
        -0.280393 -0.008211 0.098425,
        -0.222205 -0.018385 0.098425,
        -0.225359 -0.030628 0.098425,
        -0.282952 -0.016060 0.098425,
        -0.230057 -0.042365 0.098425,
        -0.287092 -0.023203 0.098425,
        -0.292630 -0.029326 0.098425,
        -0.287092 0.023203 0.098425,
        -0.292630 0.029326 0.098425,
        -0.299324 0.034159 0.098425,
        -0.236220 -0.053404 0.102362,
        -0.236220 -0.157480 0.102362,
        -0.311531 -0.034659 0.102362,
        -0.318898 -0.035433 0.102362,
        -0.318898 -0.157480 0.102362,
        -0.203722 0.031546 0.102362,
        -0.203722 0.087993 0.102362,
        -0.225665 0.031546 0.102362,
        -0.274798 0.087993 0.102362,
        -0.283659 0.003704 0.102362,
        -0.283659 -0.003704 0.102362,
        -0.220646 -0.005839 0.102362,
        -0.285292 0.092510 0.102362,
        -0.296239 0.095781 0.102362,
        -0.307491 0.097762 0.102362,
        -0.311531 0.034659 0.102362,
        -0.304486 0.032370 0.102362,
        -0.298070 0.028666 0.102362,
        -0.292566 0.023709 0.102362,
        -0.222205 -0.018385 0.102362,
        -0.285199 -0.010950 0.102362,
        -0.225359 -0.030628 0.102362,
        -0.304486 -0.032370 0.102362,
        -0.298070 -0.028666 0.102362,
        -0.230057 -0.042365 0.102362,
        -0.288212 -0.017717 0.102362,
        -0.292566 -0.023709 0.102362,
        -0.288212 0.017717 0.102362,
        -0.285199 0.010950 0.102362,
        -0.222390 0.019335 0.102362,
        -0.220708 0.006804 0.102362,
        -0.318898 -0.035433 -0.003937,
        -0.318898 -0.157480 -0.003937,
        -0.304486 -0.032370 -0.003937,
        -0.196850 -0.157480 -0.003937,
        -0.311531 -0.034659 -0.003937,
        -0.298070 -0.028666 -0.003937,
        -0.292566 -0.023709 -0.003937,
        -0.288212 -0.017717 -0.003937,
        -0.288212 0.017717 -0.003937,
        -0.292566 0.023709 -0.003937,
        -0.285199 0.010950 -0.003937,
        -0.298070 0.028666 -0.003937,
        -0.304486 0.032370 -0.003937,
        -0.311531 0.034659 -0.003937,
        -0.285199 -0.010950 -0.003937,
        -0.283659 -0.003704 -0.003937,
        -0.283659 0.003704 -0.003937,
      ]
    }
    coordIndex [
      13, 0, 14, -1,
      14, 0, 1, -1,
      19, 20, 21, -1,
      21, 20, 22, -1,
      23, 24, 25, -1,
      25, 24, 26, -1,
      27, 28, 29, -1,
      29, 28, 13, -1,
      29, 13, 14, -1,
      30, 31, 32, -1,
      27, 33, 28, -1,
      28, 33, 34, -1,
      28, 34, 35, -1,
      31, 36, 32, -1,
      32, 36, 37, -1,
      32, 37, 17, -1,
      17, 37, 38, -1,
      17, 38, 16, -1,
      35, 39, 28, -1,
      28, 39, 15, -1,
      28, 15, 32, -1,
      32, 15, 40, -1,
      32, 40, 30, -1,
      3, 17, 4, -1,
      4, 17, 16, -1,
      41, 42, 43, -1,
      44, 45, 42, -1,
      42, 45, 25, -1,
      1, 0, 46, -1,
      46, 0, 41, -1,
      46, 41, 47, -1,
      47, 41, 43, -1,
      26, 3, 4, -1,
      4, 48, 26, -1,
      26, 48, 49, -1,
      26, 49, 50, -1,
      2, 51, 25, -1,
      25, 51, 52, -1,
      25, 52, 42, -1,
      42, 52, 53, -1,
      42, 53, 43, -1,
      50, 54, 26, -1,
      26, 54, 55, -1,
      26, 55, 25, -1,
      25, 55, 56, -1,
      25, 56, 2, -1,
      42, 41, 57, -1,
      57, 41, 58, -1,
      57, 58, 20, -1,
      23, 59, 60, -1,
      19, 61, 20, -1,
      20, 61, 62, -1,
      62, 63, 20, -1,
      20, 63, 23, -1,
      20, 23, 57, -1,
      57, 23, 60, -1,
      63, 64, 23, -1,
      23, 64, 65, -1,
      23, 65, 66, -1,
      67, 68, 24, -1,
      66, 69, 23, -1,
      23, 69, 70, -1,
      23, 70, 24, -1,
      24, 70, 71, -1,
      24, 71, 67, -1,
      68, 72, 24, -1,
      24, 72, 73, -1,
      24, 73, 74, -1,
      74, 73, 75, -1,
      74, 75, 76, -1,
      77, 78, 76, -1,
      76, 78, 74, -1,
      79, 80, 81, -1,
      78, 77, 82, -1,
      83, 84, 85, -1,
      85, 84, 86, -1,
      79, 81, 87, -1,
      86, 88, 85, -1,
      85, 88, 89, -1,
      85, 89, 81, -1,
      81, 89, 90, -1,
      81, 90, 87, -1,
      80, 91, 81, -1,
      81, 91, 92, -1,
      81, 92, 22, -1,
      22, 92, 93, -1,
      22, 93, 21, -1,
      78, 82, 85, -1,
      85, 82, 94, -1,
      85, 94, 83, -1,
      32, 85, 28, -1,
      28, 85, 81, -1,
      26, 24, 3, -1,
      3, 24, 74, -1,
      3, 74, 17, -1,
      17, 74, 78, -1,
      17, 78, 32, -1,
      32, 78, 85, -1,
      28, 81, 13, -1,
      13, 81, 22, -1,
      13, 22, 0, -1,
      0, 22, 20, -1,
      0, 20, 41, -1,
      41, 20, 58, -1,
      59, 23, 45, -1,
      45, 23, 25, -1,
      60, 59, 44, -1,
      44, 59, 45, -1,
      57, 60, 42, -1,
      42, 60, 44, -1,
      77, 76, 82, -1,
      82, 76, 75, -1,
      82, 75, 94, -1,
      94, 75, 73, -1,
      94, 73, 83, -1,
      83, 73, 72, -1,
      83, 72, 84, -1,
      84, 72, 68, -1,
      84, 68, 86, -1,
      86, 68, 67, -1,
      86, 67, 88, -1,
      88, 67, 71, -1,
      88, 71, 89, -1,
      89, 71, 70, -1,
      89, 70, 90, -1,
      90, 70, 69, -1,
      90, 69, 87, -1,
      87, 69, 66, -1,
      87, 66, 79, -1,
      79, 66, 65, -1,
      79, 65, 80, -1,
      80, 65, 64, -1,
      80, 64, 91, -1,
      91, 64, 63, -1,
      91, 63, 92, -1,
      92, 63, 62, -1,
      92, 62, 93, -1,
      93, 62, 61, -1,
      93, 61, 21, -1,
      21, 61, 19, -1,
      14, 1, 46, -1,
      14, 46, 29, -1,
      29, 46, 47, -1,
      29, 47, 27, -1,
      27, 47, 43, -1,
      27, 43, 33, -1,
      33, 43, 53, -1,
      33, 53, 34, -1,
      34, 53, 52, -1,
      34, 52, 35, -1,
      35, 52, 51, -1,
      35, 51, 39, -1,
      39, 51, 2, -1,
      39, 2, 15, -1,
      15, 2, 56, -1,
      15, 56, 40, -1,
      40, 56, 55, -1,
      40, 55, 30, -1,
      30, 55, 54, -1,
      30, 54, 31, -1,
      31, 54, 50, -1,
      31, 50, 36, -1,
      36, 50, 49, -1,
      36, 49, 37, -1,
      37, 49, 48, -1,
      37, 48, 38, -1,
      38, 48, 4, -1,
      38, 4, 16, -1,
      95, 96, 18, -1,
      18, 96, 97, -1,
      18, 97, 98, -1,
      98, 97, 99, -1,
      6, 10, 100, -1,
      100, 10, 18, -1,
      100, 18, 98, -1,
      99, 97, 101, -1,
      101, 97, 102, -1,
      101, 102, 103, -1,
      103, 102, 104, -1,
      105, 11, 95, -1,
      95, 11, 106, -1,
      106, 11, 107, -1,
      106, 107, 108, -1,
      106, 109, 9, -1,
      9, 109, 110, -1,
      9, 110, 12, -1,
      18, 10, 111, -1,
      112, 113, 95, -1,
      95, 113, 114, -1,
      95, 114, 105, -1,
      108, 115, 106, -1,
      106, 115, 116, -1,
      106, 116, 109, -1,
      18, 111, 95, -1,
      95, 111, 117, -1,
      95, 117, 112, -1,
      7, 9, 8, -1,
      8, 9, 12, -1,
      118, 6, 100, -1,
      119, 100, 120, -1,
      121, 122, 123, -1,
      123, 122, 119, -1,
      124, 125, 126, -1,
      124, 127, 125, -1,
      125, 127, 7, -1,
      125, 7, 8, -1,
      120, 128, 119, -1,
      119, 128, 129, -1,
      119, 129, 123, -1,
      130, 131, 119, -1,
      119, 132, 130, -1,
      130, 132, 133, -1,
      130, 133, 5, -1,
      5, 133, 134, -1,
      5, 134, 135, -1,
      134, 136, 135, -1,
      135, 136, 137, -1,
      135, 137, 138, -1,
      138, 137, 139, -1,
      138, 139, 140, -1,
      140, 139, 124, -1,
      140, 124, 141, -1,
      141, 124, 126, -1,
      131, 142, 119, -1,
      119, 142, 143, -1,
      119, 143, 100, -1,
      100, 143, 144, -1,
      100, 144, 118, -1,
      145, 146, 124, -1,
      124, 146, 127, -1,
      147, 148, 149, -1,
      150, 151, 152, -1,
      152, 151, 153, -1,
      154, 155, 156, -1,
      153, 157, 152, -1,
      152, 157, 158, -1,
      152, 158, 159, -1,
      103, 104, 159, -1,
      159, 104, 160, -1,
      160, 161, 159, -1,
      159, 161, 162, -1,
      159, 162, 152, -1,
      152, 162, 163, -1,
      156, 155, 164, -1,
      164, 155, 165, -1,
      164, 165, 166, -1,
      149, 146, 147, -1,
      147, 146, 145, -1,
      147, 145, 167, -1,
      167, 145, 168, -1,
      166, 165, 169, -1,
      169, 165, 170, -1,
      169, 170, 145, -1,
      145, 170, 171, -1,
      145, 171, 168, -1,
      163, 172, 152, -1,
      152, 172, 173, -1,
      152, 173, 174, -1,
      174, 173, 154, -1,
      174, 154, 175, -1,
      175, 154, 156, -1,
      176, 177, 148, -1,
      148, 177, 149, -1,
      178, 179, 180, -1,
      180, 179, 177, -1,
      180, 177, 176, -1,
      178, 181, 179, -1,
      179, 181, 182, -1,
      179, 182, 183, -1,
      184, 185, 96, -1,
      184, 96, 186, -1,
      185, 187, 96, -1,
      96, 187, 188, -1,
      96, 188, 97, -1,
      97, 188, 189, -1,
      97, 189, 102, -1,
      183, 190, 179, -1,
      179, 190, 191, -1,
      179, 191, 96, -1,
      96, 191, 192, -1,
      96, 192, 186, -1,
      96, 95, 179, -1,
      179, 95, 106, -1,
      127, 146, 7, -1,
      7, 146, 149, -1,
      7, 149, 9, -1,
      9, 149, 177, -1,
      9, 177, 106, -1,
      106, 177, 179, -1,
      176, 148, 180, -1,
      180, 148, 147, -1,
      180, 147, 178, -1,
      178, 147, 167, -1,
      178, 167, 181, -1,
      181, 167, 168, -1,
      181, 168, 182, -1,
      182, 168, 171, -1,
      182, 171, 183, -1,
      183, 171, 170, -1,
      183, 170, 190, -1,
      190, 170, 165, -1,
      190, 165, 191, -1,
      191, 165, 155, -1,
      191, 155, 192, -1,
      192, 155, 154, -1,
      192, 154, 186, -1,
      186, 154, 173, -1,
      186, 173, 184, -1,
      184, 173, 172, -1,
      184, 172, 185, -1,
      185, 172, 163, -1,
      185, 163, 187, -1,
      187, 163, 162, -1,
      187, 162, 188, -1,
      188, 162, 161, -1,
      188, 161, 189, -1,
      189, 161, 160, -1,
      189, 160, 102, -1,
      102, 160, 104, -1,
      10, 6, 118, -1,
      10, 118, 111, -1,
      111, 118, 144, -1,
      111, 144, 117, -1,
      117, 144, 143, -1,
      117, 143, 112, -1,
      112, 143, 142, -1,
      112, 142, 113, -1,
      113, 142, 131, -1,
      113, 131, 114, -1,
      114, 131, 130, -1,
      114, 130, 105, -1,
      105, 130, 5, -1,
      105, 5, 11, -1,
      11, 5, 135, -1,
      11, 135, 107, -1,
      107, 135, 138, -1,
      107, 138, 108, -1,
      108, 138, 140, -1,
      108, 140, 115, -1,
      115, 140, 141, -1,
      115, 141, 116, -1,
      116, 141, 126, -1,
      116, 126, 109, -1,
      109, 126, 125, -1,
      109, 125, 110, -1,
      110, 125, 8, -1,
      110, 8, 12, -1,
      153, 151, 123, -1,
      123, 151, 121, -1,
      122, 121, 150, -1,
      150, 121, 151, -1,
      119, 122, 152, -1,
      152, 122, 150, -1,
      119, 152, 174, -1,
      119, 174, 132, -1,
      132, 174, 175, -1,
      132, 175, 133, -1,
      133, 175, 156, -1,
      133, 156, 134, -1,
      134, 156, 164, -1,
      134, 164, 136, -1,
      136, 164, 166, -1,
      136, 166, 137, -1,
      137, 166, 169, -1,
      137, 169, 139, -1,
      139, 169, 145, -1,
      139, 145, 124, -1,
      100, 101, 103, -1,
      100, 103, 120, -1,
      103, 159, 120, -1,
      120, 159, 158, -1,
      120, 158, 128, -1,
      128, 158, 157, -1,
      128, 157, 129, -1,
      129, 157, 153, -1,
      129, 153, 123, -1,
      101, 100, 99, -1,
      99, 100, 98, -1,
    ]
  }
}
