#VRML V2.0 utf8

Shape {
  appearance Appearance {
    material Material {
      diffuseColor 0.5020 0.5020 0.5020
      specularColor 0.2510 0.2510 0.2510
      ambientIntensity 0.2
      transparency 0.0000
      shininess 0.5
    }
  }
  geometry IndexedFaceSet {
    ccw TRUE
    solid FALSE
    coord DEF co Coordinate {
      point [
        0.246063 -0.161417 0.000000,
        0.246063 -0.295276 0.000000,
        0.137795 -0.295276 0.000000,
        -0.017741 -0.037937 0.000000,
        -0.010059 -0.037456 0.000000,
        0.032191 -0.037456 0.000000,
        -0.010059 -0.028814 0.000000,
        -0.017741 0.295276 0.000000,
        -0.008139 0.032642 0.000000,
        -0.008139 0.041284 0.000000,
        0.047555 -0.033375 0.000000,
        0.047555 -0.024733 0.000000,
        0.032191 0.041284 0.000000,
        0.059055 0.295276 0.000000,
        0.059055 0.161417 0.000000,
        0.021629 -0.001927 0.000000,
        0.021629 -0.028814 0.000000,
        -0.006219 -0.001927 0.000000,
        -0.006219 0.006715 0.000000,
        0.021629 0.006715 0.000000,
        0.021629 0.032642 0.000000,
        0.246063 0.161417 0.000000,
        0.102008 0.020474 0.000000,
        0.097407 0.027848 0.000000,
        0.344488 0.295276 0.000000,
        0.393701 0.295276 0.000000,
        0.344488 0.161417 0.000000,
        0.393701 0.059055 0.000000,
        0.236220 0.059055 0.000000,
        0.073748 0.032731 0.000000,
        0.079642 0.030604 0.000000,
        0.048967 -0.025515 0.000000,
        0.085092 0.026958 0.000000,
        0.089847 0.021709 0.000000,
        0.095568 0.001074 0.000000,
        0.094770 -0.007450 0.000000,
        0.092630 -0.014227 0.000000,
        0.075119 -0.028948 0.000000,
        0.067765 -0.029774 0.000000,
        0.080856 -0.026834 0.000000,
        0.085688 -0.023574 0.000000,
        0.089372 -0.019686 0.000000,
        0.057313 -0.028614 0.000000,
        0.090319 0.034692 0.000000,
        0.137795 0.161417 0.000000,
        0.246063 0.295276 0.000000,
        0.137795 0.295276 0.000000,
        0.093093 0.015629 0.000000,
        0.095192 0.007200 0.000000,
        0.153182 -0.037456 0.000000,
        0.073851 -0.037937 0.000000,
        0.112852 -0.037456 0.000000,
        0.078924 -0.037411 0.000000,
        0.086577 -0.034774 0.000000,
        0.092909 -0.030723 0.000000,
        0.098819 -0.024493 0.000000,
        0.112852 -0.028814 0.000000,
        0.103008 -0.017004 0.000000,
        0.142620 -0.028814 0.000000,
        0.082846 0.039017 0.000000,
        0.074069 0.041585 0.000000,
        0.066085 0.042244 0.000000,
        0.056659 0.041594 0.000000,
        0.047555 0.039123 0.000000,
        0.047555 0.028561 0.000000,
        0.056424 0.032358 0.000000,
        0.065995 0.033602 0.000000,
        0.105038 0.011436 0.000000,
        0.142620 0.041284 0.000000,
        0.106130 0.000428 0.000000,
        0.105373 -0.008667 0.000000,
        -0.106084 -0.037456 0.000000,
        -0.094561 -0.037456 0.000000,
        -0.059055 0.161417 0.000000,
        -0.059055 0.295276 0.000000,
        -0.084875 -0.015860 0.000000,
        -0.080363 -0.022905 0.000000,
        -0.073885 -0.029113 0.000000,
        -0.065669 -0.033893 0.000000,
        -0.393701 0.295276 0.000000,
        -0.344488 0.295276 0.000000,
        -0.393701 0.059055 0.000000,
        -0.344488 0.161417 0.000000,
        -0.236220 0.059055 0.000000,
        -0.246063 0.161417 0.000000,
        -0.124329 0.041284 0.000000,
        -0.137795 0.161417 0.000000,
        -0.134891 0.041284 0.000000,
        -0.056597 -0.036602 0.000000,
        -0.046834 -0.037456 0.000000,
        -0.025423 -0.037456 0.000000,
        -0.025423 0.041284 0.000000,
        -0.047644 0.041284 0.000000,
        -0.077242 0.030699 0.000000,
        -0.082685 0.024511 0.000000,
        -0.086260 0.017693 0.000000,
        -0.246063 0.295276 0.000000,
        -0.137795 0.295276 0.000000,
        -0.236220 -0.037937 0.000000,
        -0.165619 -0.037456 0.000000,
        -0.154096 -0.037456 0.000000,
        -0.058856 0.040106 0.000000,
        -0.068048 0.036924 0.000000,
        -0.076683 0.031194 0.000000,
        -0.088292 0.009911 0.000000,
        -0.088800 0.002904 0.000000,
        -0.087695 -0.007634 0.000000,
        -0.017741 -0.295276 0.000000,
        -0.059055 -0.295276 0.000000,
        -0.146129 -0.015371 0.000000,
        -0.113601 -0.015371 0.000000,
        -0.236220 -0.059055 0.000000,
        -0.246063 -0.295276 0.000000,
        -0.246063 -0.161417 0.000000,
        -0.137795 -0.295276 0.000000,
        -0.137795 -0.161417 0.000000,
        -0.059055 -0.161417 0.000000,
        -0.393701 -0.059055 0.000000,
        -0.344488 -0.295276 0.000000,
        -0.393701 -0.295276 0.000000,
        -0.344488 -0.200787 0.000000,
        -0.305118 -0.161417 0.000000,
        0.055948 -0.036822 0.000000,
        0.063905 -0.037937 0.000000,
        0.059055 -0.161417 0.000000,
        0.059055 -0.295276 0.000000,
        0.067068 -0.038380 0.000000,
        0.069221 -0.038417 0.000000,
        0.393701 -0.295276 0.000000,
        0.344488 -0.295276 0.000000,
        0.393701 -0.059055 0.000000,
        0.344488 -0.161417 0.000000,
        0.236220 -0.059055 0.000000,
        0.137795 -0.161417 0.000000,
        0.236220 -0.037937 0.000000,
        0.153182 0.041284 0.000000,
        0.393701 0.059055 0.039370,
        0.393701 0.295276 0.145669,
        0.393701 -0.059055 0.039370,
        0.393701 -0.295276 0.145669,
        0.344488 0.295276 0.039370,
        0.246063 0.295276 0.039370,
        -0.393701 0.295276 0.145669,
        -0.059055 0.295276 0.039370,
        -0.137795 0.295276 0.039370,
        0.137795 0.295276 0.039370,
        0.059055 0.295276 0.039370,
        -0.344488 0.295276 0.039370,
        -0.246063 0.295276 0.039370,
        -0.393701 -0.059055 0.039370,
        -0.393701 -0.295276 0.145669,
        -0.393701 0.059055 0.039370,
        -0.059055 -0.295276 0.039370,
        0.059055 -0.295276 0.039370,
        0.137795 -0.295276 0.039370,
        -0.344488 -0.295276 0.039370,
        -0.246063 -0.295276 0.039370,
        -0.137795 -0.295276 0.039370,
        0.344488 -0.295276 0.039370,
        0.246063 -0.295276 0.039370,
        -0.290766 -0.230030 0.145669,
        -0.291761 -0.237594 0.145669,
        -0.294681 -0.244641 0.145669,
        -0.299324 -0.250694 0.145669,
        -0.305377 -0.255337 0.145669,
        -0.312424 -0.258257 0.145669,
        -0.319988 -0.259252 0.145669,
        -0.327551 -0.258257 0.145669,
        -0.345295 -0.215419 0.145669,
        -0.348214 -0.222467 0.145669,
        -0.340651 -0.209367 0.145669,
        -0.334599 -0.204723 0.145669,
        -0.327551 -0.201804 0.145669,
        -0.305377 -0.204723 0.145669,
        -0.312424 -0.201804 0.145669,
        -0.319988 -0.200808 0.145669,
        -0.334599 -0.255337 0.145669,
        -0.340651 -0.250694 0.145669,
        -0.345295 -0.244641 0.145669,
        -0.299324 -0.209367 0.145669,
        -0.294681 -0.215419 0.145669,
        -0.291761 -0.222467 0.145669,
        -0.348214 -0.237594 0.145669,
        -0.349210 -0.230030 0.145669,
      ]
    }
    coordIndex [
      0, 1, 2, -1,
      3, 4, 5, -1,
      6, 7, 8, -1,
      8, 7, 9, -1,
      10, 5, 11, -1,
      11, 5, 12, -1,
      7, 13, 9, -1,
      9, 13, 14, -1,
      9, 14, 12, -1,
      15, 16, 17, -1,
      17, 16, 6, -1,
      17, 6, 18, -1,
      18, 6, 8, -1,
      18, 8, 19, -1,
      19, 8, 20, -1,
      21, 22, 23, -1,
      24, 25, 26, -1,
      26, 25, 27, -1,
      26, 27, 21, -1,
      21, 27, 28, -1,
      29, 30, 31, -1,
      31, 30, 32, -1,
      31, 32, 33, -1,
      34, 35, 31, -1,
      31, 35, 36, -1,
      37, 38, 39, -1,
      39, 38, 40, -1,
      36, 41, 31, -1,
      31, 41, 40, -1,
      31, 40, 42, -1,
      42, 40, 38, -1,
      23, 43, 21, -1,
      21, 43, 44, -1,
      21, 44, 45, -1,
      45, 44, 46, -1,
      33, 47, 31, -1,
      31, 47, 48, -1,
      31, 48, 34, -1,
      49, 50, 51, -1,
      51, 50, 52, -1,
      51, 52, 53, -1,
      53, 54, 51, -1,
      51, 54, 55, -1,
      51, 55, 56, -1,
      56, 55, 57, -1,
      56, 57, 58, -1,
      43, 59, 44, -1,
      44, 59, 60, -1,
      44, 60, 14, -1,
      14, 60, 61, -1,
      61, 62, 14, -1,
      14, 62, 63, -1,
      14, 63, 12, -1,
      12, 63, 64, -1,
      12, 64, 11, -1,
      11, 64, 65, -1,
      11, 65, 31, -1,
      31, 65, 66, -1,
      31, 66, 29, -1,
      67, 68, 69, -1,
      69, 68, 58, -1,
      69, 58, 70, -1,
      70, 58, 57, -1,
      71, 72, 3, -1,
      73, 74, 7, -1,
      75, 76, 72, -1,
      72, 76, 77, -1,
      72, 77, 78, -1,
      79, 80, 81, -1,
      81, 80, 82, -1,
      81, 82, 83, -1,
      83, 82, 84, -1,
      73, 85, 86, -1,
      86, 85, 87, -1,
      78, 88, 72, -1,
      72, 88, 89, -1,
      72, 89, 3, -1,
      3, 89, 90, -1,
      3, 90, 91, -1,
      92, 73, 91, -1,
      91, 73, 7, -1,
      91, 7, 3, -1,
      3, 7, 6, -1,
      3, 6, 4, -1,
      93, 94, 85, -1,
      85, 94, 95, -1,
      96, 97, 84, -1,
      84, 97, 86, -1,
      84, 86, 83, -1,
      83, 86, 87, -1,
      83, 87, 98, -1,
      98, 87, 99, -1,
      98, 99, 100, -1,
      92, 101, 73, -1,
      73, 101, 102, -1,
      73, 102, 85, -1,
      85, 102, 103, -1,
      85, 103, 93, -1,
      95, 104, 85, -1,
      85, 104, 105, -1,
      85, 105, 72, -1,
      72, 105, 106, -1,
      72, 106, 75, -1,
      3, 107, 108, -1,
      109, 110, 100, -1,
      100, 110, 71, -1,
      100, 71, 98, -1,
      98, 71, 3, -1,
      98, 3, 111, -1,
      112, 113, 114, -1,
      114, 113, 115, -1,
      108, 116, 3, -1,
      3, 116, 115, -1,
      3, 115, 111, -1,
      111, 115, 113, -1,
      111, 113, 117, -1,
      118, 119, 120, -1,
      120, 119, 117, -1,
      120, 117, 121, -1,
      121, 117, 113, -1,
      10, 122, 5, -1,
      5, 122, 123, -1,
      5, 123, 3, -1,
      3, 123, 124, -1,
      3, 124, 107, -1,
      107, 124, 125, -1,
      123, 126, 124, -1,
      124, 126, 127, -1,
      124, 127, 50, -1,
      128, 129, 130, -1,
      130, 129, 131, -1,
      130, 131, 132, -1,
      132, 131, 0, -1,
      132, 0, 133, -1,
      133, 0, 2, -1,
      133, 124, 132, -1,
      132, 124, 50, -1,
      132, 50, 134, -1,
      134, 50, 49, -1,
      134, 49, 28, -1,
      28, 49, 135, -1,
      28, 135, 21, -1,
      21, 135, 68, -1,
      21, 68, 22, -1,
      22, 68, 67, -1,
      27, 25, 136, -1,
      136, 25, 137, -1,
      136, 137, 138, -1,
      138, 137, 139, -1,
      138, 139, 130, -1,
      130, 139, 128, -1,
      137, 25, 24, -1,
      24, 140, 137, -1,
      137, 140, 141, -1,
      137, 141, 142, -1,
      7, 74, 143, -1,
      143, 144, 142, -1,
      45, 46, 141, -1,
      141, 46, 145, -1,
      141, 145, 142, -1,
      142, 145, 146, -1,
      142, 146, 143, -1,
      143, 146, 13, -1,
      143, 13, 7, -1,
      80, 79, 147, -1,
      147, 79, 142, -1,
      147, 142, 148, -1,
      148, 142, 144, -1,
      148, 144, 96, -1,
      96, 144, 97, -1,
      117, 119, 149, -1,
      149, 119, 150, -1,
      149, 150, 151, -1,
      151, 150, 142, -1,
      151, 142, 81, -1,
      81, 142, 79, -1,
      150, 119, 118, -1,
      152, 108, 107, -1,
      153, 154, 139, -1,
      118, 155, 150, -1,
      150, 155, 156, -1,
      150, 156, 139, -1,
      112, 114, 156, -1,
      156, 114, 157, -1,
      156, 157, 139, -1,
      139, 157, 152, -1,
      139, 152, 153, -1,
      153, 152, 107, -1,
      153, 107, 125, -1,
      129, 128, 158, -1,
      158, 128, 139, -1,
      158, 139, 159, -1,
      159, 139, 154, -1,
      159, 154, 1, -1,
      1, 154, 2, -1,
      160, 161, 139, -1,
      139, 161, 162, -1,
      139, 162, 163, -1,
      163, 164, 139, -1,
      139, 164, 165, -1,
      139, 165, 150, -1,
      150, 165, 166, -1,
      150, 166, 167, -1,
      168, 142, 169, -1,
      169, 142, 150, -1,
      168, 170, 142, -1,
      142, 170, 171, -1,
      142, 171, 172, -1,
      173, 137, 174, -1,
      174, 137, 142, -1,
      174, 142, 175, -1,
      175, 142, 172, -1,
      167, 176, 150, -1,
      150, 176, 177, -1,
      150, 177, 178, -1,
      173, 179, 137, -1,
      137, 179, 180, -1,
      137, 180, 139, -1,
      139, 180, 181, -1,
      139, 181, 160, -1,
      178, 182, 150, -1,
      150, 182, 183, -1,
      150, 183, 169, -1,
    ]
  }
}

Shape {
  appearance Appearance {
    material Material {
      diffuseColor 0.0000 0.0000 0.0000
      specularColor 0.0000 0.0000 0.0000
      ambientIntensity 0.2
      transparency 0.0000
      shininess 0.5
    }
  }
  geometry IndexedFaceSet {
    ccw TRUE
    solid FALSE
    coord DEF co Coordinate {
      point [
        -0.290766 -0.230030 0.145669,
        -0.291761 -0.237594 0.145669,
        -0.294681 -0.244641 0.145669,
        -0.299324 -0.250694 0.145669,
        -0.305377 -0.255337 0.145669,
        -0.312424 -0.258257 0.145669,
        -0.319988 -0.259252 0.145669,
        -0.327551 -0.258257 0.145669,
        -0.345295 -0.215419 0.145669,
        -0.348214 -0.222467 0.145669,
        -0.340651 -0.209367 0.145669,
        -0.334599 -0.204723 0.145669,
        -0.327551 -0.201804 0.145669,
        -0.305377 -0.204723 0.145669,
        -0.312424 -0.201804 0.145669,
        -0.319988 -0.200808 0.145669,
        -0.334599 -0.255337 0.145669,
        -0.340651 -0.250694 0.145669,
        -0.345295 -0.244641 0.145669,
        -0.299324 -0.209367 0.145669,
        -0.294681 -0.215419 0.145669,
        -0.291761 -0.222467 0.145669,
        -0.348214 -0.237594 0.145669,
        -0.349210 -0.230030 0.145669,
        -0.290766 -0.230030 0.145276,
        -0.291761 -0.222467 0.145276,
        -0.294681 -0.215419 0.145276,
        -0.299324 -0.209367 0.145276,
        -0.305377 -0.204723 0.145276,
        -0.312424 -0.201804 0.145276,
        -0.319988 -0.200808 0.145276,
        -0.327551 -0.201804 0.145276,
        -0.334599 -0.204723 0.145276,
        -0.340651 -0.209367 0.145276,
        -0.345295 -0.215419 0.145276,
        -0.348214 -0.222467 0.145276,
        -0.349210 -0.230030 0.145276,
        -0.348214 -0.237594 0.145276,
        -0.345295 -0.244641 0.145276,
        -0.340651 -0.250694 0.145276,
        -0.334599 -0.255337 0.145276,
        -0.327551 -0.258257 0.145276,
        -0.319988 -0.259252 0.145276,
        -0.312424 -0.258257 0.145276,
        -0.305377 -0.255337 0.145276,
        -0.299324 -0.250694 0.145276,
        -0.294681 -0.244641 0.145276,
        -0.291761 -0.237594 0.145276,
        -0.319988 -0.230030 0.145276,
      ]
    }
    coordIndex [
      24, 0, 25, -1,
      25, 0, 21, -1,
      25, 21, 26, -1,
      26, 21, 20, -1,
      26, 20, 27, -1,
      27, 20, 19, -1,
      27, 19, 28, -1,
      28, 19, 13, -1,
      28, 13, 29, -1,
      29, 13, 14, -1,
      29, 14, 30, -1,
      30, 14, 15, -1,
      30, 15, 31, -1,
      31, 15, 12, -1,
      31, 12, 32, -1,
      32, 12, 11, -1,
      32, 11, 33, -1,
      33, 11, 10, -1,
      33, 10, 34, -1,
      34, 10, 8, -1,
      34, 8, 35, -1,
      35, 8, 9, -1,
      35, 9, 36, -1,
      36, 9, 23, -1,
      36, 23, 37, -1,
      37, 23, 22, -1,
      37, 22, 38, -1,
      38, 22, 18, -1,
      38, 18, 39, -1,
      39, 18, 17, -1,
      39, 17, 40, -1,
      40, 17, 16, -1,
      40, 16, 41, -1,
      41, 16, 7, -1,
      41, 7, 42, -1,
      42, 7, 6, -1,
      42, 6, 43, -1,
      43, 6, 5, -1,
      43, 5, 44, -1,
      44, 5, 4, -1,
      44, 4, 45, -1,
      45, 4, 3, -1,
      45, 3, 46, -1,
      46, 3, 2, -1,
      46, 2, 47, -1,
      47, 2, 1, -1,
      47, 1, 24, -1,
      24, 1, 0, -1,
      46, 47, 48, -1,
      48, 47, 24, -1,
      48, 24, 25, -1,
      43, 44, 48, -1,
      48, 44, 45, -1,
      48, 45, 46, -1,
      40, 41, 48, -1,
      48, 41, 42, -1,
      48, 42, 43, -1,
      37, 38, 48, -1,
      48, 38, 39, -1,
      48, 39, 40, -1,
      34, 35, 48, -1,
      48, 35, 36, -1,
      48, 36, 37, -1,
      31, 32, 48, -1,
      48, 32, 33, -1,
      48, 33, 34, -1,
      28, 29, 48, -1,
      48, 29, 30, -1,
      48, 30, 31, -1,
      25, 26, 48, -1,
      48, 26, 27, -1,
      48, 27, 28, -1,
    ]
  }
}

Shape {
  appearance Appearance {
    material Material {
      diffuseColor 1.0000 1.0000 1.0000
      specularColor 0.5020 0.5020 0.5020
      ambientIntensity 0.2
      transparency 0.0000
      shininess 0.5
    }
  }
  geometry IndexedFaceSet {
    ccw TRUE
    solid FALSE
    coord DEF co Coordinate {
      point [
        0.246063 -0.161417 0.000000,
        0.246063 -0.295276 0.000000,
        0.137795 -0.295276 0.000000,
        0.059055 0.295276 0.000000,
        0.059055 0.161417 0.000000,
        0.246063 0.161417 0.000000,
        0.344488 0.295276 0.000000,
        0.344488 0.161417 0.000000,
        0.393701 0.059055 0.000000,
        0.236220 0.059055 0.000000,
        0.137795 0.161417 0.000000,
        0.246063 0.295276 0.000000,
        0.137795 0.295276 0.000000,
        -0.059055 0.161417 0.000000,
        -0.059055 0.295276 0.000000,
        -0.344488 0.295276 0.000000,
        -0.393701 0.059055 0.000000,
        -0.344488 0.161417 0.000000,
        -0.236220 0.059055 0.000000,
        -0.246063 0.161417 0.000000,
        -0.137795 0.161417 0.000000,
        -0.246063 0.295276 0.000000,
        -0.137795 0.295276 0.000000,
        -0.236220 -0.037937 0.000000,
        -0.059055 -0.295276 0.000000,
        -0.236220 -0.059055 0.000000,
        -0.246063 -0.295276 0.000000,
        -0.246063 -0.161417 0.000000,
        -0.137795 -0.295276 0.000000,
        -0.137795 -0.161417 0.000000,
        -0.059055 -0.161417 0.000000,
        -0.393701 -0.059055 0.000000,
        -0.344488 -0.295276 0.000000,
        -0.344488 -0.200787 0.000000,
        -0.305118 -0.161417 0.000000,
        0.059055 -0.161417 0.000000,
        0.059055 -0.295276 0.000000,
        0.344488 -0.295276 0.000000,
        0.393701 -0.059055 0.000000,
        0.344488 -0.161417 0.000000,
        0.236220 -0.059055 0.000000,
        0.137795 -0.161417 0.000000,
        0.236220 -0.037937 0.000000,
        0.393701 0.059055 0.039370,
        0.393701 -0.059055 0.039370,
        0.344488 0.295276 0.039370,
        0.246063 0.295276 0.039370,
        -0.059055 0.295276 0.039370,
        -0.137795 0.295276 0.039370,
        0.137795 0.295276 0.039370,
        0.059055 0.295276 0.039370,
        -0.344488 0.295276 0.039370,
        -0.246063 0.295276 0.039370,
        -0.393701 -0.059055 0.039370,
        -0.393701 0.059055 0.039370,
        -0.059055 -0.295276 0.039370,
        0.059055 -0.295276 0.039370,
        0.137795 -0.295276 0.039370,
        -0.344488 -0.295276 0.039370,
        -0.246063 -0.295276 0.039370,
        -0.137795 -0.295276 0.039370,
        0.344488 -0.295276 0.039370,
        0.246063 -0.295276 0.039370,
        0.246063 -0.299213 0.039370,
        0.344488 -0.299213 0.039370,
        0.344488 -0.299213 -0.003937,
        0.344488 -0.161417 -0.003937,
        0.246063 -0.161417 -0.003937,
        0.246063 -0.299213 -0.003937,
        0.059055 -0.299213 0.039370,
        0.137795 -0.299213 0.039370,
        0.137795 -0.299213 -0.003937,
        0.137795 -0.161417 -0.003937,
        0.059055 -0.161417 -0.003937,
        0.059055 -0.299213 -0.003937,
        -0.344488 -0.299213 0.039370,
        -0.246063 -0.299213 0.039370,
        -0.246063 -0.299213 -0.003937,
        -0.246063 -0.161417 -0.003937,
        -0.305118 -0.161417 -0.003937,
        -0.344488 -0.200787 -0.003937,
        -0.344488 -0.299213 -0.003937,
        -0.137795 -0.299213 0.039370,
        -0.059055 -0.299213 0.039370,
        -0.059055 -0.299213 -0.003937,
        -0.059055 -0.161417 -0.003937,
        -0.137795 -0.161417 -0.003937,
        -0.137795 -0.299213 -0.003937,
        0.344488 0.299213 0.039370,
        0.246063 0.299213 0.039370,
        0.246063 0.299213 -0.003937,
        0.246063 0.161417 -0.003937,
        0.344488 0.161417 -0.003937,
        0.344488 0.299213 -0.003937,
        0.137795 0.299213 0.039370,
        0.059055 0.299213 0.039370,
        0.059055 0.299213 -0.003937,
        0.059055 0.161417 -0.003937,
        0.137795 0.161417 -0.003937,
        0.137795 0.299213 -0.003937,
        -0.059055 0.299213 0.039370,
        -0.137795 0.299213 0.039370,
        -0.137795 0.161417 -0.003937,
        -0.059055 0.161417 -0.003937,
        -0.059055 0.299213 -0.003937,
        -0.137795 0.299213 -0.003937,
        -0.246063 0.299213 0.039370,
        -0.344488 0.299213 0.039370,
        -0.344488 0.299213 -0.003937,
        -0.344488 0.161417 -0.003937,
        -0.246063 0.161417 -0.003937,
        -0.246063 0.299213 -0.003937,
        -0.397638 0.059055 0.039370,
        -0.397638 -0.059055 0.039370,
        -0.397638 -0.059055 -0.003937,
        -0.236220 -0.059055 -0.003937,
        -0.236220 0.059055 -0.003937,
        -0.397638 0.059055 -0.003937,
        0.397638 -0.059055 0.039370,
        0.397638 0.059055 0.039370,
        0.236220 0.059055 -0.003937,
        0.236220 -0.059055 -0.003937,
        0.397638 -0.059055 -0.003937,
        0.397638 0.059055 -0.003937,
      ]
    }
    coordIndex [
      62, 63, 61, -1,
      61, 63, 64, -1,
      61, 64, 37, -1,
      37, 64, 65, -1,
      37, 65, 39, -1,
      39, 65, 66, -1,
      66, 67, 39, -1,
      39, 67, 0, -1,
      0, 67, 1, -1,
      1, 67, 68, -1,
      1, 68, 62, -1,
      62, 68, 63, -1,
      65, 64, 68, -1,
      68, 64, 63, -1,
      68, 67, 65, -1,
      65, 67, 66, -1,
      69, 70, 56, -1,
      56, 70, 57, -1,
      57, 70, 2, -1,
      2, 70, 71, -1,
      2, 71, 41, -1,
      41, 71, 72, -1,
      72, 73, 41, -1,
      41, 73, 35, -1,
      35, 73, 36, -1,
      36, 73, 74, -1,
      36, 74, 56, -1,
      56, 74, 69, -1,
      71, 70, 74, -1,
      74, 70, 69, -1,
      74, 73, 71, -1,
      71, 73, 72, -1,
      75, 76, 58, -1,
      58, 76, 59, -1,
      59, 76, 26, -1,
      26, 76, 77, -1,
      26, 77, 27, -1,
      27, 77, 78, -1,
      78, 79, 27, -1,
      27, 79, 34, -1,
      79, 80, 34, -1,
      34, 80, 33, -1,
      33, 80, 32, -1,
      32, 80, 81, -1,
      32, 81, 58, -1,
      58, 81, 75, -1,
      77, 76, 81, -1,
      81, 76, 75, -1,
      79, 78, 80, -1,
      80, 78, 77, -1,
      80, 77, 81, -1,
      60, 82, 55, -1,
      55, 82, 83, -1,
      55, 83, 24, -1,
      24, 83, 84, -1,
      24, 84, 30, -1,
      30, 84, 85, -1,
      85, 86, 30, -1,
      30, 86, 29, -1,
      29, 86, 28, -1,
      28, 86, 87, -1,
      28, 87, 60, -1,
      60, 87, 82, -1,
      84, 83, 87, -1,
      87, 83, 82, -1,
      87, 86, 84, -1,
      84, 86, 85, -1,
      88, 89, 45, -1,
      45, 89, 46, -1,
      46, 89, 11, -1,
      11, 89, 90, -1,
      11, 90, 5, -1,
      5, 90, 91, -1,
      91, 92, 5, -1,
      5, 92, 7, -1,
      7, 92, 6, -1,
      6, 92, 93, -1,
      6, 93, 45, -1,
      45, 93, 88, -1,
      90, 89, 93, -1,
      93, 89, 88, -1,
      93, 92, 90, -1,
      90, 92, 91, -1,
      49, 94, 50, -1,
      50, 94, 95, -1,
      50, 95, 3, -1,
      3, 95, 96, -1,
      3, 96, 4, -1,
      4, 96, 97, -1,
      97, 98, 4, -1,
      4, 98, 10, -1,
      10, 98, 12, -1,
      12, 98, 99, -1,
      12, 99, 49, -1,
      49, 99, 94, -1,
      96, 95, 99, -1,
      99, 95, 94, -1,
      99, 98, 96, -1,
      96, 98, 97, -1,
      47, 100, 48, -1,
      48, 100, 101, -1,
      102, 103, 20, -1,
      20, 103, 13, -1,
      13, 103, 14, -1,
      14, 103, 104, -1,
      14, 104, 47, -1,
      47, 104, 100, -1,
      48, 101, 22, -1,
      22, 101, 105, -1,
      22, 105, 20, -1,
      20, 105, 102, -1,
      105, 101, 104, -1,
      104, 101, 100, -1,
      105, 104, 102, -1,
      102, 104, 103, -1,
      106, 107, 52, -1,
      52, 107, 51, -1,
      51, 107, 15, -1,
      15, 107, 108, -1,
      15, 108, 17, -1,
      17, 108, 109, -1,
      109, 110, 17, -1,
      17, 110, 19, -1,
      19, 110, 21, -1,
      21, 110, 111, -1,
      21, 111, 52, -1,
      52, 111, 106, -1,
      108, 107, 111, -1,
      111, 107, 106, -1,
      110, 109, 111, -1,
      111, 109, 108, -1,
      112, 113, 54, -1,
      54, 113, 53, -1,
      53, 113, 31, -1,
      31, 113, 114, -1,
      31, 114, 25, -1,
      25, 114, 115, -1,
      25, 115, 23, -1,
      23, 115, 116, -1,
      23, 116, 18, -1,
      18, 116, 16, -1,
      16, 116, 117, -1,
      16, 117, 54, -1,
      54, 117, 112, -1,
      114, 113, 117, -1,
      117, 113, 112, -1,
      116, 115, 117, -1,
      117, 115, 114, -1,
      44, 118, 43, -1,
      43, 118, 119, -1,
      9, 120, 42, -1,
      42, 120, 121, -1,
      42, 121, 40, -1,
      40, 121, 38, -1,
      38, 121, 122, -1,
      38, 122, 44, -1,
      44, 122, 118, -1,
      43, 119, 8, -1,
      8, 119, 123, -1,
      8, 123, 9, -1,
      9, 123, 120, -1,
      123, 119, 122, -1,
      122, 119, 118, -1,
      123, 122, 120, -1,
      120, 122, 121, -1,
    ]
  }
}

Shape {
  appearance Appearance {
    material Material {
      diffuseColor 0.0000 0.0000 0.0000
      specularColor 0.0000 0.0000 0.0000
      ambientIntensity 0.2
      transparency 0.0000
      shininess 0.5
    }
  }
  geometry IndexedFaceSet {
    ccw TRUE
    solid FALSE
    coord DEF co Coordinate {
      point [
        -0.010059 -0.037456 0.000000,
        0.032191 -0.037456 0.000000,
        -0.010059 -0.028814 0.000000,
        -0.008139 0.032642 0.000000,
        -0.008139 0.041284 0.000000,
        0.047555 -0.033375 0.000000,
        0.047555 -0.024733 0.000000,
        0.032191 0.041284 0.000000,
        0.021629 -0.001927 0.000000,
        0.021629 -0.028814 0.000000,
        -0.006219 -0.001927 0.000000,
        -0.006219 0.006715 0.000000,
        0.021629 0.006715 0.000000,
        0.021629 0.032642 0.000000,
        0.102008 0.020474 0.000000,
        0.097407 0.027848 0.000000,
        0.073748 0.032731 0.000000,
        0.079642 0.030604 0.000000,
        0.048967 -0.025515 0.000000,
        0.085092 0.026958 0.000000,
        0.089847 0.021709 0.000000,
        0.095568 0.001074 0.000000,
        0.094770 -0.007450 0.000000,
        0.092630 -0.014227 0.000000,
        0.075119 -0.028948 0.000000,
        0.067765 -0.029774 0.000000,
        0.080856 -0.026834 0.000000,
        0.085688 -0.023574 0.000000,
        0.089372 -0.019686 0.000000,
        0.057313 -0.028614 0.000000,
        0.090319 0.034692 0.000000,
        0.093093 0.015629 0.000000,
        0.095192 0.007200 0.000000,
        0.153182 -0.037456 0.000000,
        0.073851 -0.037937 0.000000,
        0.112852 -0.037456 0.000000,
        0.078924 -0.037411 0.000000,
        0.086577 -0.034774 0.000000,
        0.092909 -0.030723 0.000000,
        0.098819 -0.024493 0.000000,
        0.112852 -0.028814 0.000000,
        0.103008 -0.017004 0.000000,
        0.142620 -0.028814 0.000000,
        0.082846 0.039017 0.000000,
        0.074069 0.041585 0.000000,
        0.066085 0.042244 0.000000,
        0.056659 0.041594 0.000000,
        0.047555 0.039123 0.000000,
        0.047555 0.028561 0.000000,
        0.056424 0.032358 0.000000,
        0.065995 0.033602 0.000000,
        0.105038 0.011436 0.000000,
        0.142620 0.041284 0.000000,
        0.106130 0.000428 0.000000,
        0.105373 -0.008667 0.000000,
        -0.106084 -0.037456 0.000000,
        -0.094561 -0.037456 0.000000,
        -0.084875 -0.015860 0.000000,
        -0.080363 -0.022905 0.000000,
        -0.073885 -0.029113 0.000000,
        -0.065669 -0.033893 0.000000,
        -0.124329 0.041284 0.000000,
        -0.134891 0.041284 0.000000,
        -0.056597 -0.036602 0.000000,
        -0.046834 -0.037456 0.000000,
        -0.025423 -0.037456 0.000000,
        -0.025423 0.041284 0.000000,
        -0.047644 0.041284 0.000000,
        -0.077242 0.030699 0.000000,
        -0.082685 0.024511 0.000000,
        -0.086260 0.017693 0.000000,
        -0.165619 -0.037456 0.000000,
        -0.154096 -0.037456 0.000000,
        -0.058856 0.040106 0.000000,
        -0.068048 0.036924 0.000000,
        -0.076683 0.031194 0.000000,
        -0.088292 0.009911 0.000000,
        -0.088800 0.002904 0.000000,
        -0.087695 -0.007634 0.000000,
        -0.146129 -0.015371 0.000000,
        -0.113601 -0.015371 0.000000,
        0.055948 -0.036822 0.000000,
        0.063905 -0.037937 0.000000,
        0.067068 -0.038380 0.000000,
        0.069221 -0.038417 0.000000,
        0.153182 0.041284 0.000000,
        -0.134891 0.041284 0.000394,
        -0.165619 -0.037456 0.000394,
        -0.154096 -0.037456 0.000394,
        -0.146129 -0.015371 0.000394,
        -0.113601 -0.015371 0.000394,
        -0.106084 -0.037456 0.000394,
        -0.094561 -0.037456 0.000394,
        -0.124329 0.041284 0.000394,
        -0.116257 -0.006728 0.000394,
        -0.142589 -0.006728 0.000394,
        -0.128005 0.026160 0.000394,
        -0.128763 0.028891 0.000394,
        -0.129265 0.031681 0.000394,
        -0.129520 0.031681 0.000394,
        -0.130034 0.028899 0.000394,
        -0.130735 0.026160 0.000394,
        -0.116257 -0.006728 0.000000,
        -0.142589 -0.006728 0.000000,
        -0.128005 0.026160 0.000000,
        -0.128763 0.028891 -0.000000,
        -0.129265 0.031681 0.000000,
        -0.129520 0.031681 0.000000,
        -0.130034 0.028899 0.000000,
        -0.130735 0.026160 0.000000,
        -0.046834 -0.037456 0.000394,
        -0.025423 -0.037456 0.000394,
        -0.025423 0.041284 0.000394,
        -0.047644 0.041284 0.000394,
        -0.088800 0.002904 0.000394,
        -0.088292 0.009911 0.000394,
        -0.086260 0.017693 0.000394,
        -0.082685 0.024511 0.000394,
        -0.077242 0.030699 0.000394,
        -0.076683 0.031194 0.000394,
        -0.068048 0.036924 0.000394,
        -0.058856 0.040106 0.000394,
        -0.056597 -0.036602 0.000394,
        -0.065669 -0.033893 0.000394,
        -0.073885 -0.029113 0.000394,
        -0.080363 -0.022905 0.000394,
        -0.084875 -0.015860 0.000394,
        -0.087695 -0.007634 0.000394,
        -0.072983 0.021615 0.000394,
        -0.069156 0.025672 0.000394,
        -0.063401 0.029385 0.000394,
        -0.056898 0.031656 0.000394,
        -0.047599 0.032642 0.000394,
        -0.035986 0.032642 0.000394,
        -0.035986 -0.028814 0.000394,
        -0.047164 -0.028814 0.000394,
        -0.055471 -0.028041 0.000394,
        -0.062105 -0.025969 0.000394,
        -0.067473 -0.022779 0.000394,
        -0.071888 -0.018416 0.000394,
        -0.075208 -0.012985 0.000394,
        -0.077516 -0.005581 0.000394,
        -0.078237 0.002679 0.000394,
        -0.077568 0.010515 0.000394,
        -0.075722 0.016763 0.000394,
        -0.047599 0.032642 0.000000,
        -0.035986 0.032642 0.000000,
        -0.056898 0.031656 -0.000000,
        -0.063401 0.029385 -0.000000,
        -0.069156 0.025672 -0.000000,
        -0.072983 0.021615 0.000000,
        -0.075722 0.016763 -0.000000,
        -0.077568 0.010515 0.000000,
        -0.078237 0.002679 -0.000000,
        -0.077516 -0.005581 0.000000,
        -0.075208 -0.012985 0.000000,
        -0.071888 -0.018416 0.000000,
        -0.067473 -0.022779 0.000000,
        -0.062105 -0.025969 0.000000,
        -0.055471 -0.028041 -0.000000,
        -0.047164 -0.028814 0.000000,
        -0.035986 -0.028814 0.000000,
        -0.010059 -0.028814 0.000394,
        -0.010059 -0.037456 0.000394,
        0.032191 -0.037456 0.000394,
        0.032191 0.041284 0.000394,
        -0.008139 0.041284 0.000394,
        -0.008139 0.032642 0.000394,
        0.021629 0.032642 0.000394,
        0.021629 0.006715 0.000394,
        -0.006219 0.006715 0.000394,
        -0.006219 -0.001927 0.000394,
        0.021629 -0.001927 0.000394,
        0.021629 -0.028814 0.000394,
        0.047555 -0.024733 0.000394,
        0.047555 -0.033375 0.000394,
        0.055948 -0.036822 0.000394,
        0.069221 -0.038417 0.000394,
        0.067068 -0.038380 0.000394,
        0.078924 -0.037411 0.000394,
        0.086577 -0.034774 0.000394,
        0.092909 -0.030723 0.000394,
        0.098819 -0.024493 0.000394,
        0.103008 -0.017004 0.000394,
        0.105373 -0.008667 0.000394,
        0.106130 0.000428 0.000394,
        0.066085 0.042244 0.000394,
        0.074069 0.041585 0.000394,
        0.082846 0.039017 0.000394,
        0.090319 0.034692 0.000394,
        0.097407 0.027848 0.000394,
        0.102008 0.020474 0.000394,
        0.105038 0.011436 0.000394,
        0.047555 0.039123 0.000394,
        0.056659 0.041594 0.000394,
        0.047555 0.028561 0.000394,
        0.065995 0.033602 0.000394,
        0.056424 0.032358 0.000394,
        0.095568 0.001074 0.000394,
        0.095192 0.007200 0.000394,
        0.093093 0.015629 0.000394,
        0.089847 0.021709 0.000394,
        0.085092 0.026958 0.000394,
        0.079642 0.030604 0.000394,
        0.073748 0.032731 0.000394,
        0.067765 -0.029774 0.000394,
        0.075119 -0.028948 0.000394,
        0.080856 -0.026834 0.000394,
        0.085688 -0.023574 0.000394,
        0.089372 -0.019686 0.000394,
        0.092630 -0.014227 0.000394,
        0.094770 -0.007450 0.000394,
        0.048967 -0.025515 0.000394,
        0.057313 -0.028614 0.000394,
        0.112852 -0.028814 0.000394,
        0.112852 -0.037456 0.000394,
        0.153182 -0.037456 0.000394,
        0.153182 0.041284 0.000394,
        0.142620 0.041284 0.000394,
        0.142620 -0.028814 0.000394,
      ]
    }
    coordIndex [
      86, 87, 62, -1,
      62, 87, 71, -1,
      87, 88, 71, -1,
      71, 88, 72, -1,
      88, 89, 72, -1,
      72, 89, 79, -1,
      89, 90, 79, -1,
      79, 90, 80, -1,
      90, 91, 80, -1,
      80, 91, 55, -1,
      91, 92, 55, -1,
      55, 92, 56, -1,
      92, 93, 56, -1,
      56, 93, 61, -1,
      93, 86, 61, -1,
      61, 86, 62, -1,
      94, 90, 95, -1,
      95, 90, 89, -1,
      96, 93, 94, -1,
      94, 93, 92, -1,
      94, 92, 90, -1,
      90, 92, 91, -1,
      96, 97, 93, -1,
      93, 97, 98, -1,
      93, 98, 86, -1,
      86, 98, 99, -1,
      86, 99, 100, -1,
      100, 101, 86, -1,
      86, 101, 95, -1,
      86, 95, 87, -1,
      87, 95, 89, -1,
      87, 89, 88, -1,
      94, 95, 102, -1,
      102, 95, 103, -1,
      96, 94, 104, -1,
      104, 94, 102, -1,
      96, 104, 105, -1,
      96, 105, 97, -1,
      97, 105, 106, -1,
      97, 106, 98, -1,
      99, 98, 107, -1,
      107, 98, 106, -1,
      99, 107, 108, -1,
      99, 108, 100, -1,
      100, 108, 109, -1,
      100, 109, 101, -1,
      95, 101, 103, -1,
      103, 101, 109, -1,
      110, 111, 64, -1,
      64, 111, 65, -1,
      111, 112, 65, -1,
      65, 112, 66, -1,
      112, 113, 66, -1,
      66, 113, 67, -1,
      114, 77, 76, -1,
      114, 76, 115, -1,
      115, 76, 70, -1,
      115, 70, 116, -1,
      116, 70, 69, -1,
      116, 69, 117, -1,
      117, 69, 68, -1,
      117, 68, 118, -1,
      118, 68, 75, -1,
      118, 75, 119, -1,
      119, 75, 74, -1,
      119, 74, 120, -1,
      120, 74, 73, -1,
      120, 73, 121, -1,
      121, 73, 67, -1,
      121, 67, 113, -1,
      110, 64, 63, -1,
      110, 63, 122, -1,
      122, 63, 60, -1,
      122, 60, 123, -1,
      123, 60, 59, -1,
      123, 59, 124, -1,
      124, 59, 58, -1,
      124, 58, 125, -1,
      125, 58, 57, -1,
      125, 57, 126, -1,
      126, 57, 78, -1,
      126, 78, 127, -1,
      127, 78, 77, -1,
      127, 77, 114, -1,
      116, 117, 128, -1,
      128, 117, 118, -1,
      128, 118, 129, -1,
      129, 118, 119, -1,
      129, 119, 130, -1,
      130, 119, 120, -1,
      130, 120, 131, -1,
      131, 120, 121, -1,
      131, 121, 132, -1,
      132, 121, 113, -1,
      132, 113, 133, -1,
      133, 113, 112, -1,
      133, 112, 134, -1,
      134, 112, 111, -1,
      134, 111, 135, -1,
      135, 111, 110, -1,
      135, 110, 136, -1,
      136, 110, 122, -1,
      136, 122, 137, -1,
      137, 122, 123, -1,
      137, 123, 138, -1,
      138, 123, 124, -1,
      138, 124, 139, -1,
      139, 124, 125, -1,
      139, 125, 140, -1,
      140, 125, 126, -1,
      140, 126, 141, -1,
      141, 126, 127, -1,
      141, 127, 142, -1,
      142, 127, 114, -1,
      142, 114, 143, -1,
      143, 114, 115, -1,
      143, 115, 144, -1,
      144, 115, 116, -1,
      144, 116, 128, -1,
      132, 133, 145, -1,
      145, 133, 146, -1,
      132, 145, 147, -1,
      132, 147, 131, -1,
      131, 147, 148, -1,
      131, 148, 130, -1,
      130, 148, 149, -1,
      130, 149, 129, -1,
      129, 149, 150, -1,
      129, 150, 128, -1,
      128, 150, 151, -1,
      128, 151, 144, -1,
      144, 151, 152, -1,
      144, 152, 143, -1,
      143, 152, 153, -1,
      143, 153, 142, -1,
      142, 153, 154, -1,
      142, 154, 141, -1,
      141, 154, 155, -1,
      141, 155, 140, -1,
      140, 155, 156, -1,
      140, 156, 139, -1,
      139, 156, 157, -1,
      139, 157, 138, -1,
      138, 157, 158, -1,
      138, 158, 137, -1,
      137, 158, 159, -1,
      137, 159, 136, -1,
      136, 159, 160, -1,
      136, 160, 135, -1,
      134, 135, 161, -1,
      161, 135, 160, -1,
      133, 134, 146, -1,
      146, 134, 161, -1,
      162, 163, 2, -1,
      2, 163, 0, -1,
      163, 164, 0, -1,
      0, 164, 1, -1,
      164, 165, 1, -1,
      1, 165, 7, -1,
      165, 166, 7, -1,
      7, 166, 4, -1,
      166, 167, 4, -1,
      4, 167, 3, -1,
      167, 168, 3, -1,
      3, 168, 13, -1,
      168, 169, 13, -1,
      13, 169, 12, -1,
      169, 170, 12, -1,
      12, 170, 11, -1,
      170, 171, 11, -1,
      11, 171, 10, -1,
      171, 172, 10, -1,
      10, 172, 8, -1,
      172, 173, 8, -1,
      8, 173, 9, -1,
      173, 162, 9, -1,
      9, 162, 2, -1,
      164, 163, 162, -1,
      162, 173, 164, -1,
      164, 173, 172, -1,
      164, 172, 165, -1,
      167, 166, 168, -1,
      168, 166, 165, -1,
      168, 165, 169, -1,
      169, 165, 172, -1,
      169, 172, 170, -1,
      170, 172, 171, -1,
      174, 175, 6, -1,
      6, 175, 5, -1,
      5, 175, 176, -1,
      177, 84, 83, -1,
      177, 83, 178, -1,
      178, 83, 82, -1,
      178, 82, 176, -1,
      176, 82, 81, -1,
      176, 81, 5, -1,
      84, 177, 34, -1,
      34, 177, 179, -1,
      34, 179, 36, -1,
      36, 179, 180, -1,
      36, 180, 37, -1,
      37, 180, 181, -1,
      37, 181, 38, -1,
      38, 181, 182, -1,
      38, 182, 39, -1,
      39, 182, 183, -1,
      39, 183, 41, -1,
      41, 183, 184, -1,
      41, 184, 54, -1,
      54, 184, 185, -1,
      54, 185, 53, -1,
      186, 45, 44, -1,
      186, 44, 187, -1,
      187, 44, 43, -1,
      187, 43, 188, -1,
      188, 43, 30, -1,
      188, 30, 189, -1,
      189, 30, 15, -1,
      189, 15, 190, -1,
      190, 15, 14, -1,
      190, 14, 191, -1,
      191, 14, 51, -1,
      191, 51, 192, -1,
      192, 51, 53, -1,
      192, 53, 185, -1,
      193, 47, 46, -1,
      193, 46, 194, -1,
      194, 46, 45, -1,
      194, 45, 186, -1,
      193, 195, 47, -1,
      47, 195, 48, -1,
      196, 50, 49, -1,
      196, 49, 197, -1,
      197, 49, 48, -1,
      197, 48, 195, -1,
      198, 21, 32, -1,
      198, 32, 199, -1,
      199, 32, 31, -1,
      199, 31, 200, -1,
      200, 31, 20, -1,
      200, 20, 201, -1,
      201, 20, 19, -1,
      201, 19, 202, -1,
      202, 19, 17, -1,
      202, 17, 203, -1,
      203, 17, 16, -1,
      203, 16, 204, -1,
      204, 16, 50, -1,
      204, 50, 196, -1,
      205, 25, 24, -1,
      205, 24, 206, -1,
      206, 24, 26, -1,
      206, 26, 207, -1,
      207, 26, 27, -1,
      207, 27, 208, -1,
      208, 27, 28, -1,
      208, 28, 209, -1,
      209, 28, 23, -1,
      209, 23, 210, -1,
      210, 23, 22, -1,
      210, 22, 211, -1,
      211, 22, 21, -1,
      211, 21, 198, -1,
      174, 6, 18, -1,
      174, 18, 212, -1,
      212, 18, 29, -1,
      212, 29, 213, -1,
      213, 29, 25, -1,
      213, 25, 205, -1,
      206, 177, 205, -1,
      205, 177, 178, -1,
      205, 178, 213, -1,
      213, 178, 176, -1,
      213, 176, 212, -1,
      212, 176, 175, -1,
      212, 175, 174, -1,
      195, 193, 197, -1,
      197, 193, 194, -1,
      197, 194, 196, -1,
      196, 194, 186, -1,
      196, 186, 204, -1,
      204, 186, 187, -1,
      204, 187, 203, -1,
      203, 187, 188, -1,
      203, 188, 202, -1,
      202, 188, 189, -1,
      202, 189, 201, -1,
      201, 189, 190, -1,
      201, 190, 200, -1,
      200, 190, 191, -1,
      200, 191, 199, -1,
      199, 191, 192, -1,
      199, 192, 198, -1,
      198, 192, 185, -1,
      198, 185, 211, -1,
      211, 185, 184, -1,
      211, 184, 210, -1,
      210, 184, 183, -1,
      210, 183, 209, -1,
      209, 183, 182, -1,
      209, 182, 208, -1,
      208, 182, 181, -1,
      208, 181, 207, -1,
      207, 181, 180, -1,
      207, 180, 206, -1,
      206, 180, 179, -1,
      206, 179, 177, -1,
      214, 215, 40, -1,
      40, 215, 35, -1,
      215, 216, 35, -1,
      35, 216, 33, -1,
      216, 217, 33, -1,
      33, 217, 85, -1,
      217, 218, 85, -1,
      85, 218, 52, -1,
      218, 219, 52, -1,
      52, 219, 42, -1,
      219, 214, 42, -1,
      42, 214, 40, -1,
      218, 217, 219, -1,
      219, 217, 216, -1,
      219, 216, 214, -1,
      214, 216, 215, -1,
    ]
  }
}

Shape {
  appearance Appearance {
    material Material {
      diffuseColor 0.5020 0.5020 0.5020
      specularColor 0.2510 0.2510 0.2510
      ambientIntensity 0.2
      transparency 0.0000
      shininess 0.5
    }
  }
  geometry IndexedFaceSet {
    ccw TRUE
    solid FALSE
    coord DEF co Coordinate {
      point [
        -0.116257 -0.006728 0.000000,
        -0.142589 -0.006728 0.000000,
        -0.128005 0.026160 0.000000,
        -0.128763 0.028891 -0.000000,
        -0.129265 0.031681 0.000000,
        -0.129520 0.031681 0.000000,
        -0.130034 0.028899 0.000000,
        -0.130735 0.026160 0.000000,
        -0.047599 0.032642 0.000000,
        -0.035986 0.032642 0.000000,
        -0.056898 0.031656 -0.000000,
        -0.063401 0.029385 -0.000000,
        -0.069156 0.025672 -0.000000,
        -0.072983 0.021615 0.000000,
        -0.075722 0.016763 -0.000000,
        -0.077568 0.010515 0.000000,
        -0.078237 0.002679 -0.000000,
        -0.077516 -0.005581 0.000000,
        -0.075208 -0.012985 0.000000,
        -0.071888 -0.018416 0.000000,
        -0.067473 -0.022779 0.000000,
        -0.062105 -0.025969 0.000000,
        -0.055471 -0.028041 -0.000000,
        -0.047164 -0.028814 0.000000,
        -0.035986 -0.028814 0.000000,
      ]
    }
    coordIndex [
      0, 1, 2, -1,
      2, 1, 7, -1,
      2, 7, 3, -1,
      3, 7, 6, -1,
      3, 6, 4, -1,
      4, 6, 5, -1,
      9, 24, 8, -1,
      8, 24, 23, -1,
      8, 23, 22, -1,
      16, 15, 8, -1,
      8, 15, 14, -1,
      8, 14, 10, -1,
      22, 21, 8, -1,
      8, 21, 20, -1,
      8, 20, 19, -1,
      19, 18, 8, -1,
      8, 18, 17, -1,
      8, 17, 16, -1,
      13, 12, 14, -1,
      14, 12, 11, -1,
      14, 11, 10, -1,
    ]
  }
}
